<?xml version="1.0" encoding="UTF-8" standalone="no"?>
<!-- Created with Inkscape (http://www.inkscape.org/) -->

<svg
   xmlns:dc="http://purl.org/dc/elements/1.1/"
   xmlns:cc="http://creativecommons.org/ns#"
   xmlns:rdf="http://www.w3.org/1999/02/22-rdf-syntax-ns#"
   xmlns:svg="http://www.w3.org/2000/svg"
   xmlns="http://www.w3.org/2000/svg"
   xmlns:inkscape="http://www.inkscape.org/namespaces/inkscape"
   version="1.1"
   width="12.9"
   height="12.9"
   id="svg2"
   xml:space="preserve"><metadata
     id="metadata8"><rdf:RDF><cc:Work
         rdf:about=""><dc:format>image/svg+xml</dc:format><dc:type
           rdf:resource="http://purl.org/dc/dcmitype/StillImage" /></cc:Work></rdf:RDF></metadata><defs
     id="defs6" /><g
     transform="matrix(1.25,0,0,-1.25,0,12.9)"
     id="g10"><g
       transform="scale(0.1,0.1)"
       id="g12"><path
         d="m 51.3086,74.5508 21.543,-36.5664 -41.9532,0"
         inkscape:connector-curvature="0"
         id="path14"
         style="fill:none;stroke:#231f20;stroke-width:3.68504;stroke-linecap:butt;stroke-linejoin:miter;stroke-miterlimit:10;stroke-opacity:1;stroke-dasharray:none" /><path
         d="m 74.2695,60.6602 c 0,1.875 -1.5273,3.4023 -3.4023,3.4023 -1.875,0 -3.4024,-1.5273 -3.4024,-3.4023 0,-1.875 1.5274,-3.3985 3.4024,-3.3985 1.875,0 3.4023,1.5235 3.4023,3.3985"
         inkscape:connector-curvature="0"
         id="path16"
         style="fill:#231f20;fill-opacity:1;fill-rule:evenodd;stroke:none" /><path
         d="m 54.9922,51.5898 c 0,1.875 -1.5274,3.4024 -3.4024,3.4024 -1.875,0 -3.4023,-1.5274 -3.4023,-3.4024 0,-1.875 1.5273,-3.4023 3.4023,-3.4023 1.875,0 3.4024,1.5273 3.4024,3.4023"
         inkscape:connector-curvature="0"
         id="path18"
         style="fill:#231f20;fill-opacity:1;fill-rule:evenodd;stroke:none" /><path
         d="m 65.1953,49.8906 c 1.7031,-0.8515 3.4024,-1.1328 5.3867,-1.1328 7.086,0 12.7578,5.3828 12.7578,11.9024 0,7.0859 -5.6718,12.7578 -12.7578,12.7578 -5.9531,0 -10.7695,-4.5352 -11.9062,-10.4883"
         inkscape:connector-curvature="0"
         id="path20"
         style="fill:none;stroke:#231f20;stroke-width:3.68504;stroke-linecap:butt;stroke-linejoin:bevel;stroke-miterlimit:10;stroke-opacity:1;stroke-dasharray:none" /></g></g></svg>