<?xml version="1.0" encoding="UTF-8" standalone="no"?>
<!-- Created with Inkscape (http://www.inkscape.org/) -->

<svg
   xmlns:dc="http://purl.org/dc/elements/1.1/"
   xmlns:cc="http://creativecommons.org/ns#"
   xmlns:rdf="http://www.w3.org/1999/02/22-rdf-syntax-ns#"
   xmlns:svg="http://www.w3.org/2000/svg"
   xmlns="http://www.w3.org/2000/svg"
   xmlns:sodipodi="http://sodipodi.sourceforge.net/DTD/sodipodi-0.dtd"
   xmlns:inkscape="http://www.inkscape.org/namespaces/inkscape"
   width="40mm"
   height="40mm"
   viewBox="0 0 40 40"
   version="1.1"
   id="svg8"
   inkscape:version="0.92.2 (5c3e80d, 2017-08-06)"
   sodipodi:docname="university.svg">
  <defs
     id="defs2" />
  <sodipodi:namedview
     id="base"
     pagecolor="#ffffff"
     bordercolor="#666666"
     borderopacity="1.0"
     inkscape:pageopacity="0.0"
     inkscape:pageshadow="2"
     inkscape:zoom="2.3764706"
     inkscape:cx="55.714286"
     inkscape:cy="44.285714"
     inkscape:document-units="mm"
     inkscape:current-layer="g47"
     showgrid="false"
     inkscape:window-width="1920"
     inkscape:window-height="1001"
     inkscape:window-x="-9"
     inkscape:window-y="-9"
     inkscape:window-maximized="1" />
  <metadata
     id="metadata5">
    <rdf:RDF>
      <cc:Work
         rdf:about="">
        <dc:format>image/svg+xml</dc:format>
        <dc:type
           rdf:resource="http://purl.org/dc/dcmitype/StillImage" />
        <dc:title></dc:title>
      </cc:Work>
    </rdf:RDF>
  </metadata>
  <g
     inkscape:label="Camada 1"
     inkscape:groupmode="layer"
     id="layer1"
     transform="translate(0,-257)">
    <g
       id="g47"
       transform="translate(297.08929,33.261905)">
      <path
         style="fill:#000000;stroke-width:0.06462254"
         d="m -292.73837,259.36642 c -0.1581,-0.0692 -0.45564,-0.23105 -0.66117,-0.35958 -0.39242,-0.2454 -1.43735,-1.09611 -1.43735,-1.17017 0,-0.0237 0.18069,-0.32767 0.40152,-0.67539 0.94098,-1.48167 1.87799,-3.55566 2.3024,-5.09615 0.19441,-0.70567 0.51394,-2.35308 0.51504,-2.6555 4.4e-4,-0.13571 -0.0849,-0.27927 -0.31646,-0.5318 -0.38214,-0.41681 -0.54786,-0.80095 -0.58824,-1.36356 -0.0577,-0.80407 0.20266,-1.46506 0.75198,-1.909 l 0.30327,-0.2451 0.0685,-1.25987 c 0.10073,-1.85207 0.30093,-2.7563 0.85316,-3.85333 0.13484,-0.26787 0.38874,-0.68433 0.56421,-0.92547 0.17547,-0.24114 0.31903,-0.45272 0.31903,-0.47018 0,-0.14303 -0.41112,-0.35024 -1.96766,-0.99171 -0.98592,-0.40631 -1.90219,-0.7981 -2.03615,-0.87065 -0.51039,-0.2764 -0.62174,-0.65134 -0.28873,-0.97224 0.11683,-0.11258 0.7638,-0.42481 1.65294,-0.79771 8.15946,-3.42202 15.57853,-6.50615 15.651,-6.50615 0.0799,0 3.96373,1.63281 13.71299,5.76507 1.7494,0.7415 3.28824,1.4231 3.41965,1.51467 0.4414,0.30762 0.41298,0.68728 -0.0748,0.99979 -0.11068,0.0709 -2.94368,1.28958 -6.29556,2.70817 -3.35189,1.4186 -7.062,2.9914 -8.24472,3.49513 -1.18271,0.50373 -2.23959,0.91587 -2.34861,0.91587 -0.19265,0 -8.80973,-3.55558 -8.81044,-3.63537 -1.7e-4,-0.022 1.1445,-0.6021 2.54375,-1.28922 6.16036,-3.02513 6.49101,-3.1938 6.65898,-3.39711 0.44937,-0.54391 0.31053,-1.46169 -0.27023,-1.78625 -0.18571,-0.10377 -0.3218,-0.1331 -0.46274,-0.0997 -0.10981,0.026 -0.95447,0.42303 -1.87703,0.88224 -0.92255,0.4592 -2.06545,1.02725 -2.53977,1.26232 -7.42087,3.67774 -7.01479,3.44327 -7.65116,4.41795 -0.69273,1.06101 -1.17257,2.93319 -1.17378,4.57968 -4.4e-4,0.45778 0.003,0.46658 0.30387,0.87754 0.34533,0.47124 0.45989,0.8431 0.45378,1.47301 -0.005,0.52206 -0.14894,0.94125 -0.46608,1.35796 -0.22563,0.29647 -0.24202,0.34409 -0.21242,0.6174 0.0795,0.73406 0.16042,3.57825 0.12509,4.3975 -0.11513,2.67002 -0.70275,4.30364 -1.8945,5.26677 -0.54724,0.44226 -0.64926,0.4765 -0.98354,0.33013 z m 14.0824,-5.45349 c -2.60821,-0.2541 -5.33099,-1.18644 -7.4624,-2.55529 -0.59474,-0.38196 -0.70292,-0.48008 -0.84803,-0.76916 -0.0915,-0.18225 -0.16634,-0.37235 -0.16634,-0.42245 0,-0.0501 0.0752,-0.23193 0.16721,-0.40408 0.44615,-0.83518 0.55855,-2.10589 0.27079,-3.06141 -0.0825,-0.27391 -0.26653,-0.6939 -0.40897,-0.9333 l -0.259,-0.43528 v -1.38195 -1.38196 l 0.1755,0.0443 c 0.0965,0.0244 2.53392,1.02996 5.41643,2.23459 l 5.24094,2.19024 0.37605,-0.14559 c 0.20683,-0.0801 2.68996,-1.13057 5.51807,-2.33445 2.82811,-1.20389 5.15014,-2.18888 5.16006,-2.18888 0.01,0 0.0175,1.57709 0.0168,3.50466 -0.002,4.01372 0.0216,3.81715 -0.5285,4.50799 -0.25243,0.31701 -0.45481,0.4689 -1.19505,0.89692 -2.62807,1.51961 -5.23944,2.36966 -8.1066,2.63886 -0.87687,0.0823 -2.50164,0.0805 -3.36693,-0.004 z"
         id="path49"
         inkscape:connector-curvature="0" />
    </g>
  </g>
</svg>
