<svg enable-background="new 0 0 580 580" height="580" viewBox="0 0 580 580" width="580" xmlns="http://www.w3.org/2000/svg">
<path
     d="m 59.773538,486.03922 c -0.933044,-1.03102 -1.332811,-2.94367 -1.332811,-6.37678 0,-5.97686 -0.505726,-7.45181 -2.555099,-7.45181 -3.378359,0 -4.692905,-1.4798 -4.692905,-5.28294 0,-3.19871 0.255371,-3.71485 2.214684,-4.47644 1.375606,-0.53466 3.282572,-0.60339 5.03332,-0.1814 2.606269,0.6282 2.837166,0.93401 3.064141,4.05794 0.243203,3.34679 0.277293,3.38082 3.624018,3.62398 l 3.378512,0.24533 0.232541,7.53047 c 0.150057,4.86016 -0.09892,7.93002 -0.702598,8.65733 -1.368664,1.64909 -6.658813,1.42772 -8.263892,-0.34586 z m 0,-30.60266 c -1.618802,-1.78879 -1.747832,-6.03892 -0.221894,-7.30544 0.769625,-0.63877 5.780662,-0.85466 16.308001,-0.70263 l 15.196995,0.21946 0.250499,3.94876 c 0.165891,2.61376 -0.106529,4.17512 -0.80535,4.61833 -0.580693,0.36826 -7.432273,0.67514 -15.225697,0.68192 -12.714118,0.0122 -14.30677,-0.13909 -15.502675,-1.4604 z m 180.672612,-10.916 c 0,-4.60847 0.69118,-5.28851 5.40466,-5.31761 1.68294,-0.009 1.79342,-0.3977 2.01333,-7.05768 l 0.23255,-7.04665 3.88789,-0.24808 c 5.58664,-0.35639 6.17877,0.43916 6.17877,8.30134 0,7.23906 -0.46408,8.13871 -4.42933,8.58609 -2.011,0.22675 -2.46169,0.6776 -2.68861,2.68859 -0.4134,3.66393 -1.49662,4.42935 -6.26866,4.42935 H 240.446 Z M 60.230597,433.10629 c -2.067767,-1.44832 -2.480992,-6.02885 -0.678832,-7.52453 0.769625,-0.63874 5.780661,-0.85464 16.308008,-0.7026 l 15.196988,0.21946 0.239853,4.12402 c 0.301943,5.19323 0.56176,5.11188 -16.368604,5.12633 -10.391898,0.009 -13.256341,-0.23346 -14.697357,-1.24268 z M 172.79811,422.72471 v -3.66611 h -3.06025 c -3.83406,0 -4.99308,-1.13612 -4.99308,-4.89446 0,-3.78421 1.43414,-4.93005 5.77917,-4.61742 3.47557,0.2502 3.48263,0.2569 3.72982,3.6732 0.23559,3.25721 0.37192,3.42328 2.81866,3.435 4.00671,0.0183 4.7136,0.86456 4.4322,5.30026 l -0.2505,3.94876 -4.228,0.24351 -4.22802,0.2435 z m 52.67044,2.45858 c -0.23711,-0.61783 -0.31631,-2.5204 -0.17593,-4.22799 0.24107,-2.93475 0.44235,-3.14623 3.67765,-3.86335 3.12977,-0.69377 3.42267,-0.97288 3.42267,-3.26162 0,-3.29045 1.2772,-4.43573 4.94675,-4.43573 2.97012,0 3.01757,-0.0499 3.26163,-3.42265 l 0.24776,-3.42267 3.88789,-0.24806 c 4.65918,-0.29708 6.17878,0.75409 6.17878,4.27468 0,3.05645 -1.08977,4.18197 -4.41452,4.5594 -1.86739,0.21185 -2.55967,0.80971 -3.11416,2.68861 -1.24301,4.21213 -1.82711,4.82615 -4.83424,5.08195 -2.72489,0.23163 -2.93844,0.43955 -2.93844,2.85894 0,1.43492 -0.43487,3.04387 -0.9664,3.57537 -1.38279,1.38282 -8.63594,1.25885 -9.1792,-0.15676 z m 158.52246,0.19116 c -0.55044,-0.55042 -1.00079,-2.19667 -1.00079,-3.65836 0,-2.31604 -0.26536,-2.65761 -2.06624,-2.65761 -4.53451,0 -5.18176,-1.05967 -5.18176,-8.48433 v -6.817 h -3.12268 c -3.76784,0 -5.12684,-1.41326 -4.78425,-4.97513 0.33542,-3.48671 3.44377,-5.14067 7.75601,-4.12697 2.7755,0.65249 2.98561,0.91722 3.21505,4.05063 0.24289,3.31621 0.28219,3.35517 3.62408,3.598 l 3.37846,0.24533 0.23258,7.04665 0.2325,7.04666 2.98867,0.0122 c 4.44722,0.0183 5.13707,0.77227 4.84981,5.30026 l -0.25046,3.94875 -4.4353,0.23559 c -2.75472,0.14641 -4.81444,-0.14336 -5.436,-0.76508 z m -316.950229,-7.7675 c -1.740737,-1.92348 -1.719404,-4.36213 0.05726,-6.54132 1.337498,-1.6405 1.983996,-1.71687 12.684015,-1.49855 l 11.274682,0.23011 v 4.42931 4.42934 l -11.331998,0.2225 c -10.181722,0.19998 -11.469185,0.0709 -12.683982,-1.27144 z m 136.621359,0.82475 c -0.52067,-0.33117 -1.06429,-2.047 -1.20801,-3.813 l -0.26146,-3.21089 -7.24801,-0.40266 -7.248,-0.40267 -0.24533,-3.37853 c -0.2432,-3.34676 -0.27729,-3.38082 -3.62402,-3.62399 l -3.3785,-0.24563 -0.24198,-4.18389 -0.24199,-4.18392 2.92085,-0.54794 c 1.6647,-0.31229 3.76023,-0.16558 4.87255,0.3413 1.59442,0.72645 1.9517,1.48214 1.9517,4.12785 v 3.23859 h 7.16186 c 7.78569,0 8.1395,0.21276 8.1395,4.89787 0,2.05975 0.29037,2.35013 2.35014,2.35013 4.11762,0 4.89787,0.69368 4.89787,4.35443 0,1.85722 -0.4349,3.81167 -0.9664,4.34318 -1.06466,1.06465 -6.13618,1.29037 -7.63095,0.33962 z m 6.67017,-15.94841 c -0.26876,-0.70065 -0.48883,-2.33145 -0.48883,-3.62401 0,-2.05973 -0.29038,-2.35014 -2.35013,-2.35014 -4.1596,0 -4.89787,-0.68065 -4.89787,-4.51548 v -3.53785 h -3.62402 -3.62398 v -4.42934 -4.42934 h 4.34317 c 4.69783,0 5.32083,0.56803 5.32083,4.85158 0,2.13463 0.25142,2.32201 3.42267,2.55145 3.38806,0.24502 3.42511,0.28124 3.66539,3.56983 0.23589,3.22821 0.33597,3.33468 3.53872,3.76428 1.81282,0.2432 3.60065,0.92257 3.97296,1.5098 1.00466,1.58469 0.84249,5.83937 -0.26481,6.94668 -1.48411,1.48411 -8.41736,1.24764 -9.0141,-0.30746 z m 188.96592,0.75894 c -0.55818,-0.23559 -1.00659,-1.81002 -1.00659,-3.53474 v -3.11011 l -3.82541,-0.24533 -3.82534,-0.24532 v -4.42935 -4.42934 l 3.55942,-0.25446 c 6.05893,-0.43292 7.31259,0.21885 7.31259,3.80223 0,3.07896 0.0419,3.12082 3.66419,3.66402 l 3.66418,0.54946 -0.24135,4.17266 -0.24144,4.17263 -4.02667,0.15614 c -2.21459,0.0858 -4.47959,-0.035 -5.03334,-0.26846 z M 59.850061,395.63929 c -2.06904,-1.2051 -1.940138,-6.84272 0.182625,-7.97873 0.998936,-0.5346 7.072989,-0.77013 16.308001,-0.63234 l 14.716227,0.21946 0.250507,3.94876 c 0.165883,2.61375 -0.106537,4.17512 -0.805358,4.61832 -1.527428,0.96869 -28.957073,0.81153 -30.651849,-0.17562 z m 279.450809,0 c -1.65513,-0.96403 -1.95785,-6.31286 -0.44286,-7.82775 0.53144,-0.53151 2.16224,-0.9664 3.62392,-0.9664 2.46972,0 2.65769,-0.18781 2.65769,-2.65759 0,-3.35665 1.22958,-4.59042 4.57502,-4.59042 2.69424,0 2.91692,-0.31533 3.64824,-5.16791 0.29886,-1.98281 3.94815,-3.19862 7.5645,-2.52016 l 2.81601,0.52828 -0.242,4.18388 -0.24201,4.18393 -3.37853,0.24563 c -3.34673,0.2432 -3.38079,0.27729 -3.624,3.62399 -0.24378,3.35446 -0.26995,3.3803 -3.66814,3.62618 -3.40044,0.24593 -3.42267,0.26815 -3.42267,3.3943 0,2.28682 -0.4257,3.37452 -1.55767,3.98038 -1.97259,1.05568 -6.46667,1.0361 -8.30766,-0.0362 z m -121.40406,-10.8075 v -3.62398 h -3.53785 c -3.88133,0 -4.51548,-0.72177 -4.51548,-5.13949 0,-3.34739 1.25316,-4.52744 4.79174,-4.51219 3.91238,0.0183 5.01411,0.90887 5.6008,4.53444 l 0.50222,3.1039 6.39313,0.23802 c 3.51624,0.13088 6.8633,0.62836 7.43797,1.10529 1.31314,1.0898 1.36477,5.66515 0.0785,6.95151 -0.62017,0.62017 -3.79402,0.9664 -8.85868,0.9664 h -7.89226 v -3.62402 z m 105.19599,2.386 c -0.81782,-2.13126 -0.57501,-5.61547 0.46379,-6.65426 0.53152,-0.5315 2.12004,-0.9664 3.5301,-0.9664 2.65406,0 3.52004,-1.30465 3.54589,-5.34208 0.0121,-1.75851 1.86708,-2.67853 5.44695,-2.70026 1.51089,-0.009 1.81208,-0.4527 1.81208,-2.6686 0,-3.57933 1.24159,-4.59039 5.63726,-4.59039 4.49682,0 5.63734,1.00444 5.63734,4.96475 0,3.41502 -1.51339,4.69926 -5.53804,4.69926 -2.27443,0 -2.43783,0.20941 -2.67033,3.42266 -0.24587,3.39826 -0.2718,3.42441 -3.62618,3.66816 -3.34672,0.2432 -3.38079,0.27729 -3.62392,3.62399 l -0.24538,3.37853 -4.9334,0.23711 c -3.95813,0.19024 -5.03277,-0.0213 -5.436,-1.07253 z M 97.669832,380.70708 c -0.315216,-0.31519 -0.573084,-1.96224 -0.573084,-3.66018 0,-3.06016 -0.02738,-3.08709 -3.192987,-3.08709 -4.133392,0 -4.860342,-1.37729 -4.860342,-9.20842 v -6.09292 h -3.188993 c -3.022419,0 -3.239408,-0.16832 -4.153486,-3.21913 -0.849185,-2.83428 -0.785909,-3.41646 0.529192,-4.86966 1.169232,-1.29195 2.29017,-1.59858 5.160154,-1.41151 3.238126,0.21093 3.692801,0.47419 3.891928,2.2523 0.591164,5.27914 0.853783,5.63733 4.133062,5.63733 3.803112,0 4.097472,0.61222 4.097472,8.52185 v 5.97415 h 2.720072 c 3.54421,0 4.68338,1.50451 4.37583,5.77914 l -0.2505,3.48221 -4.0576,0.23741 c -2.23167,0.13058 -4.31547,-0.0213 -4.630654,-0.33557 z m 210.961268,-0.0362 c -0.29524,-0.29525 -0.53692,-2.24622 -0.53692,-4.33541 0,-4.01611 0.83248,-4.75247 5.40468,-4.78071 1.68291,-0.009 1.7934,-0.3977 2.01333,-7.05768 l 0.23258,-7.04666 4.2934,-0.24563 c 6.04548,-0.34596 6.57861,0.33225 6.57861,8.3693 0,7.44132 -0.62897,8.38574 -5.58443,8.38574 -2.33224,0 -2.46891,0.17349 -2.46891,3.13516 0,2.11597 -0.4141,3.2941 -1.27387,3.62401 -1.71464,0.65795 -7.98739,0.62315 -8.65863,-0.0481 z m 113.21148,-0.39423 c -0.55093,-0.55092 -1.00167,-2.19761 -1.00167,-3.65929 0,-2.31604 -0.26568,-2.6576 -2.06625,-2.6576 -3.53147,0 -5.18176,-1.39225 -5.18176,-4.3715 0,-2.82055 -1.01383,-3.68182 -4.33406,-3.68182 -2.48623,0 -3.71919,-1.4892 -3.71919,-4.49179 0,-3.52952 1.51588,-4.49963 6.57861,-4.20993 l 4.29331,0.24564 0.24539,3.3785 c 0.24313,3.34679 0.27727,3.38086 3.624,3.62402 3.35438,0.24381 3.38023,0.26999 3.6261,3.66816 0.23564,3.25718 0.37198,3.42325 2.81866,3.435 4.00678,0.0183 4.71362,0.86452 4.43224,5.30025 l -0.25054,3.94876 -4.03166,0.2365 c -2.43992,0.14336 -4.42708,-0.15889 -5.03326,-0.76505 z m 22.55434,-0.63856 c -0.55367,-0.89639 -1.00667,-2.54073 -1.00667,-3.65405 0,-1.63616 -0.39614,-2.02428 -2.06624,-2.02428 -3.56264,0 -5.18176,-1.38811 -5.18176,-4.44233 0,-2.84484 -0.27607,-3.04618 -5.18377,-3.7822 -1.99844,-0.29981 -3.28576,-4.79432 -2.03991,-7.1222 0.75347,-1.40794 1.53392,-1.60843 5.4608,-1.40267 l 4.58155,0.24015 0.24562,3.37851 c 0.24322,3.34679 0.27728,3.38085 3.62401,3.62401 3.35445,0.24381 3.3803,0.26999 3.62617,3.66815 0.23556,3.25719 0.37199,3.42326 2.81867,3.43501 4.0067,0.0183 4.71362,0.86452 4.43224,5.30026 l -0.25054,3.94875 -4.02667,0.23133 c -3.32281,0.19085 -4.20264,-0.0535 -5.03334,-1.39841 z M 120.21916,365.40569 c -0.31518,-0.31519 -0.57305,-1.94142 -0.57305,-3.61389 0,-3.00168 -0.0441,-3.04399 -3.42267,-3.28843 -3.40605,-0.24655 -3.42389,-0.2642 -3.67031,-3.67032 l -0.24776,-3.42264 h -6.33049 c -8.56745,0 -8.878253,-0.17106 -8.878253,-4.88983 0,-4.7946 1.16072,-5.61301 7.799083,-5.49923 7.49013,0.12844 8.64598,0.68415 9.11293,4.38176 0.37499,2.96945 0.5964,3.20556 3.22135,3.43503 3.3709,0.29464 4.832,1.9573 4.832,5.49853 0,2.50479 0.14854,2.62919 3.42265,2.86609 l 3.42266,0.24776 v 4.02668 4.02665 l -4.0576,0.23741 c -2.23167,0.13058 -4.31547,-0.0213 -4.63066,-0.33554 z m 172.89743,-0.62261 c -0.23709,-0.6178 -0.31626,-2.5204 -0.17589,-4.228 0.24893,-3.03023 0.33703,-3.11062 3.67764,-3.35232 l 3.42267,-0.24777 v -6.70039 c 0,-7.6633 0.63267,-8.66803 5.539,-8.79669 4.94193,-0.12966 5.73567,1.07185 5.73567,8.6819 0,7.38717 -0.60964,8.51849 -4.5904,8.51849 -2.46972,0 -2.6576,0.18779 -2.6576,2.65758 0,1.46168 -0.43488,3.09248 -0.9664,3.62402 -1.39146,1.3914 -9.43892,1.26493 -9.98453,-0.15707 z m 166.8087,0.15919 c -0.19755,-0.57701 -0.46525,-2.13628 -0.59507,-3.46507 -0.20664,-2.11756 -0.5837,-2.449 -3.05132,-2.68316 -3.74875,-0.35566 -4.83531,-1.40361 -4.83531,-4.66346 0,-2.55297 -0.16711,-2.72005 -2.72001,-2.72005 -3.08822,0 -4.33487,-1.13819 -4.93565,-4.50611 -0.57469,-3.22226 1.33983,-5.48005 4.64701,-5.48005 3.93076,0 5.42465,0.83987 5.42465,3.04966 0,3.46495 0.82877,4.5205 3.54911,4.5205 3.35864,0 4.50423,1.25815 4.50423,4.94676 0,2.97008 0.0499,3.01757 3.42267,3.26159 l 3.42267,0.24776 v 4.02668 4.02665 l -4.23694,0.24381 c -2.93843,0.16892 -4.34712,-0.078 -4.59604,-0.80533 z m -204.4943,-7.55762 c -0.82003,-2.13694 -0.54575,-6.4004 0.47757,-7.42372 0.53153,-0.53153 2.16233,-0.9664 3.62402,-0.9664 1.46168,0 2.71054,-0.0907 2.77528,-0.20119 0.0648,-0.11079 0.33652,-5.09374 0.60398,-11.07334 l 0.48634,-10.87202 2.88273,-0.71249 c 2.25845,-0.5582 3.3485,-0.40735 5.03334,0.69663 2.12061,1.38949 2.15059,1.53601 2.15059,10.51197 0,10.1908 0.31351,11.65059 2.50216,11.65059 1.19488,0 1.5245,-0.58815 1.5245,-2.72007 0,-3.04251 0.90262,-4.03944 4.42128,-4.88341 2.82793,-0.67831 3.60291,-1.67204 3.61974,-4.64137 0.009,-1.84177 0.441,-2.25861 2.78782,-2.69886 1.52643,-0.28643 3.79143,-0.18202 5.03334,0.23193 2.06544,0.68848 2.25783,1.09013 2.25783,4.71217 v 3.95956 l -3.22133,0.40266 c -3.00688,0.37588 -3.23769,0.59029 -3.46769,3.22136 -0.28404,3.24762 -1.94681,4.832 -5.07143,4.832 -1.92926,0 -2.25646,0.38559 -2.73596,3.22385 -0.61036,3.61242 -1.9448,4.31913 -7.32436,3.87884 -3.07677,-0.25171 -3.14992,-0.33116 -3.39221,-3.68005 -0.21884,-3.02487 -0.47626,-3.42264 -2.21465,-3.42264 -1.70735,0 -1.96704,0.36836 -1.96704,2.79033 0,3.38173 -1.61866,4.45768 -6.70624,4.45768 -2.53139,0 -3.735,-0.37585 -4.07961,-1.27389 z m -112.26914,-6.94052 c -0.53154,-0.53153 -0.9664,-2.15542 -0.9664,-3.60867 0,-2.701 -0.3192,-2.92389 -5.23466,-3.65519 -1.26741,-0.18871 -1.66301,-0.95822 -1.85616,-3.61124 -0.2432,-3.3386 -0.27851,-3.37397 -3.62402,-3.61704 l -3.37851,-0.24563 -0.24807,-3.88791 c -0.29707,-4.65918 0.75407,-6.17876 4.27469,-6.17876 3.16197,0 4.21156,1.11177 4.56485,4.83523 0.24411,2.57315 0.50971,2.83665 3.08582,3.06186 3.26945,0.28581 4.832,1.94866 4.832,5.14216 0,1.89147 0.33852,2.26208 2.06627,2.26208 3.81489,0 5.18174,1.34577 5.18174,5.10196 0,4.19256 -1.05766,5.3674 -4.83201,5.3674 -1.59457,0 -3.33409,-0.4349 -3.8656,-0.9664 z m 332.64309,0.43304 c -0.55746,-0.22494 -1.00667,-1.77178 -1.00667,-3.4665 0,-3.20322 -1.08293,-4.01566 -5.38857,-4.04251 -1.43067,-0.009 -1.89213,-0.65879 -2.43807,-3.43366 -0.63734,-3.23889 -0.84527,-3.44428 -3.87277,-3.82533 -3.16625,-0.39849 -3.20176,-0.44111 -3.4407,-4.13032 -0.36184,-5.58579 2.24076,-7.52925 7.43709,-5.55362 1.74516,0.66354 2.06568,1.2884 2.06568,4.02668 0,3.04433 0.14279,3.24126 2.35021,3.24126 3.54782,0 4.8978,0.78252 4.8978,2.83897 0,3.24411 0.88015,4.35041 3.90313,4.90596 1.61824,0.29738 3.20845,0.94147 3.53388,1.43125 0.94369,1.42029 0.70821,6.51655 -0.35008,7.57478 -0.95359,0.95356 -5.73381,1.22272 -7.69093,0.43304 z M 158.03367,335.57228 c -0.29524,-0.29525 -0.53689,-3.73807 -0.53689,-7.65067 v -7.11377 h -3.62398 -3.62402 v -4.26827 c 0,-4.9252 0.92421,-6.20106 4.49179,-6.20106 3.10003,0 4.15069,1.12833 4.50242,4.83523 0.24412,2.57315 0.50972,2.83662 3.08579,3.06183 4.00568,0.35019 4.83201,1.90687 4.83201,9.10301 0,8.41842 -0.19207,8.77059 -4.78394,8.77059 -2.09346,0 -4.0479,-0.24167 -4.34318,-0.53689 z m 203.37361,-15.73084 c -0.5953,-0.59533 -0.9664,-3.51542 -0.9664,-7.60501 0,-5.94722 0.18627,-6.76916 1.78993,-7.89228 0.98436,-0.68951 2.61516,-1.25364 3.62392,-1.25364 1.42826,0 1.83415,-0.45365 1.83415,-2.04996 0,-1.12745 0.93008,-2.97996 2.06673,-4.11665 1.65415,-1.65417 2.56322,-1.96742 4.55392,-1.56928 3.6786,0.73571 4.6541,1.92199 4.6541,5.66009 0,4.05834 -1.07359,5.29713 -4.59048,5.29713 h -2.65752 v 5.97411 c 0,8.25261 -0.16316,8.52189 -5.15985,8.52189 -2.30012,0 -4.61698,-0.43489 -5.1485,-0.9664 z m -135.72557,-6.8185 c -0.29525,-0.29524 -0.53689,-1.90525 -0.53689,-3.57769 0,-3.00169 -0.0441,-3.04399 -3.42267,-3.28844 l -3.42268,-0.24776 v -4.83201 -4.832 l 3.11952,-0.77035 c 2.7864,-0.68807 3.28085,-0.57104 4.63065,1.09588 0.83114,1.02643 1.51118,2.4784 1.51118,3.22662 0,1.88886 1.59461,3.2932 3.7394,3.2932 3.38783,0 5.43887,5.25192 3.48026,8.91161 -0.64641,1.2078 -1.70165,1.55771 -4.69777,1.55771 -2.12526,0 -4.10573,-0.24167 -4.401,-0.53689 z m 15.30133,0 c -0.29525,-0.29524 -0.53689,-3.52503 -0.53689,-7.1772 v -6.64035 l -3.42268,-0.57207 c -3.99097,-0.66708 -4.60164,-1.36569 -4.61832,-5.28334 -0.0304,-7.05409 9.63091,-7.71927 10.58493,-0.72883 0.19693,1.44199 0.84611,2.0905 2.28807,2.28527 1.10736,0.14945 2.82874,1.02813 3.82533,1.9524 1.57732,1.46275 1.80871,2.4707 1.7864,7.7814 -0.032,7.59654 -0.88742,8.91962 -5.7676,8.91962 -1.98129,0 -3.84393,-0.24168 -4.13924,-0.5369 z m 14.92552,-0.4295 c -0.6536,-0.65363 -0.9664,-4.39267 -0.9664,-11.55252 0,-9.23292 0.1884,-10.75648 1.47276,-11.91893 2.16979,-1.96367 5.97242,-1.68133 8.11822,0.60276 1.72342,1.83448 1.80432,2.46692 1.54971,12.1109 -0.21002,7.95626 -0.53211,10.34152 -1.47669,10.93743 -1.72226,1.08654 -7.55184,0.96612 -8.6976,-0.17959 z m 234.76509,0.46663 c -0.31569,-0.3157 -0.57404,-3.594 -0.57404,-7.28513 v -6.71112 l -2.61733,-0.0122 c -3.66451,-0.0183 -4.78127,-0.96232 -5.35821,-4.53445 -0.46943,-2.90653 -0.70547,-3.12949 -3.71219,-3.50655 l -3.21094,-0.40266 v -5.23467 -5.23466 h 4.42933 4.42934 l 0.24538,3.82533 c 0.23919,3.72729 0.31239,3.82534 2.85894,3.82534 3.31709,0 4.54627,1.24106 4.54627,4.59038 0,2.37583 0.23983,2.65762 2.26202,2.65762 4.50431,0 5.07336,1.19081 4.81606,10.07884 l -0.23283,8.04115 -3.65404,0.23833 c -2.00963,0.13119 -3.91231,-0.0213 -4.228,-0.33555 z m -151.37278,-7.61809 c -1.00619,-0.58605 -1.40926,-1.84012 -1.40926,-4.38414 0,-3.13138 0.28791,-3.71226 2.37598,-4.79201 1.30681,-0.67575 2.93753,-1.22868 3.624,-1.22868 0.79559,0 1.24803,-0.73267 1.24803,-2.02122 0,-2.38633 2.37058,-4.66149 5.45033,-5.23089 1.92975,-0.3568 2.24978,-0.85187 2.60292,-4.02668 l 0.40267,-3.61988 h 4.832 4.83201 v 5.23469 5.23467 l -3.37846,0.24532 c -3.34681,0.24321 -3.38087,0.2773 -3.624,3.62399 -0.23749,3.26778 -0.35773,3.40207 -3.66822,4.09693 -3.03586,0.63725 -3.42266,0.972 -3.42266,2.96249 0,1.23424 -0.56946,2.81354 -1.26551,3.50959 -1.42141,1.42139 -6.4421,1.65241 -8.59983,0.39566 z m 166.12843,-0.68786 c -0.45848,-0.85677 -0.83368,-4.27874 -0.83368,-7.60437 v -6.04663 l -3.42259,-0.24777 -3.42275,-0.24776 v -5.23469 -5.23466 h 4.42934 4.42933 l 0.24539,3.82533 c 0.23918,3.72729 0.31247,3.82533 2.85893,3.82533 4.04785,0 4.54627,1.06764 4.54627,9.73891 0,8.58937 -0.11661,8.78378 -5.2722,8.78378 -1.86942,0 -2.98609,-0.4889 -3.55812,-1.55772 z M 384.29454,289.78374 c -0.71739,-0.71736 -1.30432,-2.3656 -1.30432,-3.66277 0,-2.06895 -0.28855,-2.35847 -2.35012,-2.35847 -4.24339,0 -4.89788,-0.6511 -4.89788,-4.87249 0,-3.1119 0.35982,-4.14688 1.78985,-5.14852 3.82196,-2.67701 8.39271,-1.03328 8.83073,3.17566 0.23073,2.21801 0.54843,2.449 3.87543,2.81866 l 3.624,0.40267 v 5.23469 5.23467 l -4.13169,0.24015 c -2.98021,0.17319 -4.49529,-0.12327 -5.436,-1.0642 z m 136.13934,0.68987 c -0.29524,-0.29525 -0.53692,-3.5569 -0.53692,-7.248 v -6.71112 h -2.6576 c -4.08933,0 -4.5904,-1.05491 -4.5904,-9.664 0,-4.93939 0.34903,-8.08018 0.9664,-8.6976 1.28636,-1.28634 5.8617,-1.23475 6.95156,0.0785 0.47692,0.57466 0.97429,3.92687 1.10524,7.44932 l 0.23805,6.4045 3.05931,0.25234 c 3.82847,0.3157 4.59136,2.01114 4.59136,10.2036 0,8.09058 -0.21397,8.46944 -4.78392,8.46944 -2.09355,0 -4.04793,-0.24168 -4.34325,-0.53689 z m 22.51205,-0.70899 c -0.27486,-0.71596 -0.49963,-2.33854 -0.49963,-3.60563 0,-2.13464 -0.25142,-2.32201 -3.42266,-2.55145 l -3.42267,-0.24777 -0.24563,-4.29337 c -0.29097,-5.08421 0.67962,-6.57865 4.27238,-6.57865 3.06035,0 4.18266,1.09029 4.55939,4.42935 l 0.27269,2.416 7.4855,0.23193 7.48541,0.23194 -0.23741,5.4053 -0.23741,5.40529 -7.75512,0.2292 c -6.53674,0.19328 -7.83365,0.0243 -8.25468,-1.07254 z m -272.16552,-6.53901 c -0.29525,-0.29526 -0.5369,-1.92608 -0.5369,-3.62402 v -3.0871 l -9.06002,-0.0804 c -12.56099,-0.1114 -13.02848,-0.28824 -13.33469,-5.04805 -0.38178,-5.93494 0.0414,-6.14634 12.30184,-6.14634 11.58168,0 12.84463,0.45401 13.4421,4.83201 0.20576,1.50804 0.82617,2.07685 2.47171,2.26645 4.36475,0.50287 7.13204,7.21489 4.18822,10.15869 -1.2738,1.27378 -8.38046,1.82045 -9.47226,0.72865 z m 120.52448,-7.33789 c -0.52065,-0.33117 -1.06425,-2.04704 -1.208,-3.81301 l -0.26141,-3.21089 -6.00401,-0.23984 c -3.30227,-0.1321 -6.47319,-0.62937 -7.04667,-1.10529 -0.57347,-0.47593 -1.04266,-2.43119 -1.04266,-4.34506 0,-4.94654 1.77576,-5.98706 10.21751,-5.98706 7.35254,0 8.30516,0.64053 8.30516,5.5844 v 2.46896 h 6.34402 c 7.52037,0 8.35155,0.63886 7.99737,6.14634 -0.2143,3.32901 -0.52299,3.93143 -2.26138,4.41162 -2.76455,0.76363 -13.8763,0.83004 -15.04001,0.0898 z M 112.935,267.92427 c -0.29524,-0.29525 -0.53689,-7.4708 -0.53689,-15.94561 0,-16.73766 0.15523,-17.35046 4.38904,-17.32918 4.77353,0.0243 4.84807,0.24837 5.13388,15.45984 0.32042,17.05403 -0.0274,18.35185 -4.93945,18.35185 -1.93032,0 -3.7513,-0.24168 -4.04658,-0.5369 z m 22.54934,0 c -0.29525,-0.29525 -0.5369,-7.4708 -0.5369,-15.94561 0,-16.73766 0.15524,-17.35046 4.38907,-17.32918 4.77354,0.0243 4.84805,0.24837 5.13386,15.45984 0.32045,17.05403 -0.0274,18.35185 -4.93945,18.35185 -1.93034,0 -3.75131,-0.24168 -4.04658,-0.5369 z m 22.54933,0 c -0.67106,-0.67109 -0.71428,-22.22374 -0.0481,-23.95994 0.34368,-0.8956 1.5453,-1.27385 4.04662,-1.27385 4.6099,0 5.12856,1.3031 5.12856,12.88532 0,11.55338 -0.52517,12.88537 -5.0805,12.88537 -1.93037,0 -3.75134,-0.24168 -4.04661,-0.5369 z M 74.995731,259.4233 c -2.740495,-3.91263 -0.611466,-9.48482 3.624018,-9.48482 h 2.370347 v -5.19677 c 0,-2.85823 0.424515,-6.12853 0.943384,-7.26733 1.09771,-2.40921 4.029457,-3.38186 7.021706,-2.32953 2.084349,0.73304 2.101575,0.80816 2.101575,9.17207 v 8.43301 l -3.422668,0.72204 c -3.151682,0.66485 -3.422677,0.92336 -3.422677,3.26519 0,3.33066 -1.26597,4.476 -4.947392,4.476 -2.202266,0 -3.352452,-0.48231 -4.268293,-1.78986 z m 23.067418,0.82346 c -0.657789,-0.65779 -0.966401,-4.4971 -0.966401,-12.02248 0,-12.20176 0.492695,-13.58713 4.832002,-13.58713 4.33933,0 4.83201,1.38537 4.83201,13.58713 0,7.52538 -0.30862,11.36469 -0.96641,12.02248 -0.5315,0.5315 -2.27102,0.9664 -3.8656,0.9664 -1.59454,0 -3.334065,-0.4349 -3.865601,-0.9664 z M 255.68535,259.4864 c -1.12571,-2.10344 -0.46387,-7.91332 1.00774,-8.84633 0.58726,-0.37231 5.66204,-0.68248 11.2773,-0.68927 10.12439,-0.0122 10.22377,0.006 11.91005,2.14949 1.26438,1.60736 1.56984,2.79504 1.19117,4.63069 -0.84375,4.0896 -2.04997,4.48218 -13.77237,4.48218 -10.10508,0 -10.74029,-0.0944 -11.61389,-1.72676 z m 145.0223,-6.55062 c -1.3921,-0.70968 -2.13768,-1.88976 -2.41601,-3.82387 -0.38035,-2.64188 -0.60424,-2.81982 -4.02675,-3.20011 l -3.624,-0.40266 -0.24562,-4.29337 c -0.3281,-5.7333 0.67197,-6.85869 5.6681,-6.37862 4.62664,0.44458 4.75976,0.55394 5.38285,4.42177 0.44414,2.75708 0.73937,3.05282 3.29027,3.29574 1.54133,0.14671 3.07178,0.69036 3.40108,1.20799 0.78367,1.23194 0.79938,8.39319 0.0185,8.85225 -1.80041,1.05967 -5.6731,1.22649 -7.44934,0.32088 z M 67.760814,237.3995 c -1.98427,-1.98427 -2.3221,-4.77484 -0.908932,-7.50764 1.012482,-1.95791 1.821157,-2.50272 3.714811,-2.50272 1.595914,0 2.574886,-0.48015 2.873487,-1.40933 1.643823,-5.11553 2.121515,-5.75363 4.487932,-5.99488 2.004782,-0.20423 2.600697,-0.78252 3.491645,-3.3873 1.256136,-3.67256 2.282712,-4.48072 5.713056,-4.49752 3.486128,-0.0183 4.458714,1.51456 4.169615,6.56632 l -0.245635,4.29337 -3.422668,0.24777 c -3.171348,0.2295 -3.422677,0.41681 -3.422677,2.55145 0,3.96772 -0.729956,4.85157 -4.006802,4.85157 -2.942634,0 -3.041891,0.0953 -3.476763,3.33742 -0.246239,1.83555 -0.928139,3.642 -1.515372,4.01431 -1.761346,1.11668 -6.099888,0.78904 -7.451665,-0.5627 z m 180.899736,0.29799 c -1.25294,-1.25297 -1.25294,-8.08894 0,-9.34189 0.65362,-0.65362 4.39266,-0.9664 11.55252,-0.9664 11.97137,0 13.25177,0.5582 13.25177,5.77726 0,4.89679 -1.46311,5.49743 -13.39169,5.49743 -7.05105,0 -10.76028,-0.31412 -11.4126,-0.9664 z m 158.97772,-0.0797 c -0.78681,-0.5753 -1.68436,-2.29671 -1.99457,-3.82536 -0.47306,-2.33105 -0.94909,-2.81985 -2.95139,-3.03075 -2.94309,-0.30992 -4.40067,-2.09385 -4.40067,-5.38585 0,-4.1425 1.47038,-5.37484 6.06666,-5.08461 l 3.99994,0.25263 0.40266,3.22133 0.40267,3.22136 6.40458,0.23802 c 3.52245,0.13088 6.87465,0.62836 7.44933,1.10526 1.31721,1.09323 1.37568,8.07028 0.0781,9.36754 -1.34603,1.34596 -13.59427,1.28289 -15.45765,-0.0797 z m -61.71329,-9.07305 c -0.43198,-1.13618 -0.78536,-4.57898 -0.78536,-7.65066 0,-6.43347 1.51886,-8.80627 5.63725,-8.80627 2.21958,0 2.416,-0.22677 2.416,-2.79033 0,-3.21977 1.61792,-4.45768 5.82603,-4.45768 3.65589,0 4.64331,1.2271 4.64331,5.7701 0,4.18754 -1.23981,5.50459 -5.18168,5.50459 -2.04152,0 -2.06632,0.0751 -2.06632,6.2816 0,3.81191 -0.37996,6.66156 -0.9664,7.248 -0.53152,0.53151 -2.71486,0.9664 -4.8519,0.9664 -3.42983,0 -3.9777,-0.24228 -4.67093,-2.06575 z M 52.026412,221.80472 c -1.333052,-2.49085 -0.996681,-6.90381 0.639073,-8.38413 0.810013,-0.73306 2.440814,-1.33284 3.623986,-1.33284 1.70175,0 2.151256,-0.38324 2.151256,-1.83412 0,-2.90647 2.212461,-5.41388 4.777006,-5.41388 1.902327,0 2.351929,-0.41119 2.777781,-2.54055 0.755282,-3.77637 1.912168,-4.70745 5.849115,-4.70745 3.005795,0 3.682912,0.30788 4.468298,2.03156 0.629086,1.38076 0.688077,2.99323 0.184147,5.03336 -0.675747,2.73532 -1.027485,3.03751 -3.96291,3.40443 -3.000859,0.37509 -3.239616,0.59537 -3.48848,3.2181 -0.35566,3.74869 -1.403609,4.83523 -4.663463,4.83523 -2.540345,0 -2.720047,0.17563 -2.720047,2.65759 0,3.53039 -1.239457,4.59041 -5.367404,4.59041 -2.571479,0 -3.644103,-0.39146 -4.268261,-1.55771 z m -14.802211,-7.16303 c -1.021397,-1.12866 -1.332811,-3.0813 -1.332811,-8.3574 0,-7.48081 0.44394,-8.37082 4.400698,-8.8226 1.995931,-0.22799 2.479832,-0.72826 2.951403,-3.05191 0.310255,-1.52866 1.207807,-3.25003 1.994594,-3.82534 1.595761,-1.16686 5.801173,-1.37424 7.392521,-0.36452 1.449142,0.91946 2.075949,5.74127 1.082522,8.32754 -0.669112,1.74202 -1.427382,2.21289 -3.890407,2.416 l -3.059334,0.25233 -0.225244,6.44269 c -0.170448,4.87589 -0.550711,6.68745 -1.563257,7.44931 -1.976966,1.48747 -6.213206,1.23273 -7.750621,-0.46606 z m 294.828659,0.60289 c -1.02921,-0.59947 -1.40925,-1.85263 -1.40925,-4.64643 0,-4.51593 0.9904,-5.7584 4.59032,-5.7584 h 2.65768 l 0.0121,-6.24134 c 0.008,-3.43271 0.31698,-6.72179 0.68929,-7.30906 0.3723,-0.58723 2.13663,-1.26354 3.92077,-1.50283 2.59816,-0.34849 3.58317,-0.0959 4.94813,1.26907 1.44428,1.44434 1.70416,2.66294 1.70416,7.99291 0,7.26624 -0.81773,8.81792 -4.832,9.16884 -2.58158,0.22555 -2.83944,0.4835 -3.0651,3.06509 -0.13546,1.55026 -0.839,3.27167 -1.56323,3.82533 -1.57668,1.20527 -5.69226,1.27887 -7.65309,0.13697 z m 82.87287,-0.60289 c -0.73301,-0.81 -1.33283,-2.40206 -1.33283,-3.53784 0,-2.59665 -1.18625,-3.04275 -8.09078,-3.04275 -6.04959,0 -7.21048,-0.84285 -7.21048,-5.23466 0,-4.6887 0.96592,-5.23469 9.26126,-5.23469 8.26635,0 9.26134,0.55335 9.26134,5.15037 0,2.00358 0.10872,2.03852 7.04667,2.26762 l 7.04667,0.23255 0.24563,4.29337 c 0.34516,6.03208 -0.34211,6.57862 -8.27279,6.57862 -5.39244,0 -6.86942,-0.27333 -7.95477,-1.47273 z m -106.46955,-8.46938 c -0.26085,-1.03881 -0.35821,-3.30381 -0.21671,-5.03331 0.24627,-3.00966 0.39558,-3.16185 3.47872,-3.54725 l 3.22133,-0.40267 0.23806,-6.40451 c 0.13086,-3.52248 0.62832,-6.87469 1.10524,-7.44932 1.00038,-1.20543 6.94069,-1.38345 8.71572,-0.26116 0.85583,0.54107 1.28507,2.62146 1.4951,7.24615 0.35314,7.77607 -0.78294,10.2461 -4.89457,10.64201 -2.25816,0.21732 -2.67178,0.59749 -2.90557,2.66954 -0.40452,3.58463 -1.52023,4.42931 -5.85067,4.42931 -3.43313,0 -3.97085,-0.23163 -4.38681,-1.88876 z M 21.922876,199.34034 c -1.994288,-2.20364 -1.737242,-7.01133 0.457019,-8.54825 0.984448,-0.68951 2.615249,-1.25367 3.624018,-1.25367 1.72823,0 1.834155,-0.31522 1.834155,-5.45814 0,-6.51245 1.269166,-8.82468 5.043789,-9.18897 2.23063,-0.21519 2.645651,-0.60023 2.875582,-2.66756 0.388138,-3.48986 2.299727,-5.23468 5.735031,-5.23468 3.861978,0 4.86825,1.16526 4.86825,5.63734 0,4.3957 -1.011024,5.63733 -4.590386,5.63733 h -2.657617 v 5.97415 c 0,7.65723 -0.344587,8.42914 -4.025824,9.0178 -2.781437,0.44476 -3.086795,0.75015 -3.531549,3.53158 -0.26998,1.68799 -1.056525,3.26327 -1.765267,3.53526 -2.548745,0.97803 -6.544714,0.47916 -7.867201,-0.98219 z m 121.106234,-0.0849 c -0.45851,-0.85673 -0.83366,-2.48753 -0.83366,-3.62398 0,-1.80074 -0.34158,-2.06627 -2.65762,-2.06627 -3.35665,0 -4.59039,-1.22963 -4.59039,-4.57508 0,-2.70108 -0.31463,-2.92085 -5.23466,-3.65634 -1.38361,-0.20668 -1.64465,-0.9553 -1.85156,-5.30949 l -0.24077,-5.06871 4.26754,0.24472 4.26756,0.24472 0.24563,3.37854 c 0.24321,3.34679 0.2773,3.38081 3.62402,3.62398 3.26029,0.23681 3.40508,0.36529 4.1372,3.66815 0.69374,3.12977 0.97285,3.42267 3.2616,3.42267 3.42236,0 4.43573,1.28789 4.43573,5.63733 0,4.49682 -1.00448,5.63736 -4.96474,5.63736 -2.17335,0 -3.26802,-0.44114 -3.8656,-1.55775 z m 129.63041,-6.27728 c -1.8512,-0.70466 -2.39022,-1.93654 -2.40368,-5.49327 -0.0152,-3.95386 1.07839,-5.19439 4.57806,-5.19439 h 2.6576 v -6.38515 c 0,-7.34742 0.93121,-8.91618 5.29225,-8.91618 4.64678,0 5.98242,2.12967 5.98242,9.53918 0,6.85971 -0.89706,8.56803 -4.7844,9.11138 -1.43704,0.20089 -2.14461,0.96902 -2.63103,2.85601 -1.03526,4.01697 -4.80567,5.96152 -8.69122,4.48242 z m 22.54932,0 c -1.85114,-0.70466 -2.39015,-1.93654 -2.40368,-5.49327 -0.0153,-3.95386 1.07843,-5.19439 4.57809,-5.19439 h 2.6576 v -6.38515 c 0,-7.9427 0.97332,-9.28829 6.28547,-8.68951 1.96775,0.22189 3.88976,0.89572 4.27116,1.49763 0.38141,0.6019 0.69895,4.02799 0.70572,7.61353 0.0153,7.24835 -1.05829,9.18483 -5.0844,9.18483 -1.76803,0 -2.1512,0.36519 -2.1512,2.04996 0,4.00357 -4.82323,6.95257 -8.85876,5.41637 z m 112.08176,-1.27689 c -2.11448,-2.25076 -2.25324,-5.39496 -0.3417,-7.73961 1.3375,-1.64051 1.98402,-1.71687 12.68401,-1.49854 l 11.27467,0.2301 0.24965,4.40487 c 0.34726,6.13021 -0.29588,6.46712 -12.3431,6.46712 -9.17372,0 -9.87968,-0.11414 -11.52344,-1.86389 z m 37.35026,-8.52305 c -0.68784,-1.33013 -1.25061,-2.98001 -1.25061,-3.66639 0,-1.0151 -1.11627,-1.24801 -5.98153,-1.24801 -5.50277,0 -6.11514,-0.16984 -7.65067,-2.12194 -0.918,-1.16705 -1.66914,-2.79784 -1.66914,-3.62398 0,-1.03528 -0.58201,-1.50209 -1.87296,-1.50209 -2.58593,0 -5.37504,-3.20077 -5.37504,-6.1684 0,-3.53693 2.28481,-5.26234 6.5617,-4.95525 3.50223,0.25142 3.50521,0.25446 3.75261,3.67433 l 0.2478,3.42268 h 6.70046 c 7.43999,0 8.22681,0.4401 8.64381,4.83524 0.24893,2.62273 0.48755,2.84297 3.48846,3.21809 l 3.22134,0.40266 v 4.83201 4.832 l -3.78274,0.2438 c -3.49506,0.22524 -3.87784,0.0599 -5.03333,-2.17465 z m -293.90325,-6.18828 c -0.26877,-0.70062 -0.48883,-2.33144 -0.48883,-3.62402 0,-2.11199 -0.26512,-2.35139 -2.61732,-2.36246 -3.80083,-0.0183 -4.75579,-0.95298 -5.22505,-5.11624 -0.54024,-4.79307 0.56843,-6.14609 5.03615,-6.14609 3.72824,0 4.41689,0.76363 4.41689,4.89787 0,2.05973 0.29038,2.35014 2.35014,2.35014 4.30296,0 4.89787,0.62671 4.89787,5.15976 0,2.30016 -0.4349,4.61699 -0.9664,5.14849 -1.45265,1.45265 -6.81347,1.23 -7.40345,-0.30745 z m 45.57627,0.30745 c -0.53154,-0.5315 -0.9664,-2.84833 -0.9664,-5.14849 0,-4.5263 0.59746,-5.15976 4.86651,-5.15976 h 2.31876 l 0.23254,-7.04669 0.23255,-7.04666 h 4.42934 4.42934 l 0.2295,7.76633 c 0.25598,8.66418 -0.49717,10.35366 -4.61565,10.35366 -1.889,0 -2.34079,0.415 -2.76592,2.5406 -0.27941,1.3973 -0.91274,3.02813 -1.40728,3.62401 -1.11577,1.34438 -5.67967,1.42087 -6.98354,0.11719 z m -22.65618,-7.42421 c -0.54626,-0.65822 -0.84412,-2.96279 -0.70259,-5.43601 l 0.24563,-4.29338 3.3785,-0.24533 c 3.34679,-0.24319 3.38086,-0.27728 3.62402,-3.62401 0.24381,-3.35443 0.26999,-3.38027 3.66816,-3.62615 3.21326,-0.23255 3.42264,-0.39584 3.42264,-2.67028 0,-4.02464 1.28423,-5.5381 4.69929,-5.5381 3.96027,0 4.96471,1.14054 4.96471,5.63736 0,4.39571 -1.01102,5.63732 -4.59038,5.63732 -2.31605,0 -2.65762,0.26573 -2.65762,2.06628 0,3.11244 -1.43222,5.18173 -3.58646,5.18173 -3.40958,0 -4.46687,0.84005 -4.46687,3.54911 0,1.41426 -0.43486,3.00631 -0.9664,3.53781 -1.33013,1.33017 -5.87705,1.21622 -7.03268,-0.17623 z m 279.48047,-0.38416 c -0.93201,-0.932 -1.69458,-2.5618 -1.69458,-3.62173 0,-1.95919 -1.32558,-2.90484 -4.07185,-2.90484 -0.8857,0 -2.05811,-1.03263 -2.79893,-2.4653 -1.04388,-2.01858 -1.10694,-2.97429 -0.34791,-5.27415 0.91583,-2.77489 0.97719,-2.80591 5.07956,-2.56801 l 4.15247,0.24077 0.40266,3.22132 c 0.37513,3.00084 0.59539,3.23962 3.21812,3.48845 3.80786,0.3613 4.83522,1.4051 4.83522,4.91224 0,3.74208 -1.32163,5.53515 -4.54675,6.16837 -1.94118,0.38111 -2.92965,0.10136 -4.22801,-1.19715 z M 332.0556,161.95578 c -0.7215,-0.55365 -1.42496,-2.08097 -1.56331,-3.39403 -0.21092,-2.00228 -0.69968,-2.47833 -3.03072,-2.9514 -3.98583,-0.80891 -4.87138,-2.51117 -4.87138,-9.3641 0,-7.98159 0.65973,-9.05449 5.56711,-9.05449 2.2133,0 4.27471,0.45185 4.76685,1.04484 0.47692,0.57467 0.9743,3.92688 1.10524,7.44933 l 0.23806,6.40453 3.22134,0.40267 3.22133,0.40266 0.25263,3.99999 c 0.19481,3.08401 -0.0709,4.23663 -1.16056,5.03334 -1.80266,1.31808 -6.04476,1.33269 -7.74667,0.0274 z m 14.3376,-16.08452 c -0.83529,-1.19256 -1.25358,-3.61135 -1.25358,-7.24801 0,-4.39255 -0.24354,-5.45814 -1.24803,-5.45814 -0.68647,0 -2.29407,-0.54094 -3.57254,-1.20208 -1.71053,-0.88456 -2.39128,-1.88745 -2.57739,-3.79691 -0.2118,-2.17374 -0.65627,-2.67661 -2.73902,-3.09875 -3.88292,-0.78697 -4.35903,-1.39372 -4.35903,-5.55432 0,-4.28535 0.62897,-4.87063 5.23459,-4.87063 4.37175,0 5.23467,0.66053 5.23467,4.0068 0,2.94263 0.0953,3.04189 3.33738,3.47676 3.78805,0.50807 4.68608,1.49218 4.70363,5.15416 0.0121,2.44671 0.17774,2.58298 3.43499,2.81866 l 3.42267,0.24777 0.23411,7.63755 c 0.26665,8.70248 -0.29499,9.67713 -5.57701,9.67713 -2.2096,0 -3.35865,-0.48104 -4.27536,-1.78987 z m 106.04466,-8.1e-4 c -0.50116,-1.00825 -1.02495,-2.55522 -1.16387,-3.43765 -0.16502,-1.04797 -1.05773,-1.7463 -2.57377,-2.01333 -1.27653,-0.22494 -3.03474,-1.36587 -3.90699,-2.53551 -1.39629,-1.87226 -1.46966,-2.47904 -0.61367,-5.07283 0.96866,-2.93484 0.98831,-2.94525 5.1249,-2.70537 l 4.15247,0.24076 0.40266,3.22136 0.40267,3.22132 10.872,0.40267 10.87201,0.40266 v 4.83201 4.832 l -11.32855,0.2225 c -11.08759,0.21794 -11.34796,0.18354 -12.23986,-1.61065 z m -82.98643,-7.09927 c -0.96938,-0.90324 -1.76255,-2.48875 -1.76255,-3.52345 0,-1.39872 -0.56808,-2.00479 -2.21467,-2.36277 -3.33843,-0.72579 -4.3343,-1.66127 -4.94442,-4.64423 -0.3744,-1.83063 -1.07045,-2.79737 -2.13422,-2.96429 -4.10857,-0.6447 -5.2027,-1.89018 -5.2027,-5.92277 0,-3.39378 0.23468,-3.93411 1.88875,-4.34928 1.03888,-0.26086 3.30388,-0.35822 5.03342,-0.21672 3.07678,0.25172 3.1499,0.33116 3.39215,3.68005 0.23894,3.30083 0.34428,3.42267 2.9625,3.42267 3.45142,0 5.24594,1.79443 5.24594,5.24587 0,2.6182 0.12169,2.72367 3.42259,2.96248 3.42001,0.24746 3.42291,0.2505 3.67433,3.75262 0.17621,2.45624 -0.16219,3.96231 -1.13149,5.03335 -1.83624,2.02911 -5.9912,1.97171 -8.22963,-0.11384 z m 99.13216,-6.53927 c -0.49705,-0.59898 -1.16991,-2.1742 -1.49526,-3.50053 -0.79898,-3.25812 -1.51057,-3.59288 -7.66791,-3.60715 -6.05168,-0.0152 -7.97683,-1.30721 -7.97683,-5.35797 0,-4.6127 1.17756,-5.21567 9.67713,-4.95522 l 7.63755,0.23407 0.2478,3.42267 0.2478,3.42267 h 6.63788 c 7.53124,0 8.57077,0.5869 8.57077,4.83913 0,4.96124 -1.3859,5.97415 -8.62376,6.30285 -4.64106,0.21063 -6.59447,-0.006 -7.25493,-0.80061 z m 0.0483,-23.03896 c -0.51251,-0.32611 -1.25753,-1.85003 -1.65569,-3.38654 -0.59304,-2.28849 -1.20244,-2.89147 -3.3708,-3.33495 -3.71484,-0.75975 -4.24,-1.56137 -3.9558,-6.037918 l 0.24989,-3.9378 h 4.42934 4.42934 l 0.2478,3.422676 0.2478,3.422669 h 9.95441 c 5.47498,0 10.5278,0.220065 11.22844,0.488829 1.5551,0.596734 1.79155,7.529984 0.3074,9.014104 -1.07456,1.07457 -20.49019,1.38084 -22.11205,0.34881 z"
     fill="param(fill)" fill-opacity="param(fill-opacity)" stroke="param(outline)" stroke-opacity="param(outline-opacity)" stroke-width="param(outline-width)" />
</svg>
