<svg enable-background="new 0 0 580 580" height="580" viewBox="0 0 580 580" width="580" xmlns="http://www.w3.org/2000/svg">
<path
     d="m 29.478574,398.30552 c 0,-5.89416 -2.94709,-8.84126 -8.84126,-8.84126 -5.89418,0 -8.84127,-2.94709 -8.84127,-8.84127 0,-7.36773 2.94709,-8.84127 17.68253,-8.84127 l 11.92504,6.28089 5.75748,11.40165 c 6.64214,13.15353 -1.47358,17.68255 -8.84126,17.68255 -5.89417,0 -8.84126,-2.9471 -8.84126,-8.84129 z m 503.952276,-9.10811 4.18726,-15.33236 12.35327,-1.24502 c 11.55979,0.95886 16.98213,3.70158 18.00674,9.10811 1.0142,5.35163 -1.35901,7.73612 -7.69936,7.73612 -6.2183,0 -9.16537,2.84286 -9.16537,8.84126 0,5.89418 -2.94714,8.84128 -8.84126,8.84128 -7.38967,0 -8.84128,-2.9471 -8.84128,-17.94939 z M 91.367414,345.25792 c 0,-9.18754 -2.16436,-13.26191 -7.04476,-13.26191 -3.87463,0 -8.08527,-3.97857 -9.3569,-8.84125 -1.27163,-4.86271 -5.06398,-8.84127 -8.42735,-8.84127 -3.36346,0 -6.11539,-4.09866 -6.11539,-9.10812 0,-7.82176 2.34122,-8.91435 16.57739,-7.73611 15.13438,1.25258 16.6979,2.62259 17.96262,15.73907 0.85798,8.89921 3.8022,14.36706 7.736096,14.36706 4.311,0 6.35085,4.96949 6.35085,15.47222 0,12.52513 -1.68405,15.47222 -8.84128,15.47222 -6.876506,0 -8.841276,-2.94709 -8.841276,-13.26191 z M 471.54197,343.0476 c 0,-12.52513 1.68405,-15.47222 8.84128,-15.47222 7.15723,0 8.84128,-2.94709 8.84128,-15.47222 0,-14.73544 0.73679,-15.47222 15.4722,-15.47222 12.52513,0 15.47219,1.68405 15.47219,8.84127 0,4.86271 -2.75193,8.84128 -6.11538,8.84128 -3.36346,0 -7.15572,3.97856 -8.42735,8.84127 -1.27163,4.86268 -5.48227,8.84125 -9.3569,8.84125 -4.8805,0 -7.04476,4.07437 -7.04476,13.26191 0,10.31482 -1.96477,13.26191 -8.84128,13.26191 -7.15723,0 -8.84128,-2.94709 -8.84128,-15.47223 z M 166.51821,285.57936 c 0,-10.80599 -1.9998,-15.47222 -6.63091,-15.47222 -4.63121,0 -6.63101,-4.66622 -6.63101,-15.4722 0,-12.52514 -1.68405,-15.47223 -8.84129,-15.47223 -5.89412,0 -8.84118,-2.94709 -8.84118,-8.84127 0,-5.89418 2.94706,-8.84127 8.84118,-8.84127 4.91184,0 8.84129,2.94709 8.84129,6.63096 0,3.68386 3.92944,6.63095 8.84128,6.63095 7.15723,0 8.84128,2.94709 8.84128,15.47222 0,10.80599 1.9998,15.47222 6.63092,15.47222 4.78903,0 6.631,4.91181 6.631,17.68254 0,14.73544 -1.47357,17.68253 -8.84128,17.68253 -7.15723,0 -8.84128,-2.94709 -8.84128,-15.47223 z m 229.87295,-2.21031 c 0,-12.77073 1.84198,-17.68254 6.63101,-17.68254 4.63112,0 6.63092,-4.66623 6.63092,-15.47222 0,-12.52513 1.68405,-15.47222 8.84128,-15.47222 4.91183,0 8.84128,-2.94709 8.84128,-6.63095 0,-3.68386 3.92945,-6.63095 8.84128,-6.63095 5.89413,0 8.84119,2.94709 8.84119,8.84127 0,5.89417 -2.94706,8.84126 -8.84119,8.84126 -7.15723,0 -8.84128,2.94709 -8.84128,15.47223 0,10.80598 -1.9998,15.47221 -6.63101,15.47221 -4.63111,0 -6.63091,4.66623 -6.63091,15.47222 0,12.52513 -1.68405,15.47222 -8.84128,15.47222 -7.36771,0 -8.84129,-2.94709 -8.84129,-17.68253 z M 241.66901,246.10112 c 0,-30.72655 -1.25269,-37.88285 -6.63101,-37.88285 -4.78894,0 -6.63091,-4.91181 -6.63091,-17.68253 0,-14.73545 1.47358,-17.68254 8.84128,-17.68254 7.0991,0 8.84128,2.94709 8.84128,14.95664 0,11.34088 2.18197,15.52725 9.02591,17.31697 8.31383,2.17411 8.92422,5.26668 7.7361,39.19613 -1.20375,34.37899 -1.95322,36.93 -11.23628,38.2484 -9.65088,1.37066 -9.94637,0.28717 -9.94637,-36.47022 z m 79.57135,-2.51778 c 0,-32.41798 1.22798,-39.7857 6.63101,-39.7857 4.63111,0 6.63092,-4.66623 6.63092,-15.47222 0,-12.52513 1.68404,-15.47222 8.84128,-15.47222 7.3677,0 8.84128,2.94709 8.84128,17.68254 0,12.77072 -1.84197,17.68253 -6.63092,17.68253 -5.37414,0 -6.631,7.12214 -6.631,37.57539 0,34.6283 -0.69343,37.57539 -8.84129,37.57539 -8.18629,0 -8.84128,-2.94709 -8.84128,-39.78571 z"
     fill="param(fill)" fill-opacity="param(fill-opacity)" stroke="param(outline)" stroke-opacity="param(outline-opacity)" stroke-width="param(outline-width)" />
</svg>
