<?xml version="1.0" encoding="UTF-8" standalone="no"?>
<!-- Created with Inkscape (http://www.inkscape.org/) -->

<svg
   xmlns:dc="http://purl.org/dc/elements/1.1/"
   xmlns:cc="http://creativecommons.org/ns#"
   xmlns:rdf="http://www.w3.org/1999/02/22-rdf-syntax-ns#"
   xmlns:svg="http://www.w3.org/2000/svg"
   xmlns="http://www.w3.org/2000/svg"
   xmlns:inkscape="http://www.inkscape.org/namespaces/inkscape"
   version="1.1"
   width="8.3625002"
   height="8.3625002"
   id="svg2"
   xml:space="preserve"><metadata
     id="metadata8"><rdf:RDF><cc:Work
         rdf:about=""><dc:format>image/svg+xml</dc:format><dc:type
           rdf:resource="http://purl.org/dc/dcmitype/StillImage" /></cc:Work></rdf:RDF></metadata><defs
     id="defs6"><clipPath
       id="clipPath18"><path
         d="m 0,0 66.8984,0 0,66.8984 -66.8984,0"
         inkscape:connector-curvature="0"
         id="path20" /></clipPath></defs><g
     transform="matrix(1.25,0,0,-1.25,0,8.3625)"
     id="g10"><g
       transform="scale(0.1,0.1)"
       id="g12"><g
         id="g14"><g
           clip-path="url(#clipPath18)"
           id="g16"><path
             d="m 18.707,23.8125 4.8203,0 c -0.2851,3.6836 5.3868,12.4727 10.2032,12.4727 4.8203,0 9.6406,-8.7891 9.3554,-12.4727 l 5.1016,0 C 47.9062,31.4648 39.9688,43.3711 33.7305,43.0859 27.7812,42.8047 18.707,32.0312 18.707,23.8125 l 4.8203,0"
             inkscape:connector-curvature="0"
             id="path22"
             style="fill:none;stroke:#231f20;stroke-width:3.68504;stroke-linecap:butt;stroke-linejoin:miter;stroke-miterlimit:10;stroke-opacity:1;stroke-dasharray:none" /><path
             d="m 18.707,23.8125 4.8203,0 c -0.2851,3.6836 5.3868,12.4727 10.2032,12.4727 4.8203,0 9.6406,-8.7891 9.3554,-12.4727 l 5.1016,0 C 47.9062,31.4648 39.9688,43.3711 33.7305,43.0859 27.7812,42.8047 18.707,32.0312 18.707,23.8125"
             inkscape:connector-curvature="0"
             id="path24"
             style="fill:#231f20;fill-opacity:1;fill-rule:evenodd;stroke:none" /></g></g></g></g></svg>