<?xml version="1.0" encoding="UTF-8" standalone="no"?>
<!-- Created with Inkscape (http://www.inkscape.org/) -->

<svg
   xmlns:dc="http://purl.org/dc/elements/1.1/"
   xmlns:cc="http://creativecommons.org/ns#"
   xmlns:rdf="http://www.w3.org/1999/02/22-rdf-syntax-ns#"
   xmlns:svg="http://www.w3.org/2000/svg"
   xmlns="http://www.w3.org/2000/svg"
   xmlns:inkscape="http://www.inkscape.org/namespaces/inkscape"
   version="1.1"
   width="10.775"
   height="10.775"
   id="svg2"
   xml:space="preserve"><metadata
     id="metadata8"><rdf:RDF><cc:Work
         rdf:about=""><dc:format>image/svg+xml</dc:format><dc:type
           rdf:resource="http://purl.org/dc/dcmitype/StillImage" /></cc:Work></rdf:RDF></metadata><defs
     id="defs6" /><g
     transform="matrix(1.25,0,0,-1.25,0,10.775)"
     id="g10"><g
       transform="scale(0.1,0.1)"
       id="g12"><path
         d="m 69.4492,43.0859 c 0,14.5586 -11.8047,26.3633 -26.3633,26.3633 -14.5586,0 -26.3632,-11.8047 -26.3632,-26.3633 0,-14.5586 11.8046,-26.3632 26.3632,-26.3632 14.5586,0 26.3633,11.8046 26.3633,26.3632 z"
         inkscape:connector-curvature="0"
         id="path14"
         style="fill:none;stroke:#231f20;stroke-width:3.68504;stroke-linecap:butt;stroke-linejoin:bevel;stroke-miterlimit:10;stroke-opacity:1;stroke-dasharray:none" /><path
         d="m 28.3477,28.0625 0,30.0469 4.5351,0 10.4883,-25.793 10.2031,25.793 4.5352,0 0,-30.0469 -2.8321,0 0,26.3633 -10.4882,-26.3633 -2.836,0 -10.4883,26.3633 0,-26.3633"
         inkscape:connector-curvature="0"
         id="path16"
         style="fill:#231f20;fill-opacity:1;fill-rule:evenodd;stroke:none" /></g></g></svg>