<?xml version="1.0" encoding="UTF-8" standalone="no"?>
<!-- Created with Inkscape (http://www.inkscape.org/) -->

<svg
   xmlns:dc="http://purl.org/dc/elements/1.1/"
   xmlns:cc="http://creativecommons.org/ns#"
   xmlns:rdf="http://www.w3.org/1999/02/22-rdf-syntax-ns#"
   xmlns:svg="http://www.w3.org/2000/svg"
   xmlns="http://www.w3.org/2000/svg"
   xmlns:inkscape="http://www.inkscape.org/namespaces/inkscape"
   version="1.1"
   width="13.675"
   height="13.675"
   id="svg2"
   xml:space="preserve"><metadata
     id="metadata8"><rdf:RDF><cc:Work
         rdf:about=""><dc:format>image/svg+xml</dc:format><dc:type
           rdf:resource="http://purl.org/dc/dcmitype/StillImage" /></cc:Work></rdf:RDF></metadata><defs
     id="defs6" /><g
     transform="matrix(1.25,0,0,-1.25,0,13.675)"
     id="g10"><g
       transform="scale(0.1,0.1)"
       id="g12"><path
         d="M 61.7969,66.332 88.4414,73.1328 67.4648,54.4258 88.4414,34.8672 61.2266,43.0859 54.9922,15.3086 48.1875,43.0859 21.2617,34.8672 41.9531,54.4258 21.543,73.418 48.4727,65.7656 54.9922,94.3945 61.7969,65.7656"
         inkscape:connector-curvature="0"
         id="path14"
         style="fill:none;stroke:#231f20;stroke-width:1.70079005;stroke-linecap:butt;stroke-linejoin:miter;stroke-miterlimit:10;stroke-opacity:1;stroke-dasharray:none" /><path
         d="m 58.1094,54.707 c 0,1.875 -1.5274,3.4024 -3.4024,3.4024 -1.875,0 -3.3984,-1.5274 -3.3984,-3.4024 0,-1.875 1.5234,-3.3984 3.3984,-3.3984 1.875,0 3.4024,1.5234 3.4024,3.3984"
         inkscape:connector-curvature="0"
         id="path16"
         style="fill:#231f20;fill-opacity:1;fill-rule:evenodd;stroke:none" /><path
         d="M 68.0312,54.707 67.4648,54.4258 88.4414,34.8672 61.2266,43.0859 54.9922,15.3086 48.1875,43.0859 21.2617,34.8672 41.9531,54.4258 41.668,54.707 l 1.4179,0 c 0,-6.2343 5.1016,-11.0547 11.0547,-11.0547 6.2383,-0.2812 11.3399,4.8204 11.625,11.0547 l 0,0"
         inkscape:connector-curvature="0"
         id="path18"
         style="fill:#231f20;fill-opacity:1;fill-rule:evenodd;stroke:none" /><path
         d="m 41.3867,54.707 -19.8437,18.711 26.9297,-7.6524 6.5195,28.6289 6.8047,-28.6289 0,0.5664 26.6445,6.8008 -20.6953,-18.4258 -1.9805,0 c 0,6.2383 -5.1054,11.3399 -11.3398,11.625 l 0,0 c -6.2383,0 -11.3399,-5.1054 -11.3399,-11.3398 -0.2812,0 -0.2812,0 -0.2812,-0.2852"
         inkscape:connector-curvature="0"
         id="path20"
         style="fill:#231f20;fill-opacity:1;fill-rule:evenodd;stroke:none" /></g></g></svg>