<?xml version="1.0" encoding="UTF-8" standalone="no"?>
<!-- Created with Inkscape (http://www.inkscape.org/) -->

<svg
   xmlns:dc="http://purl.org/dc/elements/1.1/"
   xmlns:cc="http://creativecommons.org/ns#"
   xmlns:rdf="http://www.w3.org/1999/02/22-rdf-syntax-ns#"
   xmlns:svg="http://www.w3.org/2000/svg"
   xmlns="http://www.w3.org/2000/svg"
   xmlns:inkscape="http://www.inkscape.org/namespaces/inkscape"
   version="1.1"
   width="12.475"
   height="12.475"
   id="svg2"
   xml:space="preserve"><metadata
     id="metadata8"><rdf:RDF><cc:Work
         rdf:about=""><dc:format>image/svg+xml</dc:format><dc:type
           rdf:resource="http://purl.org/dc/dcmitype/StillImage" /></cc:Work></rdf:RDF></metadata><defs
     id="defs6"><clipPath
       id="clipPath18"><path
         d="m 0,0 99.7812,0 0,99.7812 -99.7812,0"
         inkscape:connector-curvature="0"
         id="path20" /></clipPath></defs><g
     transform="matrix(1.25,0,0,-1.25,0,12.475)"
     id="g10"><g
       transform="scale(0.1,0.1)"
       id="g12"><g
         id="g14"><g
           clip-path="url(#clipPath18)"
           id="g16"><path
             d="m 64.6289,49.8906 9.6406,-14.1758 -16.1601,1.7032 -7.9375,-16.1563 -7.3672,15.8711 -16.7266,-1.418 8.5039,13.8907 0,0.2851 3.1172,0 c 0,-6.5195 5.3867,-12.1914 12.1914,-12.1914 6.5196,0 11.9063,5.1055 11.9063,11.9063 0,0 0,0 0,0.2851"
             inkscape:connector-curvature="0"
             id="path22"
             style="fill:#231f20;fill-opacity:1;fill-rule:evenodd;stroke:none" /><path
             d="m 34.3008,49.8906 -8.5039,13.6055 0,0 17.0078,-0.2852 7.3672,15.3086 7.0898,-15.3086 17.0078,0.2852 -9.6406,-13.6055 -3.1172,0 c 0,6.2344 -5.1015,11.6211 -11.3398,11.6211 l 0,0 c -6.8008,0 -12.4727,-5.1015 -12.4727,-11.6211 l 0,0"
             inkscape:connector-curvature="0"
             id="path24"
             style="fill:#231f20;fill-opacity:1;fill-rule:evenodd;stroke:none" /><path
             d="m 53.293,49.8906 c 0,1.875 -1.5274,3.4024 -3.4024,3.4024 -1.875,0 -3.4023,-1.5274 -3.4023,-3.4024 0,-1.875 1.5273,-3.4023 3.4023,-3.4023 1.875,0 3.4024,1.5273 3.4024,3.4023"
             inkscape:connector-curvature="0"
             id="path26"
             style="fill:#231f20;fill-opacity:1;fill-rule:evenodd;stroke:none" /></g></g></g></g></svg>