<?xml version="1.0" encoding="UTF-8" standalone="no"?>
<!-- Created with Inkscape (http://www.inkscape.org/) -->

<svg
   xmlns:dc="http://purl.org/dc/elements/1.1/"
   xmlns:cc="http://creativecommons.org/ns#"
   xmlns:rdf="http://www.w3.org/1999/02/22-rdf-syntax-ns#"
   xmlns:svg="http://www.w3.org/2000/svg"
   xmlns="http://www.w3.org/2000/svg"
   xmlns:inkscape="http://www.inkscape.org/namespaces/inkscape"
   version="1.1"
   width="7.0875001"
   height="7.0875001"
   id="svg2"
   xml:space="preserve"><metadata
     id="metadata8"><rdf:RDF><cc:Work
         rdf:about=""><dc:format>image/svg+xml</dc:format><dc:type
           rdf:resource="http://purl.org/dc/dcmitype/StillImage" /></cc:Work></rdf:RDF></metadata><defs
     id="defs6"><clipPath
       id="clipPath18"><path
         d="m 0,0 56.6914,0 0,56.6914 -56.6914,0"
         inkscape:connector-curvature="0"
         id="path20" /></clipPath></defs><g
     transform="matrix(1.25,0,0,-1.25,0,7.0875)"
     id="g10"><g
       transform="scale(0.1,0.1)"
       id="g12"><g
         id="g14"><g
           clip-path="url(#clipPath18)"
           id="g16"><path
             d="m 31.7461,28.3477 c 0,1.875 -1.5234,3.3984 -3.3984,3.3984 -1.875,0 -3.4024,-1.5234 -3.4024,-3.3984 0,-1.875 1.5274,-3.4024 3.4024,-3.4024 1.875,0 3.3984,1.5274 3.3984,3.4024"
             inkscape:connector-curvature="0"
             id="path22"
             style="fill:#231f20;fill-opacity:1;fill-rule:evenodd;stroke:none" /><path
             d="m 40.5352,28.3477 c 0,6.7304 -5.4571,12.1875 -12.1875,12.1875 -6.7305,0 -12.1915,-5.4571 -12.1915,-12.1875 0,-6.7305 5.461,-12.1915 12.1915,-12.1915 6.7304,0 12.1875,5.461 12.1875,12.1915 z"
             inkscape:connector-curvature="0"
             id="path24"
             style="fill:none;stroke:#231f20;stroke-width:3.68504;stroke-linecap:butt;stroke-linejoin:bevel;stroke-miterlimit:10;stroke-opacity:1;stroke-dasharray:none" /></g></g></g></g></svg>