<?xml version="1.0" encoding="UTF-8" standalone="no"?>
<svg
   xmlns:dc="http://purl.org/dc/elements/1.1/"
   xmlns:cc="http://creativecommons.org/ns#"
   xmlns:rdf="http://www.w3.org/1999/02/22-rdf-syntax-ns#"
   xmlns:svg="http://www.w3.org/2000/svg"
   xmlns="http://www.w3.org/2000/svg"
   xmlns:sodipodi="http://sodipodi.sourceforge.net/DTD/sodipodi-0.dtd"
   xmlns:inkscape="http://www.inkscape.org/namespaces/inkscape"
   version="1.1"
   id="Layer_1"
   x="0px"
   y="0px"
   viewBox="0 0 120.04 122.88"
   style="enable-background:new 0 0 120.04 122.88"
   xml:space="preserve"
   sodipodi:docname="church.svg"
   inkscape:version="0.92.2 (5c3e80d, 2017-08-06)"><metadata
     id="metadata13"><rdf:RDF><cc:Work
         rdf:about=""><dc:format>image/svg+xml</dc:format><dc:type
           rdf:resource="http://purl.org/dc/dcmitype/StillImage" /></cc:Work></rdf:RDF></metadata><defs
     id="defs11" /><sodipodi:namedview
     pagecolor="#ffffff"
     bordercolor="#666666"
     borderopacity="1"
     objecttolerance="10"
     gridtolerance="10"
     guidetolerance="10"
     inkscape:pageopacity="0"
     inkscape:pageshadow="2"
     inkscape:window-width="1920"
     inkscape:window-height="1001"
     id="namedview9"
     showgrid="false"
     inkscape:zoom="9.4623351"
     inkscape:cx="67.688134"
     inkscape:cy="95.804744"
     inkscape:window-x="1691"
     inkscape:window-y="-9"
     inkscape:window-maximized="1"
     inkscape:current-layer="Layer_1" /><style
     type="text/css"
     id="style2">.st0{fill-rule:evenodd;clip-rule:evenodd;}</style><path
     style="clip-rule:evenodd;fill-rule:evenodd;stroke:#ffffff;stroke-width:2;stroke-miterlimit:4;stroke-dasharray:none"
     d="M 56.433594 1.2734375 L 56.433594 10.320312 L 47.556641 10.320312 L 47.556641 19.091797 L 56.433594 19.091797 L 56.433594 34.792969 L 32.615234 52.515625 L 32.615234 27.572266 L 17.507812 18.054688 L 2.0820312 27.158203 L 2.0820312 41.849609 L 2.0820312 120.74414 L 32.615234 120.74414 L 32.615234 120.72461 L 87.425781 120.72461 L 87.425781 120.74414 L 117.95703 120.74414 L 117.95703 27.572266 L 102.84961 18.054688 L 87.425781 27.158203 L 87.425781 41.849609 L 87.425781 52.322266 L 64.253906 35.244141 L 64.253906 19.091797 L 73.660156 19.091797 L 73.660156 10.320312 L 64.253906 10.320312 L 64.253906 1.2734375 L 56.433594 1.2734375 z M 59.990234 45.730469 C 62.39383 45.730469 64.567299 46.703906 66.150391 48.277344 C 67.723829 49.850783 68.697266 52.033904 68.697266 54.4375 C 68.697266 56.841097 67.723829 59.012612 66.150391 60.595703 C 64.576952 62.169142 62.39383 63.144531 59.990234 63.144531 C 57.586637 63.144531 55.415123 62.169142 53.832031 60.595703 C 52.258593 59.022265 51.283203 56.841097 51.283203 54.4375 C 51.283203 52.033904 52.258593 49.860436 53.832031 48.277344 C 55.40547 46.703906 57.586637 45.730469 59.990234 45.730469 z M 59.990234 49.832031 C 58.716038 49.832031 57.568438 50.353437 56.738281 51.183594 C 55.89847 52.013752 55.386719 53.163305 55.386719 54.4375 C 55.386719 55.711696 55.908123 56.859296 56.738281 57.689453 C 57.568438 58.529264 58.716038 59.041016 59.990234 59.041016 C 61.264429 59.041016 62.413984 58.519611 63.244141 57.689453 C 64.083952 56.859296 64.595703 55.711696 64.595703 54.4375 C 64.595703 53.163305 64.074299 52.013752 63.244141 51.183594 C 62.413984 50.343784 61.264429 49.832031 59.990234 49.832031 z M 60.048828 69.523438 C 68.42763 69.523438 75.291016 76.386824 75.291016 84.765625 L 75.291016 114.63281 L 44.806641 114.63281 L 44.806641 84.765625 C 44.806641 76.377171 51.660374 69.523438 60.048828 69.523438 z "
     id="path4" /></svg>