<?xml version="1.0" encoding="UTF-8" standalone="no"?>
<!-- Created with Inkscape (http://www.inkscape.org/) -->

<svg
   xmlns:dc="http://purl.org/dc/elements/1.1/"
   xmlns:cc="http://creativecommons.org/ns#"
   xmlns:rdf="http://www.w3.org/1999/02/22-rdf-syntax-ns#"
   xmlns:svg="http://www.w3.org/2000/svg"
   xmlns="http://www.w3.org/2000/svg"
   xmlns:sodipodi="http://sodipodi.sourceforge.net/DTD/sodipodi-0.dtd"
   xmlns:inkscape="http://www.inkscape.org/namespaces/inkscape"
   width="80mm"
   height="100mm"
   viewBox="0 0 80 100"
   version="1.1"
   id="svg8"
   inkscape:version="0.92.2 (5c3e80d, 2017-08-06)"
   sodipodi:docname="fortress.svg">
  <defs
     id="defs2" />
  <sodipodi:namedview
     id="base"
     pagecolor="#ffffff"
     bordercolor="#666666"
     borderopacity="1.0"
     inkscape:pageopacity="0.0"
     inkscape:pageshadow="2"
     inkscape:zoom="0.36822917"
     inkscape:cx="-157.96322"
     inkscape:cy="637.17115"
     inkscape:document-units="mm"
     inkscape:current-layer="layer1"
     showgrid="false"
     inkscape:window-width="1920"
     inkscape:window-height="1001"
     inkscape:window-x="1691"
     inkscape:window-y="-9"
     inkscape:window-maximized="1" />
  <metadata
     id="metadata5">
    <rdf:RDF>
      <cc:Work
         rdf:about="">
        <dc:format>image/svg+xml</dc:format>
        <dc:type
           rdf:resource="http://purl.org/dc/dcmitype/StillImage" />
        <dc:title />
      </cc:Work>
    </rdf:RDF>
  </metadata>
  <g
     inkscape:label="Camada 1"
     inkscape:groupmode="layer"
     id="layer1"
     transform="translate(0,-197)">
    <path
       style="opacity:1;fill:#1a1a1a;fill-opacity:1;stroke:#ffffff;stroke-width:1.13149977;stroke-linecap:round;stroke-linejoin:round;stroke-miterlimit:4;stroke-dasharray:none;stroke-dashoffset:0;stroke-opacity:1"
       d="m 11.687103,289.22671 c 0.314624,-1.96753 0.931631,-7.35133 1.371128,-11.96401 1.206812,-12.66578 3.37609,-31.68606 3.859557,-33.84064 -0.35352,-4.62122 -6.084135,-6.87446 -7.7418454,-9.80279 -2.5032282,-4.46205 -2.5501515,-4.77686 -2.7488203,-18.43915 l -0.2021084,-13.8996 h 4.2223831 4.222384 l 0.256522,4.91832 0.256534,4.91832 5.601817,0.249 5.601818,0.24901 -0.329662,-5.16732 -0.329651,-5.16733 h 4.307947 4.307955 l 0.256522,4.91832 0.256522,4.91832 5.345993,0.25466 5.346008,0.25466 v -5.02012 -5.02011 l 4.276797,-0.19515 4.276798,-0.19514 v 5.17444 5.17444 h 5.559839 c 6.134426,0 5.850385,0.33776 5.57456,-6.62904 l -0.143927,-3.63528 h 4.341406 4.341406 v 12.26678 c 0,8.22342 -0.406842,13.6186 -1.234285,16.36798 0.02546,6.65043 -10.802564,8.32895 -9.542266,13.67322 0.271323,1.08103 1.271546,9.22879 2.222719,18.10613 0.951183,8.87734 2.110167,18.94694 2.575542,22.37691 0.465363,3.42996 0.846124,6.79794 0.846124,7.48439 0,1.06916 -4.124102,1.2481 -28.763878,1.2481 H 11.115073 Z M 47.91535,260.46343 c -0.23198,-5.08523 -0.860516,-10.06566 -1.396746,-11.06761 -1.197534,-2.23762 -7.533785,-3.44882 -10.299302,-1.96876 -1.640991,0.7571 -3.060931,0.27833 -3.241595,2.04913 -1.223355,13.44452 -1.431777,19.42465 -0.687918,19.73784 0.47058,0.19813 4.273738,0.39062 8.451468,0.42776 l 7.595871,0.0676 z"
       id="path21"
       inkscape:connector-curvature="0"
       sodipodi:nodetypes="csccscccccccccccccccccccccsscccsccccssccsccccccs" />
  </g>
</svg>
