<?xml version="1.0" encoding="UTF-8" standalone="no"?>
<!-- Created with Inkscape (http://www.inkscape.org/) -->

<svg
   xmlns:dc="http://purl.org/dc/elements/1.1/"
   xmlns:cc="http://creativecommons.org/ns#"
   xmlns:rdf="http://www.w3.org/1999/02/22-rdf-syntax-ns#"
   xmlns:svg="http://www.w3.org/2000/svg"
   xmlns="http://www.w3.org/2000/svg"
   xmlns:sodipodi="http://sodipodi.sourceforge.net/DTD/sodipodi-0.dtd"
   xmlns:inkscape="http://www.inkscape.org/namespaces/inkscape"
   width="20mm"
   height="20mm"
   viewBox="0 0 20 20"
   version="1.1"
   id="svg8"
   inkscape:version="0.92.2 (5c3e80d, 2017-08-06)"
   sodipodi:docname="pbcvu.svg">
  <defs
     id="defs2" />
  <sodipodi:namedview
     id="base"
     pagecolor="#ffffff"
     bordercolor="#666666"
     borderopacity="1.0"
     inkscape:pageopacity="0.0"
     inkscape:pageshadow="2"
     inkscape:zoom="1.3361458"
     inkscape:cx="-131.22894"
     inkscape:cy="36.863644"
     inkscape:document-units="mm"
     inkscape:current-layer="layer1"
     showgrid="false"
     inkscape:window-width="1920"
     inkscape:window-height="1001"
     inkscape:window-x="-9"
     inkscape:window-y="-9"
     inkscape:window-maximized="1" />
  <metadata
     id="metadata5">
    <rdf:RDF>
      <cc:Work
         rdf:about="">
        <dc:format>image/svg+xml</dc:format>
        <dc:type
           rdf:resource="http://purl.org/dc/dcmitype/StillImage" />
        <dc:title></dc:title>
      </cc:Work>
    </rdf:RDF>
  </metadata>
  <g
     inkscape:label="Camada 1"
     inkscape:groupmode="layer"
     id="layer1"
     transform="translate(0,-277)">
    <g
       id="g199"
       transform="matrix(0.39281786,0,0,0.39281786,-58.730847,196.2236)">
      <path
         style="fill:#d0d0d0;fill-opacity:1;stroke-width:0.26458332"
         d="m 154.77451,252.62065 c -0.54998,-0.14595 -1.35712,-0.62252 -1.79366,-1.05906 -1.58067,-1.58067 -1.58685,-1.6205 -1.50999,-9.73268 l 0.0703,-7.41794 12.03854,8.62862 c 6.6212,4.74575 12.24972,8.81687 12.50782,9.04695 0.36348,0.32402 0.39331,0.46654 0.13229,0.63219 -0.48997,0.31096 -20.24433,0.22061 -21.44527,-0.0981 z m 37.90933,0.0245 c -1.29953,-0.50506 -1.57523,-1.20193 -1.58162,-3.99782 l -0.006,-2.57358 -4.69635,-0.0723 -4.69636,-0.0722 v -1.85208 -1.85208 l 3.175,-0.13229 c 1.85208,-0.0772 3.175,-0.24254 3.175,-0.39688 0,-0.15434 -1.32292,-0.3197 -3.175,-0.39687 l -3.175,-0.1323 v -1.05833 -1.05833 l 2.91042,-0.0699 c 1.60073,-0.0385 3.08901,-0.14242 3.30729,-0.23104 0.74629,-0.30298 -1.12202,-0.63571 -3.43958,-0.61258 -1.23693,0.0124 -2.39779,0.0146 -2.57969,0.005 -0.23142,-0.0122 -0.33073,-0.5736 -0.33073,-1.86956 v -1.85208 l 6.54844,-0.004 c 3.63653,-0.002 6.39259,-0.10286 6.19796,-0.22626 -0.20114,-0.12752 -0.5745,-1.56311 -0.87628,-3.36938 -0.2892,-1.73095 -0.64327,-3.26625 -0.78682,-3.41177 -0.15785,-0.16001 -3.1056,-0.29174 -7.45809,-0.33328 -7.76261,-0.0741 -8.35801,0.0127 -8.65279,1.26144 -0.12877,0.54547 -0.31352,0.65934 -1.06977,0.65934 -0.8349,0 -0.92121,-0.0734 -0.99602,-0.84657 -0.0641,-0.66265 0.11821,-1.06504 0.83923,-1.85209 l 0.92114,-1.00551 8.09346,-0.0771 c 10.70011,-0.10198 10.40657,-0.24056 11.27975,5.32499 0.27776,1.77034 0.50655,3.3002 0.50844,3.39967 0.002,0.0995 -0.32399,0.23047 -0.72417,0.29109 -0.46128,0.0699 -0.27762,0.12473 0.50176,0.14987 1.05192,0.0339 1.34788,0.17462 2.05052,0.97489 l 0.82116,0.93524 v 3.98601 3.986 l -0.89959,0.89958 c -0.51351,0.51351 -1.16643,0.89932 -1.52135,0.89897 -0.61132,-5.3e-4 -0.62032,0.0377 -0.53525,2.28205 0.0476,1.25546 0.0159,2.56392 -0.0704,2.90768 -0.27254,1.08589 -1.92022,1.83704 -3.05888,1.3945 z m 1.96086,-11.10183 c 0.85158,-1.01205 0.86896,-1.85296 0.0578,-2.79599 -1.32439,-1.5397 -3.87074,-0.51529 -3.87074,1.55722 0,2.00964 2.48497,2.81697 3.81294,1.23877 z m -20.3494,3.38737 c -3.05594,-2.20614 -8.64334,-6.22188 -12.41645,-8.92387 -3.7731,-2.70198 -6.90841,-5.05737 -6.96736,-5.2342 -0.0812,-0.24365 1.00329,-0.32519 4.47895,-0.33674 l 4.58611,-0.0152 -1.38086,-0.62763 c -1.67804,-0.76269 -3.66377,-2.74392 -4.37349,-4.36358 -0.6591,-1.50412 -0.90016,-4.37043 -0.47571,-5.6565 l 0.31797,-0.96348 h 7.92353 7.92353 l 0.30201,0.72761 c 0.46287,1.11516 0.3813,3.73619 -0.16634,5.34449 -0.64988,1.90858 -2.45748,3.83626 -4.51439,4.81431 l -1.5875,0.75484 4.25786,2.1e-4 c 3.94209,1.9e-4 4.34435,0.0457 5.42396,0.6141 0.7811,0.41121 1.38448,1.00085 1.82755,1.78594 0.65438,1.15949 0.66234,1.24965 0.74341,8.41906 0.0451,3.98585 -0.0145,7.3426 -0.13229,7.45943 -0.11784,0.11683 -2.71455,-1.59261 -5.77049,-3.79875 z m 7.9343,-20.57016 c -0.28278,-0.45754 0.40189,-2.07451 1.11637,-2.63652 1.03145,-0.81134 2.09251,-0.68783 3.14662,0.36628 0.63614,0.63613 0.89958,1.13978 0.89958,1.71979 v 0.82021 h -2.49792 c -1.41182,0 -2.57042,-0.1173 -2.66465,-0.26976 z m -0.66238,-3.57167 c -0.27346,-0.32949 -0.24368,-0.50108 0.16542,-0.95312 1.31525,-1.45335 3.4551,-1.7027 5.30556,-0.61826 1.94236,1.1383 1.37121,2.51946 -0.60408,1.46077 -1.27168,-0.68158 -1.83361,-0.68463 -3.0798,-0.0167 -1.18487,0.63505 -1.35563,0.64721 -1.7871,0.12732 z m -1.59132,-1.5921 c -0.28211,-0.33992 -0.21623,-0.53283 0.40259,-1.17874 1.61006,-1.68053 5.10037,-2.09594 7.51219,-0.89408 1.50591,0.75042 2.21172,1.72696 1.65242,2.28625 -0.25268,0.25268 -0.50404,0.21415 -1.17022,-0.17937 -1.96275,-1.15941 -2.34598,-1.27565 -3.84745,-1.16705 -1.06863,0.0773 -1.80328,0.31439 -2.55321,0.82398 -1.21169,0.82336 -1.52872,0.87244 -1.99632,0.30901 z m -22.51094,-1.25784 c -0.55799,-0.42492 -1.82279,-2.93155 -1.82279,-3.61249 0,-0.68134 0.61844,-1.06504 3.70417,-2.29822 2.5024,-1.00005 2.53054,-1.00452 6.35,-1.00881 l 3.83646,-0.004 2.77812,1.14258 c 1.52797,0.62842 2.92696,1.26563 3.10886,1.41603 0.47705,0.39443 0.40796,1.28971 -0.20676,2.67939 -0.91894,2.07742 -0.68742,2.02827 -9.50941,2.01877 -5.75131,-0.006 -7.92492,-0.094 -8.23865,-0.33295 z m 9.20668,-1.23296 c 1.10532,-0.67397 1.49845,-1.45734 1.311,-2.61242 -0.0851,-0.52437 -0.025,-1.09263 0.13596,-1.28663 0.1586,-0.1911 0.18449,-0.36149 0.0575,-0.37864 -1.64017,-0.2216 -2.38802,-0.25411 -3.65395,-0.15885 l -1.04187,0.0784 -0.0369,1.31259 c -0.0493,1.75142 0.2192,2.40025 1.25416,3.03127 1.05361,0.64238 0.94525,0.6416 1.97408,0.0143 z m -2.03363,-1.23228 c 0,-0.33096 -0.11907,-0.67533 -0.26459,-0.76527 -0.45834,-0.28327 -0.28706,-0.92604 0.24676,-0.92604 0.28123,0 0.58691,-0.23813 0.67928,-0.52917 0.0924,-0.29104 0.27481,-0.52916 0.4054,-0.52916 0.1306,0 0.36489,0.23812 0.52065,0.52916 0.15576,0.29104 0.45058,0.52917 0.65515,0.52917 0.5932,0 0.78543,0.57457 0.28578,0.85419 -0.30653,0.17155 -0.40754,0.44956 -0.30776,0.84711 0.13719,0.54662 0.0582,0.59176 -1.03608,0.59176 -1.05583,0 -1.18459,-0.0654 -1.18459,-0.60175 z"
         id="path215"
         inkscape:connector-curvature="0" />
      <path
         style="fill:#b9b9b9;fill-opacity:1;stroke-width:0.26458332"
         d="m 153.92238,252.18116 c -1.05358,-0.65435 -1.88545,-1.58595 -2.23133,-2.49883 -0.17457,-0.46074 -0.28221,-3.47381 -0.28221,-7.89966 0,-6.12748 0.0549,-7.13378 0.38202,-7.00824 0.47683,0.18298 23.63465,16.7441 24.34917,17.41311 0.50794,0.47558 0.22995,0.48855 -10.45104,0.48759 -10.24298,-9.2e-4 -11.02566,-0.0338 -11.76661,-0.49397 z m 37.94736,-0.27844 c -0.7412,-0.7412 -0.7734,-0.87337 -0.7734,-3.175 v -2.4016 h 2.38125 2.38125 v 2.47491 c 0,2.26033 -0.0562,2.5356 -0.64883,3.175 -0.92168,0.99451 -2.30277,0.9642 -3.34027,-0.0733 z m -14.53173,-4.83936 c -2.69924,-1.95492 -14.0929,-10.14536 -18.97898,-13.64321 -1.92547,-1.3784 -3.43649,-2.61033 -3.35782,-2.73761 0.0787,-0.12728 2.18983,-0.23151 4.69147,-0.23163 l 4.54845,-2.1e-4 -1.5875,-0.76275 c -3.76598,-1.80944 -5.91127,-6.06771 -4.91401,-9.75402 l 0.3042,-1.12448 h 7.76261 c 6.90372,0 7.80279,0.0485 8.12574,0.43831 0.24999,0.30175 0.36155,1.1879 0.35805,2.84427 -0.004,2.09132 -0.0979,2.58324 -0.71508,3.76152 -0.88767,1.69476 -2.75721,3.36351 -4.53355,4.04664 l -1.36088,0.52336 4.23334,0.0196 c 3.51352,0.0163 4.41514,0.10219 5.30261,0.50531 1.45875,0.66262 2.40526,1.87326 2.76337,3.5345 0.37543,1.74162 0.26387,14.00948 -0.12848,14.12877 -0.14552,0.0443 -1.27662,-0.65252 -2.51354,-1.54836 z m 4.34743,-1.35071 c -0.0785,-0.2045 -0.10649,-1.07287 -0.0623,-1.9297 l 0.0804,-1.55787 3.175,-0.13229 c 1.85208,-0.0772 3.175,-0.24254 3.175,-0.39688 0,-0.15434 -1.32292,-0.3197 -3.175,-0.39687 l -3.175,-0.1323 -0.0821,-0.99218 -0.0821,-0.99219 2.99253,-0.004 c 1.6459,-0.002 3.17013,-0.11633 3.3872,-0.25357 0.81144,-0.51301 -0.19059,-0.78352 -3.17677,-0.85761 l -3.03873,-0.0754 v -1.71979 -1.71979 l 7.51453,-0.0703 c 8.27169,-0.0774 8.33044,-0.0675 9.16784,1.55188 0.34182,0.66101 0.40539,1.53491 0.33624,4.62245 -0.0842,3.75782 -0.0948,3.81688 -0.8185,4.54021 l -0.73323,0.73287 -7.6712,0.0776 c -6.39675,0.0647 -7.6949,0.0159 -7.81387,-0.29421 z m 12.09101,-3.35528 c 0.53902,0 1.55322,-1.42062 1.55322,-2.17566 0,-0.97724 -1.27901,-2.32226 -2.2083,-2.32226 -0.36383,0 -1.02784,0.30824 -1.47556,0.68498 -0.64158,0.53985 -0.81405,0.89445 -0.81405,1.67367 0,1.30085 1.31972,2.57192 2.33674,2.2506 0.1938,-0.0612 0.46738,-0.11133 0.60795,-0.11133 z m 0.10679,-9.06198 c -0.0811,-0.47294 -0.31165,-1.92356 -0.51229,-3.22359 -0.25749,-1.66841 -0.50491,-2.46614 -0.84111,-2.71198 -0.36609,-0.26769 -2.13458,-0.34828 -7.64291,-0.34828 -6.05811,0 -7.25755,0.0637 -7.75464,0.41187 -0.32342,0.22654 -0.58803,0.64326 -0.58803,0.92605 0,0.42346 -0.18669,0.51416 -1.05834,0.51416 -0.98846,0 -1.05833,-0.05 -1.05833,-0.75807 0,-0.41694 0.25812,-1.08621 0.57359,-1.48727 1.08096,-1.37422 1.65816,-1.45891 9.9351,-1.45784 7.08154,9.3e-4 7.67453,0.0371 8.46079,0.51654 1.26929,0.77393 1.64414,1.54838 2.06944,4.2755 0.21298,1.36566 0.45331,2.86997 0.53406,3.34291 0.14536,0.85129 0.13624,0.8599 -0.9115,0.8599 -0.98738,0 -1.06822,-0.0577 -1.20583,-0.8599 z m -11.62638,-9.15534 c -0.0767,-0.12411 0.12463,-0.74906 0.4474,-1.38878 0.99115,-1.96436 2.85627,-2.08363 4.08441,-0.26118 1.13551,1.68499 0.94297,1.87561 -1.89442,1.87561 -1.37386,0 -2.56069,-0.10154 -2.63739,-0.22565 z m -0.60364,-3.38219 c -0.4261,-1.11038 1.49537,-2.30018 3.44356,-2.1323 1.83305,0.15796 3.62147,1.60948 2.88745,2.34351 -0.25308,0.25307 -0.54302,0.19793 -1.353,-0.2573 -1.27899,-0.71884 -2.29047,-0.73343 -3.41264,-0.0492 -1.05167,0.6412 -1.34896,0.6593 -1.56537,0.0953 z m -1.49299,-1.33105 c -0.41073,-0.41073 -0.11839,-1.16266 0.68351,-1.75798 2.32108,-1.72316 5.80315,-1.66259 7.98876,0.13897 1.70635,1.40653 0.93719,2.32572 -0.91852,1.09767 -0.8494,-0.56211 -1.51528,-0.76196 -2.81434,-0.84468 -1.54266,-0.0982 -1.82576,-0.0312 -3.02945,0.71703 -1.38613,0.86167 -1.61837,0.94058 -1.90996,0.64899 z m -22.72889,-1.66839 c -0.87253,-0.68633 -1.92663,-3.24824 -1.58653,-3.85596 0.13712,-0.24502 1.54661,-0.9673 3.13219,-1.60506 l 2.88288,-1.15958 3.83646,0.0103 3.83646,0.0103 2.89784,1.14537 c 2.00254,0.79151 2.97478,1.3178 3.14687,1.70347 0.31215,0.69954 -0.43644,2.78991 -1.31302,3.66649 -0.60491,0.60491 -0.62828,0.6066 -8.38815,0.6066 -7.34465,0 -7.8188,-0.0293 -8.445,-0.52187 z m 9.74667,-1.43605 c 0.91969,-0.91969 0.91142,-0.88477 0.89871,-3.79677 -0.001,-0.27002 -1.91141,-0.43721 -3.37257,-0.29517 -0.25466,0.0247 -0.63118,-0.003 -0.83671,-0.0614 -0.2891,-0.0823 -0.3901,0.27771 -0.44618,1.59052 -0.0689,1.61297 -0.0288,1.74064 0.81026,2.57969 1.11763,1.11763 1.816,1.11364 2.94649,-0.0169 z m -2.61455,-0.9525 c -0.0634,-0.3638 -0.20431,-0.86982 -0.31322,-1.12448 -0.14406,-0.33685 -0.0757,-0.46302 0.2509,-0.46302 0.24691,0 0.66085,-0.26172 0.91988,-0.58161 l 0.47096,-0.58161 0.18459,0.58161 c 0.10361,0.32646 0.40207,0.58161 0.68032,0.58161 0.68342,0 0.8686,0.40041 0.37474,0.81028 -0.23858,0.198 -0.35319,0.57129 -0.27323,0.88988 0.12367,0.49277 0.0194,0.5488 -1.02101,0.5488 -1.02888,0 -1.17165,-0.0741 -1.27393,-0.66146 z"
         id="path213"
         inkscape:connector-curvature="0" />
      <path
         style="fill:#a3a3a3;fill-opacity:1;stroke-width:0.26458332"
         d="m 154.18696,252.30262 c -1.02243,-0.45443 -1.85404,-1.36663 -2.36862,-2.59818 -0.5757,-1.37785 -0.61706,-15.15625 -0.0448,-14.93667 0.20057,0.077 2.13533,1.41958 4.29948,2.98359 2.16414,1.564 5.60168,4.0386 7.63897,5.4991 9.97694,7.15232 12.4424,8.96021 12.52362,9.18334 0.0525,0.14426 -4.23013,0.23813 -10.58334,0.23196 -8.30167,-0.008 -10.8478,-0.0887 -11.46528,-0.36314 z m 37.68278,-0.3999 c -0.74169,-0.74169 -0.7734,-0.87229 -0.7734,-3.1853 v -2.4119 l 2.3151,0.0764 2.31511,0.0764 0.0766,2.32501 c 0.0747,2.26866 0.0576,2.34401 -0.70725,3.10885 -1.0506,1.0506 -2.18233,1.05427 -3.22615,0.0105 z m -17.04528,-6.7391 c -2.76489,-1.98354 -8.32528,-5.95648 -12.35642,-8.82874 -4.03113,-2.87227 -7.29563,-5.34137 -7.25442,-5.48689 0.0443,-0.15651 1.93633,-0.31861 4.63222,-0.39687 l 4.55732,-0.13229 -1.31049,-0.46421 c -3.70019,-1.3107 -6.32502,-6.04645 -5.35197,-9.6561 l 0.30312,-1.12448 h 7.91169 c 5.62185,0 7.96546,0.087 8.0975,0.30065 0.1022,0.16536 0.24314,1.10193 0.31322,2.08128 0.2796,3.90782 -1.95191,7.22118 -5.7609,8.55383 -1.17389,0.4107 -1.13375,0.41622 3.11878,0.42869 5.48546,0.0161 6.5771,0.3989 7.76291,2.72228 0.46673,0.91449 0.49984,1.54645 0.43486,8.29958 l -0.0703,7.30972 z m 7.02999,0.52336 c -0.18334,-0.22091 -0.27803,-1.00777 -0.23083,-1.91823 l 0.08,-1.54367 3.24115,-0.0743 c 2.60855,-0.0598 3.24114,-0.14857 3.24114,-0.45488 0,-0.30631 -0.63259,-0.39509 -3.24114,-0.45488 l -3.24115,-0.0743 v -0.92604 -0.92604 l 3.175,-0.13229 c 2.58704,-0.1078 3.175,-0.20579 3.175,-0.52917 0,-0.32338 -0.58796,-0.42137 -3.175,-0.52916 l -3.175,-0.1323 v -1.71979 -1.71979 l 7.40833,-0.0645 c 8.19046,-0.0713 8.41253,-0.0345 9.19387,1.52336 0.62789,1.25191 0.67215,7.29189 0.0621,8.47164 -0.77389,1.49654 -1.24713,1.57885 -9.07811,1.57885 -5.82138,0 -7.18135,-0.0685 -7.43534,-0.37456 z m 12.1576,-3.46464 c 1.46567,-0.75793 1.79476,-2.58688 0.66819,-3.71345 -1.6929,-1.69291 -4.60436,0.24352 -3.80666,2.53182 0.26506,0.76034 1.27866,1.54775 2.02184,1.57065 0.18912,0.006 0.69161,-0.16923 1.11663,-0.38902 z m 0.14122,-8.30862 c -0.0821,-0.13287 -0.34416,-1.53185 -0.58232,-3.10886 -0.24168,-1.60034 -0.60991,-3.07187 -0.83336,-3.3303 -0.36363,-0.42056 -1.08442,-0.46302 -7.85896,-0.46302 -8.01987,0 -7.91967,-0.0165 -8.41815,1.38906 -0.2189,0.61727 -1.71903,0.63471 -1.95387,0.0227 -0.26415,-0.68837 0.74926,-2.28899 1.77306,-2.80044 0.81604,-0.40765 1.81492,-0.46265 8.40902,-0.46302 9.99944,-5.5e-4 9.97761,-0.0106 10.73599,4.94688 0.60658,3.96518 0.5995,4.04855 -0.34397,4.04855 -0.42798,0 -0.84532,-0.10871 -0.92744,-0.24157 z m -11.78719,-10.14333 c 5.3e-4,-0.32742 0.23001,-0.9709 0.50992,-1.42996 0.93009,-1.52534 2.98723,-1.40522 3.98589,0.23274 1.00465,1.64778 0.84449,1.79253 -1.98326,1.79253 -2.43054,0 -2.51351,-0.0197 -2.51255,-0.59531 z m -0.71286,-3.01253 c -0.25417,-0.66235 0.25007,-1.23693 1.56691,-1.7855 0.82569,-0.34396 1.4848,-0.44451 2.12568,-0.32428 1.14594,0.21498 2.67399,1.21397 2.79169,1.82512 0.1392,0.72283 -0.63832,0.81245 -1.50291,0.17324 -0.64041,-0.47347 -1.02964,-0.56038 -2.01327,-0.44951 -0.67065,0.0756 -1.43227,0.33012 -1.69249,0.56561 -0.60389,0.54651 -1.06475,0.54482 -1.27561,-0.005 z m -1.5875,-1.5875 c -0.24104,-0.62813 0.20647,-1.19814 1.52966,-1.94841 0.96137,-0.5451 1.51565,-0.66053 3.15096,-0.6562 2.06357,0.005 3.19352,0.3948 4.43177,1.52702 1.26697,1.15849 0.34129,1.94853 -1.04539,0.89221 -1.91235,-1.45676 -4.29747,-1.47271 -6.40454,-0.0428 -1.14192,0.77492 -1.43711,0.81544 -1.66246,0.22819 z m -22.87963,-1.61402 c -0.62022,-0.72946 -1.55875,-3.16286 -1.38974,-3.6033 0.0838,-0.21834 1.51272,-0.94137 3.17542,-1.60674 l 3.02309,-1.20976 h 3.70148 3.70148 l 3.04613,1.21898 c 3.59511,1.43867 3.71323,1.61895 2.59671,3.96303 l -0.74536,1.56486 -8.35621,0.0698 c -7.70764,0.0644 -8.387,0.0336 -8.753,-0.39687 z m 9.99258,-1.20078 c 0.8757,-0.80252 0.94927,-0.98924 0.99791,-2.53287 0.056,-1.77678 -0.0892,-2.07227 -0.81767,-1.66457 -0.29716,0.16629 -0.63007,0.16453 -0.94689,-0.005 -0.31832,-0.17036 -0.74544,-0.17196 -1.22556,-0.005 -0.40899,0.14258 -0.89713,0.15792 -1.09686,0.0345 -0.50348,-0.31117 -1.09301,0.22712 -0.80749,0.73732 0.12365,0.22093 0.16882,0.89841 0.10039,1.50549 -0.11352,1.00719 -0.0401,1.17786 0.83934,1.94998 1.21565,1.06736 1.77426,1.06354 2.95683,-0.0202 z m -2.37358,-0.37764 c -0.0919,-0.0919 -0.16708,-0.42108 -0.16708,-0.73152 0,-0.31045 -0.13845,-0.7029 -0.30767,-0.87211 -0.23384,-0.23384 -0.14525,-0.36942 0.36913,-0.56499 0.37223,-0.14152 0.74133,-0.41384 0.82021,-0.60514 0.11309,-0.27428 0.21686,-0.26044 0.49077,0.0654 0.19104,0.2273 0.55571,0.49145 0.81037,0.58701 0.51221,0.19219 0.60704,0.59927 0.19844,0.8518 -0.14552,0.0899 -0.26459,0.46007 -0.26459,0.82251 0,0.54618 -0.0781,0.61529 -0.45619,0.4037 -0.26988,-0.15104 -0.63386,-0.16021 -0.89125,-0.0225 -0.23928,0.12806 -0.51025,0.15766 -0.60214,0.0658 z"
         id="path211"
         inkscape:connector-curvature="0" />
      <path
         style="fill:#8c8c8c;fill-opacity:1;stroke-width:0.26458332"
         d="m 154.18696,252.17851 c -1.25883,-0.57806 -1.82295,-1.16811 -2.37115,-2.48014 -0.33154,-0.79347 -0.40697,-2.27519 -0.40697,-7.99396 0,-3.86098 0.0757,-7.01996 0.16822,-7.01996 0.0925,0 1.96776,1.29463 4.16719,2.87696 2.19943,1.58233 7.6899,5.52071 12.20105,8.75197 4.51114,3.23126 8.24177,5.98475 8.29028,6.11887 0.0529,0.14622 -4.13182,0.24154 -10.45105,0.23806 -9.65922,-0.005 -10.6276,-0.0464 -11.59757,-0.4918 z m 37.78403,-0.14063 c -0.70253,-0.604 -0.7473,-0.77492 -0.83441,-3.18568 l -0.0921,-2.54744 2.34101,0.0768 2.34101,0.0768 v 2.47084 c 0,2.37937 -0.0275,2.49445 -0.74236,3.10885 -0.94877,0.81542 -2.0646,0.81533 -3.0132,-2.2e-4 z m -20.98298,-9.66208 c -4.87495,-3.50803 -10.44414,-7.5136 -12.37599,-8.90128 -1.93184,-1.38767 -3.44286,-2.63563 -3.35782,-2.77322 0.0876,-0.14168 2.29936,-0.25793 5.09994,-0.26804 4.41586,-0.0159 4.81585,-0.0528 3.73601,-0.34392 -3.7579,-1.01324 -6.38721,-4.26212 -6.4405,-7.95811 -0.0127,-0.88109 0.0685,-1.92941 0.18038,-2.32959 l 0.20347,-0.7276 h 7.92227 7.92226 l 0.3042,1.12448 c 0.71184,2.63129 -0.54761,6.45889 -2.68134,8.14883 -1.08128,0.85639 -2.9868,1.79566 -3.82018,1.88305 -0.29104,0.0305 1.62304,0.12243 4.2535,0.20425 4.69022,0.14589 4.80446,0.1632 5.91036,0.89559 2.045,1.35432 2.15898,1.91612 2.07741,10.2384 l -0.0704,7.18538 z m 10.84791,1.70136 v -1.71979 h 2.75649 c 2.96459,0 3.59351,-0.11925 3.59351,-0.68137 0,-0.27917 -0.69913,-0.37694 -3.10885,-0.43471 l -3.10886,-0.0745 -0.0816,-0.98365 -0.0816,-0.98366 3.12112,-0.0747 c 2.72727,-0.0652 3.13232,-0.1331 3.20986,-0.53769 0.0806,-0.42031 -0.20595,-0.46302 -3.10566,-0.46302 h -3.1944 v -1.85209 -1.85208 h 7.2636 c 7.74063,0 8.23724,0.071 9.07071,1.29755 0.64581,0.95035 0.7796,7.461 0.17759,8.64251 -0.73685,1.44616 -0.68034,1.43702 -8.88955,1.43702 h -7.62235 z m 12.72035,-2.22861 c 1.51881,-1.5188 0.64895,-3.9891 -1.40466,-3.9891 -2.43746,0 -3.45621,3.01896 -1.43471,4.25159 1.16349,0.70945 1.93915,0.63775 2.83937,-0.26249 z m -0.44278,-8.06135 c -0.0777,-0.20244 -0.35339,-1.7022 -0.61266,-3.33279 -0.28895,-1.8172 -0.6151,-3.05568 -0.84264,-3.19974 -0.51134,-0.32374 -14.96487,-0.31031 -15.57173,0.0145 -0.26473,0.14168 -0.55683,0.5584 -0.6491,0.92604 -0.13297,0.5298 -0.33308,0.66844 -0.96478,0.66844 -1.03597,0 -1.2171,-0.53034 -0.60737,-1.77837 0.89917,-1.84052 1.3298,-1.92492 9.82348,-1.92539 8.27518,-4.5e-4 8.90497,0.10128 9.80671,1.58407 0.4296,0.70641 1.36974,5.49222 1.36496,6.94833 -0.002,0.57476 -1.53087,0.65785 -1.74687,0.0949 z m -11.7484,-9.97599 c 0,-0.85467 0.81367,-2.03539 1.63792,-2.37681 1.35416,-0.56091 2.77943,0.4145 3.22006,2.2037 l 0.17918,0.7276 h -2.51858 c -2.38053,0 -2.51858,-0.0304 -2.51858,-0.55449 z m -0.69807,-3.01738 c -0.40011,-1.04267 1.11257,-2.04543 3.08557,-2.04543 1.24148,0 2.10784,0.30978 2.97031,1.0621 1.0544,0.91973 0.0596,1.72565 -1.05137,0.85175 -0.90102,-0.70874 -2.68432,-0.7091 -3.58489,-7.1e-4 -0.80254,0.63128 -1.21345,0.66957 -1.41962,0.13229 z m -1.35245,-1.38072 c -0.65886,-0.23624 -0.32353,-1.12995 0.66146,-1.76287 2.19518,-1.41056 4.47779,-1.55875 6.78746,-0.44066 1.41487,0.68493 2.26275,1.71747 1.79468,2.18554 -0.21549,0.21549 -0.5613,0.10967 -1.2961,-0.39665 -0.5512,-0.37981 -1.56267,-0.83918 -2.24771,-1.02082 -1.07011,-0.28375 -1.45077,-0.26556 -2.70296,0.12916 -0.8016,0.25268 -1.52767,0.57303 -1.61349,0.7119 -0.24273,0.39275 -1.0174,0.72561 -1.38334,0.5944 z m -22.76225,-1.57533 c -0.47232,-0.1898 -1.64556,-2.58022 -1.64556,-3.35276 0,-0.84652 0.23309,-1.00754 3.175,-2.19328 2.43602,-0.98183 2.62893,-1.01586 6.25507,-1.10319 l 3.74154,-0.0901 2.87305,1.11281 c 2.95884,1.14603 3.79909,1.65083 3.79909,2.28238 0,0.48857 -1.31526,3.0746 -1.68835,3.31958 -0.3296,0.21643 -15.97444,0.23971 -16.50984,0.0246 z m 9.09472,-0.93446 c 1.20621,-0.82651 1.60724,-1.69697 1.55976,-3.38553 l -0.0409,-1.45521 -0.94365,0.0838 c -0.51902,0.0461 -1.02236,-0.0435 -1.11854,-0.19916 -0.12388,-0.20043 -0.33171,-0.19903 -0.71263,0.005 -0.29577,0.15829 -0.81703,0.2177 -1.15836,0.13203 -0.35695,-0.0896 -0.70401,-0.0208 -0.81694,0.16193 -0.20908,0.33831 -0.16569,2.67884 0.0641,3.45785 0.11653,0.39503 1.82542,1.78266 2.19538,1.78266 0.0664,0 0.50366,-0.26245 0.9718,-0.58322 z m -2.00903,-1.64674 c 0,-0.31605 -0.14288,-0.7175 -0.3175,-0.89213 -0.24695,-0.24694 -0.24695,-0.3175 0,-0.3175 0.17462,0 0.55562,-0.23812 0.84666,-0.52916 0.51741,-0.51741 0.54019,-0.51815 1.02526,-0.0331 0.27286,0.27286 0.65981,0.55563 0.8599,0.62839 0.29178,0.1061 0.29833,0.20169 0.0331,0.48286 -0.1819,0.19282 -0.33073,0.53714 -0.33073,0.76516 0,0.30267 -0.28569,0.42208 -1.05833,0.44233 -0.91837,0.0241 -1.05833,-0.0482 -1.05833,-0.54687 z"
         id="path209"
         inkscape:connector-curvature="0" />
      <path
         style="fill:#767676;fill-opacity:1;stroke-width:0.26458332"
         d="m 154.82556,252.42325 c -1.11511,-0.33794 -2.04556,-1.0622 -2.68446,-2.08961 -0.57834,-0.93003 -0.60306,-1.22116 -0.6856,-8.07585 -0.0471,-3.91107 0.0124,-7.20655 0.13229,-7.32329 0.11986,-0.11674 1.05136,0.3994 2.07001,1.14698 1.01864,0.74758 6.31693,4.56105 11.77396,8.47437 5.45703,3.91332 10.15669,7.34128 10.44369,7.61769 0.51293,0.49402 0.34407,0.50219 -9.92188,0.47984 -5.74403,-0.0125 -10.75164,-0.11607 -11.12801,-0.23013 z m 37.62282,-0.11636 c -1.02515,-0.5682 -1.33253,-1.43767 -1.34266,-3.79796 l -0.009,-2.18281 h 2.24896 2.24896 v 2.52557 c 0,2.32869 -0.0506,2.57619 -0.64944,3.175 -0.71922,0.71922 -1.53845,0.81117 -2.49644,0.2802 z m -14.34331,-4.86978 c -0.93121,-0.69864 -6.50304,-4.71166 -12.38185,-8.91784 -10.16759,-7.2747 -10.65136,-7.65829 -9.92188,-7.8672 0.42178,-0.12079 1.22105,-0.15325 1.77614,-0.0721 0.5551,0.0811 2.63869,0.0614 4.63021,-0.0438 2.90805,-0.15363 3.37617,-0.22822 2.37768,-0.37887 -3.78035,-0.57036 -6.87994,-4.15722 -6.93572,-8.02603 -0.0127,-0.88109 0.0685,-1.92941 0.18038,-2.32959 l 0.20347,-0.7276 h 7.92742 7.92742 l 0.20348,0.7276 c 0.38395,1.37293 0.16225,4.14944 -0.44035,5.51485 -1.0543,2.38895 -3.30443,4.23065 -5.83514,4.77598 l -1.45853,0.3143 1.45521,0.0315 c 9.29956,0.20108 10.10401,0.35846 11.33455,2.21744 l 0.70399,1.06352 0.0619,7.49408 c 0.0341,4.12175 0.022,7.49409 -0.0267,7.49409 -0.0487,0 -0.85051,-0.57162 -1.78171,-1.27026 z m 3.73085,-3.35995 v -1.71979 h 3.05101 c 2.50584,0 3.07901,-0.073 3.20769,-0.40829 0.0862,-0.22456 0.0728,-0.49245 -0.0296,-0.59531 -0.10247,-0.10287 -1.54593,-0.22704 -3.20769,-0.27594 l -3.02138,-0.0889 v -0.89487 -0.89488 l 3.10566,-0.0745 c 2.68971,-0.0646 3.11732,-0.13541 3.19275,-0.52901 0.0777,-0.40555 -0.24946,-0.46252 -3.03951,-0.52917 l -3.12661,-0.0747 -0.0782,-1.78593 -0.0782,-1.78594 h 7.11635 c 4.52591,0 7.42259,0.10675 7.95763,0.29327 1.39317,0.48566 1.61894,1.28832 1.61894,5.75549 v 3.95836 l -0.81405,0.68498 -0.81405,0.68498 h -7.52032 -7.52033 z m 12.72035,-2.22861 c 1.55357,-1.55356 0.64759,-3.9891 -1.48388,-3.9891 -1.26555,0 -2.50522,1.17832 -2.50522,2.38125 0,0.56952 0.24556,1.08001 0.7734,1.60785 1.03982,1.03982 2.17589,1.03982 3.2157,0 z m -0.38238,-7.90147 c -0.0708,-0.11451 -0.32051,-1.50013 -0.55497,-3.07914 -0.23446,-1.57902 -0.54108,-3.08542 -0.68137,-3.34756 -0.39541,-0.73882 -1.94547,-0.83881 -9.26817,-0.5979 l -6.72825,0.22135 -0.39687,0.85417 c -0.30483,0.65606 -0.56563,0.85549 -1.12448,0.85989 -0.63678,0.005 -0.72761,-0.0955 -0.72761,-0.80541 0,-1.19491 0.43955,-1.8196 1.675,-2.38054 0.99671,-0.45255 1.80506,-0.50087 8.37917,-0.50087 9.95848,0 9.85783,-0.0516 10.69116,5.48158 0.24681,1.63881 0.37602,3.09732 0.28714,3.24114 -0.19211,0.31085 -1.36663,0.3512 -1.55075,0.0533 z m -11.8088,-10.23866 c 0,-0.36151 0.33856,-1.0362 0.75234,-1.49931 0.93048,-1.04137 2.11754,-1.13271 3.07169,-0.23633 0.67173,0.63105 1.27306,1.97014 1.00506,2.23814 -0.0851,0.0851 -1.2065,0.15478 -2.49194,0.15478 -2.31261,0 -2.33715,-0.007 -2.33715,-0.65728 z m -0.48681,-2.84578 c -0.51154,-0.51153 -0.35097,-0.92448 0.58418,-1.50244 1.1973,-0.73997 3.35797,-0.74769 4.5415,-0.0162 1.0105,0.62453 1.2888,1.1641 0.80677,1.56416 -0.25465,0.21134 -0.5331,0.13634 -1.07426,-0.28934 -0.87412,-0.68758 -2.79908,-0.783 -3.50807,-0.17389 -0.76795,0.65977 -1.02772,0.74014 -1.35012,0.41774 z m -1.5913,-1.50019 c -0.66352,-0.41008 -0.17262,-1.21077 1.19129,-1.94308 1.81374,-0.97384 3.34853,-1.15916 5.18313,-0.62583 1.82593,0.53082 3.3386,1.82098 2.83975,2.42205 -0.2976,0.35859 -0.39273,0.35751 -0.89036,-0.0101 -2.50036,-1.84727 -4.96587,-1.85309 -7.43788,-0.0175 -0.32058,0.23804 -0.67138,0.30715 -0.88593,0.17455 z m -22.75305,-1.5308 c -0.44314,-0.1765 -1.62108,-2.65739 -1.62459,-3.42157 -0.003,-0.75444 0.21083,-0.88824 3.47359,-2.16882 2.80006,-1.09898 2.83291,-1.10472 6.31341,-1.10472 3.47689,0 3.51625,0.007 6.31341,1.10078 1.5481,0.60543 3.03001,1.30028 3.29314,1.54411 0.46116,0.42733 0.45929,0.49372 -0.052,1.83932 -0.97278,2.56015 -0.33034,2.39785 -9.39712,2.37406 -4.37945,-0.0115 -8.12338,-0.0849 -8.31984,-0.16316 z m 9.12978,-0.89982 c 1.20283,-0.7434 1.62257,-1.66398 1.55519,-3.41094 l -0.056,-1.4521 -0.90255,-0.0539 c -1.94124,-0.11596 -3.57423,-0.0146 -3.82629,0.23743 -0.24935,0.24935 -0.26002,2.58119 -0.0152,3.31929 0.16121,0.48599 1.83386,1.91495 2.24152,1.91495 0.0582,0 0.50968,-0.24962 1.00333,-0.55471 z m -1.90248,-1.50144 c 0.0848,-0.2209 -0.0458,-0.62254 -0.29014,-0.89253 -0.26348,-0.29115 -0.31991,-0.49091 -0.13867,-0.49091 0.16807,0 0.54371,-0.23812 0.83475,-0.52916 l 0.52917,-0.52917 0.52917,0.52917 c 0.29104,0.29104 0.67204,0.52916 0.84666,0.52916 0.24695,0 0.24695,0.0706 0,0.3175 -0.17462,0.17463 -0.3175,0.5636 -0.3175,0.86438 0,0.45832 -0.17388,0.55143 -1.07378,0.57503 -0.85801,0.0225 -1.04281,-0.0525 -0.91966,-0.37347 z"
         id="path207"
         inkscape:connector-curvature="0" />
      <path
         style="fill:#606060;fill-opacity:1;stroke-width:0.26458332"
         d="m 154.75719,252.29018 c -0.5595,-0.19948 -1.31495,-0.64074 -1.67878,-0.98057 -1.36652,-1.27636 -1.40499,-1.52834 -1.40499,-9.20369 0,-3.93628 0.0677,-7.15688 0.1505,-7.15688 0.32215,0 24.19117,17.24711 24.19117,17.47988 0,0.1491 -4.01612,0.24259 -10.12031,0.23559 -7.8773,-0.009 -10.34578,-0.092 -11.13759,-0.37433 z m 38.02934,0.12416 c -1.2528,-0.50066 -1.69019,-1.50343 -1.69019,-3.87495 v -2.21327 h 2.24896 2.24896 v 2.46742 c 0,2.22097 -0.0595,2.52184 -0.59532,3.0123 -0.75246,0.68871 -1.49835,0.89386 -2.21241,0.6085 z m -21.00477,-9.5601 c -4.43839,-3.20196 -10.00418,-7.20371 -12.36844,-8.89279 -2.36425,-1.68907 -4.2538,-3.11587 -4.199,-3.17067 0.0548,-0.0548 4.88561,-0.10006 10.73513,-0.10058 l 10.63549,-9.2e-4 1.1225,0.65782 c 1.92987,1.13098 2.02154,1.571 2.08711,10.01811 0.0314,4.0382 0.057,7.33513 0.057,7.32649 0,-0.009 -3.63141,-2.63549 -8.06979,-5.83745 z m 10.05416,1.23132 v -1.7114 l 3.10886,-0.0745 c 2.90761,-0.0697 3.10885,-0.1088 3.10885,-0.60371 0,-0.49491 -0.20124,-0.53399 -3.10885,-0.60371 l -3.10886,-0.0745 v -0.91765 -0.91764 h 3.175 c 2.99861,0 3.175,-0.0294 3.175,-0.52917 0,-0.60607 0.19973,-0.56996 -3.43958,-0.62185 l -2.77813,-0.0396 -0.0788,-1.65364 -0.0788,-1.65365 6.16419,-0.0625 c 9.12316,-0.0924 8.94192,-0.10813 9.80221,0.84889 0.72571,0.80732 0.7276,0.81976 0.7276,4.79435 v 3.98493 l -0.7734,0.77339 -0.77339,0.7734 h -7.56098 -7.56098 z m 12.27793,-1.76485 c 0.82386,-0.37538 1.4815,-1.71866 1.29954,-2.65442 -0.20778,-1.06858 -1.25522,-1.91267 -2.37343,-1.91267 -0.73836,0 -1.12315,0.19117 -1.71256,0.85084 -1.01336,1.13414 -1.00894,2.22198 0.0132,3.24409 0.8259,0.82591 1.67835,0.97104 2.77327,0.47216 z m -0.35779,-10.74511 c -0.48049,-3.64287 -0.62533,-4.12612 -1.34596,-4.49077 -0.4719,-0.23879 -2.59986,-0.33116 -7.69422,-0.33398 -6.72663,-0.004 -7.07314,0.0207 -7.73907,0.54447 -0.38342,0.30161 -0.69714,0.71832 -0.69714,0.92604 0,0.24325 -0.28252,0.37768 -0.79375,0.37768 -0.70832,0 -0.79375,-0.0868 -0.79375,-0.80639 0,-1.011 1.01177,-1.99985 2.4396,-2.38433 0.64834,-0.17457 3.74146,-0.24905 8.22928,-0.19814 9.67334,0.10973 9.18789,-0.18953 10.11127,6.23313 0.0785,0.5457 0.20698,1.31961 0.2856,1.71979 0.13393,0.68162 0.0848,0.7276 -0.77677,0.7276 h -0.91974 z m -30.30868,-1.75691 c -2.21841,-0.69685 -4.30576,-2.69177 -5.21113,-4.98038 -0.44644,-1.12852 -0.61991,-4.01495 -0.31065,-5.16896 l 0.15954,-0.59531 h 7.89465 7.89465 l 0.19726,0.99218 c 0.68048,3.4229 -0.47369,6.5118 -3.20428,8.57558 -1.98482,1.50013 -4.91265,1.96451 -7.42004,1.17689 z m 19.02132,-5.82919 c -0.0794,-0.20691 -7.9e-4,-0.65339 0.1746,-0.99218 0.61438,-1.18653 1.10325,-1.54203 2.12053,-1.54203 0.78492,0 1.13777,0.17109 1.67878,0.81405 0.37674,0.44772 0.68498,1.10257 0.68498,1.4552 0,0.62839 -0.045,0.64116 -2.25726,0.64116 -1.70725,0 -2.29244,-0.0917 -2.40163,-0.3762 z m -0.77223,-3.33955 c -0.221,-0.35758 0.30548,-0.98219 1.23152,-1.46107 1.62703,-0.84137 4.7555,-0.10024 4.94561,1.1716 0.10529,0.70441 -0.22579,0.7137 -1.33493,0.0375 -1.0963,-0.66841 -1.93792,-0.66867 -3.24754,-9.9e-4 -1.18971,0.60655 -1.3595,0.63349 -1.59466,0.253 z m -1.59064,-1.59259 c -0.24046,-0.38906 0.5992,-1.25467 1.86238,-1.91992 1.39002,-0.73206 4.09718,-0.76902 5.42396,-0.0741 1.17465,0.61527 2.11667,1.47176 2.11667,1.92449 0,0.53626 -0.53018,0.42202 -1.65318,-0.35623 -1.33865,-0.92768 -3.38627,-1.12166 -5.06653,-0.47996 -0.66566,0.25422 -1.34561,0.62528 -1.51101,0.82458 -0.35886,0.43238 -0.93073,0.47195 -1.17229,0.0811 z m -22.92627,-1.786 c -0.73142,-0.86924 -1.41029,-2.74908 -1.1952,-3.3096 0.0821,-0.21402 1.43772,-0.90748 3.01242,-1.54103 l 2.8631,-1.1519 h 3.83646 3.83646 l 2.91041,1.19062 c 2.5983,1.06294 2.91917,1.26633 2.99204,1.89649 0.097,0.83922 -1.06532,3.25916 -1.67848,3.49445 -0.23694,0.0909 -3.92281,0.16531 -8.19084,0.16531 h -7.76005 z m 9.49612,-0.30328 c 1.12347,-0.68502 1.6048,-1.70851 1.56038,-3.318 -0.0448,-1.6233 -0.30718,-2.14534 -0.85132,-1.69374 -0.2871,0.23827 -0.54245,0.24284 -1.03478,0.0185 -0.48436,-0.22069 -0.82288,-0.22069 -1.30724,0 -0.48833,0.2225 -0.7471,0.22024 -1.02323,-0.009 -0.60656,-0.50339 -0.89991,0.1878 -0.84733,1.99645 0.051,1.7548 0.31184,2.25045 1.59814,3.03689 0.972,0.59428 0.87705,0.59584 1.90538,-0.0312 z m -1.77309,-1.64546 c 0,-0.24426 -0.1871,-0.63122 -0.41577,-0.85989 -0.28466,-0.28466 -0.31209,-0.41578 -0.087,-0.41578 0.18083,0 0.54653,-0.19704 0.81265,-0.43788 0.45023,-0.40745 0.51747,-0.40745 0.9677,0 0.26612,0.24084 0.64176,0.43788 0.83476,0.43788 0.24299,0 0.19589,0.17129 -0.15312,0.55695 -0.27722,0.30632 -0.47427,0.60397 -0.43789,0.66146 0.21265,0.33599 -0.0274,0.50138 -0.7276,0.50138 -0.5667,0 -0.79375,-0.12704 -0.79375,-0.44412 z"
         id="path205"
         inkscape:connector-curvature="0" />
      <path
         style="fill:#494949;fill-opacity:1;stroke-width:0.26458332"
         d="m 154.18696,252.03804 c -0.97305,-0.43248 -1.85571,-1.36434 -2.23133,-2.35571 -0.28613,-0.75517 -0.41958,-14.73329 -0.14066,-14.73329 0.12477,0 2.28709,1.52886 5.54699,3.92197 0.58209,0.42731 4.92787,3.54434 9.6573,6.92673 4.72942,3.38239 8.71206,6.2542 8.85031,6.3818 0.14437,0.13325 -4.24774,0.22759 -10.31875,0.22164 -8.21714,-0.008 -10.7468,-0.0889 -11.36386,-0.36314 z m 37.78403,-0.26505 c -0.6883,-0.59206 -0.74914,-0.80394 -0.83565,-2.91042 l -0.0933,-2.27187 h 2.27611 2.27611 v 2.26099 c 0,2.04777 -0.0612,2.32222 -0.64944,2.91041 -0.84107,0.84108 -2.00373,0.84533 -2.97383,0.0109 z m -13.34067,-4.07949 c -0.52615,-0.38826 -2.9074,-2.10257 -5.29166,-3.80959 -12.12785,-8.68294 -17.33618,-12.44955 -17.68704,-12.79108 -0.33553,-0.32662 1.05016,-0.37713 10.34577,-0.37713 10.72587,0 10.7338,4.3e-4 11.62592,0.60161 0.491,0.33089 1.16345,1.00334 1.49434,1.49434 0.58999,0.87548 0.60161,1.03507 0.60161,8.26193 0,4.05306 -0.0298,7.35945 -0.0661,7.34752 -0.0364,-0.0119 -0.49663,-0.33935 -1.02279,-0.7276 z m 3.2056,-3.60794 v -1.7114 l 3.10886,-0.0745 c 2.90761,-0.0697 3.10885,-0.1088 3.10885,-0.60371 0,-0.49491 -0.20124,-0.53399 -3.10885,-0.60371 l -3.10886,-0.0745 v -0.78536 -0.78535 l 2.84427,-0.004 c 3.0328,-0.004 3.61376,-0.16434 3.46242,-0.95369 -0.0859,-0.448 -0.40417,-0.50487 -3.20103,-0.57201 l -3.10566,-0.0745 v -1.57911 -1.5791 h 7.56098 7.56098 l 0.77339,0.7734 0.7734,0.7734 v 3.73766 c 0,4.22952 -0.24132,5.05453 -1.61894,5.53477 -0.5349,0.18647 -3.42848,0.29327 -7.94554,0.29327 h -7.10427 z m 12.2987,-1.72651 c 0.97882,-0.37215 1.5778,-1.88467 1.19985,-3.02985 -0.35877,-1.08709 -1.72376,-1.89151 -2.76583,-1.62997 -1.18138,0.29651 -2.0027,1.31162 -1.99305,2.4633 0.0162,1.93818 1.62579,2.93154 3.55903,2.19652 z m -0.25059,-10.12199 c -0.34894,-3.30323 -0.65414,-4.5527 -1.22793,-5.02709 -0.5038,-0.41651 -1.30117,-0.46302 -7.93907,-0.46302 -7.02625,0 -7.40432,0.0253 -7.90819,0.52917 -0.29104,0.29104 -0.52917,0.70776 -0.52917,0.92604 0,0.26458 -0.26458,0.39688 -0.79375,0.39688 -0.67842,0 -0.79375,-0.1 -0.79375,-0.68792 0,-0.42442 0.33193,-1.01985 0.86658,-1.55449 1.1862,-1.1862 2.25349,-1.29326 10.55339,-1.05864 6.7737,0.19149 6.88846,0.20411 7.64536,0.841 0.84561,0.71153 1.1235,1.54495 1.57016,4.709 0.16435,1.16417 0.35912,2.32503 0.43282,2.57969 0.10934,0.37775 -0.035,0.46302 -0.78388,0.46302 h -0.91789 z m -30.17207,-2.40365 c -3.64969,-1.2128 -5.94908,-4.2476 -5.94692,-7.84896 5.5e-4,-0.94588 0.0728,-1.98768 0.16056,-2.3151 l 0.15954,-0.59531 h 7.76504 c 8.98458,0 8.31283,-0.23511 8.31283,2.9094 0,3.1773 -1.75797,6.01892 -4.56395,7.37727 -1.51981,0.73573 -4.39969,0.96696 -5.8871,0.4727 z m 18.65313,-6.01001 c 0,-0.53703 0.80481,-1.82625 1.30826,-2.09569 1.28562,-0.68804 2.9896,0.15144 3.34067,1.64581 l 0.17094,0.7276 h -2.40994 c -1.50624,0 -2.40993,-0.10414 -2.40993,-0.27772 z m -0.68824,-3.2052 c -0.27392,-0.4432 1.04951,-1.48869 2.14449,-1.69411 1.74996,-0.32829 4.1,0.60276 4.1,1.62436 0,0.50224 -0.50809,0.47876 -1.09291,-0.0505 -0.79387,-0.71844 -2.69346,-0.78604 -3.74941,-0.13343 -1.05244,0.65044 -1.14645,0.66745 -1.40217,0.25368 z m -1.58734,-1.58723 c -0.31117,-0.5035 1.34848,-1.75547 2.94071,-2.21834 1.59918,-0.4649 3.11335,-0.35059 4.49424,0.33927 1.03691,0.51801 1.98438,1.39462 1.98438,1.83597 0,0.41141 -0.68733,0.47241 -0.92838,0.0824 -0.34283,-0.55471 -2.40621,-1.39089 -3.56122,-1.44318 -1.31708,-0.0596 -2.58169,0.34968 -3.63134,1.17533 -0.78257,0.61557 -1.03206,0.65949 -1.29839,0.22856 z m -22.62861,-1.51388 c -0.68006,-0.53493 -1.69577,-2.98401 -1.47557,-3.55786 0.0734,-0.1912 1.48469,-0.87476 3.13627,-1.51902 l 3.00286,-1.17138 h 3.57188 3.57187 l 3.00287,1.17138 c 1.65157,0.64426 3.0616,1.32444 3.13339,1.51151 0.23143,0.60312 -0.7318,2.98259 -1.42959,3.53146 -0.64273,0.50557 -1.06166,0.53252 -8.27854,0.53252 -7.04567,0 -7.64791,-0.0365 -8.23544,-0.49861 z m 9.79291,-1.02995 c 1.03058,-0.98037 1.05007,-1.03352 1.02342,-2.79098 -0.0288,-1.89818 -0.18649,-2.21218 -0.90821,-1.80828 -0.28866,0.16154 -0.66608,0.15152 -1.06043,-0.0281 -0.4292,-0.19556 -0.7953,-0.19556 -1.2245,0 -0.36808,0.1677 -0.77837,0.186 -1.02876,0.0459 -0.6377,-0.35688 -0.91488,0.23193 -0.94239,2.0019 -0.0235,1.51053 0.0219,1.62448 1.02598,2.57969 0.57779,0.54964 1.27863,0.99935 1.55742,0.99935 0.27879,0 0.97965,-0.44973 1.55747,-0.9994 z m -2.35122,-1.37303 c 0,-0.23769 -0.14288,-0.57503 -0.3175,-0.74966 -0.22462,-0.22461 -0.23015,-0.3175 -0.0189,-0.3175 0.16423,0 0.4857,-0.1871 0.71438,-0.41577 0.37797,-0.37798 0.45357,-0.37798 0.83154,0 0.22868,0.22867 0.61563,0.41956 0.8599,0.42419 0.4067,0.008 0.4051,0.038 -0.0189,0.3599 -0.25466,0.19331 -0.46302,0.52687 -0.46302,0.74123 0,0.25668 -0.27103,0.38976 -0.79375,0.38976 -0.55797,0 -0.79375,-0.12837 -0.79375,-0.43215 z"
         id="path203"
         inkscape:connector-curvature="0" />
      <path
         style="fill:#333333;fill-opacity:1;stroke-width:0.26458332"
         d="m 154.47935,251.99659 c -1.36721,-0.50104 -1.74006,-0.83934 -2.31288,-2.0986 -0.42605,-0.93659 -0.48209,-1.86099 -0.48724,-8.03591 -0.006,-6.8913 6.5e-4,-6.9731 0.51591,-6.61459 0.28695,0.19965 2.49443,1.79175 4.90552,3.538 2.41109,1.74625 4.62157,3.30727 4.91216,3.46893 0.2906,0.16166 0.79178,0.52582 1.11375,0.80924 0.32197,0.28342 1.24024,0.96427 2.0406,1.51298 0.80037,0.54871 1.99099,1.39484 2.64584,1.88027 0.65484,0.48543 2.02406,1.45653 3.0427,2.158 1.01865,0.70147 2.00984,1.42637 2.20265,1.6109 0.19281,0.18453 0.87742,0.698 1.52136,1.14104 0.64393,0.44304 1.17079,0.85933 1.17079,0.9251 0,0.0658 -4.55414,0.11119 -10.12032,0.10094 -8.07326,-0.0149 -10.32875,-0.095 -11.15084,-0.3963 z m 38.0722,0.10462 c -1.00574,-0.54096 -1.19063,-1.05528 -1.19063,-3.31212 v -2.19839 h 2.11667 2.11667 v 2.09637 c 0,1.8264 -0.0817,2.19348 -0.63455,2.85048 -0.68361,0.81242 -1.56299,1.01825 -2.40816,0.56366 z m -13.89063,-4.4389 c -0.73029,-0.57878 -7.58145,-5.50586 -13.62604,-9.79933 -0.43656,-0.31008 -1.39303,-1.00328 -2.12548,-1.54043 -0.73245,-0.53715 -2.56101,-1.86961 -4.06346,-2.96101 -1.50246,-1.09141 -2.92724,-2.13322 -3.16619,-2.31515 -0.34937,-0.26599 1.68988,-0.3178 10.41346,-0.26458 12.1827,0.0743 11.66415,-0.009 12.99587,2.10011 l 0.63854,1.01152 -0.0703,7.25139 -0.0703,7.25138 z m 3.175,-3.71345 v -1.59149 h 3.1467 c 3.16435,0 3.57705,-0.12505 3.27457,-0.99219 -0.0836,-0.23963 -0.98387,-0.33073 -3.26831,-0.33073 h -3.15296 v -0.79375 -0.79375 h 3.0334 c 2.67874,0 3.06398,-0.0571 3.29491,-0.48863 0.4764,-0.89016 -0.15769,-1.09887 -3.33852,-1.09887 h -2.98979 v -1.5875 -1.5875 h 7.25882 c 3.99235,0 7.55852,0.11395 7.92483,0.25322 1.26111,0.47947 1.54523,1.5521 1.44406,5.45177 -0.0799,3.07988 -0.16062,3.61038 -0.64883,4.26406 l -0.55757,0.74658 -7.71066,0.0701 -7.71065,0.0701 z m 12.54761,-1.63047 c 1.37945,-0.62852 1.51848,-3.17658 0.22869,-4.19113 -2.01542,-1.58533 -5.00861,0.58096 -4.03855,2.92287 0.60506,1.46075 2.21277,1.99594 3.80986,1.26826 z m -0.20038,-8.60408 c -0.097,-0.097 -0.18266,-0.66256 -0.19031,-1.25677 -0.026,-2.01535 -0.68954,-4.9902 -1.19568,-5.3603 -0.37111,-0.27137 -2.18716,-0.35029 -8.06038,-0.35029 -8.12786,0 -8.04574,-0.0131 -8.52819,1.35599 -0.19021,0.53977 -1.51642,0.58612 -1.51642,0.053 0,-0.65475 0.74138,-1.84299 1.43238,-2.29575 0.58047,-0.38033 1.66761,-0.43616 8.49333,-0.43616 9.90843,0 9.70734,-0.0815 10.44023,4.23333 0.80387,4.7327 0.80279,4.23333 0.009,4.23333 -0.38924,0 -0.78708,-0.0794 -0.88409,-0.17639 z m -31.53819,-4.33703 c -3.43029,-1.66625 -5.29676,-5.13526 -4.74449,-8.81807 l 0.18304,-1.22059 h 7.89124 7.89125 l 0.18164,1.21125 c 0.53829,3.58956 -1.27325,7.08859 -4.48384,8.66067 -1.23327,0.60387 -1.78538,0.70942 -3.65237,0.69822 -1.62392,-0.01 -2.47867,-0.14881 -3.26647,-0.53148 z m 19.72013,-5.55814 c 0,-0.48717 0.56848,-1.41949 1.15545,-1.89495 1.06602,-0.86352 2.58305,-0.38935 3.3115,1.03506 0.54221,1.06023 0.39309,1.14187 -2.0857,1.14187 -1.50904,0 -2.38125,-0.10328 -2.38125,-0.28198 z m -0.61404,-3.26173 c -0.19793,-0.51579 0.53191,-1.10319 1.85788,-1.49528 1.31721,-0.3895 3.19689,0.0116 3.94895,0.84259 0.71543,0.79053 0.0913,1.16743 -0.78793,0.47582 -0.97239,-0.76488 -2.7282,-0.77454 -3.94631,-0.0217 -0.7552,0.46675 -0.95546,0.50382 -1.07259,0.19858 z m -1.62241,-1.72773 c -0.16395,-0.26526 0.76945,-0.99446 2.23645,-1.74719 1.83213,-0.94009 4.91459,-0.41533 6.68073,1.13734 1.13572,0.99845 0.13659,1.15539 -1.27163,0.19974 -1.79058,-1.21512 -4.14243,-1.22683 -5.95151,-0.0296 -1.1098,0.73443 -1.45633,0.82438 -1.69404,0.43974 z m -22.70411,-1.40929 c -0.55472,-0.42132 -1.58174,-2.82511 -1.40444,-3.28716 0.16141,-0.42062 2.45816,-1.47704 5.17833,-2.38183 1.76866,-0.5883 2.31514,-0.64815 5.02709,-0.55054 2.68923,0.0968 3.2886,0.2103 5.15937,0.9771 1.16417,0.47717 2.53339,1.02191 3.04271,1.21052 0.50932,0.18862 0.96269,0.52338 1.00747,0.74392 0.0922,0.45414 -1.18523,3.11926 -1.63748,3.41623 -0.16282,0.10691 -3.81539,0.19621 -8.11682,0.19844 -5.85328,0.003 -7.93033,-0.0791 -8.25623,-0.32668 z m 9.92582,-0.99644 c 0.99481,-0.99482 1.05258,-1.13557 0.90574,-2.20687 -0.0967,-0.70558 -0.0417,-1.25946 0.14358,-1.44471 0.4591,-0.45909 -0.53055,-1.48261 -1.03154,-1.06683 -0.27362,0.22708 -0.53135,0.22654 -1.03329,-0.002 -0.47821,-0.21789 -0.81804,-0.22479 -1.19278,-0.0242 -0.28822,0.15425 -0.76338,0.2045 -1.05591,0.11165 -0.85727,-0.27208 -1.17316,0.23528 -1.12842,1.81238 0.0551,1.94166 0.20761,2.30246 1.3341,3.15576 1.28864,0.97613 1.80384,0.9197 3.05852,-0.33498 z m -2.44776,-1.33189 c 0,-0.22556 -0.14288,-0.55298 -0.3175,-0.72761 -0.24694,-0.24694 -0.22047,-0.3175 0.11914,-0.3175 0.24016,0 0.54081,-0.18611 0.66811,-0.41359 0.2099,-0.37507 0.26343,-0.37507 0.57471,0 0.18879,0.22748 0.53108,0.41359 0.76065,0.41359 0.32464,0 0.34683,0.0706 0.0999,0.3175 -0.17463,0.17463 -0.3175,0.50205 -0.3175,0.72761 0,0.27928 -0.2532,0.4101 -0.79375,0.4101 -0.54055,0 -0.79375,-0.13082 -0.79375,-0.4101 z"
         id="path201"
         inkscape:connector-curvature="0" />
    </g>
  </g>
</svg>
