<?xml version="1.0" encoding="UTF-8" standalone="no"?>
<!-- Created with Inkscape (http://www.inkscape.org/) -->

<svg
   xmlns:dc="http://purl.org/dc/elements/1.1/"
   xmlns:cc="http://creativecommons.org/ns#"
   xmlns:rdf="http://www.w3.org/1999/02/22-rdf-syntax-ns#"
   xmlns:svg="http://www.w3.org/2000/svg"
   xmlns="http://www.w3.org/2000/svg"
   xmlns:sodipodi="http://sodipodi.sourceforge.net/DTD/sodipodi-0.dtd"
   xmlns:inkscape="http://www.inkscape.org/namespaces/inkscape"
   width="20mm"
   height="20mm"
   viewBox="0 0 20 20"
   version="1.1"
   id="svg8"
   inkscape:version="0.92.2 (5c3e80d, 2017-08-06)"
   sodipodi:docname="collapse.svg">
  <defs
     id="defs2" />
  <sodipodi:namedview
     id="base"
     pagecolor="#ffffff"
     bordercolor="#666666"
     borderopacity="1.0"
     inkscape:pageopacity="0.0"
     inkscape:pageshadow="2"
     inkscape:zoom="1.3361458"
     inkscape:cx="-300.74637"
     inkscape:cy="36.863644"
     inkscape:document-units="mm"
     inkscape:current-layer="layer1"
     showgrid="false"
     inkscape:window-width="1920"
     inkscape:window-height="1001"
     inkscape:window-x="-9"
     inkscape:window-y="-9"
     inkscape:window-maximized="1" />
  <metadata
     id="metadata5">
    <rdf:RDF>
      <cc:Work
         rdf:about="">
        <dc:format>image/svg+xml</dc:format>
        <dc:type
           rdf:resource="http://purl.org/dc/dcmitype/StillImage" />
        <dc:title />
      </cc:Work>
    </rdf:RDF>
  </metadata>
  <g
     inkscape:label="Camada 1"
     inkscape:groupmode="layer"
     id="layer1"
     transform="translate(0,-277)">
    <path
       style="fill:#000000;stroke-width:0.03165895"
       d="m 5.6574343,277.32037 -2.1208415,9.6796 -2.12084,9.67966 3.3661756,-6.24257 0.304591,2.08713 3.610173,-4.3724 0.2890109,-1.31915 0.6775789,0.14844 1.4595888,-1.7677 -0.381579,1.53658 2.999812,-3.10185 c 0.03693,-0.16703 0.07337,-0.33205 0.113773,-0.51285 l 0.424738,-1.90016 1.283424,0.28116 0.197868,0.0433 1.282743,-1.32633 0.07371,0.94117 1.466887,-1.0218 -6.463375,-1.41619 z m 12.9268097,2.8323 -1.832388,2.07661 -0.328894,1.50103 -0.423502,1.93286 -1.27829,-0.27164 c -0.259266,-0.0552 -0.468272,-0.10017 -0.638188,-0.13764 l -1.845619,2.09161 0.756787,-1.75156 -1.50683,1.78679 0.09615,0.021 -0.422759,1.92953 c -0.332403,1.51711 -0.431581,1.9301 -0.463878,1.93213 -0.02259,10e-4 -0.60736,-0.1253 -1.2995028,-0.28164 l -0.7953053,-0.17966 -3.8914548,4.61455 -0.2502423,-1.39972 -1.1243251,2.66262 h 3.4922595 l 0.1755436,-0.80131 0.4235016,-1.9328 1.2988826,0.28456 1.298821,0.28462 -0.4234978,1.93281 -0.05083,0.23212 h 5.4124428 l 1.500277,-6.84736 z m -12.0359689,-0.61155 1.2834249,0.28122 1.2834239,0.28124 -0.4235009,1.9328 -0.423502,1.9328 -1.2782893,-0.27157 c -1.006058,-0.21377 -1.27965,-0.2806 -1.2846621,-0.31387 -0.00344,-0.0233 0.1847663,-0.89737 0.4183678,-1.94245 z m 3.8656699,0.84702 1.283425,0.2812 1.283424,0.28117 -0.423502,1.93288 -0.423499,1.93278 -1.27829,-0.27157 c -1.0060618,-0.21376 -1.2796518,-0.28065 -1.2846638,-0.31395 -0.0034,-0.0233 0.184769,-0.89727 0.418369,-1.94236 z m -5.2937235,5.59688 1.2893585,0.29093 1.2893607,0.29098 -0.4138532,1.92688 c -0.3909934,1.82052 -0.4168367,1.9262 -0.4682701,1.91531 -1.4699956,-0.31071 -2.4544599,-0.52429 -2.4931427,-0.54093 -0.04573,-0.0197 -0.016748,-0.17125 0.3734777,-1.95228 z m 7.7432755,1.71347 1.292881,0.27481 1.292885,0.27484 -0.423563,1.9332 c -0.334171,1.52515 -0.431787,1.93174 -0.462514,1.92611 -0.221406,-0.0402 -2.46982,-0.52904 -2.507738,-0.54524 -0.04701,-0.0201 -0.02091,-0.1539 0.378796,-1.94265 z"
       id="path137"
       inkscape:connector-curvature="0" />
  </g>
</svg>
