<?xml version="1.0" encoding="UTF-8" standalone="no"?>
<!-- Created with Inkscape (http://www.inkscape.org/) -->

<svg
   xmlns:dc="http://purl.org/dc/elements/1.1/"
   xmlns:cc="http://creativecommons.org/ns#"
   xmlns:rdf="http://www.w3.org/1999/02/22-rdf-syntax-ns#"
   xmlns:svg="http://www.w3.org/2000/svg"
   xmlns="http://www.w3.org/2000/svg"
   xmlns:sodipodi="http://sodipodi.sourceforge.net/DTD/sodipodi-0.dtd"
   xmlns:inkscape="http://www.inkscape.org/namespaces/inkscape"
   width="20mm"
   height="20mm"
   viewBox="0 0 20 20"
   version="1.1"
   id="svg8"
   inkscape:version="0.92.2 (5c3e80d, 2017-08-06)"
   sodipodi:docname="cone.svg">
  <defs
     id="defs2" />
  <sodipodi:namedview
     id="base"
     pagecolor="#ffffff"
     bordercolor="#666666"
     borderopacity="1.0"
     inkscape:pageopacity="0.0"
     inkscape:pageshadow="2"
     inkscape:zoom="1.3361458"
     inkscape:cx="38.288493"
     inkscape:cy="36.863644"
     inkscape:document-units="mm"
     inkscape:current-layer="layer1"
     showgrid="false"
     inkscape:window-width="1920"
     inkscape:window-height="1001"
     inkscape:window-x="-9"
     inkscape:window-y="-9"
     inkscape:window-maximized="1" />
  <metadata
     id="metadata5">
    <rdf:RDF>
      <cc:Work
         rdf:about="">
        <dc:format>image/svg+xml</dc:format>
        <dc:type
           rdf:resource="http://purl.org/dc/dcmitype/StillImage" />
        <dc:title></dc:title>
      </cc:Work>
    </rdf:RDF>
  </metadata>
  <g
     inkscape:label="Camada 1"
     inkscape:groupmode="layer"
     id="layer1"
     transform="translate(0,-277)">
    <g
       id="g21"
       transform="matrix(0.18012643,0,0,0.18012643,-9.7840224,263.47711)">
      <path
         style="fill:#d0d0d0;fill-opacity:1;stroke-width:0.26458332"
         d="m 106.832,178.50572 c -1.20411,-0.63337 -2.90366,-1.54119 -3.77679,-2.01739 -0.87312,-0.47619 -3.07578,-1.66954 -4.89479,-2.65187 -1.819011,-0.98234 -4.021667,-2.17296 -4.894792,-2.64584 -0.873125,-0.47287 -3.075781,-1.66349 -4.894792,-2.64583 -1.81901,-0.98234 -4.021666,-2.17397 -4.894791,-2.64808 -0.873125,-0.47411 -3.849688,-2.08239 -6.614584,-3.57397 -9.935076,-5.35967 -9.756393,-5.25112 -10.252193,-6.22796 -0.635697,-1.25247 -0.585549,-2.63408 0.134899,-3.71659 0.504475,-0.758 2.09198,-1.65134 10.120313,-5.69503 5.23709,-2.63781 9.566,-4.75676 9.619798,-4.70878 0.0538,0.048 -0.497094,1.43227 -1.224211,3.07622 -0.727116,1.64394 -1.402378,3.25102 -1.500581,3.57129 -0.305383,0.99593 0.331618,2.61615 1.570161,3.9937 4.378915,4.87041 14.715453,8.31009 25.001603,8.31977 10.23175,0.01 20.62116,-3.44765 25.00161,-8.31977 2.11579,-2.35327 2.09652,-3.71803 -0.11463,-8.11578 -0.60684,-1.20694 -1.06709,-2.28522 -1.02277,-2.39617 0.0443,-0.11095 4.36516,1.95315 9.60187,4.5869 10.71095,5.38696 10.8721,5.50622 10.65091,7.88244 -0.16593,1.78259 -0.70344,2.41394 -3.16756,3.72058 -2.44623,1.29715 -10.66384,5.7361 -18.72443,10.11446 -1.67349,0.90901 -3.99521,2.16371 -5.15937,2.78823 -1.16417,0.62452 -4.20026,2.26586 -6.74688,3.64742 -8.76365,4.75435 -8.89071,4.81362 -10.31875,4.81362 -1.03425,0 -1.77077,-0.24238 -3.49925,-1.15157 z M 103.98125,144.298 c -3.87417,-0.58935 -9.141251,-2.03635 -12.88057,-3.53861 -1.865217,-0.74934 -3.48293,-1.45019 -3.59492,-1.55745 -0.111988,-0.10725 0.319558,-1.73454 0.95899,-3.61618 0.639435,-1.88165 1.61376,-4.87969 2.165168,-6.66232 0.551407,-1.78263 1.141126,-3.24115 1.310489,-3.24115 0.16936,0 1.413941,0.47971 2.76574,1.06601 5.834493,2.53056 13.150863,3.78948 18.733963,3.22353 3.76599,-0.38176 9.17773,-1.77553 12.51625,-3.22353 1.3518,-0.5863 2.59698,-1.06601 2.76708,-1.06601 0.17009,0 0.70018,1.27992 1.17796,2.84427 0.47778,1.56435 1.45029,4.56361 2.16112,6.66503 0.71084,2.10141 1.20203,3.90729 1.09152,4.01305 -0.1105,0.10577 -1.69967,0.79439 -3.53149,1.53027 -8.49409,3.41223 -17.9737,4.72952 -25.6413,3.56309 z m 3.43959,-25.90761 c -0.36381,-0.0623 -1.4949,-0.24805 -2.51355,-0.41267 -3.44066,-0.55604 -8.863537,-2.4135 -8.863537,-3.03597 0,-0.20038 0.409951,-1.76503 0.911003,-3.477 0.501052,-1.71196 1.318596,-4.54142 1.816767,-6.28767 0.626623,-2.19652 1.018569,-3.15921 1.271807,-3.12377 0.20133,0.0282 1.6162,0.50442 3.14417,1.05833 l 2.77813,1.00711 h 4.36562 4.36563 l 2.77812,-1.00711 c 1.52797,-0.55391 2.94227,-1.03016 3.14289,-1.05833 0.25867,-0.0363 0.85474,1.64182 2.04934,5.76961 2.28787,7.9055 2.21679,7.31346 0.9435,7.85819 -1.69226,0.72398 -5.0533,1.75407 -7.19406,2.20483 -1.93853,0.40819 -7.67924,0.7301 -8.99583,0.50445 z m 0.13229,-24.848139 c -2.46845,-0.456196 -4.10104,-1.135134 -4.10104,-1.70548 0,-0.247811 0.52126,-2.288711 1.15837,-4.535334 0.6371,-2.246623 1.24233,-4.473791 1.34495,-4.949264 0.29143,-1.350331 1.3502,-1.781338 4.37584,-1.781338 3.02565,0 4.08442,0.431007 4.37585,1.781338 0.10262,0.475473 0.70784,2.702641 1.34495,4.949264 0.6371,2.246623 1.15837,4.291897 1.15837,4.545052 0,0.589763 -2.09576,1.391915 -4.68089,1.791611 -2.27398,0.351587 -2.58809,0.345537 -4.9764,-0.09585 z"
         id="path37"
         inkscape:connector-curvature="0" />
      <path
         style="fill:#b9b9b9;fill-opacity:1;stroke-width:0.26458332"
         d="m 108.33667,179.17949 c -0.58771,-0.24653 -3.68333,-1.86479 -6.87917,-3.59612 -3.195843,-1.73134 -8.013278,-4.3387 -10.705414,-5.79414 -2.692135,-1.45543 -6.978385,-3.77312 -9.525,-5.1504 -2.546614,-1.37729 -6.727045,-3.63134 -9.289846,-5.009 -4.114046,-2.21155 -4.729572,-2.62927 -5.256908,-3.56754 -0.698135,-1.24216 -0.621235,-2.79574 0.192323,-3.88541 0.327165,-0.43821 3.785628,-2.3112 9.967821,-5.39825 5.206757,-2.59998 9.522202,-4.67186 9.589877,-4.60418 0.06768,0.0677 -0.229933,0.8223 -0.661355,1.67694 -1.18065,2.33885 -2.160662,4.864 -2.160662,5.56727 0,2.2442 3.554619,5.56248 8.287626,7.73659 10.862348,4.98964 24.664838,5.14067 35.982298,0.39373 4.4801,-1.87911 8.24358,-4.92736 8.93572,-7.23753 0.39975,-1.33426 -1.7e-4,-2.83497 -1.60808,-6.03437 -0.56593,-1.12608 -0.98819,-2.08819 -0.93835,-2.13803 0.0498,-0.0498 4.34728,2.03364 9.54987,4.62994 6.74739,3.36722 9.61805,4.93323 10.01311,5.46237 0.75174,1.00688 0.76463,3.1968 0.0247,4.19499 -0.31172,0.42052 -2.43178,1.74 -5.15938,3.21109 -2.54661,1.37348 -6.77333,3.65861 -9.3927,5.07807 -4.66519,2.52809 -8.67304,4.69229 -19.84375,10.71544 -7.42825,4.00524 -7.90899,4.2287 -9.06069,4.21156 -0.54641,-0.008 -1.47433,-0.21649 -2.06203,-0.46302 z m -3.78208,-34.87293 c -6.280217,-0.85292 -16.977504,-4.3233 -16.977504,-5.50779 0,-0.50961 3.973127,-12.6462 4.23544,-12.93787 0.107963,-0.12004 1.346769,0.27141 2.752899,0.86989 4.978752,2.11906 11.087205,3.44696 15.864165,3.44867 4.48939,0.002 10.86902,-1.40634 15.71171,-3.46749 1.38181,-0.58813 2.5993,-0.97111 2.70553,-0.85107 0.2608,0.29471 4.23859,12.43888 4.23859,12.94038 0,0.74206 -5.83204,3.02535 -11.1125,4.35064 -6.07565,1.52485 -11.86613,1.9087 -17.41833,1.15464 z m 2.26358,-26.05593 c -3.1873,-0.3369 -9.063216,-2.0256 -10.368009,-2.97969 -0.468511,-0.34258 -0.449932,-0.48245 0.465651,-3.50555 0.524496,-1.7318 1.324012,-4.51794 1.776701,-6.19143 0.452686,-1.67349 0.871519,-3.19131 0.930738,-3.37293 0.08006,-0.24554 0.466049,-0.18275 1.505229,0.24486 5.88615,2.42204 12.5194,2.42204 18.40554,0 1.03996,-0.42793 1.42557,-0.49058 1.50703,-0.24486 0.0602,0.18162 0.4809,1.69944 0.93488,3.37293 0.45399,1.67349 1.25269,4.45963 1.77491,6.19143 0.91169,3.02341 0.93006,3.16293 0.46151,3.50555 -1.38885,1.01555 -7.11313,2.61647 -10.7061,2.99419 -2.83104,0.29762 -3.75421,0.29562 -6.68808,-0.0145 z m 0.94907,-24.71122 c -1.0464,-0.18982 -2.45621,-0.55657 -3.1329,-0.815001 -1.16501,-0.444923 -1.222,-0.513141 -1.07325,-1.284641 0.40681,-2.109964 2.64246,-9.594961 2.98137,-9.98173 1.13621,-1.296651 6.44138,-1.296651 7.57759,0 0.33891,0.386769 2.57455,7.871766 2.98137,9.98173 0.14854,0.770426 0.0909,0.840028 -1.0584,1.278968 -1.2337,0.471156 -4.87764,1.207199 -5.84406,1.180448 -0.29104,-0.0081 -1.38531,-0.169955 -2.43172,-0.359774 z"
         id="path35"
         inkscape:connector-curvature="0" />
      <path
         style="fill:#a3a3a3;fill-opacity:1;stroke-width:0.26458332"
         d="m 108.08229,179.04621 c -0.7276,-0.34965 -5.01385,-2.63436 -9.524995,-5.07715 -9.673363,-5.23813 -15.385729,-8.32627 -24.209375,-13.08771 -3.565261,-1.92389 -6.746727,-3.74262 -7.069926,-4.0416 -0.752278,-0.69591 -1.232105,-2.14886 -1.035043,-3.13418 0.344026,-1.72013 0.761196,-1.99264 10.529354,-6.87819 5.213453,-2.6075 9.530392,-4.74092 9.593199,-4.74092 0.06281,0 -0.545606,1.50268 -1.352031,3.3393 -1.759923,4.00819 -1.769502,4.66013 -0.100257,6.82378 2.725698,3.53301 9.672775,6.77176 17.357774,8.09226 6.04811,1.03923 11.5853,0.94795 17.71755,-0.29207 6.38472,-1.29106 13.13435,-4.50259 15.40638,-7.33046 1.04064,-1.29524 1.65925,-2.52637 1.65925,-3.30221 0,-0.89332 -0.81867,-3.16458 -1.95087,-5.41237 -0.53141,-1.05503 -0.90453,-1.91823 -0.82915,-1.91823 0.0754,0 4.41888,2.14156 9.65224,4.75902 7.04703,3.52458 9.63747,4.94565 9.98659,5.47847 0.66688,1.01778 0.62462,3.01139 -0.084,3.96446 -0.61196,0.82304 -1.21227,1.18199 -9.10185,5.44243 -2.98318,1.61094 -7.32896,3.96014 -9.6573,5.22046 -22.07848,11.95097 -23.18352,12.52222 -24.42482,12.62649 -0.92221,0.0775 -1.57861,-0.0587 -2.56268,-0.53158 z m -0.66145,-34.46694 c -4.2364,-0.48057 -6.16029,-0.81324 -9.248019,-1.5991 -3.790855,-0.96482 -10.300026,-3.41515 -10.507345,-3.95542 -0.121428,-0.31644 3.789325,-12.74585 4.136879,-13.14811 0.09624,-0.11138 1.476881,0.34445 3.068087,1.01297 10.475608,4.40113 21.227168,4.2952 31.707208,-0.31241 1.15016,-0.50567 2.17361,-0.82459 2.27434,-0.70872 0.35233,0.40531 4.26839,12.83481 4.14504,13.15627 -0.37784,0.98463 -11.3464,4.49442 -16.09948,5.15161 -2.29106,0.31678 -8.07007,0.56248 -9.47671,0.40291 z m -3.01146,-26.7168 c -2.13332,-0.42385 -7.290659,-2.10267 -7.957626,-2.59036 -0.434073,-0.31741 -0.413592,-0.49458 0.343043,-2.96734 0.442573,-1.44637 1.114689,-3.76086 1.493594,-5.14331 0.378904,-1.38245 0.861965,-3.12602 1.07347,-3.87459 l 0.384553,-1.36105 1.976936,0.76764 c 3.16242,1.22797 5.25913,1.6234 8.6079,1.6234 3.34787,0 5.44555,-0.39545 8.60467,-1.62214 l 1.97369,-0.76639 0.50204,1.75667 c 0.57854,2.02441 2.94047,10.27129 3.13063,10.9309 0.0847,0.2938 -0.12594,0.57318 -0.62551,0.82961 -1.27654,0.65525 -5.67133,2.0166 -7.8541,2.43292 -2.59156,0.49428 -9.13023,0.48533 -11.65329,-0.016 z m 1.82083,-24.678499 c -0.87312,-0.260381 -1.86303,-0.623525 -2.19979,-0.806987 -0.72497,-0.394951 -0.77433,-0.07481 0.96468,-6.256114 1.21162,-4.306654 1.29392,-4.496509 2.17325,-5.013105 1.3035,-0.765789 5.01531,-0.769917 6.31378,-0.007 0.87125,0.511892 0.94996,0.700414 2.3151,5.544983 0.77726,2.758292 1.41319,5.152223 1.41319,5.319847 0,0.167623 -0.80367,0.579582 -1.78594,0.915462 -2.44425,0.8358 -6.91363,0.983058 -9.19427,0.302936 z"
         id="path33"
         inkscape:connector-curvature="0" />
      <path
         style="fill:#8c8c8c;fill-opacity:1;stroke-width:0.26458332"
         d="m 107.15435,178.54216 c -1.23588,-0.64357 -4.62831,-2.46163 -7.538722,-4.04014 -2.910417,-1.57852 -7.196667,-3.89845 -9.525,-5.15542 -18.876709,-10.19072 -22.691194,-12.31584 -23.147481,-12.89592 -0.818226,-1.0402 -0.922654,-2.23059 -0.315994,-3.60205 l 0.530044,-1.19825 9.540415,-4.78196 c 5.247228,-2.63008 9.5903,-4.78196 9.651271,-4.78196 0.06097,0 -0.489379,1.33945 -1.222996,2.97656 -0.733617,1.63711 -1.387463,3.51234 -1.452991,4.16719 -0.10825,1.08177 -0.01011,1.33873 1.073461,2.81063 2.687262,3.65031 9.501674,6.92679 17.377443,8.35536 2.32872,0.4224 4.20327,0.55809 7.94287,0.57496 6.90288,0.0311 11.22827,-0.73968 17.15599,-3.0573 4.96665,-1.94187 9.23773,-5.384 9.7291,-7.84086 0.23175,-1.15874 -0.2787,-2.9932 -1.50334,-5.40275 -0.57205,-1.12552 -1.04008,-2.16436 -1.04008,-2.30851 0,-0.14416 4.29595,1.88485 9.54656,4.50891 l 9.54656,4.77103 0.53197,1.2026 c 0.60746,1.37327 0.50521,2.56485 -0.3089,3.59982 -0.2825,0.35915 -3.10711,2.05573 -6.2769,3.77018 -3.16979,1.71445 -7.78731,4.21313 -10.26117,5.55262 -2.47385,1.3395 -6.70057,3.62668 -9.39271,5.08263 -2.69213,1.45595 -7.37706,3.99238 -10.41095,5.63652 -6.82355,3.69785 -7.00547,3.73442 -10.22845,2.05611 z m -0.13039,-34.10391 c -3.70408,-0.22802 -7.45247,-0.96014 -11.594747,-2.26464 -2.889618,-0.91001 -7.221585,-2.61335 -7.690464,-3.02391 -0.198506,-0.17382 0.435245,-2.29213 3.79167,-12.67366 0.253672,-0.78461 0.162536,-0.80033 3.851876,0.66443 10.268685,4.07691 20.322525,4.02522 30.250905,-0.15553 3.12727,-1.31687 3.24257,-1.33362 3.50348,-0.5089 0.11509,0.3638 1.06719,3.31786 2.11578,6.56458 1.07304,3.32247 1.80368,5.99316 1.6713,6.10908 -0.48246,0.42244 -4.83502,2.12621 -7.77584,3.04377 -4.20712,1.31267 -7.5797,1.98231 -10.84792,2.15391 -1.52797,0.0802 -3.07578,0.17748 -3.43958,0.2161 -0.3638,0.0386 -2.09021,-0.0177 -3.83646,-0.12523 z m -1.32292,-26.33832 c -2.56901,-0.40817 -9.215753,-2.50061 -9.523122,-2.99794 -0.07194,-0.1164 0.277011,-1.56369 0.775451,-3.21619 0.846813,-2.80747 1.841265,-6.31727 2.510386,-8.86007 l 0.287623,-1.09303 1.587842,0.64136 c 3.25323,1.31404 5.47035,1.74406 8.99203,1.74406 3.52168,0 5.7388,-0.43002 8.99203,-1.74406 l 1.58785,-0.64136 0.28762,1.09303 c 0.67053,2.54816 1.66439,6.0553 2.51658,8.88049 0.50184,1.66373 0.82098,3.11643 0.70919,3.22822 -0.32462,0.32462 -3.69886,1.53929 -6.28806,2.26359 -2.04801,0.57292 -3.02921,0.67746 -7.01146,0.74708 -2.54661,0.0445 -4.98739,0.0242 -5.42396,-0.0452 z m 1.05834,-24.80901 c -1.34057,-0.336214 -3.30729,-1.099998 -3.30729,-1.284401 0,-0.157295 1.81106,-6.734496 2.40179,-8.722522 0.68923,-2.31952 1.30382,-2.690667 4.47737,-2.703832 1.78567,-0.0074 2.43346,0.09968 3.14456,0.519837 0.85782,0.506843 0.94823,0.718913 2.14332,5.027083 0.68624,2.473854 1.32802,4.82828 1.42618,5.232059 0.16354,0.672697 0.0832,0.775 -0.96037,1.222308 -2.54429,1.090611 -6.58127,1.397735 -9.32556,0.709468 z"
         id="path31"
         inkscape:connector-curvature="0" />
      <path
         style="fill:#767676;fill-opacity:1;stroke-width:0.26458332"
         d="m 108.8961,179.33441 c -0.68147,-0.2476 -14.814531,-7.81474 -27.801305,-14.88541 -2.473854,-1.3469 -6.343386,-3.43467 -8.598959,-4.6395 -2.255573,-1.20482 -4.484273,-2.47393 -4.952666,-2.82022 -1.648072,-1.21847 -1.712881,-3.70676 -0.134447,-5.16194 0.788529,-0.72695 18.525478,-9.61988 18.746344,-9.39901 0.07481,0.0748 -0.103063,0.60465 -0.395271,1.17743 -0.292209,0.57277 -0.950716,2.05464 -1.463352,3.29304 -0.803748,1.94165 -0.896731,2.37959 -0.675411,3.18115 1.149455,4.16298 8.940936,8.53222 18.375847,10.30466 4.5267,0.85038 12.12469,0.85447 16.61117,0.009 8.16648,-1.53908 15.11576,-4.94569 17.58622,-8.62097 1.30874,-1.94698 1.12165,-3.44134 -0.96804,-7.73213 -0.41708,-0.85641 -0.72193,-1.59699 -0.67744,-1.64573 0.16002,-0.17532 17.87224,8.73943 18.62891,9.37613 1.64952,1.38798 1.62058,3.97623 -0.0584,5.21937 -0.4684,0.34682 -5.5546,3.16555 -11.30267,6.26385 -5.74807,3.09831 -14.67776,7.91552 -19.84375,10.70493 -5.16599,2.7894 -9.79743,5.21263 -10.29209,5.38497 -1.06844,0.37223 -1.74029,0.36992 -2.78473,-0.01 z m -3.98881,-35.03334 c -4.97748,-0.74392 -10.273684,-2.19611 -14.471598,-3.96803 -1.572233,-0.66364 -2.858606,-1.26634 -2.858606,-1.33934 0,-0.073 0.96451,-3.09451 2.143353,-6.71447 l 2.143352,-6.58174 0.965502,0.41794 c 2.981796,1.29074 6.849999,2.61409 9.419287,3.22244 2.63073,0.62289 3.43966,0.69216 8.08267,0.69216 4.64302,0 5.45195,-0.0693 8.08267,-0.69216 2.56929,-0.60835 6.4375,-1.9317 9.41929,-3.22244 l 0.9655,-0.41794 2.14336,6.58174 c 1.17884,3.61996 2.14335,6.64147 2.14335,6.71447 0,0.26779 -5.76888,2.55006 -8.45211,3.34379 -5.51978,1.63284 -7.3626,1.90819 -13.37602,1.99864 -3.05593,0.046 -5.91343,0.0302 -6.35,-0.0351 z m -0.23889,-26.4522 c -1.99327,-0.35996 -5.517682,-1.4377 -7.616563,-2.3291 l -0.976292,-0.41463 0.47833,-1.65674 c 0.81116,-2.80952 2.618213,-9.26973 2.919431,-10.43694 l 0.285753,-1.10729 1.383491,0.62909 c 5.4327,2.47033 12.9447,2.47033 18.3774,0 l 1.3835,-0.62909 0.28138,1.10729 c 0.2748,1.08141 1.96983,7.1319 2.92389,10.43694 l 0.47824,1.65674 -0.97629,0.41463 c -2.20963,0.93844 -5.61846,1.95981 -7.82513,2.34463 -2.89573,0.50497 -8.27648,0.49746 -11.11714,-0.0155 z m 2.03639,-24.587066 c -2.40471,-0.647799 -3.33063,-1.126054 -3.14031,-1.622026 0.0936,-0.243824 0.28297,-0.929082 0.42089,-1.522796 0.81922,-3.526387 2.40207,-8.513145 2.79285,-8.798894 0.72804,-0.532358 3.2536,-0.944778 4.57678,-0.747383 2.01187,0.300138 2.85405,0.768919 3.16272,1.760462 0.4974,1.597833 1.96532,6.941084 2.30371,8.385514 l 0.33139,1.414597 -0.89605,0.374391 c -2.80009,1.169955 -6.83125,1.489062 -9.55198,0.756135 z"
         id="path29"
         inkscape:connector-curvature="0" />
      <path
         style="fill:#606060;fill-opacity:1;stroke-width:0.26458332"
         d="m 106.29252,177.98378 c -1.78052,-0.92042 -6.09481,-3.22546 -9.587309,-5.12229 -3.4925,-1.89683 -8.73125,-4.73344 -11.641666,-6.30357 -18.685446,-10.08057 -17.803419,-9.57287 -18.300379,-10.53388 -0.57638,-1.1146 -0.539441,-2.70741 0.08288,-3.57355 0.352218,-0.49023 3.370765,-2.15065 9.852976,-5.41988 5.139857,-2.59223 9.387951,-4.67038 9.440206,-4.61812 0.05226,0.0523 -0.05497,0.38723 -0.238276,0.74438 -0.183306,0.35716 -0.841562,1.85749 -1.462788,3.33406 -1.028707,2.44511 -1.104585,2.77567 -0.850287,3.70417 1.099252,4.01363 9.038897,8.46348 18.204773,10.20304 2.59316,0.49214 4.02278,0.59065 8.5386,0.58833 7.06098,-0.004 10.80115,-0.64376 16.31271,-2.79194 4.80061,-1.87108 8.34562,-4.32899 9.80571,-6.79874 0.94817,-1.60381 0.74474,-3.23414 -0.81418,-6.52504 -0.65647,-1.38584 -1.11185,-2.51268 -1.01193,-2.5041 0.0999,0.009 4.34522,2.12195 9.43403,4.69636 6.40158,3.23853 9.40864,4.89849 9.75952,5.38748 0.6199,0.86387 0.65869,2.45881 0.0867,3.56491 -0.4752,0.91893 -1.00368,1.22565 -16.58506,9.62557 -5.45703,2.94189 -12.12453,6.54582 -14.81666,8.00873 -8.35636,4.54087 -11.3278,6.00759 -12.17084,6.00759 -0.4665,0 -2.15435,-0.69939 -4.03873,-1.67351 z m -1.85826,-33.79662 c -2.87559,-0.39777 -6.427815,-1.23556 -9.571012,-2.25732 -3.025587,-0.98353 -7.286162,-2.71207 -7.286162,-2.95604 0,-0.0767 0.783334,-2.53311 1.740742,-5.4587 0.957408,-2.9256 1.912977,-5.86524 2.123482,-6.53254 l 0.382744,-1.21327 3.218778,1.29071 c 10.500168,4.21053 20.076678,4.21053 30.576838,0 l 3.21878,-1.29071 0.38275,1.21327 c 0.2105,0.6673 1.17532,3.63488 2.14403,6.59463 0.96871,2.95974 1.72229,5.41997 1.6746,5.46718 -0.31025,0.3071 -4.8164,2.09821 -7.35172,2.92215 -5.38855,1.7512 -8.46798,2.26202 -14.29852,2.37187 -2.83766,0.0535 -5.96755,-0.0146 -6.95533,-0.15123 z m 1.28887,-26.18788 c -3.423,-0.53893 -9.080284,-2.41023 -9.341068,-3.08982 -0.0821,-0.21395 0.299609,-1.89594 0.848239,-3.73777 0.548627,-1.84182 1.33386,-4.58334 1.744961,-6.09225 0.411099,-1.50891 0.78599,-2.78201 0.833091,-2.82911 0.0471,-0.0471 1.273157,0.32087 2.724577,0.81771 5.37146,1.83871 10.20118,1.84749 15.51489,0.0282 1.49638,-0.51233 2.74683,-0.90538 2.77877,-0.87344 0.25243,0.25243 3.557,12.4179 3.44934,12.69844 -0.16955,0.44184 -4.91569,2.17812 -7.46239,2.72997 -2.22466,0.48207 -8.90724,0.69182 -11.09041,0.3481 z m 1.22451,-24.715352 c -0.76958,-0.186328 -1.85307,-0.54343 -2.40776,-0.793559 l -1.00852,-0.454781 0.85039,-3.218835 c 1.83196,-6.934218 1.95312,-7.246178 3.01009,-7.75075 1.29975,-0.620472 4.57908,-0.620472 5.87883,0 1.05773,0.504935 1.1775,0.813742 3.0184,7.782597 l 0.85871,3.250681 -0.96087,0.403776 c -2.68737,1.129292 -6.47726,1.449599 -9.23927,0.780871 z"
         id="path27"
         inkscape:connector-curvature="0" />
      <path
         style="fill:#494949;fill-opacity:1;stroke-width:0.26458332"
         d="m 109.00834,179.31112 c -0.50933,-0.18712 -1.87855,-0.85901 -3.04271,-1.49309 -2.52571,-1.37567 -9.625364,-5.21184 -14.94896,-8.07741 -2.110052,-1.13579 -5.741459,-3.10104 -8.069792,-4.36721 -2.328333,-1.26617 -5.185833,-2.81531 -6.35,-3.44252 -9.85489,-5.30952 -9.476003,-5.08089 -9.876445,-5.95976 -0.504157,-1.1065 -0.384262,-2.871 0.249859,-3.67716 0.371831,-0.4727 3.659306,-2.26197 9.788113,-5.32734 5.075533,-2.53857 9.273631,-4.61559 9.329109,-4.61559 0.05548,0 -0.539176,1.49604 -1.321448,3.32452 -0.782272,1.82848 -1.422313,3.5173 -1.422313,3.75292 0,1.72424 3.066481,5.01807 6.373384,6.84592 10.359093,5.72585 25.680043,6.44671 37.547053,1.76661 2.62368,-1.03472 6.34129,-3.32719 7.70888,-4.75368 2.70946,-2.82617 2.79894,-4.37321 0.51004,-8.81883 -0.59961,-1.1646 -1.03658,-2.11746 -0.97103,-2.11746 0.0655,0 4.27983,2.07436 9.36507,4.60968 6.20681,3.0945 9.43145,4.84557 9.81042,5.32735 0.63878,0.81208 0.76044,2.57265 0.2545,3.68306 -0.34964,0.76738 -0.7613,1.04349 -4.84936,3.25258 -8.39167,4.53467 -22.6733,12.26746 -23.94479,12.96492 -1.43756,0.78855 -6.35397,3.42747 -10.98021,5.89371 -2.71055,1.44499 -3.8392,1.71379 -5.15937,1.22878 z m -4.8948,-35.25748 c -3.41267,-0.46375 -4.562428,-0.72941 -8.731245,-2.01743 -2.619378,-0.80929 -6.613348,-2.35645 -7.738147,-2.99755 -0.03588,-0.0204 0.81357,-2.70657 1.887659,-5.96917 1.074089,-3.26259 2.000128,-6.17011 2.057863,-6.46116 0.145669,-0.73431 0.636275,-0.64352 4.321691,0.79977 7.682219,3.00852 15.128639,3.61683 22.885259,1.86951 1.52879,-0.34438 4.20833,-1.18566 5.95453,-1.86951 3.68556,-1.44334 4.17673,-1.53428 4.31976,-0.79977 0.0567,0.29105 0.98213,3.19916 2.05655,6.46247 1.07443,3.26332 1.92474,5.94945 1.88959,5.96917 -1.92523,1.08034 -8.89783,3.52183 -12.37044,4.33158 -4.51734,1.05336 -11.63883,1.34717 -16.53307,0.68209 z m 2.12123,-26.04426 c -1.01614,-0.12803 -2.38536,-0.3626 -3.04271,-0.52127 -2.23448,-0.53934 -6.668916,-2.211 -6.804857,-2.56525 -0.07446,-0.19405 0.372335,-2.04952 0.992886,-4.12326 0.620549,-2.07374 1.397178,-4.82208 1.72584,-6.10742 0.328661,-1.28535 0.650243,-2.38967 0.714621,-2.45405 0.06438,-0.0644 0.68984,0.12847 1.3899,0.42855 2.89373,1.2404 5.36652,1.70178 9.1208,1.70178 3.75429,0 6.22707,-0.46138 9.12081,-1.70178 0.70006,-0.30008 1.32551,-0.49293 1.3899,-0.42855 0.0644,0.0644 0.38885,1.1687 0.72106,2.45405 0.3322,1.28534 1.10794,4.036 1.72386,6.11257 0.61592,2.07657 1.06334,3.92288 0.99426,4.1029 -0.17455,0.45486 -4.91637,2.16972 -7.44135,2.69114 -2.51025,0.51837 -8.04799,0.73278 -10.60502,0.41059 z m 1.58294,-24.505155 c -1.48072,-0.377102 -3.84755,-1.227917 -3.97085,-1.427419 -0.17933,-0.290166 0.17853,-1.91918 1.36517,-6.214304 1.11818,-4.047348 1.20985,-4.248694 2.1505,-4.723312 1.6706,-0.842919 5.50688,-0.661329 6.47469,0.306478 0.67713,0.677127 3.28779,9.78599 3.01127,10.506603 -0.25526,0.665198 -3.38363,1.497966 -5.98807,1.594019 -1.38245,0.05099 -2.75167,0.03206 -3.04271,-0.04206 z"
         id="path25"
         inkscape:connector-curvature="0" />
      <path
         style="fill:#333333;fill-opacity:1;stroke-width:0.26458332"
         d="m 109.36076,179.393 c -0.46102,-0.10404 -1.35399,-0.48994 -1.98438,-0.85755 -0.63039,-0.36761 -2.21773,-1.2327 -3.52742,-1.92241 -1.30969,-0.68972 -4.405311,-2.35228 -6.879165,-3.69459 -2.473855,-1.3423 -6.99823,-3.78558 -10.054167,-5.4295 -3.055938,-1.64393 -6.449219,-3.48837 -7.540625,-4.09876 -1.091406,-0.61038 -3.997538,-2.17085 -6.45807,-3.4677 -2.460533,-1.29685 -4.93108,-2.78596 -5.490105,-3.30913 -0.88155,-0.82501 -1.016277,-1.10585 -1.015419,-2.11666 0.0019,-2.27079 0.101217,-2.34254 10.217138,-7.3836 5.075811,-2.52942 9.311745,-4.63878 9.413186,-4.68747 0.168831,-0.081 -0.536482,1.5772 -2.351828,5.52926 -0.610148,1.32831 -0.652074,1.59509 -0.361074,2.29763 0.19034,0.45952 0.25357,1.13928 0.149885,1.61136 -0.164473,0.74884 -0.02023,0.98063 1.739644,2.7956 1.916526,1.97652 2.444872,2.23478 3.46025,1.69136 0.4367,-0.23371 0.825241,-0.13436 2.070711,0.52946 1.899383,1.01236 6.878781,2.73704 9.527769,3.30006 4.87628,1.03642 11.44548,1.25573 16.75717,0.55943 7.06273,-0.92584 14.37441,-3.93191 17.87732,-7.34995 1.9797,-1.93173 2.60228,-3.62029 2.03904,-5.53021 -0.19041,-0.64567 -0.1537,-0.69718 0.41023,-0.57568 0.60157,0.12962 0.60461,0.12149 0.10577,-0.28306 -0.28247,-0.22908 -0.6099,-0.41652 -0.7276,-0.41652 -0.11771,0 -0.21402,-0.23109 -0.21402,-0.51355 0,-0.28245 -0.10951,-0.58123 -0.24336,-0.66395 -0.36792,-0.22739 -1.63671,-2.58686 -1.47697,-2.74661 0.0767,-0.0767 0.56629,0.0641 1.08795,0.31282 0.76723,0.36587 0.88949,0.52338 0.63978,0.82426 -0.38099,0.45906 -0.10091,1.03436 1.02541,2.10629 0.89175,0.84868 1.46601,0.74781 0.681,-0.11962 -0.45266,-0.50018 -0.45646,-0.57038 -0.0527,-0.97412 0.40374,-0.40375 0.96214,-0.1716 7.74847,3.22139 8.0391,4.01933 8.31463,4.23354 8.31653,6.46542 7.9e-4,1.01128 -0.13363,1.29126 -1.01674,2.11666 -0.55975,0.52317 -3.50654,2.27898 -6.54844,3.9018 -3.04189,1.62282 -7.49524,4.01417 -9.89633,5.31411 -2.4011,1.29994 -6.86594,3.71596 -9.92188,5.36893 -3.05594,1.65297 -6.8064,3.68308 -8.33437,4.51136 -2.01559,1.0926 -2.87057,1.43137 -3.11491,1.23421 -0.24633,-0.19875 -0.29954,-0.17286 -0.19811,0.0964 0.0929,0.24661 -0.45105,0.6842 -1.64758,1.32544 -1.99126,1.06713 -2.97388,1.30681 -4.21198,1.02738 z m 1.49966,-6.97074 c 0,-0.0502 -0.26789,-0.3181 -0.59531,-0.59532 l -0.59532,-0.50402 0.50403,0.59531 c 0.47367,0.55944 0.6866,0.71576 0.6866,0.50403 z M 85.80864,154.72031 c -1.954191,-1.87591 -2.205142,-2.25132 -1.958419,-2.92964 0.151852,-0.4175 0.262855,-0.35972 0.826656,0.43026 0.598358,0.83841 2.186448,2.29673 3.539297,3.2501 0.471702,0.33242 0.494088,0.42531 0.154662,0.64175 -0.637624,0.40659 -0.753893,0.34341 -2.562196,-1.39247 z m 51.17557,-10.14618 c -0.087,-0.087 -0.0949,-0.32293 -0.0177,-0.52432 0.10547,-0.27485 0.26772,-0.29808 0.65064,-0.0932 0.28057,0.15016 0.44024,0.3861 0.35481,0.52432 -0.17386,0.28131 -0.74572,0.33523 -0.9878,0.0932 z m -32.47379,-0.52182 c -1.52797,-0.19574 -3.66928,-0.55387 -4.758471,-0.79586 -2.515915,-0.55896 -8.293081,-2.50068 -10.467028,-3.518 l -1.668018,-0.78056 1.964468,-5.90948 c 1.080455,-3.25022 1.966288,-6.02887 1.968516,-6.17478 0.01431,-0.93772 0.459846,-0.94111 2.742531,-0.0209 11.338832,4.57119 20.455912,4.62224 31.629222,0.17709 2.72721,-1.08498 3.17646,-1.10698 3.19098,-0.15624 0.002,0.14592 0.88581,2.9178 1.96351,6.15973 l 1.95947,5.89444 -1.27881,0.64802 c -1.68858,0.85566 -7.78179,2.94195 -10.44533,3.57643 -5.21139,1.2414 -11.50468,1.57855 -16.80104,0.90007 z m 14.02292,-8.68033 c 0,-0.0549 -0.20836,-0.2633 -0.46302,-0.46302 -0.41965,-0.32911 -0.42901,-0.31975 -0.0999,0.0999 0.34564,0.44073 0.56292,0.58089 0.56292,0.36313 z m -2.38125,-2.38125 c 0,-0.0549 -0.20836,-0.2633 -0.46302,-0.46302 -0.41965,-0.32911 -0.42901,-0.31975 -0.0999,0.0999 0.34564,0.44073 0.56292,0.58089 0.56292,0.36313 z m -9.32773,-14.99978 c -1.27394,-0.12933 -3.05988,-0.40814 -3.96875,-0.61958 -1.58941,-0.36977 -5.513107,-1.77706 -6.234076,-2.23594 -0.401486,-0.25554 -0.150908,-1.39194 1.524924,-6.91564 0.551865,-1.81901 1.149834,-3.93237 1.328816,-4.69635 0.178986,-0.76399 0.358265,-1.38906 0.398405,-1.38906 0.04014,0 0.739481,0.29476 1.554091,0.65501 2.03477,0.89987 6.29694,1.72624 8.90348,1.72624 2.61028,0 6.86951,-0.82672 8.91123,-1.72966 0.81888,-0.36215 1.51949,-0.62714 1.55691,-0.58887 0.0374,0.0383 0.26697,0.84347 0.51009,1.78936 0.24312,0.94588 0.95392,3.4462 1.57955,5.55625 0.62564,2.11005 1.21812,4.21169 1.31663,4.67031 l 0.17911,0.83385 -2.75118,1.07565 c -4.28335,1.67471 -9.82728,2.37417 -14.80923,1.86843 z m 0.33189,-24.707504 c -1.61932,-0.415964 -3.43958,-1.132806 -3.43958,-1.354555 0,-0.309166 1.61003,-6.436892 2.18482,-8.315348 0.75983,-2.483191 1.40921,-2.90938 4.43389,-2.910005 2.97626,-6.09e-4 3.66494,0.456423 4.43054,2.940316 1.11878,3.629737 2.20884,8.248726 1.99527,8.454635 -0.11673,0.112531 -0.98613,0.466218 -1.93202,0.785971 -2.17156,0.734088 -5.66184,0.91558 -7.67292,0.398986 z"
         id="path23"
         inkscape:connector-curvature="0" />
    </g>
  </g>
</svg>
