<?xml version="1.0" encoding="UTF-8" standalone="no"?>
<!-- Created with Inkscape (http://www.inkscape.org/) -->

<svg
   xmlns:dc="http://purl.org/dc/elements/1.1/"
   xmlns:cc="http://creativecommons.org/ns#"
   xmlns:rdf="http://www.w3.org/1999/02/22-rdf-syntax-ns#"
   xmlns:svg="http://www.w3.org/2000/svg"
   xmlns="http://www.w3.org/2000/svg"
   xmlns:sodipodi="http://sodipodi.sourceforge.net/DTD/sodipodi-0.dtd"
   xmlns:inkscape="http://www.inkscape.org/namespaces/inkscape"
   width="210mm"
   height="297mm"
   viewBox="0 0 210 297"
   version="1.1"
   id="svg8"
   inkscape:version="0.92.2 (5c3e80d, 2017-08-06)"
   sodipodi:docname="disasters.svg">
  <defs
     id="defs2" />
  <sodipodi:namedview
     id="base"
     pagecolor="#ffffff"
     bordercolor="#666666"
     borderopacity="1.0"
     inkscape:pageopacity="0.0"
     inkscape:pageshadow="2"
     inkscape:zoom="0.43339059"
     inkscape:cx="396.85039"
     inkscape:cy="561.25984"
     inkscape:document-units="mm"
     inkscape:current-layer="layer1"
     showgrid="false"
     inkscape:window-width="1700"
     inkscape:window-height="881"
     inkscape:window-x="-9"
     inkscape:window-y="186"
     inkscape:window-maximized="1" />
  <metadata
     id="metadata5">
    <rdf:RDF>
      <cc:Work
         rdf:about="">
        <dc:format>image/svg+xml</dc:format>
        <dc:type
           rdf:resource="http://purl.org/dc/dcmitype/StillImage" />
        <dc:title />
      </cc:Work>
    </rdf:RDF>
  </metadata>
  <g
     inkscape:label="Camada 1"
     inkscape:groupmode="layer"
     id="layer1">
    <g
       id="g228"
       transform="translate(7.8857742,0.78857742)" />
    <g
       id="g344"
       transform="matrix(0.69466778,0,0,0.69466778,15.703819,21.31458)">
      <path
         style="fill:#e6e6e6;fill-opacity:1;stroke-width:0.26458332"
         d="m 509.20216,43.918691 c -0.0975,-0.09747 -0.17722,-1.58613 -0.17722,-3.308128 v -3.130902 h 41.01855 41.01856 l -0.0743,3.241146 -0.0743,3.241146 -40.76704,0.06698 c -22.42188,0.03684 -40.8468,-0.01278 -40.94427,-0.110241 z m 15.49934,-8.224798 c -4.37563,-0.04365 -7.47448,-0.176525 -7.47448,-0.320506 0,-0.560001 1.07579,-7.582435 1.21757,-7.947893 0.0847,-0.218281 0.43202,-2.182813 0.77187,-4.365625 1.68936,-10.850497 2.00796,-12.758301 2.24952,-13.4705095 0.14374,-0.4237778 0.23104,-0.7994147 0.194,-0.8347446 -0.037,-0.03533 -0.95035,0.5754873 -2.02958,1.3573711 -3.64059,2.637544 -5.31376,3.042076 -7.66152,1.852374 -3.37144,-1.708441 -4.33995,-5.174705 -2.31967,-8.3020113 0.49048,-0.7592378 1.63684,-1.6839698 5.55424,-4.48041194 0.45812,-0.32702766 1.19976,-0.86280896 1.6481,-1.19062506 0.44834,-0.3278134 1.50623,-1.0722769 2.35087,-1.6543602 0.84465,-0.5820834 1.86716,-1.2964584 2.27225,-1.5875001 0.40508,-0.2910417 2.38328,-1.7029023 4.39599,-3.1374679 2.01272,-1.4345658 3.95714,-2.8258815 4.32094,-3.0918125 0.3638,-0.265932 1.4949,-1.056727 2.51354,-1.757324 1.01865,-0.700597 1.9473,-1.422641 2.06367,-1.604542 0.41794,-0.653289 0.89127,-0.307137 1.44717,1.058334 0.99234,2.437558 0.99002,2.634369 -0.0577,4.8808268 -0.52958,1.1354671 -1.08149,2.2789235 -1.22648,2.5410142 -0.21645,0.3912812 -0.0369,0.6852275 1.00384,1.6431411 0.6971,0.6416358 1.35675,1.1713396 1.46589,1.1771154 0.98193,0.051985 -1.45734,2.2142292 -5.6844,5.0388204 -0.54343,0.3631248 -1.0598,0.8388218 -1.1475,1.0571031 -0.0877,0.2182812 -0.44695,2.1828125 -0.79834,4.3656251 -1.36887,8.5033359 -3.33509,20.2886899 -3.92864,23.5479169 -0.58372,3.205229 -0.58619,3.192974 0.71096,3.535149 0.61846,0.163144 2.4937,0.478819 4.16719,0.701497 1.67349,0.222676 3.25279,0.470427 3.50957,0.550556 0.82558,0.25763 0.19881,0.638733 -0.9455,0.5749 -0.60988,-0.03402 -4.47238,-0.09541 -8.58334,-0.136411 z m 11.57552,-0.341691 c 0,-0.157607 0.28838,-0.904264 0.64085,-1.659239 0.35247,-0.754973 1.19631,-2.622833 1.8752,-4.150802 2.3226,-5.227437 2.35717,-5.291667 2.84787,-5.291667 0.25973,0 1.55611,0.357187 2.88086,0.79375 1.32474,0.436562 2.49704,0.79375 2.6051,0.79375 0.2951,0 0.44739,-0.845185 2.51585,-13.962357 0.76234,-4.8344532 0.90007,-5.1822744 1.63338,-4.1250312 0.28886,0.4164489 0.60498,0.9357731 0.7025,1.1540544 0.0975,0.2182812 1.16866,2.0249228 2.38031,4.0147588 l 2.20301,3.617881 0.31149,-5.734548 c 0.17132,-3.1540028 0.31018,-6.3518788 0.30858,-7.1063884 -0.002,-0.7545124 0.13473,-1.7070124 0.30296,-2.1166668 l 0.30589,-0.74482854 0.19888,1.05833334 c 0.10938,0.5820834 0.3941,4.3920835 0.6327,8.4666674 0.69186,11.814982 0.86881,14.528467 0.97267,14.915885 0.0536,0.200092 -0.0314,0.411745 -0.18902,0.47034 -0.1576,0.0586 -1.40369,-1.323618 -2.76909,-3.071585 -1.3654,-1.74797 -2.57573,-3.084942 -2.68963,-2.971049 -0.11389,0.113892 -0.27118,2.403959 -0.34952,5.089036 -0.0783,2.685076 -0.20774,5.74516 -0.28755,6.800186 l -0.14511,1.918229 h -2.99385 -2.99385 l -0.23445,0.992187 -0.23446,0.992188 -5.21579,0.07174 c -3.61164,0.04968 -5.21578,-0.01639 -5.21578,-0.214824 z m 30.42708,0.06755 c 0,-0.114308 0.60503,-1.930011 1.34452,-4.034896 2.24353,-6.386042 2.88473,-8.249423 3.45645,-10.044777 0.30121,-0.945885 0.6411,-1.838854 0.75531,-1.984375 0.11421,-0.145521 0.40876,-0.987409 0.65455,-1.870861 l 0.4469,-1.606277 -1.90709,-3.949973 c -1.0489,-2.1724858 -2.83243,-5.8549726 -3.96339,-8.183306 -1.13097,-2.3283334 -3.08919,-6.3764585 -4.3516,-8.9958336 -2.9723,-6.1672244 -3.397,-6.9885474 -3.56897,-6.9019674 -0.0785,0.03952 -1.39288,0.673625 -2.92085,1.409115 -1.52797,0.73549 -5.01578,2.4201379 -7.75069,3.743661 -2.73491,1.3235229 -5.24444,2.4746419 -5.57674,2.5580439 -0.44407,0.111453 -0.91428,-0.1061191 -1.77431,-0.82099 -0.64357,-0.5349462 -1.20309,-1.0582947 -1.24337,-1.1629962 -0.0403,-0.1047014 0.28317,-1.0661843 0.71879,-2.1366287 l 0.79204,-1.946262 -0.69439,-2.001196 c -0.38191,-1.100658 -0.79467,-2.114306 -0.91723,-2.252551 -0.12257,-0.138244 -0.22285,-0.349891 -0.22285,-0.470326 0,-0.189404 4.48931,-2.434085 11.37709,-5.688608 1.0914,-0.515697 3.70469,-1.772191 5.8073,-2.792208 4.63242,-2.24727 5.50884,-2.403954 7.58133,-1.355366 0.82041,0.415088 1.76135,1.114947 2.09098,1.555242 0.32963,0.440295 1.49183,2.646006 2.58267,4.901579 3.10048,6.411027 5.77186,11.9309007 8.00293,16.5364585 1.12792,2.32833341 2.94034,6.0788023 4.0276,8.3343752 1.08727,2.255573 2.7527,5.7083853 3.70097,7.6729173 0.94826,1.964531 2.37169,4.941094 3.16316,6.614583 0.79148,1.67349 1.55133,3.221302 1.68856,3.439584 0.39928,0.635105 0.79226,1.635826 1.11252,2.833018 0.80986,3.02746 -2.27036,6.691982 -5.62496,6.691982 -1.30192,0 -3.44297,-0.972209 -4.2983,-1.951779 -0.26979,-0.308969 -1.05088,-1.71519 -1.73577,-3.124938 l -1.24526,-2.563175 -1.01132,2.96005 c -0.55623,1.628029 -1.3298,3.821772 -1.71906,4.874983 l -0.70773,1.914935 -4.0349,0.0033 c -2.21919,0.0019 -4.03489,-0.09022 -4.03489,-0.204531 z"
         id="path350"
         inkscape:connector-curvature="0" />
      <path
         style="fill:#8c8c8c;fill-opacity:1;stroke-width:0.26458332"
         d="m 509.28952,40.654661 v -3.175 h 40.74583 40.74583 v 3.175 3.175 h -40.74583 -40.74583 z m 8.06856,-5.622396 c 0.2256,-0.951553 4.36686,-25.8738826 4.36686,-26.2800234 0,-0.2170218 -0.90462,0.2794106 -2.20792,1.2116515 -1.21435,0.8686169 -2.63928,1.7595399 -3.1665,1.9798269 -2.06437,0.86255 -4.67757,0.230561 -6.11985,-1.480055 -1.63573,-1.9400472 -1.87847,-3.8110562 -0.78034,-6.01471 0.6632,-1.330878 1.17145,-1.7284939 13.0983,-10.2472586 6.82458,-4.8744614 12.56768,-8.9238084 12.76246,-8.9985504 0.24442,-0.0938 0.53087,0.402467 0.92462,1.601907 0.31376,0.955791 0.57047,1.906684 0.57047,2.113095 0,0.206411 -0.52802,1.4838332 -1.1734,2.838715 l -1.17339,2.4634217 0.57808,0.4876015 c 0.31795,0.2681809 1.03044,0.9034825 1.58331,1.4117841 l 1.00522,0.9241817 -3.51876,2.49694179 c -1.99392,1.41490175 -3.60674,2.75226731 -3.72179,3.08613451 -0.26095,0.7573169 -5.2937,31.1651257 -5.17669,31.2775557 0.0484,0.04654 1.99305,0.403968 4.32138,0.794292 2.32834,0.390327 4.28295,0.758984 4.34358,0.819243 0.0606,0.06026 -3.66234,0.109559 -8.27327,0.109559 h -8.38351 z m 19.18352,0.370549 c 0,-0.13004 0.54222,-1.47212 1.20492,-2.982399 0.66271,-1.510279 1.68906,-3.877056 2.28077,-5.259504 0.59171,-1.382448 1.15221,-2.598272 1.24555,-2.701833 0.0933,-0.10356 1.47458,0.221348 3.06941,0.722019 1.59483,0.500671 2.97721,0.823526 3.07195,0.717457 0.0947,-0.106068 0.85545,-4.300508 1.69045,-9.320977 0.835,-5.020469 1.54877,-9.1619125 1.58616,-9.2032113 0.0783,-0.086521 1.35241,1.9413802 3.98098,6.3363533 1.01522,1.697447 1.87765,3.054715 1.91651,3.016149 0.0389,-0.03856 0.29314,-3.308853 0.56507,-7.2673104 0.27193,-3.9584579 0.54227,-7.2450486 0.60076,-7.3035348 0.14805,-0.1480529 1.63604,22.7372872 1.5041,23.1331142 -0.0589,0.176683 -1.2739,-1.175356 -2.70002,-3.004534 -1.42611,-1.829176 -2.67717,-3.325776 -2.78013,-3.325776 -0.10296,0 -0.20998,0.803672 -0.23783,1.785938 -0.0279,0.982265 -0.12851,4.193304 -0.2237,7.135643 l -0.17307,5.349706 -3.06739,0.07425 -3.06739,0.07425 -0.29627,1.058334 -0.29628,1.058333 -4.93728,0.07198 c -2.77702,0.04049 -4.93727,-0.03147 -4.93727,-0.164457 z m 30.42708,-0.09152 c 0,-0.284231 1.00546,-3.206308 5.33952,-15.51785 l 1.33617,-3.795591 -0.73682,-1.496076 C 572.12353,12.90987 567.58308,3.5190768 561.98697,-8.0847053 l -2.13241,-4.4216567 -4.97575,2.397565 c -2.73667,1.3186607 -6.22591,2.9943098 -7.75388,3.723665 -1.52797,0.729355 -3.09321,1.4880509 -3.47833,1.6859883 -0.65515,0.3367326 -0.77851,0.2965239 -1.91721,-0.6249239 -0.66935,-0.5416478 -1.21746,-1.1225437 -1.21802,-1.2908799 -5.3e-4,-0.1683358 0.36,-1.1107044 0.80124,-2.0941522 l 0.80226,-1.7880873 -0.95826,-2.366829 c -0.52704,-1.301757 -0.85829,-2.450857 -0.73611,-2.553558 0.12218,-0.1027 4.78569,-2.367429 10.36336,-5.03273 6.76491,-3.232623 10.5288,-4.889688 11.30536,-4.977217 1.58012,-0.178102 3.85252,0.918236 4.76678,2.299775 0.55294,0.835542 4.06549,7.947181 8.04574,16.2896974 0.55543,1.1641667 2.51006,5.1970465 4.34361,8.9619537 1.83356,3.7649071 3.33375,6.8751028 3.33375,6.9115439 0,0.036441 1.61801,3.385439 3.59558,7.442213 5.24332,10.756112 5.36478,11.109625 4.5143,13.139143 -1.26375,3.015734 -4.63388,4.430998 -7.44842,3.12791 -1.50454,-0.696577 -2.27793,-1.648267 -3.76878,-4.637644 l -1.30949,-2.625714 -0.41343,1.170506 c -0.22739,0.643779 -0.97193,2.77785 -1.65454,4.742381 -0.68261,1.964531 -1.36283,3.720703 -1.5116,3.902604 -0.3762,0.459965 -7.61404,0.473695 -7.61404,0.01444 z"
         id="path348"
         inkscape:connector-curvature="0" />
      <path
         style="fill:#333333;fill-opacity:1;stroke-width:0.26458332"
         d="m 509.5541,40.654661 v -2.910417 h 40.48125 40.48125 v 2.910417 2.910417 H 550.03535 509.5541 Z m 8.08455,-5.267791 c -0.0818,-0.132387 -0.09,-0.400277 -0.0182,-0.595312 0.0718,-0.195033 0.36224,-1.902418 0.64538,-3.794189 0.65803,-4.396608 1.78936,-11.232341 2.15906,-13.045498 0.48109,-2.359457 1.49914,-9.4321849 1.38656,-9.6329163 -0.0582,-0.1038569 -0.78615,0.3268556 -1.61758,0.9571381 -3.07567,2.3316032 -4.1553,2.8564842 -5.87552,2.8564842 -1.65984,0 -2.75058,-0.474128 -3.89627,-1.693662 -1.85857,-1.9783606 -1.81446,-5.4739484 0.0918,-7.2717578 0.72482,-0.6835934 7.70809,-5.7835061 10.25828,-7.4916641 0.32588,-0.2182812 1.41771,-1.0029897 2.42628,-1.7437966 6.41827,-4.7142715 12.10653,-8.5944915 12.30632,-8.3946985 0.12706,0.12706 0.46808,0.920047 0.75782,1.762193 l 0.5268,1.531174 -1.18223,2.630474 c -0.65022,1.4467605 -1.17254,2.7190235 -1.16069,2.8272513 0.0118,0.1082278 0.657,0.732559 1.43367,1.3874028 0.77668,0.6548438 1.41726,1.2501563 1.42352,1.3229167 0.006,0.07276 -1.57337,1.2371811 -3.51028,2.58760128 l -3.52167,2.45530962 -0.43884,2.4394822 c -0.54005,3.0020314 -1.21426,7.0543001 -3.44334,20.6957331 -0.35668,2.182812 -0.84695,5.021191 -1.08949,6.307508 -0.24255,1.286317 -0.38094,2.398813 -0.30754,2.472211 0.0734,0.0734 1.30299,0.35047 2.73242,0.615712 1.42944,0.265242 3.19429,0.597186 3.92189,0.737655 0.99143,0.191405 -0.5792,0.263237 -6.26824,0.286677 -4.31109,0.01775 -7.65543,-0.07273 -7.73992,-0.209429 z m 19.16753,-0.293872 c 0,-0.148501 0.7811,-2.023735 1.73576,-4.167188 0.95467,-2.143456 1.98705,-4.462738 2.29419,-5.153962 0.30713,-0.691224 0.58212,-1.256771 0.61108,-1.256771 0.1114,0 5.30299,1.561754 5.70667,1.716704 0.35917,0.137861 0.51409,-0.325411 0.98968,-2.959441 0.80624,-4.465331 1.6091,-9.271609 2.12662,-12.730981 l 0.44784,-2.9935087 0.81137,1.2737175 c 0.44625,0.7005452 1.3395,2.1666862 1.985,3.2580922 0.6455,1.091407 1.58019,2.668149 2.07708,3.503869 0.49688,0.835724 0.99299,1.429933 1.10246,1.320467 0.10947,-0.109466 0.38833,-3.170423 0.6197,-6.802128 0.23136,-3.6317027 0.45058,-6.6330144 0.48715,-6.6695824 0.0366,-0.036566 0.21892,2.8763992 0.40524,6.4732589 0.18631,3.5968575 0.50243,8.4996395 0.70249,10.8950715 0.20006,2.395434 0.3362,4.382873 0.30254,4.416536 -0.0337,0.03366 -0.77251,-0.836242 -1.64189,-1.93312 -3.18148,-4.014007 -3.66192,-4.589788 -3.82982,-4.589788 -0.0942,0 -0.32247,3.184713 -0.50737,7.077141 -0.18489,3.892429 -0.39148,7.166647 -0.45909,7.276042 -0.0676,0.109395 -1.42932,0.198901 -3.02603,0.198901 -2.09176,0 -2.93158,0.09243 -3.005,0.330729 -0.056,0.181901 -0.17363,0.658151 -0.26132,1.058333 l -0.15943,0.727604 h -4.75746 c -3.05885,0 -4.75746,-0.0964 -4.75746,-0.269996 z m 30.42709,0.04005 c 0,-0.126474 0.30135,-1.108739 0.66966,-2.182813 0.36831,-1.074076 0.94865,-2.7863 1.28963,-3.804946 0.34098,-1.018646 1.52237,-4.38249 2.62532,-7.475207 l 2.00535,-5.623121 -2.8594,-5.886255 c -1.57268,-3.2374387 -3.36934,-6.9578138 -3.99259,-8.2675014 -0.62325,-1.30968751 -2.32032,-4.8220314 -3.77126,-7.8052085 -1.45094,-2.9831772 -2.74141,-5.6918491 -2.86772,-6.0192711 -0.1263,-0.327422 -0.36333,-0.595312 -0.52673,-0.595312 -0.16339,0 -1.38673,0.527824 -2.71852,1.172942 -11.42358,5.5335491 -14.05507,6.7156099 -14.44468,6.4885338 -0.2267,-0.1321276 -0.81495,-0.5803913 -1.30721,-0.9961417 -0.85132,-0.7190023 -0.87557,-0.7871389 -0.49685,-1.3955178 0.219,-0.3517847 0.61109,-1.2524129 0.87134,-2.0013965 0.46791,-1.3466948 0.46637,-1.3804188 -0.13957,-3.0427088 -0.33701,-0.924506 -0.7133,-1.794029 -0.83621,-1.932274 -0.59189,-0.665726 -0.13074,-1.133614 2.22392,-2.256391 4.67093,-2.227259 11.46007,-5.495443 14.61822,-7.03699 2.88585,-1.408626 3.33528,-1.550586 4.9349,-1.558766 1.54601,-0.0079 1.89973,0.08974 2.91042,0.803437 1.235,0.872091 1.79844,1.886647 6.75454,12.162405 3.24327,6.724434 6.78211,14.0460897 9.01083,18.6428681 1.0936,2.255573 2.7912,5.7679169 3.77244,7.8052089 0.98123,2.037291 2.64267,5.469861 3.69208,7.627929 2.25373,4.634699 2.51726,5.932742 1.62278,7.993026 -0.85182,1.96201 -2.26805,2.870801 -4.65161,2.984924 -1.72244,0.08247 -1.94337,0.02811 -3.14403,-0.773647 -1.13124,-0.755399 -1.45938,-1.207551 -2.64583,-3.645745 -0.74494,-1.530868 -1.4764,-2.819982 -1.62548,-2.864699 -0.14907,-0.04472 -0.91042,1.794899 -1.69189,4.088038 -0.78146,2.293138 -1.58528,4.496763 -1.78627,4.896945 l -0.36542,0.727604 h -3.56508 c -1.9608,0 -3.56508,-0.103478 -3.56508,-0.229949 z"
         id="path346"
         inkscape:connector-curvature="0" />
    </g>
    <path
       style="fill:#000000;stroke-width:0.1031637"
       d="m 376.78347,93.7035 -6.91096,31.5419 -6.91096,31.5421 10.969,-20.342 0.99254,6.80116 11.76409,-14.24788 0.94177,-4.29862 2.20795,0.48378 4.75621,-5.76024 -1.24341,5.00707 9.77517,-10.10763 c 0.12037,-0.5443 0.23906,-1.08204 0.37074,-1.67117 l 1.38405,-6.19183 4.18216,0.91618 0.64477,0.14124 4.17994,-4.32199 0.24018,3.0669 4.77999,-3.32965 -21.06152,-4.61476 z m 42.12323,9.22932 -5.97101,6.76689 -1.07173,4.89121 -1.38002,6.29843 -4.16543,-0.88515 c -0.84484,-0.17952 -1.52591,-0.32629 -2.0796,-0.44853 l -6.01412,6.81566 2.46606,-5.70765 -4.91015,5.8225 0.31332,0.0687 -1.3776,6.28754 c -1.08317,4.94367 -1.40635,6.28942 -1.51159,6.29602 -0.0736,0.004 -1.97914,-0.40847 -4.23455,-0.9178 l -2.59158,-0.58534 -12.68067,15.03692 -0.81544,-4.56116 -3.66372,8.67643 h 11.37984 l 0.57203,-2.61114 1.38002,-6.29822 4.23253,0.92726 4.23233,0.92748 -1.38001,6.29822 -0.16563,0.7564 h 17.63696 l 4.88879,-22.31278 z m -39.22034,-1.99275 4.18216,0.91638 4.18216,0.91639 -1.38002,6.29823 -1.38002,6.29821 -4.16543,-0.88495 c -3.27833,-0.69659 -4.16986,-0.91436 -4.18619,-1.02277 -0.0114,-0.0757 0.60208,-2.92415 1.36329,-6.32965 z m 12.59665,2.76004 4.18216,0.91637 4.18216,0.91618 -1.38002,6.29844 -1.38002,6.29821 -4.16543,-0.88495 c -3.27834,-0.69659 -4.16986,-0.91457 -4.18619,-1.02297 -0.0114,-0.0757 0.60208,-2.92395 1.36329,-6.32945 z m -17.2501,18.238 4.2015,0.94802 4.2015,0.94822 -1.34858,6.27889 c -1.27409,5.93232 -1.3583,6.27671 -1.5259,6.24119 -4.79012,-1.01244 -7.99809,-1.7084 -8.12414,-1.76265 -0.14902,-0.0641 -0.0546,-0.55802 1.21701,-6.36169 z m 25.23219,5.58353 4.21298,0.89544 4.21299,0.89563 -1.38022,6.29943 c -1.08893,4.96993 -1.40702,6.29483 -1.50715,6.27646 -0.72147,-0.1309 -8.04814,-1.72393 -8.1717,-1.77675 -0.15317,-0.0656 -0.0681,-0.5012 1.23434,-6.33026 z"
       id="path137"
       inkscape:connector-curvature="0" />
    <path
       style="fill:#000000;stroke-width:0.22976264"
       d="m 360.83252,242.44847 c -7.09361,-11.14096 -9.52498,-15.01221 -9.46804,-15.07507 0.0565,-0.0624 7.09965,4.75619 9.12541,6.24317 0.34596,0.25396 0.66505,0.41738 0.70911,0.36317 0.044,-0.0542 -1.60108,-4.54446 -3.65584,-9.97835 l -3.73593,-9.8798 5.25526,5.39942 5.25525,5.39942 -0.10766,-1.1488 c -0.30327,-3.23556 -1.49399,-21.12937 -1.43304,-21.53494 0.0482,-0.32071 1.97019,2.4347 6.03583,8.65319 3.28081,5.01806 6.03123,9.16462 6.11206,9.21457 0.0808,0.05 0.2815,-2.2887 0.44595,-5.19702 0.16444,-2.90832 0.37155,-5.20543 0.46023,-5.10471 0.0887,0.10073 0.85614,2.09592 1.70544,4.43375 0.84931,2.33784 1.61767,4.32673 1.70747,4.41975 0.0898,0.093 1.3924,-4.58552 2.89467,-10.39676 1.50226,-5.81124 2.81588,-10.5659 2.91914,-10.5659 0.10325,0 0.2145,5.45226 0.24721,12.11614 l 0.0595,12.11614 2.69971,-3.64489 c 1.83659,-2.47958 2.69971,-3.48274 2.69971,-3.13772 0,0.27894 -0.16381,2.31711 -0.36402,4.52926 -0.20021,2.21215 -0.3175,4.06861 -0.26065,4.12546 0.0569,0.0569 3.13043,-3.05593 6.83017,-6.91729 3.69975,-3.86136 6.75853,-6.98893 6.79732,-6.95015 0.0388,0.0388 -2.14202,6.21559 -4.84625,13.72623 -2.70422,7.51065 -4.87329,13.69919 -4.82015,13.75232 0.0531,0.0532 1.92722,-0.69206 4.16465,-1.65599 2.23743,-0.96394 4.1074,-1.71325 4.1555,-1.66514 0.0481,0.0481 -1.27545,1.65745 -2.94124,3.57634 -1.66579,1.91889 -2.93825,3.5702 -2.82767,3.66958 0.11057,0.0994 1.00751,0.31392 1.9932,0.47676 0.98567,0.16285 1.70943,0.37815 1.60833,0.47844 -0.10109,0.10032 -1.35557,0.60177 -2.78773,1.11436 -2.26144,0.80939 -2.85828,0.93197 -4.53781,0.93197 -1.06364,0 -1.93389,-0.0533 -1.93389,-0.1184 0,-0.0651 0.50038,-0.81472 1.11196,-1.66578 0.61158,-0.85106 1.1821,-1.66974 1.26781,-1.8193 0.0857,-0.14955 -0.93768,0.0943 -2.27422,0.54182 -1.33653,0.44756 -2.47426,0.76954 -2.52829,0.71551 -0.054,-0.054 0.46212,-2.05552 1.14697,-4.44778 1.68012,-5.86874 2.17686,-7.68112 2.10525,-7.68112 -0.0332,0 -1.85989,1.5442 -4.0594,3.43154 -2.19952,1.88734 -4.0207,3.40995 -4.04709,3.38356 -0.0264,-0.0264 -0.25723,-2.41125 -0.51297,-5.29969 -0.25574,-2.88843 -0.50463,-5.29135 -0.55307,-5.33979 -0.0485,-0.0485 -0.42745,1.43842 -0.84222,3.30416 -0.41477,1.86574 -0.81826,3.46364 -0.89665,3.55088 -0.0784,0.0872 -0.71118,-0.81579 -1.40621,-2.00674 -0.69503,-1.19095 -1.32593,-2.16702 -1.40198,-2.16905 -0.076,-0.002 -0.26947,1.2502 -0.42978,2.78272 -0.16032,1.53251 -0.35657,3.02446 -0.43612,3.31544 -0.11921,0.43606 -0.68272,-0.38689 -3.20592,-4.68194 l -3.06129,-5.21099 0.15988,6.75147 c 0.13478,5.69128 0.11038,6.72163 -0.15538,6.56146 -0.1734,-0.1045 -1.51455,-1.20404 -2.98033,-2.44341 -1.46578,-1.23938 -2.7145,-2.25341 -2.77492,-2.25341 -0.0605,0 0.38658,2.30049 0.99335,5.11221 0.60677,2.81172 1.10589,5.24147 1.10914,5.39943 0.004,0.21348 -0.6735,0.2872 -2.64117,0.2872 h -2.6471 z"
       id="path208"
       inkscape:connector-curvature="0" />
    <path
       style="fill:#000000;stroke-width:0.09801722"
       d="m 380.04956,336.62746 c 3.89244,-2.03954 6.46455,-4.56011 8.16286,-7.99926 0.69981,-1.41716 1.07946,-2.48147 1.2992,-3.64218 0.16934,-0.89451 0.17128,-4.59481 0.003,-5.3264 -0.727,-3.15659 -2.72481,-6.55243 -4.18233,-7.10906 -0.40053,-0.15297 -0.54016,-0.161 -1.07766,-0.062 -0.33962,0.0626 -0.66135,0.11378 -0.71494,0.11378 -0.0536,0 -0.37506,-0.62853 -0.71437,-1.39674 -0.95691,-2.16651 -1.69988,-3.44484 -3.28226,-5.6474 l -0.3499,-0.48704 4.87338,-4.91514 4.87339,-4.91513 10.96404,10.95962 10.96405,10.95963 -0.0313,9.75272 c -0.0172,5.36399 -0.0685,9.83113 -0.1138,9.92696 -0.20094,0.42461 0.24049,0.41267 -16.23224,0.43893 l -15.73177,0.0251 z m -5.93465,-0.0968 c -0.31368,-0.31369 -0.25636,-0.67632 0.22696,-1.4358 1.45804,-2.29113 1.7371,-2.89252 1.79901,-3.877 0.0584,-0.92799 -0.18176,-1.37171 -2.32962,-4.30496 -1.4048,-1.91849 -1.92039,-2.72502 -2.41098,-3.7715 -0.48358,-1.0315 -0.69526,-1.89547 -0.78813,-3.21669 -0.0368,-0.52316 -0.0981,-0.95121 -0.1362,-0.95121 -0.0803,0 -0.77255,1.46309 -1.06679,2.25451 -0.32108,0.86363 -0.49363,1.73938 -0.56003,2.84239 -0.0738,1.22544 0.0726,2.19308 0.65045,4.30065 0.56882,2.07458 0.51793,2.71767 -0.26218,3.31269 -0.29172,0.2225 -0.4799,0.27914 -1.03104,0.31028 -0.3996,0.0226 -0.7929,-0.0111 -0.96562,-0.0826 -0.44848,-0.18577 -0.72541,-0.71973 -0.78776,-1.5189 l -0.0535,-0.68612 -0.28952,0.5881 c -0.26239,0.53296 -0.28948,0.68001 -0.28892,1.56828 7.4e-4,0.98814 0.12992,1.48699 0.84414,3.25671 0.12012,0.29766 0.11059,0.3341 -0.16254,0.62144 -0.25242,0.26555 -0.34175,0.29957 -0.68707,0.26165 -0.2183,-0.024 -0.82138,-0.22973 -1.34016,-0.45725 -3.82771,-1.6787 -6.61647,-4.29941 -7.84383,-7.37116 -0.54835,-1.37237 -0.69828,-2.17459 -0.70286,-3.7607 -0.004,-1.49816 0.0794,-2.10804 0.45093,-3.28358 0.48499,-1.53465 1.72802,-3.44812 3.8538,-5.93237 1.3551,-1.58361 2.3369,-2.90884 2.67857,-3.61552 0.4615,-0.95451 0.53971,-1.47198 0.48441,-3.20502 -0.0454,-1.4238 -0.0344,-1.56464 0.13632,-1.74794 0.4027,-0.43224 0.88469,-0.35219 1.56222,0.25947 1.23228,1.11247 2.06899,2.88567 2.54589,5.39532 0.064,0.33694 0.14866,0.61261 0.18808,0.61261 0.0897,0 0.60756,-1.22591 0.84888,-2.00935 0.14687,-0.47685 0.18114,-0.91259 0.18114,-2.30341 0,-1.52489 -0.0255,-1.79636 -0.22934,-2.44559 -0.65998,-2.10167 -2.1803,-4.17886 -4.07137,-5.56262 -1.03494,-0.75731 -1.13192,-0.86293 -1.13613,-1.23745 -0.003,-0.30547 0.46112,-0.85011 0.72512,-0.85011 0.39854,0 2.26518,0.32186 3.1766,0.54773 4.17253,1.03405 8.30101,3.99421 11.45472,8.21314 1.71141,2.28948 2.87397,4.76868 3.52163,7.50999 0.32559,1.37812 0.41985,3.90021 0.1996,5.34067 -0.0823,0.53839 -0.13027,0.9983 -0.10654,1.02202 0.13053,0.13053 0.9099,-1.33585 1.27185,-2.39299 0.24967,-0.72921 0.26994,-0.90931 0.28937,-2.57099 0.0148,-1.26734 0.0568,-1.83017 0.14454,-1.93584 0.073,-0.088 0.28459,-0.14899 0.51665,-0.14899 0.50317,0 0.81241,0.31547 1.60099,1.63326 0.67851,1.13385 1.31916,2.67002 1.62842,3.90471 0.19163,0.76506 0.22092,1.13586 0.22066,2.79349 -2.9e-4,1.76316 -0.0207,1.98735 -0.26296,2.89179 -1.08525,4.05094 -4.03651,7.63023 -7.94064,9.63042 -1.7507,0.89693 -3.78717,1.60581 -5.03655,1.75319 -0.42863,0.0506 -0.53311,0.0287 -0.71063,-0.14884 z m 38.57903,-21.18698 c -0.53608,-0.13461 -0.93004,-0.3548 -1.54059,-0.86108 -0.2965,-0.24586 -5.41385,-5.31188 -11.37189,-11.25782 l -10.8328,-10.8108 -5.53576,5.5364 c -3.04466,3.04502 -5.56865,5.5364 -5.60887,5.5364 -0.0402,0 -0.43734,-0.3362 -0.88248,-0.7471 -1.02454,-0.94573 -2.929,-2.37847 -4.07968,-3.06916 l -0.88744,-0.53269 1.09871,-1.14494 c 3.19555,-3.33 15.34579,-15.36512 15.62255,-15.47454 0.21254,-0.084 0.36808,-0.0926 0.49009,-0.027 0.37785,0.20318 5.69443,5.45576 15.44734,15.2614 5.57644,5.60658 10.56573,10.6505 11.08732,11.20871 1.27429,1.36375 1.3763,1.57131 1.38001,2.80775 0.003,0.86554 -0.0283,1.04676 -0.26383,1.54955 -0.3625,0.7737 -1.17629,1.55565 -1.90952,1.83482 -0.63801,0.24292 -1.65488,0.33025 -2.21316,0.19007 z m -8.37729,-21.09499 -3.16106,-3.1622 0.004,-3.7241 c 0.002,-2.04825 0.0413,-3.91587 0.0866,-4.15027 0.14518,-0.75136 0.12496,-0.74529 2.61265,-0.78513 2.20029,-0.0352 3.09994,0.013 3.37148,0.18085 0.21914,0.13543 0.30177,2.96217 0.27242,9.31907 l -0.0253,5.48398 z"
       id="path221"
       inkscape:connector-curvature="0" />
    <path
       style="fill:#000000;stroke-width:0.26458335"
       d="m -131.94328,315.04544 0.009,-5.75469 4.66819,-4.00251 4.66819,-4.00252 4.69775,4.00252 4.69774,4.00251 0.018,5.75469 0.018,5.75469 h -5.15937 -5.15938 v -5.02709 -5.02708 h -3.04272 -3.04271 v 5.02708 5.02709 h -1.19062 -1.19063 l 0.009,-5.75469 z m 12.69121,0.7276 v -1.5875 h -1.4552 -1.45521 v 1.5875 1.5875 h 1.45521 1.4552 z m 3.65164,-0.0797 0.0798,-1.53497 -1.53497,0.0798 -1.53496,0.0797 -0.0828,1.15475 c -0.12738,1.77569 0.005,1.92756 1.60123,1.83575 l 1.39202,-0.0801 z m -3.65164,-3.49212 v -1.45521 h -1.4552 -1.45521 v 1.45521 1.45521 h 1.45521 1.4552 z m 3.70417,0 v -1.45521 h -1.5875 -1.5875 v 1.45521 1.45521 h 1.5875 1.5875 z m 6.94669,5.15937 c 0.0661,-0.21828 1.32815,-3.61942 2.80448,-7.5581 1.47634,-3.93867 2.68425,-7.24266 2.68425,-7.34219 0,-0.0995 -0.89372,-0.18096 -1.98603,-0.18096 h -1.98603 l 1.98603,-3.96544 c 1.09231,-2.181 1.98603,-4.02646 1.98603,-4.10104 0,-0.0746 -0.41672,-0.1356 -0.92604,-0.1356 -0.50933,0 -0.91555,-0.0893 -0.90271,-0.19844 0.0128,-0.10914 0.45931,-1.50812 0.99218,-3.10885 l 0.96886,-2.91042 2.57969,-0.0757 c 1.418833,-0.0417 2.579683,0.029 2.579683,0.15702 0,0.12801 -0.23812,0.92487 -0.52916,1.77079 -0.29104,0.84593 -0.52917,1.57895 -0.52917,1.62892 0,0.05 0.40951,0.0909 0.91002,0.0909 h 0.91003 l -1.96019,4.03489 -1.960203,4.0349 1.930943,0.13229 1.93094,0.13229 -4.915663,7.69169 c -5.50522,8.61418 -6.74277,10.48015 -6.56794,9.9031 z m -27.31933,-8.18821 c -0.65469,-0.56576 -1.13094,-1.0777 -1.05833,-1.13764 0.0726,-0.0599 3.10508,-2.65934 6.73882,-5.77645 3.63375,-3.11712 6.87694,-5.8835 7.20709,-6.1475 0.5979,-0.47812 0.61066,-0.47104 3.2171,1.78593 1.43925,1.24628 2.69067,2.26596 2.78093,2.26596 0.0903,0 0.16412,-0.53579 0.16412,-1.19063 v -1.19062 h 1.85208 1.85208 l 0.0159,2.97656 0.0159,2.97656 2.6349,2.21934 2.6349,2.21935 -1.11647,0.95565 c -0.61406,0.52561 -1.20318,0.95566 -1.30917,0.95566 -0.10598,0 -2.82475,-2.26219 -6.0417,-5.02708 -3.21696,-2.7649 -5.94102,-5.05917 -6.05346,-5.09839 -0.11244,-0.0392 -2.91561,2.25273 -6.22926,5.09323 -3.31365,2.84049 -6.04512,5.16098 -6.06993,5.15664 -0.0248,-0.004 -0.58077,-0.4708 -1.23546,-1.03657 z m 2.88226,-23.39617 c -1.80219,-0.38788 -2.88254,-1.05279 -2.88254,-1.7741 0,-0.8082 1.87362,-1.51095 4.96586,-1.86257 2.37051,-0.26956 2.68317,-0.36709 2.93276,-0.91488 0.41532,-0.91154 1.52746,-1.52299 2.77172,-1.5239 l 1.10362,-7.9e-4 0.005,-1.08546 c 0.007,-1.43577 0.7891,-2.49369 2.55401,-3.45428 1.07277,-0.58387 1.76934,-0.76945 2.92873,-0.78025 l 1.52118,-0.0142 0.16303,-0.92604 c 0.70122,-3.98325 5.62392,-6.28569 11.36973,-5.31785 4.68106,0.78849 7.588293,3.5372 7.083043,6.69685 l -0.16027,1.00225 1.026,0.006 c 1.41158,0.008 2.97768,0.77636 4.0336,1.979 0.82911,0.94429 0.87923,1.1086 0.77552,2.5423 l -0.11087,1.53277 1.47117,0.14757 c 4.18719,0.42002 6.36596,1.11092 6.36596,2.01868 0,0.71009 -0.98726,1.25559 -3.07161,1.69718 -1.51412,0.32077 -5.34397,0.38327 -22.592973,0.36867 -15.16081,-0.0128 -21.17031,-0.10378 -22.25288,-0.33678 z"
       id="path245"
       inkscape:connector-curvature="0" />
    <path
       style="fill:#000000;stroke-width:0.26458335"
       d="m -15.541727,318.50396 0.009,-4.69636 3.71393,-3.175 c 2.0426599,-1.74625 3.8542599,-3.20034 4.0257699,-3.23132 0.17152,-0.031 1.97873,1.4041 4.01602,3.18906 l 3.70417002,3.2454 0.0721999968,4.68228 0.0722000032,4.68229 h -4.37173002 -4.37173 v -4.10104 -4.10104 h -2.3812499 -2.38125 v 4.10104 4.10104 h -1.05834 -1.05833 z m 10.5742199,0.59531 v -1.19063 h -1.19063 -1.19062 v 1.19063 1.19062 h 1.19062 1.19063 z m 2.91041,0 v -1.19063 h -1.19062 -1.19063 v 1.19063 1.19062 h 1.19063 1.19062 z m -2.91041,-2.91042 v -1.19062 h -1.19063 -1.19062 v 1.19062 1.19063 h 1.19062 1.19063 z m 2.91041,0 v -1.19062 h -1.19062 -1.19063 v 1.19062 1.19063 h 1.19063 1.19062 z m 6.05228,5.35782 c 2.7012,-3.43946 5.73312,-9.05931 7.7006701,-14.27369 l 0.99838,-2.64588 0.3634,1.41525 c 0.23311,0.90785 0.35229,2.7433 0.33242,5.11942 -0.0268,3.20079 -0.1277,4.02642 -0.74276,6.07557 -0.39148,1.30426 -1.13643,3.1795 -1.65544,4.16718 l -0.94366,1.79579 h -3.6758601 -3.67585 z m 9.0569501,0.0517 c 1.50795,-3.03928 1.91139,-5.16663 1.9291,-10.17206 0.0135,-3.8194 -0.0736,-4.85253 -0.57722,-6.8487 -1.14023,-4.5191 -3.11834,-7.62295 -5.0556001,-7.93273 -0.99779,-0.15955 -1.88051,-0.73498 -1.88051,-1.22586 0,-0.46457 0.85439,-1.05833 1.52286,-1.05833 2.5793001,0 6.5007101,3.86306 8.6554001,8.52661 1.58978,3.44086 2.10704,5.9157 2.11653,10.12651 0.009,4.04668 -0.27339,5.42605 -1.74757,8.53282 l -0.78466,1.65364 h -2.48656 -2.48655 z m 6.88775,0.21284 c 1.22439,-3.04795 1.40554,-4.14247 1.41221,-8.53281 0.007,-4.6824 -0.32867,-6.58944 -1.79363,-10.18646 -1.82646,-4.48464 -5.20053,-8.81302 -7.93036,-10.17335 -3.2207801,-1.60498 -6.0122801,-0.27248 -6.0122801,2.86991 0,1.78468 -1.50877,2.15544 -2.12933,0.52325 -1.06728,-2.80716 1.17318,-6.87891 4.66461,-8.47734 1.31459,-0.60184 1.74283,-0.66759 3.6841801,-0.5657 1.8029,0.0946 2.51178,0.27042 3.9544,0.98062 7.26262,3.57537 13.95909,14.0151 16.27294,25.36934 0.54827,2.69041 1.05698,6.79213 1.06528,8.58941 l 0.005,0.99219 h -6.87531 -6.87531 z m -38.74852,-8.08427 c -0.39103,-0.40814 -0.71096,-0.81446 -0.71096,-0.90293 0,-0.15017 10.3820599,-9.18192 11.4370699,-9.94956 0.42817,-0.31153 0.71873,-0.13948 2.65777,1.57379 l 2.17704,1.92356 0.13229,-1.04462 0.13229,-1.04462 1.52135,-0.0794 1.52136002,-0.0794 v 2.49444 2.49443 l 1.78593998,1.53463 c 0.98226,0.84404 1.96016,1.69191 2.17311,1.88414 0.33421,0.30171 0.26182,0.45667 -0.52917,1.13277 -0.50398,0.43079 -1.01469,0.78808 -1.13489,0.794 -0.12021,0.006 -2.32286998,-1.81115 -4.8948,-4.03791 -2.57193,-2.22676 -4.80277,-4.12501 -4.95743,-4.21834 -0.15466,-0.0933 -2.47638,1.72613 -5.1593799,4.04321 -2.68299,2.31709 -5.00473,4.21534 -5.1594,4.21834 -0.15468,0.003 -0.60116,-0.32849 -0.99219,-0.73663 z"
       id="path258"
       inkscape:connector-curvature="0" />
    <path
       style="fill:#000000;stroke-width:0.26458332"
       d="m 142.72542,321.70373 c -2.03729,-0.18615 -4.06135,-0.3528 -4.49791,-0.37033 l -0.79375,-0.0319 0.74638,-0.55654 0.74639,-0.55654 -0.97522,-0.99871 -0.97521,-0.99872 1.02258,-0.6447 1.02258,-0.6447 5.35781,0.4045 5.35781,0.40449 v 2.20072 2.20071 l -1.65365,-0.0349 c -0.9095,-0.0192 -3.32052,-0.18724 -5.35781,-0.37338 z m -36.11562,-2.23752 v -2.11667 h 15.12737 15.12737 l -0.57391,0.61089 -0.5739,0.6109 0.93991,0.91046 0.93991,0.91046 -0.69147,0.59531 -0.69146,0.59531 H 121.41171 106.6098 Z m 9.59446,-21.10052 0.0628,-17.39636 5.49668,-0.0715 5.49669,-0.0715 1.56451,1.06244 c 1.44155,0.97894 1.57904,1.15931 1.74932,2.29479 0.16616,1.10806 -0.0725,2.87174 -0.55862,4.12803 -0.16015,0.4139 0.017,0.46302 1.67037,0.46302 2.05064,0 2.15963,0.10601 2.17628,2.11667 0.0127,1.53157 0.24588,1.69199 1.79215,1.2328 2.28589,-0.67884 2.17616,-1.28815 2.17616,12.08334 v 11.55469 H 126.986 116.14139 Z m 6.54512,5.4901 c 0,-1.22002 -0.11208,-2.12601 -0.26458,-2.13871 -0.14552,-0.0121 -0.6813,-0.022 -1.19063,-0.022 -2.14552,0 -1.98437,-0.17547 -1.98437,2.16076 v 2.11667 h 1.71979 1.71979 v -2.11667 z m 5.29167,0.0184 c 0,-2.34474 -0.0324,-2.37702 -2.18282,-2.17343 l -0.99218,0.0939 v 2.08888 2.08887 h 1.5875 1.5875 z m 5.29166,-0.0184 v -2.11667 h -1.5875 -1.5875 v 2.11667 2.11667 h 1.5875 1.5875 z m -10.84791,-4.34854 c 0,-0.3305 0.0765,-1.33276 0.16998,-2.22723 l 0.16998,-1.62631 h -1.75748 -1.75748 v 2.07257 c 0,1.13991 0.0637,2.13632 0.14167,2.21424 0.0779,0.0779 0.79229,0.14752 1.5875,0.15466 1.3308,0.012 1.44583,-0.0348 1.44583,-0.58793 z m 5.35781,0.40285 c 0.10914,-0.0127 0.19844,-0.97556 0.19844,-2.13973 v -2.11666 h -1.5875 -1.5875 v 2.24561 2.24562 l 1.38906,-0.10589 c 0.76398,-0.0582 1.47836,-0.11626 1.5875,-0.12895 z m 5.4901,-2.07205 v -2.18434 h -1.5875 -1.5875 v 2.07257 c 0,1.13991 0.0848,2.15738 0.18849,2.26105 0.10366,0.10366 0.81804,0.15396 1.5875,0.11177 l 1.39901,-0.0767 z m -10.71562,-5.75622 v -2.11666 l -1.65365,-0.0788 -1.65364,-0.0788 v 2.0852 c 0,1.14686 0.0846,2.16976 0.18793,2.27312 0.10336,0.10337 0.8475,0.15298 1.65365,0.11025 l 1.46571,-0.0777 z m 5.42396,0 v -2.24896 h -1.5875 -1.5875 v 2.24896 2.24896 h 1.5875 1.5875 z m 5.29166,0 v -2.24896 h -1.5875 -1.5875 v 2.24896 2.24896 h 1.5875 1.5875 z m -10.58333,-5.95312 v -2.11667 h -1.71979 -1.71979 v 2.11667 2.11666 h 1.71979 1.71979 z m 5.29167,0 v -2.11667 h -1.5875 -1.5875 v 2.11667 2.11666 h 1.5875 1.5875 z m -23.09828,17.03019 c -0.0923,-0.0923 0.0665,-0.46549 0.35278,-0.82943 0.65737,-0.83571 0.65669,-1.55534 -0.003,-3.00885 -0.67565,-1.48898 -0.67788,-3.04901 -0.006,-4.06379 0.71741,-1.08326 0.67165,-2.70256 -0.13229,-4.68108 -0.87832,-2.16154 -0.87078,-3.62852 0.0241,-4.69204 0.92471,-1.09896 1.30355,-0.7742 0.49196,0.42174 -0.82862,1.22104 -0.81706,2.09031 0.0549,4.13071 0.88359,2.06755 0.93045,3.72612 0.14134,5.00293 -0.7138,1.15494 -0.72579,2.11679 -0.0451,3.61695 0.64319,1.41747 0.66455,2.4947 0.0694,3.50216 -0.46172,0.78162 -0.649,0.90023 -0.94853,0.6007 z m 3.71747,0.0133 c -0.0849,-0.0849 0.0871,-0.56374 0.38227,-1.06402 0.51665,-0.87565 0.52019,-0.95632 0.0948,-2.16069 -1.08137,-3.06193 -1.06208,-2.78907 -0.31295,-4.42537 0.85945,-1.87729 0.86892,-2.62794 0.0583,-4.62286 -0.35063,-0.86291 -0.71457,-1.91977 -0.80875,-2.34858 -0.18855,-0.85845 0.30312,-2.29938 1.03396,-3.03022 0.75799,-0.75799 1.00341,-0.20323 0.28684,0.64837 -0.86636,1.0296 -0.86831,2.28681 -0.007,4.40691 0.79937,1.96727 0.837,3.29883 0.13229,4.68108 -0.66585,1.30603 -0.66402,2.58762 0.006,4.06379 0.65721,1.44837 0.65664,2.06436 -0.003,3.14611 -0.55068,0.90317 -0.61367,0.95468 -0.86287,0.70548 z m 35.94681,-0.43247 c -0.74924,-1.15814 -0.75946,-1.91226 -0.0488,-3.60078 0.83078,-1.97385 0.83082,-1.97958 0.0251,-3.61754 -0.85283,-1.73369 -0.83033,-2.5645 0.1408,-5.19835 0.86725,-2.35211 0.85845,-2.96861 -0.0608,-4.2596 -0.73593,-1.03353 -0.3292,-1.32301 0.46596,-0.33164 0.96347,1.2012 1.0654,2.29219 0.37834,4.04918 -1.16532,2.98 -1.22507,3.70958 -0.43977,5.36957 0.83313,1.76109 0.85917,2.37628 0.16528,3.90546 -0.625,1.37738 -0.67019,2.62028 -0.12364,3.40059 0.23879,0.34093 0.29673,0.63432 0.14392,0.72876 -0.14069,0.087 -0.43156,-0.11359 -0.64638,-0.44565 z m 3.69867,0.0843 c -0.73873,-0.81628 -0.80912,-2.18435 -0.18499,-3.5953 0.69673,-1.57507 0.70375,-2.5163 0.0286,-3.83961 -0.70965,-1.39103 -0.66661,-3.01009 0.13229,-4.97621 0.85395,-2.10157 0.85215,-3.22324 -0.007,-4.24407 -0.36756,-0.43682 -0.557,-0.86299 -0.42099,-0.94705 0.13601,-0.0841 0.55581,0.21381 0.93287,0.66192 1.01212,1.20284 1.01365,2.39189 0.006,4.78556 -0.79072,1.87868 -0.81313,3.08553 -0.0838,4.51508 0.69499,1.36228 0.69269,2.63093 -0.008,4.17352 -0.68333,1.50532 -0.6872,2.13814 -0.0183,2.98854 0.6183,0.78604 0.2842,1.20877 -0.37748,0.47762 z m -7.82926,-9.55157 c -0.23846,-0.15411 -0.2711,-0.2581 -0.0818,-0.26053 0.17332,-0.002 0.3887,0.11501 0.47864,0.26053 0.20301,0.32848 0.11142,0.32848 -0.39688,0 z m -1.05833,-1.71979 c 0,-0.24254 0.12799,-0.39831 0.28443,-0.34617 0.15643,0.0522 0.28442,0.20792 0.28442,0.34617 0,0.13824 -0.12799,0.29401 -0.28442,0.34616 -0.15644,0.0521 -0.28443,-0.10363 -0.28443,-0.34616 z m -4.87614,-0.31138 c -0.083,-0.21635 -0.15094,-0.91941 -0.15094,-1.56235 0,-1.07798 -0.0528,-1.16898 -0.67767,-1.16898 -0.66085,0 -0.67258,-0.0312 -0.47255,-1.25677 0.11282,-0.69123 0.20941,-1.67349 0.21465,-2.18282 0.008,-0.81634 -0.0767,-0.93596 -0.71808,-1.00976 -0.56121,-0.0646 -0.7276,-0.22446 -0.7276,-0.69914 0,-0.42761 -0.40374,-0.92332 -1.32292,-1.6243 -0.7276,-0.55488 -1.32292,-1.0525 -1.32292,-1.10583 0,-0.0954 2.1103,0.0997 4.01325,0.37109 0.85285,0.12161 1.00193,0.25633 1.22943,1.11098 l 0.25888,0.97259 0.0273,-0.8599 c 0.0258,-0.81295 0.0815,-0.85973 1.01954,-0.85698 1.87143,0.005 2.91865,0.28487 2.82641,0.75404 -0.0469,0.23852 -0.15451,0.86819 -0.23914,1.39926 -0.12739,0.79937 -0.24376,0.94208 -0.67604,0.82904 -0.63425,-0.16586 -0.66383,0.13434 -0.0935,0.94864 0.3455,0.49328 0.39392,0.97962 0.24953,2.50626 -0.37359,3.94971 -0.27006,3.74066 -1.87557,3.7873 -1.03256,0.03 -1.45168,-0.0645 -1.56213,-0.35237 z m 5.06067,-3.35207 c -0.16994,-0.44286 0.0542,-1.49593 0.31845,-1.49593 0.0972,0 0.38767,0.35719 0.64556,0.79375 0.25788,0.43656 0.35282,0.79375 0.21097,0.79375 -0.14184,0 -0.43086,0.0664 -0.64227,0.1475 -0.2114,0.0811 -0.45112,-0.0265 -0.53271,-0.23907 z m 0.54826,-8.05049 c -0.0845,-0.32328 -0.43283,-0.69961 -0.77398,-0.8363 -0.38709,-0.15509 -0.46162,-0.25482 -0.19825,-0.26529 0.53803,-0.0214 1.38759,0.90439 1.239,1.35016 -0.0641,0.1923 -0.17964,0.0846 -0.26677,-0.24857 z m -26.36668,-0.11686 c -0.0341,-0.50449 0.73421,-1.01434 1.47327,-0.97763 0.26423,0.0131 0.10196,0.13338 -0.3606,0.26725 -0.46255,0.13387 -0.89523,0.45055 -0.96149,0.70374 -0.1119,0.42753 -0.12268,0.428 -0.15118,0.007 z m -1.31116,-1.00954 c 0.29057,-0.83354 1.3889,-1.57946 2.32566,-1.57946 0.29827,0 0.54231,0.11907 0.54231,0.26459 0,0.14552 -0.3307,0.26458 -0.73488,0.26458 -0.94306,0 -1.91096,0.67765 -1.91096,1.33792 0,0.28279 -0.11286,0.51416 -0.25082,0.51416 -0.15172,0 -0.14039,-0.31676 0.0287,-0.80179 z m 29.08261,0.48137 c -0.0318,-0.68958 -1.08898,-1.53166 -1.92287,-1.53166 -0.40912,0 -0.74386,-0.11906 -0.74386,-0.26458 0,-0.33357 0.56554,-0.33826 1.42415,-0.0118 0.77165,0.29338 1.59808,1.42789 1.39974,1.92156 -0.0871,0.21682 -0.14381,0.17586 -0.15716,-0.11351 z"
       id="path271"
       inkscape:connector-curvature="0" />
    <path
       style="fill:#000000;stroke-width:0.26458332"
       d="m 198.90111,328.11275 c -0.30891,-0.30891 0.86936,-2.19657 2.11778,-3.39284 1.62627,-1.55834 4.04641,-2.53691 6.7365,-2.72387 2.4963,-0.17349 3.9017,0.15439 6.78816,1.58366 2.01668,0.99859 2.37671,1.09043 4.23334,1.0799 2.06589,-0.0117 2.37193,-0.0999 6.39482,-1.84217 1.51953,-0.6581 2.0433,-0.74556 4.49793,-0.75109 2.75825,-0.006 2.79705,0.003 5.42395,1.22827 1.45521,0.67898 3.13933,1.31241 3.74248,1.40761 2.72426,0.43002 6.70271,-1.11351 8.67172,-3.36438 0.90863,-1.0387 1.22821,-1.26276 1.34967,-0.94623 0.23947,0.62403 -0.89856,2.81721 -2.10897,4.06433 -1.60674,1.6555 -3.59104,2.33247 -6.8924,2.35144 -2.63851,0.0152 -2.65352,0.0116 -5.42395,-1.30317 -2.63031,-1.24823 -2.89075,-1.31764 -4.8948,-1.30458 -1.90295,0.0124 -2.36414,0.12564 -4.56767,1.12141 -4.52298,2.04392 -7.69421,2.09515 -11.60634,0.18752 -2.67006,-1.30198 -4.39758,-1.62399 -6.49681,-1.21099 -1.88045,0.36996 -4.57552,1.6498 -6.38888,3.03397 -1.34721,1.02835 -1.3353,1.02244 -1.57653,0.78121 z m -8.91898,-6.7571 c 0,-0.6465 1.71596,-2.94128 2.84274,-3.80164 2.02629,-1.54719 3.7754,-2.07402 6.94684,-2.0924 l 2.77813,-0.0161 2.76686,1.30551 c 2.56831,1.21183 2.91006,1.30469 4.7625,1.294 2.01679,-0.0116 2.14323,-0.0478 6.33836,-1.81026 3.30595,-1.38895 6.83067,-1.15956 10.2542,0.66734 4.00224,2.13572 8.63779,1.35752 11.85425,-1.99003 0.82084,-0.8543 1.48938,-1.3567 1.58959,-1.19456 0.28968,0.4687 -1.06677,3.06443 -2.18651,4.18417 -1.89362,1.89363 -5.92093,2.86978 -9.0642,2.19702 -0.79432,-0.17001 -2.45181,-0.81028 -3.68332,-1.42282 -2.09157,-1.04032 -2.37922,-1.11241 -4.36563,-1.09407 -2.17176,0.02 -2.31352,0.0608 -6.49214,1.86768 -1.49902,0.64818 -2.05945,0.7446 -4.36563,0.75108 -2.60464,0.007 -2.68702,-0.0118 -5.29166,-1.23155 -3.0797,-1.44215 -4.50018,-1.71312 -6.64918,-1.26836 -1.82902,0.37853 -5.24676,2.03371 -6.5351,3.16489 -0.94844,0.83273 -1.5001,1.01296 -1.5001,0.49009 z m 18.52083,-10.50555 v -5.59105 h -2.83692 c -2.80793,0 -2.83159,-0.005 -2.3151,-0.51158 1.34777,-1.32132 19.61296,-15.36342 19.98389,-15.36342 0.23193,0 1.66284,0.9663 3.1798,2.14732 l 2.75813,2.14733 0.0821,-0.9567 0.0821,-0.9567 h 2.23298 2.23299 v 2.7607 2.7607 l 4.75308,3.73163 c 2.6142,2.05239 4.82389,3.84617 4.91041,3.98617 0.097,0.15687 -0.91471,0.25455 -2.63642,0.25455 h -2.79374 v 3.91505 3.91506 l -0.99219,0.96668 c -2.10476,2.05065 -5.96322,2.88374 -8.6651,1.87089 l -1.32292,-0.49592 -0.13229,-2.63848 -0.13229,-2.63849 -3.63802,-0.0736 -3.63803,-0.0736 v 1.80493 1.80493 l -1.45876,0.30598 c -0.80233,0.16829 -2.43861,0.74839 -3.63618,1.28911 -1.66901,0.75357 -2.62573,1.0119 -4.09748,1.10635 l -1.92008,0.12322 z"
       id="path284"
       inkscape:connector-curvature="0" />
    <path
       style="fill:#000000;stroke-width:0.29441583"
       d="m -57.786611,197.85419 c -0.386615,-0.38662 -0.1806,-1.50107 0.835021,-4.51686 l 1.031288,-3.06233 -1.031288,-1.05615 c -0.567215,-0.58088 -1.031288,-1.29022 -1.031288,-1.57633 0,-0.48622 3.27275,-5.08357 3.95776,-5.55959 0.171197,-0.11898 1.726036,-0.21834 3.455209,-0.22082 2.469943,-0.003 3.243117,0.0947 3.606587,0.45814 0.254464,0.25447 0.46266,0.56849 0.46266,0.69784 0,0.12935 -0.662444,1.14383 -1.472083,2.25439 -0.80965,1.11056 -1.472082,2.14822 -1.472082,2.30591 0,0.15769 0.419518,0.71954 0.932264,1.24855 0.733137,0.75641 0.874634,1.08232 0.662433,1.52583 -0.424282,0.88683 -8.540332,7.6977 -9.17281,7.6977 -0.312071,0 -0.655712,-0.0883 -0.763671,-0.19628 z m 13.915651,-0.26948 c -0.325325,-0.39199 -0.20971,-1.0031 0.729899,-3.85797 l 1.116446,-3.3922 -1.060364,-1.08591 c -0.583193,-0.59726 -1.060364,-1.29678 -1.060364,-1.5545 0,-0.25773 0.896756,-1.64325 1.992795,-3.07896 l 1.992796,-2.61036 3.160206,-0.0836 c 3.249527,-0.0859 4.336419,0.16713 4.336419,1.00965 0,0.25506 -0.669465,1.38417 -1.487694,2.50913 l -1.487684,2.0454 0.898848,1.02374 c 0.98719,1.12434 1.083365,1.53285 0.53085,2.25489 -0.776868,1.01525 -8.341272,7.27695 -8.796421,7.28157 -0.263555,0.002 -0.65313,-0.20475 -0.865732,-0.46091 z m 13.863907,0.0317 c -0.290072,-0.34952 -0.150856,-1.09862 0.715211,-3.84848 l 1.075386,-3.41449 -1.045676,-1.15743 c -0.575115,-0.6366 -1.045676,-1.31102 -1.045676,-1.49873 0,-0.18771 0.929905,-1.57844 2.06646,-3.09052 l 2.066437,-2.74922 h 3.321366 c 4.664626,0 4.966805,0.43849 2.525014,3.66403 l -1.50295,1.98535 0.914115,0.94312 c 0.502764,0.51872 0.914115,1.22527 0.914115,1.57008 0,0.73062 -8.309503,8.03028 -9.141185,8.03028 -0.276341,0 -0.664514,-0.19529 -0.862617,-0.43399 z m -93.515997,-1.90993 c -1.29475,-0.53446 -0.98143,-1.93833 0.47427,-2.12509 l 0.73603,-0.0945 0.0811,-4.63705 0.0811,-4.63706 h -1.90015 c -1.93184,0 -3.02634,-0.5239 -2.72655,-1.30514 0.073,-0.1903 1.17366,-4.02838 2.44586,-8.52907 1.652,-5.84426 2.46035,-8.26191 2.82833,-8.45889 1.18599,-0.63486 1.49156,0.0315 3.8882,8.47953 1.27857,4.50686 2.3752,8.34282 2.43694,8.52435 0.26334,0.77419 -0.83409,1.28922 -2.74705,1.28922 h -1.90016 l 0.0811,4.63446 0.0811,4.63446 0.85177,0.1498 c 1.11459,0.19602 1.65855,1.01196 1.05695,1.58542 -0.52281,0.49833 -4.8565,0.86605 -5.76877,0.48949 z m 17.99201,2.9e-4 -2.35533,-0.15894 v -0.88324 c 0,-0.78512 0.1145,-0.89961 1.03046,-1.03046 l 1.03045,-0.1472 v -4.56345 -4.56345 l -2.03067,-0.14721 c -2.86096,-0.20739 -2.88488,-0.28563 -1.54658,-5.05542 3.15071,-11.22934 3.79039,-13.1796 4.38474,-13.36823 1.17318,-0.37235 1.25044,-0.16941 5.094019,13.38052 0.82195,2.89767 1.03728,4.06312 0.81591,4.41623 -0.21319,0.34005 -0.89191,0.52255 -2.331409,0.6269 l -2.03068,0.14721 v 4.56345 4.56345 l 1.03046,0.1472 c 0.8065,0.11522 1.05187,0.29857 1.12898,0.8436 0.17573,1.24197 -0.6152,1.47231 -4.22035,1.22904 z m 15.339689,0.0201 c -1.98709,-0.30999 -2.15953,-1.92579 -0.22934,-2.14886 l 0.78811,-0.091 0.0811,-4.63705 0.0811,-4.63706 h -2.05804 c -3.25795,0 -3.29799,0.7509 0.69725,-13.07612 1.58878,-5.49854 1.86741,-5.97215 3.06647,-5.21222 0.21768,0.13796 1.49874,4.07743 2.84681,8.75437 2.8508,9.89045 2.86394,9.53397 -0.35153,9.53397 h -1.87554 l 0.0811,4.63446 0.0811,4.63446 0.88324,0.15269 c 0.74688,0.12912 0.88325,0.28656 0.88325,1.01978 0,0.67401 -0.1639,0.91266 -0.73604,1.07182 -0.88315,0.24565 -2.66744,0.24601 -4.23896,8.8e-4 z m -93.007849,-0.45786 c -0.95634,-0.95635 -0.51578,-1.46702 1.91266,-2.2171 3.39542,-1.04873 6.00217,-3.94564 6.71295,-7.46015 0.71311,-3.52603 -0.3885,-6.80851 -3.12399,-9.3086 -3.80545,-3.47795 -9.38996,-3.4633 -13.21731,0.0347 -1.60599,1.46779 -2.33016,1.6728 -2.87156,0.81294 -0.47932,-0.76127 1.11126,-3.6603 3.13466,-5.71336 1.21221,-1.22995 2.4749,-2.15077 3.86198,-2.81633 1.13351,-0.54388 2.09691,-1.01041 2.14091,-1.03672 0.0439,-0.0264 -0.0823,-0.99445 -0.28075,-2.15144 -0.28581,-1.66672 -0.28477,-2.54656 0.006,-4.2366 0.58723,-3.42448 2.64221,-7.2883 3.87626,-7.2883 0.9351,0 1.14094,0.80959 0.66555,2.61751 -1.50278,5.71512 2.57139,11.59902 8.50335,12.28053 5.76883,0.66276 10.98007,-3.9675 10.96861,-9.74576 -0.002,-1.1335 -0.17408,-2.56287 -0.38184,-3.17636 -0.29658,-0.87576 -0.30103,-1.20791 -0.0207,-1.54568 0.68595,-0.82652 1.43984,-0.47728 2.48006,1.14885 1.96315,3.06889 2.68921,6.63966 2.13472,10.49858 l -0.23364,1.62591 2.06041,0.98401 c 3.4692,1.65682 7.28076,6.09915 7.03789,8.20257 -0.14335,1.24159 -0.97754,1.167 -2.48462,-0.22218 -2.10825,-1.94333 -4.21243,-2.7767 -7.03585,-2.78662 -2.08476,-0.008 -2.59225,0.10527 -4.33028,0.96092 -2.14117,1.0541 -3.63657,2.56035 -4.71541,4.74965 -0.96446,1.95715 -0.93796,6.32078 0.0506,8.35178 1.29096,2.65202 4.04817,4.89717 6.68753,5.44555 1.29627,0.26932 1.87549,0.99897 1.39349,1.75535 -0.27544,0.43225 -0.77309,0.51336 -3.08986,0.5036 -3.26329,-0.0137 -4.99016,-0.52021 -7.66229,-2.2473 -1.16205,-0.75107 -1.97115,-1.09928 -2.18267,-0.93936 -3.04381,2.30145 -5.1346,3.08953 -8.68381,3.27315 -2.38023,0.12314 -2.88974,0.0688 -3.31217,-0.35372 z m 0.63465,-7.48571 c -2.45568,-2.29583 -4.11187,-4.86518 -4.99369,-7.74701 -0.78515,-2.56591 -0.67997,-3.1842 0.62123,-3.6519 3.52609,-1.26739 7.67353,0.41263 9.51389,3.85385 0.84033,1.57132 0.88806,5.10694 0.0895,6.62435 -0.65368,1.24201 -2.22189,2.94417 -2.71248,2.94417 -0.19472,0 -1.32799,-0.91056 -2.51838,-2.02346 z m 19.60138,0.9495 c -1.79001,-1.95423 -2.36708,-5.08361 -1.43947,-7.80601 0.53107,-1.5586 2.25312,-3.46024 3.79677,-4.19275 1.43573,-0.6813 3.85211,-0.90979 5.31856,-0.50291 2.09963,0.58257 2.12553,0.62972 1.55062,2.82171 -0.65852,2.51077 -1.74244,4.6933 -3.34469,6.73473 -1.27749,1.62765 -4.01237,4.01919 -4.5962,4.01919 -0.16604,0 -0.74455,-0.48328 -1.28559,-1.07396 z m 48.7953,-12.32723 c -0.59512,-0.75657 -1.15399,-2.43062 -2.55374,-7.64952 -0.93851,-3.49916 -1.42366,-4.40483 -2.67853,-5.00031 -1.19699,-0.568 -1.98781,-0.56358 -3.21337,0.018 -1.1554,0.54826 -1.52563,1.28981 -2.67133,5.35033 -0.46832,1.65977 -0.94866,3.01777 -1.06742,3.01777 -0.54004,0 -1.1932,-1.63507 -1.32312,-3.31226 -0.18059,-2.33117 0.43191,-4.03277 2.95414,-8.20685 1.84839,-3.05895 2.35535,-4.12183 2.68347,-5.62613 0.21604,-0.99044 1.12132,-1.27056 2.71728,-0.84082 2.17406,0.58542 3.00774,2.01294 3.62633,6.20943 0.36539,2.47882 1.0221,4.02436 1.96899,4.63395 0.60133,0.38711 0.68468,0.33192 1.43689,-0.95163 0.43919,-0.74943 1.18798,-2.36557 1.66399,-3.59142 1.70163,-4.38227 3.12974,-5.76869 6.52094,-6.33063 2.48565,-0.41188 2.73655,-0.21696 2.89351,2.24804 0.11901,1.86895 0.13247,1.89408 2.168299,4.04745 2.02597,2.14294 2.46782,2.78675 3.09364,4.50768 0.4431,1.21848 0.71251,0.64816 1.30386,-2.76015 0.87942,-5.06861 2.20938,-7.35042 4.67049,-8.01313 1.7629,-0.4747 2.48669,-0.17308 2.72008,1.13354 0.26454,1.48101 1.76692,4.68355 3.61209,7.69978 1.64585,2.69039 2.10455,3.9519 2.09712,5.76736 -0.006,1.3644 -1.05606,3.91846 -1.44364,3.51 -0.14166,-0.14928 -0.66158,-1.69258 -1.15538,-3.42954 -0.99505,-3.50013 -1.19836,-3.97195 -2.03974,-4.73338 -1.38684,-1.25507 -4.32575,-0.74893 -5.17382,0.89104 -0.24116,0.46637 -1.06094,3.05827 -1.82171,5.75979 -1.42689,5.06693 -2.12118,6.39294 -3.34728,6.39294 -1.32582,0 -2.14744,-1.82802 -4.168309,-9.27409 -0.35158,-1.29543 -0.89481,-2.71634 -1.20717,-3.15758 -1.12546,-1.58981 -4.04309,-1.7234 -5.37981,-0.24633 -0.27303,0.30168 -0.95565,2.1184 -1.51695,4.03713 -0.56129,1.91873 -1.27573,4.3519 -1.58765,5.40703 -0.91366,3.09067 -2.49295,4.13145 -3.78215,2.49251 z m 57.722215,0.24911 c -1.848304,-0.654 -3.983443,-2.86492 -4.621306,-4.7853 -0.649569,-1.9557 -0.490947,-4.68542 0.370402,-6.3738 1.378823,-2.70272 4.826709,-4.73437 7.625404,-4.49325 1.065016,0.0918 1.086158,0.0717 2.172794,-2.06969 1.425247,-2.80861 3.136049,-4.52441 5.854504,-5.87159 2.12854,-1.05483 2.288275,-1.0867 5.44669,-1.0867 3.046761,0 3.379808,0.0596 5.233298,0.9377 2.338361,1.10774 4.585932,3.1119 5.562962,4.96052 l 0.701223,1.32675 1.324877,-0.2267 c 6.009131,-1.02825 11.01101,2.55883 11.414995,8.18622 0.223897,3.11882 -0.473209,4.98998 -2.678897,7.19068 -2.928787,2.92216 -2.016474,2.80126 -20.933202,2.77414 -13.685567,-0.0196 -16.410464,-0.0928 -17.473744,-0.46898 z m -117.401065,-10.7844 c -1.84574,-0.88284 -3.76981,-3.02601 -4.24711,-4.73075 -0.56483,-2.01738 -0.40186,-2.28258 1.90478,-3.09965 2.96955,-1.0519 7.61527,-1.0645 10.70671,-0.029 1.19373,0.39983 2.24018,0.90875 2.32544,1.13092 0.269,0.701 -0.8153,3.55792 -1.75774,4.63129 -2.29029,2.60849 -6.02826,3.48615 -8.93208,2.09724 z m 134.559232,-30.92454 c -1.706473,-0.80731 -3.517333,-2.57553 -4.479096,-4.37366 -1.0843,-2.02723 -1.008443,-2.11847 1.579363,-1.89972 1.238894,0.10471 3.060593,0.19094 4.048216,0.1916 l 1.795683,0.001 v 3.31099 3.31098 l -0.736042,0.0776 c -0.404819,0.0426 -1.398474,-0.23587 -2.208124,-0.61889 z m -154.057402,-1.6775 -0.66676,-0.26788 0.0779,-8.91396 0.0779,-8.91397 5.49842,-0.08 c 6.52864,-0.095 6.47241,-0.12965 4.97637,3.06732 -0.49846,1.06517 -0.90628,2.08429 -0.90628,2.26472 0,0.18042 0.95667,1.29113 2.12593,2.46825 2.09959,2.11371 2.12153,2.15183 1.77161,3.07887 -0.19488,0.51628 -0.30599,0.98699 -0.24693,1.04606 0.20429,0.20428 4.00421,-1.81541 4.00421,-2.12828 0,-0.17272 -0.79493,-1.10066 -1.7665,-2.0621 -0.97158,-0.96143 -1.76649,-1.90436 -1.76649,-2.09537 0,-0.19102 0.60425,-1.55438 1.3428,-3.02969 l 1.3428,-2.68238 14.77646,0.0763 14.77646,0.0763 0.0887,1.88069 0.0887,1.8807 -2.60915,2.60914 c -2.3957,2.39569 -2.70363,2.60915 -3.764,2.60915 h -1.15485 l 1.04908,1.04908 1.04908,1.04908 2.12703,-1.11106 c 3.05318,-1.59484 3.10474,-1.53558 3.20711,3.68576 l 0.0817,4.16801 -0.76331,0.29022 c -1.03583,0.39381 -13.84542,0.37958 -14.58495,-0.0161 -0.31491,-0.16853 -1.16885,-1.49371 -1.89766,-2.94484 l -1.32509,-2.63843 0.57036,-1.68944 c 0.31369,-0.92921 0.51957,-1.74023 0.45752,-1.80228 -0.15868,-0.15867 -5.13925,3.58982 -5.14137,3.8695 -8.9e-4,0.12607 0.39573,1.01658 0.88152,1.97892 1.0941,2.16741 1.12174,2.86806 0.12804,3.24586 -0.9614,0.36551 -22.99309,0.34887 -23.90646,-0.018 z m 65.78173,-0.18551 c -0.20941,-0.20941 -0.28139,-23.94581 -0.0727,-23.94581 0.068,0 1.09479,0.6585 2.28172,1.46335 1.93588,1.3127 2.29448,1.71434 3.48294,3.90101 1.20331,2.21397 1.40555,2.43765 2.20408,2.43765 1.31458,0 1.27968,-0.77737 -0.16744,-3.72973 l -1.26711,-2.58508 -3.33424,-2.22063 -3.33424,-2.22064 0.0789,-6.955544 c 0.0707,-6.22727 0.13236,-6.98923 0.58934,-7.2773 0.41342,-0.26061 1.46451,0.15263 5.53015,2.1742 l 5.01973,2.49599 0.38933,1.32689 c 0.21412,0.7298 0.76559,2.878124 1.22548,4.774064 l 0.83616,3.44716 3.40171,4.49824 3.40171,4.49824 4.65415,2.35915 4.654149,2.35915 1.50349,2.50254 c 5.13301,8.54385 5.79982,9.79717 5.50523,10.34762 -0.27951,0.52229 -1.06819,0.54576 -18.339219,0.54576 -9.92593,0 -18.13548,-0.0883 -18.24343,-0.19628 z m 11.72757,-7.75295 1.14995,-1.17766 h 2.43242 c 2.10356,0 2.47364,-0.077 2.73721,-0.56948 0.39416,-0.7365 0.38946,-0.77585 -0.15788,-1.3232 -0.35415,-0.35414 -1.10368,-0.46265 -3.19587,-0.46265 h -2.73321 l -1.51479,1.60166 c -1.65473,1.74964 -1.7384,1.96007 -1.05213,2.64634 0.6933,0.6933 1.07256,0.57713 2.3343,-0.71501 z m 72.720723,0.90287 -2.355308,-0.16683 -0.332902,-1.03045 c -0.183104,-0.56676 -0.422168,-1.56725 -0.531262,-2.22331 l -0.198348,-1.19286 7.08158,0.0151 c 3.894868,0.008 7.081769,0.048 7.081992,0.088 5.89e-4,0.1242 -2.593771,3.72556 -3.07606,4.26985 -0.486607,0.54917 -2.444173,0.61054 -7.669692,0.24042 z m -47.106554,-3.48974 -2.64974,-1.38775 -0.0734,-2.94415 -0.0734,-2.94416 1.25109,-2.32377 c 0.6881,-1.27806 1.47831,-2.46685 1.75602,-2.64174 0.39985,-0.25179 1.06541,-0.0438 3.19754,0.9989 l 2.69259,1.31687 1.31458,2.61459 c 0.84546,1.68154 1.25764,2.84144 1.15502,3.25026 -0.1932,0.76981 -4.94715,5.47455 -5.51651,5.45942 -0.2222,-0.006 -1.59638,-0.63521 -3.05374,-1.39847 z m 45.143691,-3.49806 c -0.917642,-0.0691 -1.793256,-0.28505 -1.945814,-0.47979 -0.40591,-0.51809 -1.503874,-4.31665 -1.283839,-4.4416 0.103041,-0.0585 1.181087,0.0206 2.395545,0.17589 3.116486,0.39846 16.089558,0.0703 18.842608,-0.47656 3.622488,-0.71964 3.621264,-0.72194 1.023554,1.90708 -1.291639,1.30721 -2.741711,2.5842 -3.222398,2.83778 -0.70504,0.37193 -2.15617,0.47476 -7.507597,0.53199 -3.648505,0.0391 -7.384427,0.0144 -8.302059,-0.0548 z m -127.81488,-6.76063 c -0.11376,-0.11378 -0.20686,-2.42925 -0.20686,-5.1455 0,-2.71624 -0.11691,-5.01088 -0.25981,-5.09919 -0.14289,-0.0883 -0.59438,0.1026 -1.00329,0.42425 -0.85119,0.66954 -1.41095,0.73716 -1.91659,0.23152 -0.97154,-0.97155 -0.68844,-1.22586 9.58196,-8.607134 2.42716,-1.7444 3.78698,-2.54362 4.16122,-2.44577 0.77526,0.20275 13.31877,9.387244 13.51352,9.894764 0.40297,1.05011 -1.07555,1.90097 -1.94412,1.1188 -1.2945,-1.16571 -1.36769,-0.94887 -1.52378,4.51446 l -0.14721,5.15227 h -2.64974 -2.64975 l -0.1472,-4.35414 c -0.11612,-3.43436 -0.2405,-4.41294 -0.58884,-4.63253 -0.24289,-0.15313 -2.09771,-0.27841 -4.12182,-0.27841 -2.02411,0 -3.87892,0.12528 -4.12182,0.27841 -0.34833,0.21959 -0.47271,1.19817 -0.58883,4.63253 l -0.14721,4.35414 -2.51648,0.0842 c -1.38406,0.0463 -2.60956,-0.009 -2.72335,-0.12267 z m 7.86945,-0.20224 c -0.0819,-0.21336 -0.11083,-1.77008 -0.0643,-3.45938 l 0.0845,-3.07147 2.28172,-0.086 2.28172,-0.086 v 3.36667 c 0,3.85205 0.0922,3.72408 -2.68306,3.72408 -1.17767,0 -1.80043,-0.12712 -1.90051,-0.38793 z m 61.18501,0.0843 c -0.58949,-0.23693 -0.66243,-0.47217 -0.66243,-2.13617 v -1.86991 l 2.61183,-2.55582 c 1.43651,-1.40569 2.764329,-2.55581 2.950729,-2.55581 0.42413,0 2.90928,2.27031 3.31501,3.02844 0.23872,0.44604 0.028,1.12771 -1.01531,3.28591 l -1.31651,2.7231 -1.40026,0.19193 c -1.878529,0.25748 -3.676069,0.2127 -4.483059,-0.11167 z m 58.073518,-0.19812 c -3.770718,-0.34681 -4.031558,-0.47178 -6.927998,-3.31899 -1.496363,-1.47093 -2.663329,-2.73177 -2.593247,-2.80185 0.0701,-0.0701 0.723445,0.052 1.451908,0.2712 3.149246,0.94779 8.844347,1.48415 15.576935,1.46706 7.310896,-0.0186 11.875106,-0.51032 16.24828,-1.75062 1.406864,-0.39902 2.696678,-0.72549 2.86625,-0.72549 0.329041,0 -0.560315,2.49194 -1.391575,3.89914 -1.133149,1.91828 -8.565179,3.19702 -18.117983,3.11736 -3.264193,-0.0273 -6.464848,-0.0983 -7.11257,-0.15781 z m 0.521625,-6.85757 c -3.780276,-0.31829 -8.850745,-1.3157 -10.958454,-2.15563 -1.571474,-0.62623 -1.625832,-0.68698 -2.155547,-2.40893 -0.748871,-2.434304 -0.983506,-5.479084 -0.510264,-6.621594 0.704473,-1.70076 4.167337,-3.17645 9.422445,-4.01536 1.538324,-0.24557 5.645428,-0.51857 9.126886,-0.60666 9.368186,-0.23705 16.347282,0.69512 20.335487,2.7161 2.239504,1.13484 2.441791,1.62827 2.269359,5.53562 -0.08056,1.82459 -0.306841,3.617224 -0.502942,3.983644 -0.630519,1.17814 -4.039704,2.28832 -9.597836,3.12549 -3.594592,0.54141 -13.340736,0.79155 -17.429134,0.44732 z m 14.051952,-7.086384 c 6.273087,-0.57748 11.040598,-1.90375 11.040598,-3.07137 0,-1.15759 -4.097077,-2.3717 -10.468955,-3.10235 -4.741394,-0.54367 -15.419213,-0.23009 -19.708663,0.5788 -3.731004,0.70358 -6.477144,1.77332 -6.477144,2.52311 0,0.592 1.889298,1.44927 4.591718,2.08351 5.023444,1.17895 14.24319,1.61239 21.022446,0.9883 z m -78.957555,1.19793 c -0.77988,-0.80911 -1.41795,-1.67595 -1.41795,-1.92631 0,-0.71727 2.64562,-3.37502 3.35246,-3.36782 0.34218,0.003 1.74829,0.58451 3.12468,1.29116 2.05546,1.0553 2.51897,1.42019 2.59452,2.0424 0.0832,0.68592 -0.15977,0.884 -2.57026,2.09462 -1.46423,0.735374 -2.88797,1.337054 -3.16387,1.337054 -0.27589,0 -1.13971,-0.66199 -1.91958,-1.471104 z m -17.14817,-26.37222 c -0.25446,-0.25445 -0.46266,-0.6198 -0.46266,-0.81187 0,-0.19207 1.07671,-1.5406 2.39268,-2.99674 4.57795,-5.06555 7.26228,-9.027811 10.16067,-14.997881 l 1.93695,-3.989709 h 2.29929 c 1.2646,0 2.51376,0.0823 2.77588,0.18288 0.8741,0.33543 1.33806,1.752269 1.33806,4.086149 0,1.37786 0.16387,2.55426 0.42657,3.06227 1.01475,1.9623 3.57483,2.42101 5.23469,0.93792 0.93371,-0.83427 0.9647,-0.9388 1.13623,-3.83298 0.152469,-2.57247 0.269269,-3.074249 0.862569,-3.705789 0.53739,-0.57201 0.9784,-0.73005 2.03337,-0.72863 l 1.34717,0.002 1.61927,3.455269 c 2.8064,5.98831 6.2625,11.136671 10.55324,15.720601 2.17541,2.32403 2.54621,3.23456 1.53717,3.77458 -0.37803,0.20236 -7.99205,0.30483 -22.648979,0.30483 -19.67973,0 -22.1298,-0.0503 -22.54217,-0.46267 z m -66.19099,-1.04196 c -0.59887,-0.33841 -0.67962,-1.24227 -0.1472,-1.64769 0.20241,-0.15414 1.2203,-0.4318 2.26198,-0.61703 1.04167,-0.18523 2.62104,-0.70466 3.50971,-1.15428 2.25937,-1.14314 3.9609,-1.09339 6.81459,0.19924 1.21445,0.55011 2.60557,1.00056 3.09136,1.001 0.48579,3e-4 1.81066,-0.45337 2.94416,-1.00847 1.75443,-0.85918 2.36968,-1.00926 4.13719,-1.00926 1.78419,0 2.35782,0.14288 4.07745,1.01573 1.10064,0.55865 2.41859,1.01246 2.92878,1.00846 0.5102,-0.004 1.92128,-0.45735 3.13575,-1.00746 2.8297,-1.28177 4.48394,-1.32626 6.83292,-0.18373 0.92436,0.44961 2.51421,0.96554 3.53299,1.14652 1.01879,0.18096 2.01794,0.45514 2.22036,0.60928 0.54227,0.41293 0.44745,1.32258 -0.17245,1.65434 -0.85089,0.45538 -3.97285,-0.12069 -6.13344,-1.13175 -1.06164,-0.4968 -2.25529,-0.90328 -2.65254,-0.90328 -0.39726,0 -1.74037,0.4771 -2.98471,1.06022 -3.08965,1.44788 -4.53906,1.45034 -7.24889,0.0123 -2.76813,-1.46897 -4.33201,-1.47058 -7.08942,-0.008 -2.70376,1.43482 -3.96158,1.438 -7.0982,0.0179 -2.80704,-1.27087 -3.48453,-1.31995 -5.34582,-0.38729 -2.49612,1.25077 -5.63886,1.88389 -6.61457,1.33254 z m 137.197778,0.009 c -0.477393,-0.27801 -0.515227,-1.18369 -0.515227,-12.334161 v -12.03412 l 5.225876,-2.7807 c 2.87424,-1.52938 7.016239,-3.71961 9.204456,-4.867159 l 3.978569,-2.08647 9.122936,4.788979 9.122925,4.78899 0.07745,12.05332 c 0.07122,11.070021 0.03661,12.083351 -0.424292,12.421351 -0.701168,0.51425 -14.538091,0.52778 -15.051148,0.0147 -0.537537,-0.53754 -0.434341,-1.35742 0.529949,-4.21015 0.485783,-1.43714 0.883247,-2.82354 0.883247,-3.08089 0,-0.25733 -0.927413,-1.38819 -2.060907,-2.513 -2.27825,-2.260811 -2.327255,-2.420141 -1.603465,-5.213341 0.251593,-0.97093 0.417204,-1.95476 0.36802,-2.18629 -0.05464,-0.2572 -1.116747,0.61235 -2.730172,2.23518 l -2.64074,2.65617 0.947843,1.922141 c 0.521325,1.05719 0.947854,2.18852 0.947854,2.51409 0,0.57346 -4.479386,7.5678 -5.126062,8.00406 -0.493205,0.33274 -9.669108,0.24984 -10.257153,-0.0927 z m -137.344978,-5.89896 c -1.02346,-1.05111 -0.18205,-1.84292 2.30181,-2.16613 0.73972,-0.0962 2.19707,-0.5881 3.23856,-1.09299 2.62271,-1.27143 4.14217,-1.23739 7.13582,0.15985 1.26392,0.58991 2.62521,1.07258 3.02512,1.07258 0.39989,0 1.68429,-0.49232 2.85424,-1.09404 1.85811,-0.95566 2.38783,-1.09404 4.18807,-1.09404 1.80024,0 2.32997,0.13838 4.18807,1.09404 1.16994,0.60172 2.45436,1.09404 2.85425,1.09404 0.39989,0 1.7612,-0.48267 3.02511,-1.07258 2.99364,-1.39724 4.5131,-1.43128 7.13581,-0.15985 1.04149,0.50489 2.49885,0.99674 3.23858,1.09299 1.87719,0.24426 2.66983,0.62272 2.66983,1.27474 0,1.58413 -2.81655,1.52836 -6.51421,-0.12898 -1.23485,-0.55347 -2.4768,-1.00632 -2.7599,-1.00632 -0.28309,0 -1.59129,0.49075 -2.9071,1.09054 -3.25546,1.48398 -4.93822,1.50315 -7.39745,0.0843 -1.47864,-0.85308 -2.05435,-1.01916 -3.53299,-1.01916 -1.47864,0 -2.05435,0.16608 -3.53299,1.01916 -2.45924,1.41884 -4.142,1.39966 -7.39745,-0.0843 -1.31581,-0.59979 -2.624,-1.09054 -2.9071,-1.09054 -0.28311,0 -1.52505,0.45466 -2.7599,1.01035 -2.5311,1.13902 -5.54196,1.6369 -6.14618,1.01634 z m 12.89502,-6.815001 c -1.63852,-0.7875 -2.21469,-0.91084 -4.19542,-0.89809 l -2.29606,0.0148 v -8.7772 c 0,-8.68968 0.007,-8.78449 0.66244,-9.507309 0.99622,-1.09798 15.2272,-11.96261 15.66918,-11.96261 0.45258,0 14.71972,10.87048 15.68611,11.95162 0.65557,0.733429 0.66243,0.831879 0.66243,9.518299 v 8.7772 l -2.28172,-0.007 c -1.94413,-0.006 -2.5818,0.13058 -4.30976,0.92211 -1.11541,0.51095 -2.20844,0.92899 -2.42893,0.92899 -0.32789,0 -0.4009,-1.3832 -0.4009,-7.59593 0,-5.51539 -0.0968,-7.6927 -0.3533,-7.94922 -0.50014,-0.50015 -12.6308,-0.50015 -13.13095,0 -0.25652,0.25652 -0.3533,2.43383 -0.3533,7.94922 0,8.723591 0.24787,8.162291 -2.92982,6.63502 z m 5.28515,-6.36516 v -6.21707 h 4.56345 4.56344 v 6.21707 6.21708 l -0.66243,-0.19155 c -2.86152,-0.82743 -4.90339,-0.82688 -7.80202,0.002 l -0.66244,0.18945 v -6.21707 z m 71.13293,3.62178 c -0.0983,-0.25613 -0.17871,-1.42044 -0.17871,-2.58736 0,-1.61983 -0.15669,-2.428279 -0.66245,-3.418059 -1.03244,-2.020561 -1.89726,-2.490681 -4.80562,-2.612371 -1.36463,-0.0571 -2.48015,-0.18959 -2.47891,-0.29441 0.008,-0.68053 1.21981,-4.01183 1.53117,-4.20937 0.20915,-0.13268 3.11317,-0.24328 6.45336,-0.24576 6.861529,-0.006 6.521859,-0.11877 7.194409,2.40782 0.57749,2.16953 0.55104,2.29832 -0.47213,2.29832 -1.30454,0 -3.075439,1.0104 -3.786009,2.160121 -0.4967,0.80369 -0.6185,1.47602 -0.6185,3.414299 0,1.32743 -0.13715,2.66979 -0.30477,2.983 -0.36745,0.68656 -1.62153,0.75609 -1.87184,0.10382 z m 43.12544,-10.25032 c -0.221671,-0.26708 -0.311793,-1.41924 -0.256868,-3.28354 l 0.08468,-2.872069 11.33501,-5.98789 c 6.234252,-3.29334 11.467494,-5.98628 11.629422,-5.98432 0.161928,0.002 5.39517,2.68363 11.629434,5.95926 l 11.334999,5.95568 0.08468,2.900709 c 0.08312,2.84924 -0.135689,3.72486 -0.930328,3.72278 -0.18258,-4.8e-4 -2.98171,-1.40326 -6.220287,-3.11728 -3.238566,-1.71403 -8.144904,-4.290519 -10.902962,-5.725549 l -5.014653,-2.60912 -2.051326,1.10451 c -5.894106,3.17362 -19.813773,10.348299 -20.076817,10.348299 -0.166868,0 -0.457074,-0.18516 -0.644896,-0.41147 z m -49.99882,-8.200189 c -0.15929,-0.20241 -0.36678,-0.87028 -0.46112,-1.48415 -0.0944,-0.61387 -0.45807,-1.5798 -0.80832,-2.1465 -0.71701,-1.16016 -3.27691,-2.76594 -4.41608,-2.77013 -0.92619,-0.003 -1.45736,-0.50152 -1.45736,-1.36667 0,-2.20656 5.65339,-0.24054 7.61721,2.64894 1.86431,2.7431 2.01893,5.48653 0.30918,5.48653 -0.27164,0 -0.62422,-0.16561 -0.78351,-0.36802 z m 5.8862,0 c -0.16045,-0.20241 -0.36127,-1.69644 -0.44626,-3.32006 -0.19218,-3.67112 -0.7162,-5.08223 -1.98127,-5.33525 -1.11024,-0.22204 -1.62538,-1.0383 -1.18024,-1.87006 0.72104,-1.34728 3.42397,-0.23171 4.50255,1.85834 0.67926,1.31626 1.24564,7.60779 0.76561,8.50474 -0.32733,0.61162 -1.23395,0.70023 -1.66039,0.16229 z m 5.728919,0.18527 c -0.41316,-0.41316 -0.18599,-2.63826 0.40216,-3.93907 0.32946,-0.72867 1.0221,-1.76728 1.53921,-2.308 1.778,-1.85923 5.52666,-3.23874 6.53249,-2.40397 0.98382,0.81649 0.22264,1.881 -1.5474,2.16404 -1.28908,0.20614 -3.32772,1.55927 -4.08079,2.70859 -0.2743,0.41865 -0.65267,1.44806 -0.84079,2.28757 -0.28923,1.29056 -0.45432,1.53984 -1.06858,1.61351 -0.39958,0.048 -0.82092,-0.008 -0.9363,-0.12267 z"
       id="path297"
       inkscape:connector-curvature="0" />
    <path
       style="fill:#000000;stroke-width:0.902659"
       d="m 61.564367,207.45905 v -4.5133 h 16.65477 c 9.37988,0 18.74415,0.46097 21.43814,1.05531 l 4.783403,1.05532 -3.80435,0.97567 c -2.092383,0.5366 -4.326483,1.64478 -4.964623,2.46259 -1.62717,2.08526 -11.0664,3.4777 -23.57504,3.4777 h -10.5323 z m 44.681633,3.61063 c -0.30684,-0.49645 0.0465,-0.90264 0.7849,-0.90264 0.73853,0 1.90323,-0.56046 2.58821,-1.24541 0.68497,-0.68498 2.95336,-1.53398 5.04085,-1.88666 2.37566,-0.40136 4.14751,-1.29902 4.73653,-2.39964 0.83909,-1.56786 1.78358,-1.73021 8.71607,-1.49833 l 7.77501,0.26008 -0.002,3.22775 c -0.002,1.77527 -0.29689,3.70469 -0.65719,4.28763 -0.83593,1.35264 -28.15183,1.50082 -28.98221,0.15716 z m 38.363,-7.49206 c 0,-6.61998 -0.87882,-7.85314 -5.5965,-7.85314 -1.88654,0 -3.43009,-0.42289 -3.43009,-0.93973 0,-0.51687 2.82655,-4.45202 6.28124,-8.74479 6.19516,-7.69804 6.28483,-7.88619 6.54427,-13.72846 0.2381,-5.36165 0.45566,-5.95079 2.29404,-6.21187 1.36606,-0.194 2.03096,0.17537 2.03096,1.12831 0,2.27124 2.35976,1.63987 4.82612,-1.2912 1.25323,-1.48938 2.85819,-2.70799 3.56654,-2.70799 1.40693,0 25.00573,29.54623 25.00573,31.30776 0,0.63017 -1.60643,1.20041 -3.83631,1.36173 l -3.83628,0.27757 -0.45134,6.31862 -0.45132,6.31861 -6.50216,0.26436 -6.50215,0.26436 -0.2678,-6.13164 c -0.26286,-6.01885 -0.3158,-6.13714 -2.87781,-6.42961 -3.37998,-0.38583 -4.12915,0.93206 -4.1461,7.29357 l -0.0143,5.19028 h -6.31862 -6.31861 z m 110.32135,4.18555 c -3.34777,-1.65005 -6.09506,-5.08438 -7.02217,-8.77826 -0.56821,-2.26395 -0.24281,-2.0905 3.49009,1.86037 l 4.11674,4.35713 h 6.67072 c 5.76604,0 7.17944,-0.33666 10.42176,-2.48233 4.8955,-3.23968 5.65602,-3.14112 2.37896,0.30834 -5.62992,5.92603 -13.74987,7.84297 -20.0561,4.73475 z m -43.82546,-2.71121 c -0.33098,-0.33097 -0.60178,-2.76815 -0.60178,-5.41596 0,-4.72585 -0.0487,-4.81418 -2.6547,-4.81418 -1.4601,0 -2.9054,-0.40563 -3.21182,-0.90142 -0.30642,-0.4958 1.70059,-3.78689 4.46001,-7.31356 4.53203,-5.79216 5.01715,-6.83959 5.01715,-10.83315 0,-3.32801 0.33474,-4.42099 1.35398,-4.42099 0.7447,0 1.35399,0.40618 1.35399,0.90265 0,1.73284 2.91354,0.88481 4.68133,-1.36258 0.98001,-1.2459 2.1891,-2.01355 2.68684,-1.70594 1.72094,1.06361 18.80894,23.18748 18.80894,24.35198 0,0.65865 -1.28018,1.29206 -2.93364,1.45147 -2.85592,0.27537 -2.94559,0.41442 -3.38498,5.24751 l -0.45132,4.96462 h -4.5133 -4.51329 l -0.27219,-4.21572 c -0.50293,-7.78972 -5.59509,-8.585 -5.59509,-0.87382 0,3.22061 -0.39332,4.59596 -1.42782,4.99294 -1.91776,0.73592 -8.05007,0.69841 -8.80231,-0.0538 z m 45.73354,-1.88054 c -5.36661,-2.99403 -9.51082,-9.70612 -15.20407,-24.62494 -4.44435,-11.64617 -6.43369,-15.10717 -11.44536,-19.91231 -2.48185,-2.37958 -4.24674,-4.75643 -3.92195,-5.28191 1.00485,-1.62589 6.42581,-1.06024 8.96264,0.93524 3.30935,2.60314 5.73074,7.70145 7.3453,15.46575 1.99176,9.57827 3.79792,14.54192 6.79901,18.68479 3.4643,4.7823 4.57718,4.66306 3.07466,-0.32944 -0.66298,-2.20287 -1.48338,-6.82635 -1.82315,-10.27439 -0.55611,-5.64373 -0.42705,-6.45989 1.29374,-8.18067 1.91518,-1.91516 6.42479,-2.65948 6.42479,-1.06042 0,0.46808 -0.91394,2.3975 -2.03099,4.28764 -2.57453,4.3563 -2.64581,13.3575 -0.14877,18.78175 l 1.6622,3.61063 0.31878,-4.06195 c 0.35792,-4.56058 2.99954,-8.12394 6.02248,-8.12394 2.47831,0 5.91079,2.43464 5.91079,4.19249 0,1.11438 -0.70557,1.26295 -3.64187,0.76688 -6.21046,-1.04926 -8.23741,2.60216 -4.10889,7.40186 1.94317,2.25907 2.77195,2.53264 7.6726,2.53264 3.02177,0 5.4941,0.21708 5.4941,0.48238 0,0.67014 -5.28695,3.81223 -8.56554,5.09056 -3.91937,1.5282 -6.86577,1.41647 -10.09059,-0.38264 z m -154.20307,-0.14468 c -5.477723,-0.90366 -5.662733,-1.17162 -4.860743,-7.03965 0.7874,-5.76119 0.24035,-6.86326 -3.88487,-7.82649 -2.99427,-0.69918 -3.59872,0.18602 -4.45982,6.53144 -0.36426,2.68434 -0.99474,5.19059 -1.40104,5.56945 -0.6562,0.61185 -10.88709,-0.34972 -11.5507,-1.08561 -0.14488,-0.16064 0.0982,-2.88817 0.54013,-6.06112 0.92056,-6.60877 0.17947,-8.22222 -3.77664,-8.22222 -1.3993,0 -2.81787,-0.44287 -3.1524,-0.98414 -0.65569,-1.06093 5.6468,-8.04246 7.26019,-8.04246 0.5369,0 1.69603,1.2186 2.57583,2.70798 1.14222,1.93362 2.29486,2.71194 4.03092,2.72179 2.86562,0.0164 3.78679,0.5714 5.96876,3.59683 l 1.62751,2.25664 -0.55686,-3.07327 c -0.71478,-3.94464 -2.04384,-5.50199 -4.69548,-5.50199 -1.43792,0 -2.56732,-0.85933 -3.50011,-2.66314 -1.78869,-3.45895 -1.73958,-4.26397 0.42815,-7.0198 0.99292,-1.26229 1.80533,-3.40812 1.80533,-4.76849 0,-6.73677 2.62985,-10.8219 4.06195,-6.30972 0.82603,2.60258 3.0907,2.22597 6.50307,-1.08144 1.85674,-1.79963 3.29185,-2.56447 3.8108,-2.03097 0.906703,0.93212 20.827863,34.63752 20.827863,35.23948 0,0.20279 -1.81358,0.36863 -4.03019,0.36863 -4.50484,0 -5.89906,1.46547 -5.89906,6.20052 0,3.64724 -1.49783,7.36519 -2.91129,7.22638 -0.63288,-0.0622 -2.77545,-0.38101 -4.7613,-0.70863 z m 26.62843,-6.39965 c 0,-0.49646 0.6093,-0.90266 1.35399,-0.90266 0.74469,0 1.354,0.4062 1.354,0.90266 0,0.49648 -0.60931,0.90267 -1.354,0.90267 -0.74469,0 -1.35399,-0.40619 -1.35399,-0.90267 z m -7.08587,-0.85751 c 0.1985,-0.59577 0.65557,-1.05274 1.01549,-1.01549 1.07932,0.11173 0.8703,1.34973 -0.29335,1.73761 -0.59576,0.1985 -0.92073,-0.12626 -0.72214,-0.72212 z m 4.76686,-7.36732 c -0.71903,-1.16343 1.15503,-2.57319 3.44734,-2.59326 0.98249,-0.008 1.57966,0.66867 1.57966,1.79152 0,1.31224 -0.60178,1.8053 -2.20338,1.8053 -1.21185,0 -2.48249,-0.4516 -2.82362,-1.00356 z m -62.070663,-7.72214 c -1.17277,-1.17277 -0.57732,-2.89497 1.19547,-3.45763 2.81646,-0.89391 3.98175,0.35679 2.18363,2.3437 -1.65451,1.82822 -2.41434,2.07868 -3.3791,1.11393 z M 182.1079,178.6363 c -0.28564,-0.46217 -0.12524,-1.08389 0.35655,-1.38162 1.16504,-0.72003 5.47218,0.39534 5.47218,1.4171 0,1.07003 -5.16493,1.03858 -5.82873,-0.0354 z m 5.59602,-2.40129 c -0.31416,-0.31416 -1.91356,-0.67681 -3.55421,-0.80586 -3.46395,-0.2725 -4.12011,-2.56152 -0.86635,-3.02218 2.65316,-0.37564 7.53615,1.58026 7.1132,2.84916 -0.39383,1.18147 -1.93114,1.74035 -2.69264,0.97888 z m -123.431583,-3.9797 c 0,-0.49646 0.6093,-0.90266 1.35399,-0.90266 0.74469,0 1.354,0.4062 1.354,0.90266 0,0.49646 -0.60931,0.90265 -1.354,0.90265 -0.74469,0 -1.35399,-0.40619 -1.35399,-0.90265 z m 6.52549,-0.16924 c 0.55789,-1.67372 2.50111,-1.95132 2.50111,-0.35729 0,0.78605 -0.64314,1.4292 -1.42921,1.4292 -0.78607,0 -1.26842,-0.48236 -1.0719,-1.07191 z m 116.290823,-0.82479 c -1.21109,-0.48377 -3.30494,-0.63735 -4.65304,-0.34126 -2.83377,0.6224 -4.19545,-0.83187 -2.5901,-2.7662 2.45042,-2.95257 12.60442,-0.69795 12.60442,2.7987 0,1.47935 -2.12461,1.60171 -5.36128,0.30876 z m 46.90013,-2.14818 c -3.94937,-4.07472 -15.69557,-10.1626 -22.08329,-11.44543 -5.41471,-1.08745 -6.36176,-2.56122 -2.7139,-4.22328 5.80143,-2.64331 12.86972,-0.40273 19.3647,6.13841 4.09627,4.12541 10.03834,12.67253 8.81008,12.67253 -0.18253,0 -1.70251,-1.41402 -3.37759,-3.14223 z m -32.51225,0.19154 c 0,-1.8149 3.394,-4.27977 5.84246,-4.24305 1.82361,0.0274 1.82372,0.0309 0.0248,1.02593 -0.99292,0.54917 -2.71926,1.82621 -3.83629,2.83788 -1.71466,1.55288 -2.03099,1.61196 -2.03099,0.37924 z m -11.6992,-3.07457 c -2.21416,-0.96139 -4.51527,-1.18256 -7.90151,-0.75949 -4.03655,0.50434 -4.87045,0.35497 -5.3762,-0.963 -0.91833,-2.39312 2.80354,-4.89316 7.24938,-4.86957 2.05497,0.0102 5.49178,0.81648 7.63737,1.79019 3.10061,1.40709 3.84147,2.17568 3.61063,3.74575 -0.37174,2.52851 -1.36549,2.72959 -5.21967,1.05612 z m 12.60185,-2.84479 c 0,-3.28494 8.61175,-4.83588 13.99122,-2.51975 2.62946,1.13212 2.52474,1.18161 -3.61063,1.70655 -3.47524,0.29735 -7.23256,0.81722 -8.3496,1.15528 -1.21539,0.36783 -2.03099,0.23047 -2.03099,-0.34208 z m -10.32302,-3.54136 c -4.02434,-2.10758 -9.55039,-2.4262 -13.4949,-0.77809 -3.63724,1.51973 -5.06717,1.28435 -5.06717,-0.83409 0,-2.4493 4.32428,-4.2878 9.89922,-4.20876 7.17233,0.1017 13.56991,3.41272 13.56991,7.02302 0,0.73078 -2.2854,0.17089 -4.90706,-1.20208 z m -21.05567,-3.98306 c -3.3869,-3.38688 0.51883,-7.26785 7.84772,-7.798 6.11315,-0.44216 10.72397,0.84024 14.52732,4.04054 3.81775,3.21244 3.32234,4.10517 -1.15125,2.07453 -6.52647,-2.96247 -18.55981,-1.84084 -19.78825,1.84447 -0.20958,0.62872 -0.70053,0.57347 -1.43554,-0.16146 z m -5.6206,-4.80621 c -2.02982,-2.44576 -0.31928,-5.5681 4.26665,-7.78811 7.85353,-3.80184 19.82919,-2.25143 23.12751,2.99415 1.53941,2.44827 0.34633,2.65174 -5.91657,1.0091 -5.06112,-1.32742 -6.57072,-1.38284 -10.95306,-0.40211 -3.4035,0.76167 -5.65357,1.86301 -6.81016,3.33336 -2.02477,2.57407 -2.24459,2.6246 -3.71437,0.85361 z m -3.62037,-7.03213 c 0,-3.18764 2.23124,-5.64073 6.99427,-7.68973 5.94121,-2.55585 12.47987,-3.30533 17.40043,-1.99446 4.92638,1.31241 7.19837,3.21013 7.19837,6.0126 0,2.48588 -0.50886,2.56633 -4.82539,0.76276 -3.73975,-1.56256 -12.15939,-1.766 -17.03606,-0.4116 -1.84632,0.51277 -4.54523,1.93218 -5.99759,3.15426 -3.259,2.74226 -3.73403,2.7634 -3.73403,0.16617 z m -3.11633,-4.12737 c -2.05881,-6.48679 11.71088,-14.57799 24.809,-14.57799 5.67835,0 12.38231,2.42648 14.14765,5.1207 1.33832,2.04255 1.32835,2.46694 -0.12954,5.52438 l -1.57932,3.31188 -1.75244,-2.40574 c -5.20834,-7.14989 -23.74829,-5.92104 -32.06375,2.12522 -2.7142,2.62635 -2.87098,2.66753 -3.4315,0.90155 z m 13.04557,-47.073734 c 0,-5.71683 0.1719,-6.31862 1.80533,-6.31862 1.63336,0 1.80531,0.60179 1.80531,6.31862 0,5.71684 -0.1719,6.31862 -1.80531,6.31862 -1.63338,0 -1.80533,-0.60178 -1.80533,-6.31862 z M 61.727257,90.790386 c 0.18541,-1.30522 1.01422,-2.13406 2.31943,-2.31945 1.65078,-0.23443 2.03098,-0.86215 2.03098,-3.35319 0,-2.01197 0.55063,-3.35947 1.60296,-3.92265 2.58307,-1.38242 4.71566,0.42107 4.71566,3.98791 v 3.10386 l 34.978033,0.23626 34.97804,0.23628 0.28844,2.03098 0.28844,2.03097 H 102.18403 61.438817 Z m 174.050303,0.9461 c -1.73762,-0.50714 -6.40888,-0.70202 -10.38057,-0.43308 -5.69695,0.38577 -6.74492,0.28015 -4.96464,-0.50033 2.0195,-0.88534 7.99768,-1.01341 23.46915,-0.50275 2.73053,0.0901 6.38631,-0.11194 8.12392,-0.44922 1.93265,-0.37507 1.23172,0.0612 -1.80531,1.12342 -5.50755,1.92645 -9.69552,2.1474 -14.44255,0.76196 z m -76.03401,-8.78716 c 3.59109,-3.09846 6.52927,-6.10812 6.52927,-6.68818 0,-0.70125 -1.43678,-0.94759 -4.28762,-0.73515 l -4.28763,0.31948 3.27823,-3.47229 c 3.66806,-3.88516 5.52043,-7.00996 4.66349,-7.86689 -0.31351,-0.31351 -1.5734,-0.57001 -2.79973,-0.57001 -2.10924,0 -2.00435,-0.24097 1.94106,-4.458941 2.29395,-2.4524 5.07075,-6.31128 6.17067,-8.575249 1.09994,-2.264001 2.22358,-4.114811 2.497,-4.112951 0.27342,0.002 1.24883,1.83125 2.16758,4.065321 0.91876,2.234099 3.49514,6.091429 5.72528,8.571879 3.96741,4.412711 4.00436,4.509941 1.71451,4.509941 -1.28717,0 -2.34031,0.22326 -2.34031,0.49615 0,1.58556 3.07798,5.96031 5.99645,8.52275 l 3.38068,2.96829 -5.05061,-0.41885 c -6.39245,-0.5301 -6.17657,0.2149 2.1419,7.39216 5.74707,4.95866 6.06591,5.41128 3.81187,5.41128 -3.38954,0 -14.02912,-1.8687 -15.76578,-2.76904 -0.82628,-0.42836 -2.91827,-0.22303 -4.98615,0.48942 -1.95945,0.67507 -6.59266,1.52599 -10.29603,1.8909 l -6.7334,0.66349 z m 77.83934,4.32432 c -1.86507,-0.5783 -6.85719,-0.79172 -12.1859,-0.52095 -4.96464,0.25225 -9.83899,0.12462 -10.83192,-0.28354 -1.45248,-0.59712 -1.18784,-0.75412 1.35399,-0.80326 1.73762,-0.0336 5.89865,-0.72576 9.24675,-1.53814 6.22298,-1.50995 7.44459,-1.42015 18.16235,1.33487 2.74446,0.70546 4.93315,0.5184 10.26041,-0.87693 8.57391,-2.24571 10.25658,-1.77561 3.31602,0.92645 -6.14791,2.39349 -14.75337,3.17802 -19.3217,1.7615 z M 97.670737,82.086026 c 0,-5.7678 -0.554,-6.41519 -5.48979,-6.41519 -3.21081,0 -3.23098,-0.24059 -0.33836,-4.03303 2.23095,-2.92492 2.44212,-2.99667 7.47558,-2.54026 4.659653,0.42253 5.468453,0.2268 8.054093,-1.94888 3.57804,-3.01071 4.68396,-7.654661 2.58557,-10.857211 -2.05169,-3.13129 -1.81615,-5.241959 0.91364,-8.18745 l 2.36881,-2.55599 2.37014,2.88364 c 2.69029,3.273181 3.38931,3.4502 5.62714,1.424991 2.4466,-2.214141 3.50961,-0.751701 3.54761,4.880649 0.0333,4.95249 0.24408,5.39642 5.86445,12.358291 3.20639,3.9717 5.83108,7.52591 5.83262,7.89826 0.002,0.37235 -1.33762,0.67699 -2.97595,0.67699 -4.11241,0 -5.14515,1.39513 -5.14515,6.95049 v 4.78409 h -5.86728 -5.8673 l -0.0144,-4.28763 c -0.0164,-5.2633 -0.90147,-6.79314 -3.69891,-6.39758 -1.52977,0.21628 -2.22515,0.959 -2.398,2.56126 -0.13384,1.24118 -0.45695,3.57679 -0.71789,5.19031 l -0.47446,2.93364 h -5.82628 -5.826373 z m 110.734213,-0.50424 c -4.55436,-1.62418 -5.32428,-2.49311 -1.44665,-1.63271 4.84323,1.07463 10.58282,0.7645 18.68518,-1.00966 7.03306,-1.54001 7.85529,-1.549 14.12477,-0.1541 6.11742,1.36099 7.15832,1.36469 12.84206,0.0456 6.33017,-1.46903 9.38991,-1.31093 17.91961,0.92591 4.47345,1.17312 4.42962,1.18227 -4.96462,1.03659 -5.78315,-0.0896 -11.50193,0.36352 -14.67004,1.16258 -4.45475,1.12357 -5.80076,1.13265 -9.47791,0.0641 -6.7055,-1.94882 -12.17072,-2.1171 -18.24201,-0.56172 -6.74048,1.72685 -10.19346,1.7557 -14.77039,0.1236 z m -138.536863,-4.09185 -2.07687,-1.73147 5.23616,-6.77363 c 5.43542,-7.03139 6.52616,-7.75228 8.36935,-5.53141 0.89854,1.0827 0.17087,2.63759 -4.01362,8.57526 -2.81113,3.98904 -5.18475,7.23928 -5.27467,7.22277 -0.0898,-0.0164 -1.09808,-0.8092 -2.24035,-1.76152 z m 149.481443,-2.17612 c -0.26149,-3.57279 -0.39744,-3.72103 -3.81124,-4.15626 -1.94705,-0.24824 -3.67591,-0.86517 -3.84194,-1.37094 -0.16596,-0.50579 2.34093,-4.26182 5.57105,-8.34675 5.73713,-7.255411 5.87293,-7.551241 5.87293,-12.792681 0,-6.15308 1.06672,-7.38332 4.0069,-4.62115 l 2.0679,1.9427 2.68394,-3.3456 c 1.47616,-1.84008 3.11969,-3.076279 3.65229,-2.747109 1.97967,1.223489 22.79268,28.48835 22.79268,29.85818 0,1.05515 -0.91989,1.42335 -3.55614,1.42335 -3.45775,0 -3.56392,0.0937 -3.83632,3.38497 -0.25917,3.13151 -0.51215,3.40706 -3.37881,3.68013 -1.70426,0.16228 -4.44609,0.0424 -6.09295,-0.26656 -2.58825,-0.48558 -2.99428,-0.92339 -2.99428,-3.22882 0,-2.4463 -0.26151,-2.66707 -3.1593,-2.66707 -2.52552,0 -3.15931,0.35147 -3.15931,1.75203 0,2.21634 -0.27789,2.37227 -6.99148,3.92327 l -5.55477,1.28327 z m -14.56325,-2.95273 c -0.88776,-0.88773 -0.732,-7.33512 0.19093,-7.90557 0.78398,-0.48453 1.91522,3.54072 1.91522,6.81485 0,1.70065 -0.98578,2.21116 -2.10619,1.09072 z M 98.122057,66.499216 c -0.99292,-0.54605 -2.46845,-1.82133 -3.27893,-2.83398 -1.3165,-1.64487 -1.7665,-1.71982 -4.22108,-0.70311 -1.51111,0.62592 -3.60355,0.86633 -4.64989,0.53424 -2.71002,-0.86013 -5.45196,-4.074181 -5.45196,-6.390731 0,-1.34062 -0.86192,-2.33396 -2.67795,-3.08618 -3.19877,-1.32497 -3.82119,-2.974129 -3.82119,-10.1247 0,-6.135379 1.09936,-8.026139 3.71639,-6.391769 1.91115,1.19353 2.78275,0.68133 2.78275,-1.63531 0,-2.08266 5.9076,-8.3239 7.41032,-7.82881 0.64074,0.21109 1.29622,1.27706 1.45664,2.36885 0.28141,1.91505 0.38172,1.88867 2.84448,-0.7477 4.13066,-4.42189 10.849783,-2.9964 7.61884,1.61638 -1.30461,1.86261 -1.26022,1.96947 0.817853,1.96947 3.17153,0 4.54028,2.09125 3.83376,5.8574 -0.3331,1.775559 -0.22593,3.169189 0.24374,3.169189 1.53383,0 1.81708,3.6161 0.39465,5.03854 -1.04199,1.04198 -1.13608,1.65619 -0.37097,2.4213 0.56383,0.563841 1.03806,1.857861 1.05387,2.87561 0.0164,1.01774 0.62507,2.63893 1.35398,3.60263 2.44827,3.2369 0.95824,8.585961 -2.87868,10.334171 -2.71007,1.23479 -3.86399,1.2263 -6.176623,-0.0455 z M 160.83253,54.684035 c -4.35756,-7.08973 -4.49648,-14.547989 -0.38671,-20.758289 l 2.45142,-3.70434 1.41319,2.64055 1.41319,2.64056 0.67764,-3.82914 c 0.79982,-4.51958 5.03884,-11.02465 9.04153,-13.87481 l 2.84715,-2.02735 -0.55793,3.54703 c -0.65307,4.15187 0.5,10.02582 2.32669,11.8525 1.10687,1.10688 1.29266,0.88822 1.36355,-1.60468 0.10273,-3.61646 1.67986,-5.46481 2.5728,-3.01541 0.34699,0.95182 1.78404,3.21332 3.19347,5.02556 3.0646,3.9405 4.02881,7.93945 2.57107,10.663279 -1.51772,2.8359 -0.21068,3.58491 1.74092,0.9976 1.62646,-2.15622 1.63829,-2.15757 2.24165,-0.25654 0.95138,2.99749 -0.99036,8.569681 -4.09164,11.74174 -1.55692,1.59246 -3.18877,2.89538 -3.62631,2.89538 -0.43757,0 -0.79554,-1.54714 -0.79554,-3.43809 0,-3.487249 -4.44408,-12.15538 -8.17286,-15.941119 -1.73857,-1.76514 -1.78474,-1.74363 -6.71772,3.128069 -5.13008,5.06635 -8.27122,11.16919 -7.42143,14.41883 0.68913,2.63521 -0.0164,2.26218 -2.08413,-1.10133 z m 51.19006,0.54158 c -0.89066,-0.89066 -0.73266,-6.85917 0.22148,-8.36665 0.57484,-0.90818 0.99748,-0.035 1.45285,3.001501 0.6033,4.023129 -0.25762,6.781839 -1.67433,5.365149 z m 46.0356,-4.513289 c -0.92633,-0.92635 -0.7425,-8.439871 0.2065,-8.439871 1.15985,0 2.24922,7.2178 1.24146,8.225551 -0.45713,0.45713 -1.10871,0.55355 -1.44796,0.21432 z m -59.28964,-12.15581 c 0,-5.46198 1.51911,-5.10629 1.97118,0.46153 0.1805,2.221939 -0.12974,3.661239 -0.84287,3.911519 -0.81024,0.28437 -1.12831,-0.94839 -1.12831,-4.373049 z m -78.53135,-0.0849 c -2.72743,-0.80296 -2.91252,-1.02069 -1.35397,-1.59277 1.95881,-0.71901 6.5418,0.29114 8.0179,1.76727 1.1852,1.18517 -2.36077,1.09233 -6.66393,-0.17457 z m 119.47481,-1.17053 c -0.28719,-0.74844 -0.22587,-2.88096 0.1363,-4.73896 0.5571,-2.85832 0.77096,-3.10037 1.38972,-1.57286 1.06217,2.62213 1.01426,7.6726 -0.0729,7.6726 -0.51205,0 -1.16599,-0.61237 -1.45318,-1.36078 z m -21.38585,-2.85164 c -0.85242,-0.85239 -0.72179,-5.93524 0.1895,-7.37279 0.57034,-0.89974 0.90642,-0.67128 1.32783,0.90266 1.28034,4.78176 0.42815,8.41561 -1.51731,6.47013 z m -106.66422,-2.49726 c -2.9452,-0.94211 -3.307,-1.28464 -1.96321,-1.85851 1.88926,-0.80682 8.73316,0.98451 8.73316,2.28582 0,1.14059 -2.3278,0.99365 -6.76995,-0.42731 z m 144.00158,-5.62666 c 0.0205,-3.9299 0.25511,-4.87504 0.92497,-3.72611 1.3663,2.34338 1.48472,8.1293 0.1758,8.59238 -0.82121,0.29057 -1.12085,-1.03395 -1.10088,-4.86627 z m -150.77151,-0.14652 -4.06197,-1.5084 3.34675,-0.27788 c 3.44189,-0.28576 7.03384,1.02477 7.03384,2.56629 0,1.18723 -1.5295,0.9984 -6.31862,-0.78001 z"
       id="path79"
       inkscape:connector-curvature="0" />
  </g>
</svg>
