<?xml version="1.0" encoding="UTF-8" standalone="no"?>
<!-- Created with Inkscape (http://www.inkscape.org/) -->

<svg
   xmlns:dc="http://purl.org/dc/elements/1.1/"
   xmlns:cc="http://creativecommons.org/ns#"
   xmlns:rdf="http://www.w3.org/1999/02/22-rdf-syntax-ns#"
   xmlns:svg="http://www.w3.org/2000/svg"
   xmlns="http://www.w3.org/2000/svg"
   xmlns:sodipodi="http://sodipodi.sourceforge.net/DTD/sodipodi-0.dtd"
   xmlns:inkscape="http://www.inkscape.org/namespaces/inkscape"
   width="20mm"
   height="20mm"
   viewBox="0 0 20 20"
   version="1.1"
   id="svg8"
   inkscape:version="0.92.2 (5c3e80d, 2017-08-06)"
   sodipodi:docname="pse.svg">
  <defs
     id="defs2" />
  <sodipodi:namedview
     id="base"
     pagecolor="#ffffff"
     bordercolor="#666666"
     borderopacity="1.0"
     inkscape:pageopacity="0.0"
     inkscape:pageshadow="2"
     inkscape:zoom="1.3361458"
     inkscape:cx="-131.22894"
     inkscape:cy="36.863644"
     inkscape:document-units="mm"
     inkscape:current-layer="layer1"
     showgrid="false"
     inkscape:window-width="1920"
     inkscape:window-height="1001"
     inkscape:window-x="-9"
     inkscape:window-y="-9"
     inkscape:window-maximized="1" />
  <metadata
     id="metadata5">
    <rdf:RDF>
      <cc:Work
         rdf:about="">
        <dc:format>image/svg+xml</dc:format>
        <dc:type
           rdf:resource="http://purl.org/dc/dcmitype/StillImage" />
        <dc:title></dc:title>
      </cc:Work>
    </rdf:RDF>
  </metadata>
  <g
     inkscape:label="Camada 1"
     inkscape:groupmode="layer"
     id="layer1"
     transform="translate(0,-277)">
    <path
       style="fill:#000000;stroke-width:0.08899878"
       d="m 3.1933521,294.61082 c -0.1844322,-0.0802 -0.3109886,-0.2134 -0.3560109,-0.37474 -0.038419,-0.13769 -0.069855,-1.58148 -0.069855,-3.20845 0,-2.04124 -0.029872,-2.96956 -0.096396,-2.99507 -0.053018,-0.0203 -0.3015866,0.22954 -0.5523716,0.55526 -0.5946826,0.77237 -0.9915077,1.18507 -1.0843276,1.12771 -0.10494339,-0.0648 -0.53648058,-0.81389 -0.53648058,-0.93119 0,-0.0534 0.37047576,-0.34014 0.82327608,-0.63726 0.4528036,-0.29711 0.8339765,-0.55069 0.847052,-0.56351 0.013086,-0.0128 -0.1185134,-0.25957 -0.2924166,-0.54834 -0.740282,-1.22922 -0.7490517,-2.15152 -0.027887,-2.93381 0.1966062,-0.21326 0.4388738,-0.4136 0.5383741,-0.44516 0.399234,-0.12671 0.451926,0.52407 0.097708,1.20674 -0.2236956,0.43112 -0.2319338,0.48717 -0.128743,0.8759 0.060634,0.22845 0.1636065,0.4694 0.2288323,0.5355 0.098946,0.10025 0.1299573,-0.0177 0.1872344,-0.71196 0.037757,-0.45767 0.072364,-1.11246 0.076905,-1.45508 l 0.00828,-0.62297 1.5097829,-0.0245 c 0.8303805,-0.0135 1.5713286,0.003 1.6465553,0.0358 0.075227,0.0332 0.1947662,0.0643 0.2656501,0.069 0.1346331,0.009 0.5258573,0.52439 0.7551269,0.9948 0.116125,0.23828 0.1706336,0.26884 0.4154443,0.23291 0.1549813,-0.0227 0.3565593,-0.11612 0.4479497,-0.20751 0.09139,-0.0914 0.2679172,-0.16615 0.392277,-0.16615 0.1243631,0 0.3359555,-0.0812 0.4702085,-0.18045 0.1342531,-0.0992 0.3970405,-0.20526 0.5839687,-0.2356 0.298532,-0.0484 0.3359853,-0.035 0.3079371,0.11065 -0.032125,0.16684 -0.2677856,0.32469 -0.7204447,0.4826 -0.1996235,0.0697 -0.2448511,0.13913 -0.2452548,0.37682 -6.729e-4,0.45756 -0.1578339,0.90938 -0.3928423,1.13013 -0.3931821,0.36935 -1.0937466,0.22276 -1.4367023,-0.3006 -0.1754272,-0.26772 -0.3948337,-0.20302 -0.3955974,0.11663 -3.363e-4,0.16758 -0.076821,0.27859 -0.2657575,0.38609 -0.2381538,0.1355 -0.2585155,0.18087 -0.1996944,0.44498 0.036027,0.16175 0.065502,1.87992 0.065502,3.81815 0,3.88627 -0.00303,3.90978 -0.5423505,4.08773 -0.4211832,0.13897 -0.7985583,-0.0718 -0.921559,-0.51461 -0.054456,-0.19607 -0.092857,-1.40987 -0.09315,-2.9441 -3.363e-4,-2.04867 -0.024455,-2.60253 -0.1117486,-2.57345 -0.085174,0.0284 -0.1163235,0.68204 -0.1328771,2.78849 -0.01423,1.81249 -0.055548,2.81642 -0.1210331,2.94185 -0.089308,0.17106 -0.4340535,0.39358 -0.595806,0.38457 -0.03441,-0.002 -0.191335,-0.0595 -0.3487249,-0.12789 z m 0.464167,-7.16617 c -0.030241,-0.049 -0.092696,-0.089 -0.1387572,-0.089 -0.046066,0 -0.083751,0.0401 -0.083751,0.089 0,0.049 0.06244,0.089 0.1387573,0.089 0.076317,0 0.1140024,-0.04 0.083751,-0.089 z M 2.9899947,286.6437 c 0,-0.049 -0.042416,-0.089 -0.094256,-0.089 -0.051841,0 -0.069501,0.04 -0.039247,0.089 0.030241,0.049 0.072667,0.089 0.094256,0.089 0.021596,0 0.039247,-0.04 0.039247,-0.089 z m 3.2931109,-1.46316 c 0,-0.0705 -0.040051,-0.15299 -0.089002,-0.18324 -0.048952,-0.0302 -0.089002,-0.2996 -0.089002,-0.59855 0,-0.29894 -0.027046,-0.5165 -0.060096,-0.48345 -0.033067,0.0331 -0.063093,0.36011 -0.066754,0.7268 -0.00578,0.57818 0.014027,0.6667 0.1490979,0.6667 0.085668,-1e-5 0.1557551,-0.0577 0.1557561,-0.12826 z m -2.3780612,-0.53922 c 0.010697,-0.049 -0.1106855,-0.10154 -0.2697775,-0.11688 -0.2735014,-0.0262 -0.3667654,0.0542 -0.2258384,0.19514 0.089392,0.0894 0.472146,0.0289 0.4956159,-0.0783 z m 1.5553368,-0.0222 c 0.023816,-0.0725 -0.057156,-0.11125 -0.2326402,-0.11125 -0.2715806,0 -0.4153433,0.10166 -0.3028412,0.21416 0.09652,0.0965 0.4951516,0.0199 0.5354814,-0.10291 z m 4.2641763,9.97479 c -0.032629,-0.0326 -0.059335,-1.28612 -0.059335,-2.78553 0,-2.92107 -0.00303,-2.93978 -0.4532917,-2.93978 -0.1364597,0 -0.2629556,-0.0606 -0.2937117,-0.14077 -0.1081088,-0.28171 -0.05904,-1.88015 0.060772,-1.97957 0.1351008,-0.11211 10.4577909,-0.13713 10.6379739,-0.0258 0.08157,0.0504 0.104883,0.34319 0.0864,1.08532 l -0.02529,1.01629 -0.282635,0.0274 c -0.155445,0.015 -0.325075,0.0785 -0.376954,0.14104 -0.06077,0.0732 -0.102704,1.09247 -0.11788,2.86493 l -0.02355,2.75129 -0.295074,0.0284 c -0.558603,0.0536 -0.550455,0.0969 -0.550455,-2.92203 0,-2.41497 -0.01662,-2.74478 -0.140787,-2.79242 -0.183839,-0.0706 -7.010845,-0.0706 -7.194684,0 -0.124096,0.0476 -0.140786,0.37385 -0.140786,2.75154 0,1.48364 -0.02432,2.76088 -0.05402,2.83832 -0.0547,0.14251 -0.6528572,0.20523 -0.776672,0.0815 z m 0.5781115,-6.05904 c 0.252306,-0.29991 0.875605,-1.36871 0.875605,-1.50144 0,-0.0974 -0.07849,-0.12638 -0.287734,-0.10611 -0.256261,0.0249 -0.339753,0.1128 -0.763344,0.80407 -0.2615875,0.42689 -0.4501535,0.81736 -0.4190372,0.86769 0.089825,0.14533 0.4510572,0.10631 0.5945102,-0.0642 z m 2.40631,0.0445 c 0.196708,-0.15555 0.964302,-1.50294 0.90805,-1.59394 -0.08084,-0.1308 -0.448087,-0.0804 -0.590461,0.081 -0.236998,0.26872 -0.86926,1.3541 -0.86926,1.49222 0,0.16252 0.355463,0.17584 0.551671,0.0207 z m 2.493071,-0.0445 c 0.224472,-0.25852 0.87139,-1.38171 0.87139,-1.51293 0,-0.0845 -0.08927,-0.11385 -0.287735,-0.0946 -0.256261,0.0249 -0.339753,0.11279 -0.763341,0.80406 -0.261586,0.42689 -0.450156,0.81736 -0.41904,0.86769 0.0897,0.14513 0.450562,0.10643 0.598726,-0.0642 z m 2.359522,0.0841 c 0.167657,-0.10652 1.006666,-1.5428 0.952459,-1.6305 -0.05814,-0.094 -0.40006,-0.10016 -0.536476,-0.01 -0.152052,0.10098 -0.925082,1.41466 -0.925082,1.57205 0,0.14843 0.31607,0.19066 0.509099,0.068 z m -7.214421,-2.21878 c -0.07668,-0.12405 0.183937,-1.19905 0.310762,-1.28189 0.06592,-0.043 0.279752,-0.0678 0.475194,-0.0551 0.291444,0.019 0.377001,0.0686 0.475755,0.27555 0.06623,0.13876 0.126604,0.43913 0.134172,0.66744 l 0.01376,0.41515 -0.682289,0.0259 c -0.375262,0.0142 -0.70257,-0.007 -0.727354,-0.047 z m 6.756619,-0.0123 c -0.07892,-0.12767 0.188978,-1.18474 0.322375,-1.27204 0.06372,-0.0417 0.275751,-0.0654 0.471191,-0.0526 0.291448,0.019 0.377001,0.0686 0.47576,0.27553 0.06623,0.13878 0.126599,0.43914 0.134168,0.66746 l 0.01375,0.41515 -0.682289,0.0259 c -0.375258,0.0142 -0.705992,-0.0125 -0.734963,-0.0594 z M 3.827029,282.91928 c -0.4532611,-0.21168 -0.7480323,-0.66548 -0.7480323,-1.15161 0,-0.25511 -0.065215,-0.4384 -0.222505,-0.6253 -0.2618285,-0.31114 -0.2657476,-0.34956 -0.082439,-0.80765 0.1270174,-0.3174 0.2098902,-0.38003 0.8890368,-0.67176 l 0.7489609,-0.32172 0.6445188,0.27425 c 0.7781091,0.33107 0.9309474,0.46017 1.0617659,0.89676 0.092447,0.30852 0.081437,0.35896 -0.1342731,0.6153 -0.163159,0.19388 -0.2349747,0.38192 -0.2349747,0.61521 0,0.36963 -0.2594134,0.81995 -0.6307268,1.09486 -0.3394673,0.25132 -0.857857,0.28411 -1.2913317,0.0817 z m 0.8155055,-2.04412 c 0.5762518,0.0252 0.7928395,0.009 0.6866346,-0.05 -0.085325,-0.0478 -0.4591546,-0.10441 -0.8307304,-0.12592 -0.5120922,-0.0297 -0.7440596,-0.004 -0.9585112,0.10718 -0.3588233,0.18555 -0.3644343,0.24986 -0.011033,0.12669 0.1520076,-0.053 0.6430116,-0.0785 1.113654,-0.0579 z m -0.013119,-0.66725 c 0.1502888,-0.10988 0.1509582,-0.12668 0.010664,-0.26698 -0.082355,-0.0823 -0.1840622,-0.14972 -0.2260235,-0.14972 -0.041958,0 -0.1436651,0.0674 -0.2260199,0.14972 -0.1403047,0.1403 -0.1396353,0.1571 0.010664,0.26698 0.088215,0.0645 0.1851286,0.11728 0.2153667,0.11728 0.03024,0 0.1271552,-0.0528 0.2153699,-0.11728 z"
       id="path267"
       inkscape:connector-curvature="0"
       sodipodi:nodetypes="ccscccsccccccccccccccccssccccccccccscccccsccccssscsscssscscccsccsccssccssccccccccccsccscccsscccscccsccsscccscccscccscccccccccccccccccscccccccscccccccccccsccscc" />
  </g>
</svg>
