<?xml version="1.0" encoding="UTF-8" standalone="no"?>
<!-- Created with Inkscape (http://www.inkscape.org/) -->

<svg
   xmlns:dc="http://purl.org/dc/elements/1.1/"
   xmlns:cc="http://creativecommons.org/ns#"
   xmlns:rdf="http://www.w3.org/1999/02/22-rdf-syntax-ns#"
   xmlns:svg="http://www.w3.org/2000/svg"
   xmlns="http://www.w3.org/2000/svg"
   xmlns:sodipodi="http://sodipodi.sourceforge.net/DTD/sodipodi-0.dtd"
   xmlns:inkscape="http://www.inkscape.org/namespaces/inkscape"
   width="20mm"
   height="20mm"
   viewBox="0 0 20 20"
   version="1.1"
   id="svg8"
   inkscape:version="0.92.2 (5c3e80d, 2017-08-06)"
   sodipodi:docname="pa_mtz.svg">
  <defs
     id="defs2" />
  <sodipodi:namedview
     id="base"
     pagecolor="#ffffff"
     bordercolor="#666666"
     borderopacity="1.0"
     inkscape:pageopacity="0.0"
     inkscape:pageshadow="2"
     inkscape:zoom="1.3361458"
     inkscape:cx="-131.22894"
     inkscape:cy="36.863644"
     inkscape:document-units="mm"
     inkscape:current-layer="layer1"
     showgrid="false"
     inkscape:window-width="1920"
     inkscape:window-height="1001"
     inkscape:window-x="-9"
     inkscape:window-y="-9"
     inkscape:window-maximized="1" />
  <metadata
     id="metadata5">
    <rdf:RDF>
      <cc:Work
         rdf:about="">
        <dc:format>image/svg+xml</dc:format>
        <dc:type
           rdf:resource="http://purl.org/dc/dcmitype/StillImage" />
        <dc:title></dc:title>
      </cc:Work>
    </rdf:RDF>
  </metadata>
  <g
     inkscape:label="Camada 1"
     inkscape:groupmode="layer"
     id="layer1"
     transform="translate(0,-277)">
    <path
       style="fill:#000000;stroke-width:0.1035896"
       d="m 9.3071062,297.10899 c -0.166721,-0.0971 -0.18128,-0.37395 -0.18128,-3.44638 0,-2.46028 0.03277,-3.37357 0.124308,-3.46511 0.185784,-0.18579 1.1738168,-0.15804 1.3703398,0.0385 0.140918,0.14091 0.162785,0.59007 0.162785,3.34361 0,3.68271 0.0087,3.64344 -0.8086918,3.63814 -0.267401,-0.002 -0.567754,-0.0507 -0.667461,-0.10874 z m -4.152215,-1.92537 c -0.03798,-0.038 -0.06906,-1.03451 -0.06906,-2.21449 0,-2.2922 0.03984,-2.473 0.517392,-2.34811 0.234101,0.0612 0.242437,0.0323 0.210804,-0.73236 -0.02608,-0.62971 0.147779,-0.97052 0.619441,-1.21443 0.170386,-0.0881 0.309712,-0.19396 0.309609,-0.23523 -9.8e-5,-0.0413 -0.210676,-0.20801 -0.467938,-0.37054 -0.584407,-0.36921 -1.167117,-1.06968 -1.254876,-1.50847 -0.06065,-0.30324 -0.01797,-0.37969 0.465551,-0.83362 0.394171,-0.37007 0.532323,-0.57481 0.532323,-0.78889 0,-1.03542 1.442496,-2.22405 2.546359,-2.09822 0.262379,0.0299 0.315256,0.0927 0.399939,0.47472 0.05368,0.24214 0.151335,0.44025 0.217024,0.44025 0.204351,0 0.46231,-0.36581 0.46231,-0.65559 0,-0.23966 0.04248,-0.27671 0.317282,-0.27671 0.2512368,0 0.3105318,0.0399 0.2848708,0.19147 -0.03918,0.23151 0.201939,0.70922 0.395461,0.78348 0.08754,0.0336 0.159506,-0.0418 0.192614,-0.20169 0.171067,-0.82641 0.129918,-0.77334 0.598668,-0.77225 1.162557,0.003 2.631804,1.3653 2.412844,2.23772 -0.04691,0.18689 0.0039,0.28104 0.22554,0.41877 0.58734,0.3648 0.752203,0.57653 0.752203,0.96607 0,0.54957 -0.589838,1.26065 -1.517156,1.82902 -0.177101,0.10854 -0.156902,0.15048 0.259053,0.53796 l 0.451124,0.42025 -0.03676,0.65331 -0.03676,0.65331 0.310768,0.0323 c 0.170921,0.0178 0.369037,0.10828 0.440254,0.20108 0.183874,0.23961 0.18327,4.05599 -9.29e-4,4.30756 -0.115033,0.15731 -0.316774,0.17467 -1.735124,0.14928 l -1.604912,-0.0287 -0.0565,-0.49158 c -0.03109,-0.27037 -0.112658,-0.54774 -0.181283,-0.61636 -0.08912,-0.0891 -0.124776,-0.72581 -0.124776,-2.22765 v -2.10287 H 9.9543512 8.9184562 v 2.05199 c 0,1.64388 -0.03026,2.09199 -0.152091,2.25308 -0.08364,0.11059 -0.153571,0.33234 -0.155383,0.49276 -0.0019,0.16043 -0.05155,0.38185 -0.110527,0.49205 -0.09885,0.1847 -0.231208,0.20037 -1.691965,0.20037 -0.871601,0 -1.615806,-0.0311 -1.653787,-0.0691 z m 3.109643,-2.12438 c 0.500749,-0.47043 0.14697,-1.32861 -0.54771,-1.32861 -0.240671,0 -0.39835,0.078 -0.551683,0.27294 -0.284806,0.36208 -0.27117,0.7159 0.03957,1.02664 0.316152,0.31615 0.741789,0.32781 1.059824,0.029 z m 4.3925798,0.0314 c 0.536349,-0.43432 0.177516,-1.36001 -0.527194,-1.36001 -0.451629,0 -0.76656,0.31918 -0.76656,0.77692 0,0.45774 0.314931,0.77692 0.76656,0.77692 0.158299,0 0.395538,-0.0872 0.527194,-0.19383 z m -4.3778048,-2.85996 c 0.04481,-0.37742 -0.104486,-0.52098 -0.385439,-0.37062 -0.207824,0.11123 -0.309637,0.60521 -0.156338,0.75852 0.145729,0.14572 0.509326,-0.1146 0.541777,-0.3879 z m 3.8506108,0.0533 c 0,-0.50273 -0.610563,-0.67815 -0.619952,-0.17812 -0.004,0.21071 0.231641,0.48524 0.416419,0.48524 0.156551,0 0.203533,-0.0709 0.203533,-0.30712 z m -1.482437,-2.13055 c 0.141165,-0.0925 0.327256,-0.33712 0.413532,-0.54361 0.277489,-0.66412 -0.141782,-1.46059 -0.864332,-1.64194 -0.6209648,-0.15585 -1.3645258,0.38455 -1.4438778,1.04938 -0.06101,0.51121 0.106807,0.84896 0.581709,1.1707 0.403059,0.27308 0.8619088,0.26101 1.3129688,-0.0345 z m -1.6252478,-1.12769 c 0,-0.2854 0.132006,-0.48401 0.421031,-0.63347 0.436634,-0.22579 0.426071,-0.0466 -0.02311,0.39192 -0.229969,0.22449 -0.397929,0.32645 -0.397929,0.24155 z m -1.139485,0.1469 c 0.249391,-0.24939 0.253442,-0.3022 0.04592,-0.59848 -0.1917,-0.27369 -0.425569,-0.29375 -0.685204,-0.0588 -0.25484,0.23062 -0.238782,0.50737 0.04079,0.7032 0.296283,0.20752 0.349094,0.20347 0.598489,-0.0459 z m 4.6790518,0.0777 c 0.260128,-0.20959 0.295673,-0.46611 0.09835,-0.70979 -0.250642,-0.30953 -0.705412,-0.20479 -0.803242,0.185 -0.05326,0.21218 -0.01558,0.31814 0.16528,0.46457 0.277481,0.2247 0.328422,0.23038 0.539612,0.0602 z m -4.5953508,-2.44577 c 0.16555,-0.10499 0.05812,-0.63602 -0.12867,-0.63602 -0.122902,0 -0.471975,0.33586 -0.619066,0.59564 -0.08515,0.15037 0.522559,0.18319 0.747736,0.0404 z m 4.6814198,-0.0192 c 0,-0.13957 -0.475736,-0.61683 -0.614855,-0.61683 -0.17816,0 -0.260545,0.52838 -0.0984,0.63107 0.200491,0.12697 0.71325,0.11674 0.71325,-0.0143 z m -1.677292,-0.21024 c -0.02041,-0.0612 -0.0814,-0.11136 -0.135528,-0.11136 -0.05412,0 -0.115114,0.0501 -0.135528,0.11136 -0.02041,0.0613 0.04057,0.11136 0.135528,0.11136 0.09496,0 0.155948,-0.0501 0.135528,-0.11136 z m -7.3740368,0.9105 C 3.4593292,285.3853 3.4224552,285.23818 3.4472552,284.89 l 0.03293,-0.4624 h 0.932306 0.932306 l 0.03159,0.49245 c 0.02881,0.44908 0.0077,0.50154 -0.239822,0.59564 -0.384776,0.14629 -1.323928,0.12796 -1.540032,-0.0301 z m 11.1231228,0.0564 c -0.218858,-0.0814 -0.307348,-0.2423 -0.309185,-0.56211 -0.0031,-0.56641 0.05748,-0.60412 0.972879,-0.60412 0.521989,0 0.896565,0.0479 0.973018,0.12431 0.136779,0.13678 0.165123,0.68754 0.04503,0.87502 -0.08222,0.12837 -1.426664,0.26179 -1.681739,0.1669 z m -9.1054318,-1.61978 c -0.141955,-0.17105 -0.12073,-2.68221 0.02522,-2.98313 0.06722,-0.13861 0.02509,-0.18039 -0.208809,-0.20718 -0.2926,-0.0335 -0.293015,-0.0347 -0.293015,-0.81049 v -0.77692 l 0.514518,-0.0325 c 0.637343,-0.0402 0.780352,0.11741 0.780352,0.86029 0,0.5413 -0.12451,0.77795 -0.409177,0.7777 -0.139434,-1.3e-4 -0.156149,0.20608 -0.127003,1.56689 0.03308,1.54419 -0.03085,1.90803 -0.282081,1.60533 z m 3.874159,-1.59056 c -0.400837,-0.10036 -0.805215,-0.47967 -1.013259,-0.95044 -0.115626,-0.26164 -0.279863,-0.52678 -0.364973,-0.58921 -0.120787,-0.0886 -0.142687,-0.26373 -0.0998,-0.79807 0.08946,-1.11452 0.561453,-1.68969 1.509579,-1.83957 0.9057808,-0.14319 1.6298848,0.14693 2.0171668,0.80818 0.259626,0.44328 0.360544,1.62937 0.158805,1.86636 -0.08437,0.0991 -0.211083,0.32622 -0.281583,0.5047 -0.306954,0.77709 -1.121847,1.19938 -1.9259388,0.99805 z m 0.169791,-1.12841 c 0.233138,-0.21099 0.104001,-0.50453 -0.262416,-0.59649 -0.524737,-0.1317 -0.81919,0.21566 -0.474769,0.56008 0.248861,0.24886 0.489303,0.26074 0.737185,0.0364 z m 1.1318868,0.0612 c 0.295676,-0.15823 0.263854,-0.59801 -0.04895,-0.67652 -0.497602,-0.12488 -0.8853358,0.33279 -0.558672,0.65946 0.152612,0.15261 0.344309,0.15799 0.607627,0.0171 z m -0.725126,-1.86461 c 0.252343,-0.13504 0.254867,-0.27066 0.0075,-0.40305 -0.1372468,-0.0734 -0.2481488,-0.0628 -0.3845498,0.0369 -0.16266,0.11894 -0.170745,0.16538 -0.05342,0.30675 0.163292,0.19676 0.171603,0.19791 0.4304698,0.0594 z m -6.5588528,0.3466 c -0.0997,-0.026 -0.18128,-0.0906 -0.18128,-0.14337 0,-0.13458 0.399348,-0.10596 0.828718,0.0594 l 0.362563,0.13963 -0.414362,-0.004 c -0.227893,-0.002 -0.495932,-0.0255 -0.595639,-0.0515 z m 3.703328,-0.0322 c 0.287798,-0.12367 0.490793,-0.12367 0.414362,0 -0.0352,0.057 -0.189464,0.10031 -0.342782,0.0963 -0.248908,-0.007 -0.256574,-0.0168 -0.07158,-0.0963 z m -2.944762,-1.42206 c -0.175069,-0.21239 -0.318307,-0.42217 -0.318307,-0.46616 0,-0.16993 0.267899,-0.0687 0.405273,0.15309 0.07938,0.12819 0.212498,0.33796 0.295803,0.46616 0.247613,0.38103 -0.03602,0.26759 -0.382769,-0.15309 z m 2.47861,0.35263 c 0,-0.14509 0.522293,-0.89877 0.62284,-0.89877 0.208935,0 0.0914,0.28068 -0.260276,0.62154 -0.199408,0.19327 -0.362564,0.31803 -0.362564,0.27723 z m -1.129157,-0.39378 c -0.0057,-0.14955 -0.03946,-0.41759 -0.07507,-0.59563 -0.05127,-0.25632 -0.02971,-0.32372 0.103588,-0.32372 0.184846,0 0.216649,0.45798 0.06475,0.93231 l -0.08294,0.25897 -0.01035,-0.27193 z"
       id="path267-8"
       inkscape:connector-curvature="0"
       sodipodi:nodetypes="csccsccccscccssccsccsssccccccscsccccccccccscccscccscccscscccssscscssscssccscccccccccscccsccccccscccsccccscsccccccccccccsscccccsccscccccccscccccccsccccsccccccccsccccccccccscccsscsccscccc" />
  </g>
</svg>
