<?xml version="1.0" encoding="UTF-8" standalone="no"?>
<!-- Created with Inkscape (http://www.inkscape.org/) -->

<svg
   xmlns:dc="http://purl.org/dc/elements/1.1/"
   xmlns:cc="http://creativecommons.org/ns#"
   xmlns:rdf="http://www.w3.org/1999/02/22-rdf-syntax-ns#"
   xmlns:svg="http://www.w3.org/2000/svg"
   xmlns="http://www.w3.org/2000/svg"
   xmlns:inkscape="http://www.inkscape.org/namespaces/inkscape"
   version="1.1"
   width="13.825"
   height="13.825"
   id="svg2"
   xml:space="preserve"><metadata
     id="metadata8"><rdf:RDF><cc:Work
         rdf:about=""><dc:format>image/svg+xml</dc:format><dc:type
           rdf:resource="http://purl.org/dc/dcmitype/StillImage" /></cc:Work></rdf:RDF></metadata><defs
     id="defs6"><clipPath
       id="clipPath18"><path
         d="m 0,0 110.551,0 0,110.551 -110.551,0"
         inkscape:connector-curvature="0"
         id="path20" /></clipPath></defs><g
     transform="matrix(1.25,0,0,-1.25,0,13.825)"
     id="g10"><g
       transform="scale(0.1,0.1)"
       id="g12"><g
         id="g14"><g
           clip-path="url(#clipPath18)"
           id="g16"><path
             d="m 16.4414,46.2031 31.1797,19.2774 7.6562,28.6289 7.9336,-28.3438 31.1836,-20.6953 -30.6133,5.9531 -5.1054,-29.4804 7.0898,-4.8203 -20.9765,0 7.0859,5.1054 -4.8203,29.1953 -30.6133,-4.8203 31.1797,19.2774"
             inkscape:connector-curvature="0"
             id="path22"
             style="fill:none;stroke:#ed1c24;stroke-width:1.13385999;stroke-linecap:butt;stroke-linejoin:miter;stroke-miterlimit:10;stroke-opacity:1;stroke-dasharray:none" /><path
             d="m 16.4414,46.2031 31.1797,19.2774 7.6562,28.6289 7.9336,-28.3438 31.1836,-20.6953 -30.6133,5.9531 -5.1054,-29.4804 7.0898,-4.8203 -20.9765,0 7.0859,5.1054 -4.8203,29.1953 -30.6133,-4.8203"
             inkscape:connector-curvature="0"
             id="path24"
             style="fill:#ed1c24;fill-opacity:1;fill-rule:evenodd;stroke:none" /></g></g></g></g></svg>