<?xml version="1.0" encoding="UTF-8" standalone="no"?>
<!-- Created with Inkscape (http://www.inkscape.org/) -->

<svg
   xmlns:dc="http://purl.org/dc/elements/1.1/"
   xmlns:cc="http://creativecommons.org/ns#"
   xmlns:rdf="http://www.w3.org/1999/02/22-rdf-syntax-ns#"
   xmlns:svg="http://www.w3.org/2000/svg"
   xmlns="http://www.w3.org/2000/svg"
   xmlns:inkscape="http://www.inkscape.org/namespaces/inkscape"
   version="1.1"
   width="14.175"
   height="14.175"
   id="svg2"
   xml:space="preserve"><metadata
     id="metadata8"><rdf:RDF><cc:Work
         rdf:about=""><dc:format>image/svg+xml</dc:format><dc:type
           rdf:resource="http://purl.org/dc/dcmitype/StillImage" /></cc:Work></rdf:RDF></metadata><defs
     id="defs6" /><g
     transform="matrix(1.25,0,0,-1.25,0,14.175)"
     id="g10"><g
       transform="scale(0.1,0.1)"
       id="g12"><path
         d="m 20.125,47.0547 30.0469,19.2773 6.8047,25.5118 7.0859,-25.2305 27.7813,-18.4258 -27.2149,5.3867 -4.5351,-26.3633 6.2382,-4.25 -18.7109,0 6.2383,4.5352 -4.2539,26.0781 -29.7617,-6.5195"
         inkscape:connector-curvature="0"
         id="path14"
         style="fill:none;stroke:#231f20;stroke-width:1.13385999;stroke-linecap:butt;stroke-linejoin:miter;stroke-miterlimit:10;stroke-opacity:1;stroke-dasharray:none" /><path
         d="m 97.2266,56.6914 c 0,22.3867 -18.1485,40.5352 -40.5352,40.5352 -22.3867,0 -40.5352,-18.1485 -40.5352,-40.5352 0,-22.3867 18.1485,-40.5352 40.5352,-40.5352 22.3867,0 40.5352,18.1485 40.5352,40.5352 z"
         inkscape:connector-curvature="0"
         id="path16"
         style="fill:none;stroke:#231f20;stroke-width:3.68504;stroke-linecap:butt;stroke-linejoin:bevel;stroke-miterlimit:10;stroke-opacity:1;stroke-dasharray:none" /><path
         d="m 20.125,47.0547 30.0469,19.2773 6.8047,25.5118 7.0859,-25.2305 27.7813,-18.4258 -27.2149,5.3867 -4.5351,-26.3633 6.2382,-4.25 -18.7109,0 6.2383,4.5352 -4.2539,26.0781 -29.7617,-6.5195"
         inkscape:connector-curvature="0"
         id="path18"
         style="fill:#231f20;fill-opacity:1;fill-rule:evenodd;stroke:none" /></g></g></svg>