<?xml version="1.0" encoding="UTF-8" standalone="no"?>
<!-- Created with Inkscape (http://www.inkscape.org/) -->

<svg
   xmlns:dc="http://purl.org/dc/elements/1.1/"
   xmlns:cc="http://creativecommons.org/ns#"
   xmlns:rdf="http://www.w3.org/1999/02/22-rdf-syntax-ns#"
   xmlns:svg="http://www.w3.org/2000/svg"
   xmlns="http://www.w3.org/2000/svg"
   xmlns:inkscape="http://www.inkscape.org/namespaces/inkscape"
   version="1.1"
   width="12.6125"
   height="12.6125"
   id="svg2"
   xml:space="preserve"><metadata
     id="metadata8"><rdf:RDF><cc:Work
         rdf:about=""><dc:format>image/svg+xml</dc:format><dc:type
           rdf:resource="http://purl.org/dc/dcmitype/StillImage" /></cc:Work></rdf:RDF></metadata><defs
     id="defs6"><clipPath
       id="clipPath18"><path
         d="m 0,0 100.914,0 0,100.914 -100.914,0"
         inkscape:connector-curvature="0"
         id="path20" /></clipPath></defs><g
     transform="matrix(1.25,0,0,-1.25,0,12.6125)"
     id="g10"><g
       transform="scale(0.1,0.1)"
       id="g12"><g
         id="g14"><g
           clip-path="url(#clipPath18)"
           id="g16"><path
             d="M 26.9297,37.9844 C 29.1953,34.3008 38.5508,18.1406 51.0234,18.1406 62.0781,18.1406 72,33.1641 74.5508,37.9844"
             inkscape:connector-curvature="0"
             id="path22"
             style="fill:none;stroke:#231f20;stroke-width:3.68504;stroke-linecap:butt;stroke-linejoin:bevel;stroke-miterlimit:10;stroke-opacity:1;stroke-dasharray:none" /><path
             d="m 50.7383,16.1562 0,56.6954"
             inkscape:connector-curvature="0"
             id="path24"
             style="fill:none;stroke:#231f20;stroke-width:3.68504;stroke-linecap:butt;stroke-linejoin:bevel;stroke-miterlimit:10;stroke-opacity:1;stroke-dasharray:none" /><path
             d="m 39.4023,56.9766 22.6758,0"
             inkscape:connector-curvature="0"
             id="path26"
             style="fill:none;stroke:#231f20;stroke-width:3.68504;stroke-linecap:butt;stroke-linejoin:bevel;stroke-miterlimit:10;stroke-opacity:1;stroke-dasharray:none" /><path
             d="m 55.8438,79.6523 c 0,2.8165 -2.2891,5.1055 -5.1055,5.1055 -2.8164,0 -5.1016,-2.289 -5.1016,-5.1055 0,-2.8164 2.2852,-5.1015 5.1016,-5.1015 2.8164,0 5.1055,2.2851 5.1055,5.1015 z"
             inkscape:connector-curvature="0"
             id="path28"
             style="fill:none;stroke:#231f20;stroke-width:3.68504;stroke-linecap:butt;stroke-linejoin:bevel;stroke-miterlimit:10;stroke-opacity:1;stroke-dasharray:none" /><path
             d="m 63.7812,37.9844 13.8868,9.3554 3.1211,-14.457 -5.9532,5.9531 -11.0547,-0.8515 13.8868,9.3554"
             inkscape:connector-curvature="0"
             id="path30"
             style="fill:none;stroke:#231f20;stroke-width:1.41732001;stroke-linecap:butt;stroke-linejoin:miter;stroke-miterlimit:10;stroke-opacity:1;stroke-dasharray:none" /><path
             d="m 22.3945,46.4883 15.5899,-9.3555 -11.6211,1.418 -5.9531,-6.2344 1.9843,14.1719 15.5899,-9.3555"
             inkscape:connector-curvature="0"
             id="path32"
             style="fill:none;stroke:#231f20;stroke-width:1.41732001;stroke-linecap:butt;stroke-linejoin:miter;stroke-miterlimit:10;stroke-opacity:1;stroke-dasharray:none" /><path
             d="m 63.7812,37.9844 13.8868,9.3554 3.1211,-14.457 -5.9532,5.9531 -11.0547,-0.8515"
             inkscape:connector-curvature="0"
             id="path34"
             style="fill:#231f20;fill-opacity:1;fill-rule:evenodd;stroke:none" /><path
             d="m 22.3945,46.4883 15.5899,-9.3555 -11.6211,1.418 -5.9531,-6.2344 1.9843,14.1719"
             inkscape:connector-curvature="0"
             id="path36"
             style="fill:#231f20;fill-opacity:1;fill-rule:evenodd;stroke:none" /></g></g></g></g></svg>