<?xml version="1.0" encoding="UTF-8" standalone="no"?>
<!-- Created with Inkscape (http://www.inkscape.org/) -->

<svg
   xmlns:dc="http://purl.org/dc/elements/1.1/"
   xmlns:cc="http://creativecommons.org/ns#"
   xmlns:rdf="http://www.w3.org/1999/02/22-rdf-syntax-ns#"
   xmlns:svg="http://www.w3.org/2000/svg"
   xmlns="http://www.w3.org/2000/svg"
   xmlns:inkscape="http://www.inkscape.org/namespaces/inkscape"
   version="1.1"
   width="23.887501"
   height="23.887501"
   id="svg2"
   xml:space="preserve"><metadata
     id="metadata8"><rdf:RDF><cc:Work
         rdf:about=""><dc:format>image/svg+xml</dc:format><dc:type
           rdf:resource="http://purl.org/dc/dcmitype/StillImage" /></cc:Work></rdf:RDF></metadata><defs
     id="defs6" /><g
     transform="matrix(1.25,0,0,-1.25,0,23.8875)"
     id="g10"><g
       transform="scale(0.1,0.1)"
       id="g12"><path
         d="m 88.4414,112.82 14.1716,0"
         inkscape:connector-curvature="0"
         id="path14"
         style="fill:none;stroke:#ed1c24;stroke-width:3.68504;stroke-linecap:butt;stroke-linejoin:bevel;stroke-miterlimit:10;stroke-opacity:1;stroke-dasharray:none" /><path
         d="m 102.047,136.629 c 0,3.598 -2.922,6.519 -6.5197,6.519 -3.5976,0 -6.5195,-2.921 -6.5195,-6.519 0,-3.598 2.9219,-6.52 6.5195,-6.52 3.5977,0 6.5197,2.922 6.5197,6.52 z"
         inkscape:connector-curvature="0"
         id="path16"
         style="fill:none;stroke:#ed1c24;stroke-width:3.68504;stroke-linecap:butt;stroke-linejoin:bevel;stroke-miterlimit:10;stroke-opacity:1;stroke-dasharray:none" /><path
         d="m 111.969,77.9531 c 4.535,1.418 4.82,1.418 7.652,3.4024 4.82,3.1172 4.82,7.3672 5.102,5.3828 0.57,-3.3985 1.418,-4.5352 2.554,-6.5195 2.266,-3.3985 9.918,-8.2188 6.52,-6.5196 -4.254,1.418 -6.238,3.4024 -10.774,3.9688 -4.25,0.2851 -6.519,0.2851 -11.054,0.2851"
         inkscape:connector-curvature="0"
         id="path18"
         style="fill:#ed1c24;fill-opacity:1;fill-rule:evenodd;stroke:none" /><path
         d="m 56.9766,72.8516 c 2.5507,1.9843 3.6836,2.2656 5.3867,4.25 0.8476,1.4179 2.2656,2.5507 3.4023,7.3711 0,2.5507 -0.8515,3.6835 0.2813,2.5507 0.8515,-2.2656 3.4023,-4.5351 6.2383,-6.2343 5.3828,-3.4024 14.4531,-5.9532 7.9336,-3.9688 -9.3516,2.2656 -10.4883,2.2656 -15.5899,-0.5664 -2.2656,-1.1367 -5.1016,-2.2695 -7.6523,-3.4023"
         inkscape:connector-curvature="0"
         id="path20"
         style="fill:#ed1c24;fill-opacity:1;fill-rule:evenodd;stroke:none" /><path
         d="m 68.3164,80.2188 c 2.5508,-3.6836 13.3203,-18.4219 27.4961,-18.4219 12.4725,0 23.8085,13.8867 26.9255,18.4219"
         inkscape:connector-curvature="0"
         id="path22"
         style="fill:none;stroke:#ed1c24;stroke-width:3.68504;stroke-linecap:butt;stroke-linejoin:bevel;stroke-miterlimit:10;stroke-opacity:1;stroke-dasharray:none" /><path
         d="m 95.5273,63.2109 0,66.6171"
         inkscape:connector-curvature="0"
         id="path24"
         style="fill:none;stroke:#ed1c24;stroke-width:3.68504;stroke-linecap:butt;stroke-linejoin:bevel;stroke-miterlimit:10;stroke-opacity:1;stroke-dasharray:none" /><path
         d="m 95.5273,145.133 c 8.2187,10.207 13.0387,13.89 20.9767,16.441 5.101,3.117 21.828,1.703 15.59,3.117 -10.77,0.571 -7.653,0.286 -15.875,-0.847 -5.383,-1.985 -12.473,-4.535 -20.6917,-18.711"
         inkscape:connector-curvature="0"
         id="path26"
         style="fill:#ed1c24;fill-opacity:1;fill-rule:evenodd;stroke:none" /><path
         d="m 95.2422,145.418 c -2.2656,3.402 -10.4844,15.59 -20.125,18.141 -4.5352,1.984 -21.2578,1.418 -14.7383,0.851 6.8008,-0.851 12.7539,-0.851 17.0078,-3.687 7.3711,-4.817 13.3203,-10.77 17.8555,-15.871"
         inkscape:connector-curvature="0"
         id="path28"
         style="fill:#ed1c24;fill-opacity:1;fill-rule:evenodd;stroke:none" /><path
         d="m 95.5273,145.133 c 8.2187,10.207 13.0387,13.89 20.9767,16.441 5.101,3.117 21.828,1.703 15.59,3.117 -10.77,0.571 -7.653,0.286 -15.875,-0.847 -5.383,-1.985 -12.473,-4.535 -20.6917,-18.711 8.2187,10.207 13.0387,13.89 20.9767,16.441"
         inkscape:connector-curvature="0"
         id="path30"
         style="fill:none;stroke:#ed1c24;stroke-width:0.56692898;stroke-linecap:butt;stroke-linejoin:bevel;stroke-miterlimit:10;stroke-opacity:1;stroke-dasharray:none" /><path
         d="m 95.2422,145.418 c -2.2656,3.402 -10.4844,15.59 -20.125,18.141 -4.5352,1.984 -21.2578,1.418 -14.7383,0.851 6.8008,-0.851 12.7539,-0.851 17.0078,-3.687 7.3711,-4.817 13.3203,-10.77 17.8555,-15.871"
         inkscape:connector-curvature="0"
         id="path32"
         style="fill:none;stroke:#ed1c24;stroke-width:0.56692898;stroke-linecap:butt;stroke-linejoin:bevel;stroke-miterlimit:10;stroke-opacity:1;stroke-dasharray:none" /></g></g></svg>