<?xml version="1.0" encoding="UTF-8" standalone="no"?>
<!-- Created with Inkscape (http://www.inkscape.org/) -->

<svg
   xmlns:dc="http://purl.org/dc/elements/1.1/"
   xmlns:cc="http://creativecommons.org/ns#"
   xmlns:rdf="http://www.w3.org/1999/02/22-rdf-syntax-ns#"
   xmlns:svg="http://www.w3.org/2000/svg"
   xmlns="http://www.w3.org/2000/svg"
   xmlns:inkscape="http://www.inkscape.org/namespaces/inkscape"
   version="1.1"
   width="14.8875"
   height="14.8875"
   id="svg2"
   xml:space="preserve"><metadata
     id="metadata8"><rdf:RDF><cc:Work
         rdf:about=""><dc:format>image/svg+xml</dc:format><dc:type
           rdf:resource="http://purl.org/dc/dcmitype/StillImage" /></cc:Work></rdf:RDF></metadata><defs
     id="defs6" /><g
     transform="matrix(1.25,0,0,-1.25,0,14.8875)"
     id="g10"><g
       transform="scale(0.1,0.1)"
       id="g12"><path
         d="m 101.195,59.5273 c 0,23.0118 -18.6559,41.6677 -41.6677,41.6677 -23.0117,0 -41.6679,-18.6559 -41.6679,-41.6677 0,-23.0117 18.6562,-41.6679 41.6679,-41.6679 23.0118,0 41.6677,18.6562 41.6677,41.6679"
         inkscape:connector-curvature="0"
         id="path14"
         style="fill:#ffffff;fill-opacity:1;fill-rule:evenodd;stroke:none" /><path
         d="m 102.898,59.5273 c 0,23.9493 -19.4214,43.3707 -43.3707,43.3707 -23.9492,0 -43.3711,-19.4214 -43.3711,-43.3707 0,-23.9492 19.4219,-43.3711 43.3711,-43.3711 23.9493,0 43.3707,19.4219 43.3707,43.3711 z"
         inkscape:connector-curvature="0"
         id="path16"
         style="fill:none;stroke:#231f20;stroke-width:3.68504;stroke-linecap:butt;stroke-linejoin:bevel;stroke-miterlimit:10;stroke-opacity:1;stroke-dasharray:none" /></g></g></svg>