<?xml version="1.0" encoding="UTF-8" standalone="no"?>
<!-- Created with Inkscape (http://www.inkscape.org/) -->

<svg
   xmlns:dc="http://purl.org/dc/elements/1.1/"
   xmlns:cc="http://creativecommons.org/ns#"
   xmlns:rdf="http://www.w3.org/1999/02/22-rdf-syntax-ns#"
   xmlns:svg="http://www.w3.org/2000/svg"
   xmlns="http://www.w3.org/2000/svg"
   xmlns:inkscape="http://www.inkscape.org/namespaces/inkscape"
   version="1.1"
   width="19.987499"
   height="19.987499"
   id="svg2"
   xml:space="preserve"><metadata
     id="metadata8"><rdf:RDF><cc:Work
         rdf:about=""><dc:format>image/svg+xml</dc:format><dc:type
           rdf:resource="http://purl.org/dc/dcmitype/StillImage" /></cc:Work></rdf:RDF></metadata><defs
     id="defs6"><clipPath
       id="clipPath18"><path
         d="m 0,0 159.875,0 0,159.875 -159.875,0"
         inkscape:connector-curvature="0"
         id="path20" /></clipPath></defs><g
     transform="matrix(1.25,0,0,-1.25,0,19.9875)"
     id="g10"><g
       transform="scale(0.1,0.1)"
       id="g12"><g
         id="g14"><g
           clip-path="url(#clipPath18)"
           id="g16"><path
             d="M 104.598,39.1172 C 94.1094,42.5195 83.6211,37.9844 79.0859,31.7461 68.0312,41.9531 62.9297,40.5352 53.293,39.1172 42.8047,35.4336 26.9297,47.3398 35.4336,64.3477 c 12.7539,16.4414 7.9375,36.2813 2.2656,43.9373 l 11.3399,13.32 c 10.4882,-6.8 22.3945,-2.832 30.0468,6.239 9.9219,-10.489 19.8438,-11.906 30.8981,-6.805 L 120.758,108 c -9.922,-17.8594 -4.82,-34.0156 1.414,-43.0859 11.055,-16.1563 -6.234,-30.6133 -17.856,-25.7969"
             inkscape:connector-curvature="0"
             id="path22"
             style="fill:#ffffff;fill-opacity:1;fill-rule:evenodd;stroke:none" /><path
             d="M 105.164,37.6992 C 93.8281,41.3867 83.3398,36.5664 79.3711,30.332 68.0312,40.8203 62.6445,39.4023 52.7227,37.9844 41.668,34.0156 25.2266,46.4883 34.0156,63.7812 c 13.3242,17.2891 8.2188,37.4138 2.2696,45.3518 l 11.9023,13.605 c 10.4883,-6.8 23.5273,-2.832 31.1836,6.524 9.3516,-10.774 19.8398,-12.192 31.1799,-7.09 l 11.34,-13.32 c -10.207,-18.7114 -5.102,-34.8676 1.418,-44.2231 11.336,-16.4414 -6.52,-31.7461 -18.426,-26.6445"
             inkscape:connector-curvature="0"
             id="path24"
             style="fill:none;stroke:#231f20;stroke-width:3.68504;stroke-linecap:butt;stroke-linejoin:miter;stroke-miterlimit:10;stroke-opacity:1;stroke-dasharray:none" /></g></g></g></g></svg>