<?xml version="1.0" encoding="UTF-8" standalone="no"?>
<!-- Created with Inkscape (http://www.inkscape.org/) -->

<svg
   xmlns:dc="http://purl.org/dc/elements/1.1/"
   xmlns:cc="http://creativecommons.org/ns#"
   xmlns:rdf="http://www.w3.org/1999/02/22-rdf-syntax-ns#"
   xmlns:svg="http://www.w3.org/2000/svg"
   xmlns="http://www.w3.org/2000/svg"
   xmlns:inkscape="http://www.inkscape.org/namespaces/inkscape"
   version="1.1"
   width="10.0625"
   height="10.0625"
   id="svg2"
   xml:space="preserve"><metadata
     id="metadata8"><rdf:RDF><cc:Work
         rdf:about=""><dc:format>image/svg+xml</dc:format><dc:type
           rdf:resource="http://purl.org/dc/dcmitype/StillImage" /></cc:Work></rdf:RDF></metadata><defs
     id="defs6"><clipPath
       id="clipPath18"><path
         d="m 0,0 80.5039,0 0,80.5039 -80.5039,0"
         inkscape:connector-curvature="0"
         id="path20" /></clipPath></defs><g
     transform="matrix(1.25,0,0,-1.25,0,10.0625)"
     id="g10"><g
       transform="scale(0.1,0.1)"
       id="g12"><g
         id="g14"><g
           clip-path="url(#clipPath18)"
           id="g16"><path
             d="m 58.3945,38.8359 c 1.1328,7.6524 -6.5195,22.6758 -17.8593,22.6758 -12.1875,0 -19.2735,-15.5898 -18.1407,-22.3945 l 0,-13.8906 36,0 0,13.6093 c 1.1328,7.6524 -6.5195,22.6758 -17.8593,22.6758"
             inkscape:connector-curvature="0"
             id="path22"
             style="fill:none;stroke:#231f20;stroke-width:3.68504;stroke-linecap:butt;stroke-linejoin:miter;stroke-miterlimit:10;stroke-opacity:1;stroke-dasharray:none" /><path
             d="m 47.9062,43.3711 5.9532,-15.0234 -3.4024,0 -3.9687,9.9218 -12.4727,0 -3.6836,-9.9218 -3.6875,0 5.9532,15.0234 3.9687,0 -0.8516,-1.9844 9.6407,0 -0.5664,1.9844"
             inkscape:connector-curvature="0"
             id="path24"
             style="fill:#231f20;fill-opacity:1;fill-rule:evenodd;stroke:none" /><path
             d="m 32.5977,43.3711 5.9531,15.0234 3.4023,0 5.9531,-15.0234 -3.4023,0 -4.25,11.3359 -3.9687,-11.3359"
             inkscape:connector-curvature="0"
             id="path26"
             style="fill:#231f20;fill-opacity:1;fill-rule:evenodd;stroke:none" /></g></g></g></g></svg>