<?xml version="1.0" encoding="UTF-8" standalone="no"?>
<!-- Created with Inkscape (http://www.inkscape.org/) -->

<svg
   xmlns:dc="http://purl.org/dc/elements/1.1/"
   xmlns:cc="http://creativecommons.org/ns#"
   xmlns:rdf="http://www.w3.org/1999/02/22-rdf-syntax-ns#"
   xmlns:svg="http://www.w3.org/2000/svg"
   xmlns="http://www.w3.org/2000/svg"
   xmlns:inkscape="http://www.inkscape.org/namespaces/inkscape"
   version="1.1"
   width="12.4"
   height="12.4"
   id="svg2"
   xml:space="preserve"><metadata
     id="metadata8"><rdf:RDF><cc:Work
         rdf:about=""><dc:format>image/svg+xml</dc:format><dc:type
           rdf:resource="http://purl.org/dc/dcmitype/StillImage" /></cc:Work></rdf:RDF></metadata><defs
     id="defs6" /><g
     transform="matrix(1.25,0,0,-1.25,0,12.4)"
     id="g10"><g
       transform="scale(0.1,0.1)"
       id="g12"><path
         d="M 32.8828,67.1797 72.2852,26.3633"
         inkscape:connector-curvature="0"
         id="path14"
         style="fill:none;stroke:#231f20;stroke-width:3.68504;stroke-linecap:butt;stroke-linejoin:bevel;stroke-miterlimit:10;stroke-opacity:1;stroke-dasharray:none" /><path
         d="M 66.6133,70.0156 30.8984,26.3633"
         inkscape:connector-curvature="0"
         id="path16"
         style="fill:none;stroke:#231f20;stroke-width:3.68504;stroke-linecap:butt;stroke-linejoin:bevel;stroke-miterlimit:10;stroke-opacity:1;stroke-dasharray:none" /><path
         d="M 52.1562,81.9219 C 56.125,78.5195 60.3789,77.1016 64.3477,72 c 0.8476,-1.6992 0.8476,-1.418 3.6835,-3.9688 3.6836,-4.25 2.836,-1.6992 11.6211,-12.1874 2.836,-3.9688 -2.5507,9.3515 -5.3828,13.039 -2.8359,3.1172 -5.6718,7.086 -9.3554,9.6367 -3.9688,1.6993 -8.7891,2.836 -12.7579,3.4024"
         inkscape:connector-curvature="0"
         id="path18"
         style="fill:#231f20;fill-opacity:1;fill-rule:evenodd;stroke:none" /><path
         d="m 23.8125,56.125 17.2891,19.8438 -6.5196,5.6679 -11.6211,-13.3203 0,-7.6562"
         inkscape:connector-curvature="0"
         id="path20"
         style="fill:#231f20;fill-opacity:1;fill-rule:evenodd;stroke:none" /></g></g></svg>