<?xml version="1.0" encoding="UTF-8" standalone="no"?>
<!-- Created with Inkscape (http://www.inkscape.org/) -->

<svg
   xmlns:dc="http://purl.org/dc/elements/1.1/"
   xmlns:cc="http://creativecommons.org/ns#"
   xmlns:rdf="http://www.w3.org/1999/02/22-rdf-syntax-ns#"
   xmlns:svg="http://www.w3.org/2000/svg"
   xmlns="http://www.w3.org/2000/svg"
   xmlns:inkscape="http://www.inkscape.org/namespaces/inkscape"
   version="1.1"
   width="43.162498"
   height="43.162498"
   id="svg2"
   xml:space="preserve"><metadata
     id="metadata8"><rdf:RDF><cc:Work
         rdf:about=""><dc:format>image/svg+xml</dc:format><dc:type
           rdf:resource="http://purl.org/dc/dcmitype/StillImage" /></cc:Work></rdf:RDF></metadata><defs
     id="defs6" /><g
     transform="matrix(1.25,0,0,-1.25,0,43.1625)"
     id="g10"><g
       transform="scale(0.1,0.1)"
       id="g12"><path
         d="M 172.629,202.961 150.52,307.559 194.738,306.992 172.629,202.961"
         inkscape:connector-curvature="0"
         id="path14"
         style="fill:#231f20;fill-opacity:1;fill-rule:evenodd;stroke:none" /><path
         d="m 171.781,331.086 c -11.906,-0.852 -22.394,-9.356 -21.547,-21.258 1.137,-17.859 43.657,-15.875 45.075,0 0.281,11.902 -11.625,20.977 -23.528,21.258"
         inkscape:connector-curvature="0"
         id="path16"
         style="fill:#231f20;fill-opacity:1;fill-rule:evenodd;stroke:none" /><path
         d="m 179.715,172.629 c 0,3.91 -3.176,7.086 -7.086,7.086 -3.91,0 -7.086,-3.176 -7.086,-7.086 0,-3.91 3.176,-7.086 7.086,-7.086 3.91,0 7.086,3.176 7.086,7.086"
         inkscape:connector-curvature="0"
         id="path18"
         style="fill:#231f20;fill-opacity:1;fill-rule:evenodd;stroke:none" /><path
         d="m 147.684,149.387 49.609,0"
         inkscape:connector-curvature="0"
         id="path20"
         style="fill:none;stroke:#231f20;stroke-width:3.68504;stroke-linecap:butt;stroke-linejoin:bevel;stroke-miterlimit:10;stroke-opacity:1;stroke-dasharray:none" /><path
         d="m 149.387,197.293 0,-49.609"
         inkscape:connector-curvature="0"
         id="path22"
         style="fill:none;stroke:#231f20;stroke-width:3.68504;stroke-linecap:butt;stroke-linejoin:bevel;stroke-miterlimit:10;stroke-opacity:1;stroke-dasharray:none" /><path
         d="m 195.59,197.293 0,-49.609"
         inkscape:connector-curvature="0"
         id="path24"
         style="fill:none;stroke:#231f20;stroke-width:3.68504;stroke-linecap:butt;stroke-linejoin:bevel;stroke-miterlimit:10;stroke-opacity:1;stroke-dasharray:none" /><path
         d="m 147.684,195.59 49.609,0"
         inkscape:connector-curvature="0"
         id="path26"
         style="fill:none;stroke:#231f20;stroke-width:3.68504;stroke-linecap:butt;stroke-linejoin:bevel;stroke-miterlimit:10;stroke-opacity:1;stroke-dasharray:none" /></g></g></svg>