<?xml version="1.0" encoding="UTF-8" standalone="no"?>
<!-- Created with Inkscape (http://www.inkscape.org/) -->

<svg
   xmlns:dc="http://purl.org/dc/elements/1.1/"
   xmlns:cc="http://creativecommons.org/ns#"
   xmlns:rdf="http://www.w3.org/1999/02/22-rdf-syntax-ns#"
   xmlns:svg="http://www.w3.org/2000/svg"
   xmlns="http://www.w3.org/2000/svg"
   xmlns:inkscape="http://www.inkscape.org/namespaces/inkscape"
   version="1.1"
   width="13.4625"
   height="13.4625"
   id="svg2"
   xml:space="preserve"><metadata
     id="metadata8"><rdf:RDF><cc:Work
         rdf:about=""><dc:format>image/svg+xml</dc:format><dc:type
           rdf:resource="http://purl.org/dc/dcmitype/StillImage" /></cc:Work></rdf:RDF></metadata><defs
     id="defs6"><clipPath
       id="clipPath18"><path
         d="m 0,0 107.715,0 0,107.715 -107.715,0"
         inkscape:connector-curvature="0"
         id="path20" /></clipPath></defs><g
     transform="matrix(1.25,0,0,-1.25,0,13.4625)"
     id="g10"><g
       transform="scale(0.1,0.1)"
       id="g12"><g
         id="g14"><g
           clip-path="url(#clipPath18)"
           id="g16"><path
             d="m 77.668,83.3398 c -1.9844,-2.8359 -3.3985,-3.9687 -4.8164,-6.8046 -2.836,-5.1016 -4.2539,-7.9375 -8.7891,-10.7696 -2.8359,-1.9844 -6.2344,-3.6875 -7.3711,-5.6718 -2.832,-5.1016 -4.25,-10.2032 -0.8476,-14.4571 3.6835,-4.5351 4.5351,-10.4883 10.2031,-13.6055 5.1015,-2.8359 8.2226,-3.1171 14.1719,-0.5664"
             inkscape:connector-curvature="0"
             id="path22"
             style="fill:none;stroke:#231f20;stroke-width:3.68504;stroke-linecap:butt;stroke-linejoin:miter;stroke-miterlimit:10;stroke-opacity:1;stroke-dasharray:none" /><path
             d="m 73.1328,77.3867 c 2.836,-2.5508 5.3867,-0.5664 6.5195,-5.1015 0.2852,-1.9844 3.9688,-1.7032 5.9532,-1.7032"
             inkscape:connector-curvature="0"
             id="path24"
             style="fill:none;stroke:#231f20;stroke-width:3.68504;stroke-linecap:butt;stroke-linejoin:miter;stroke-miterlimit:10;stroke-opacity:1;stroke-dasharray:none" /><path
             d="m 64.0625,65.4805 c 3.1172,-1.418 7.3711,-0.8516 8.2227,-2.836 1.6992,-3.6836 2.832,-4.5351 7.0859,-3.4023"
             inkscape:connector-curvature="0"
             id="path26"
             style="fill:none;stroke:#231f20;stroke-width:3.68504;stroke-linecap:butt;stroke-linejoin:miter;stroke-miterlimit:10;stroke-opacity:1;stroke-dasharray:none" /><path
             d="m 53.8594,53.8594 c 3.6836,0.2812 6.2344,0.5664 9.0703,-0.5664 3.6836,-0.5703 5.9531,-3.4024 10.4883,-2.2696"
             inkscape:connector-curvature="0"
             id="path28"
             style="fill:none;stroke:#231f20;stroke-width:3.68504;stroke-linecap:butt;stroke-linejoin:miter;stroke-miterlimit:10;stroke-opacity:1;stroke-dasharray:none" /></g></g></g></g></svg>