<?xml version="1.0" encoding="UTF-8" standalone="no"?>
<!-- Created with Inkscape (http://www.inkscape.org/) -->

<svg
   xmlns:dc="http://purl.org/dc/elements/1.1/"
   xmlns:cc="http://creativecommons.org/ns#"
   xmlns:rdf="http://www.w3.org/1999/02/22-rdf-syntax-ns#"
   xmlns:svg="http://www.w3.org/2000/svg"
   xmlns="http://www.w3.org/2000/svg"
   xmlns:inkscape="http://www.inkscape.org/namespaces/inkscape"
   version="1.1"
   width="20.762501"
   height="20.762501"
   id="svg2"
   xml:space="preserve"><metadata
     id="metadata8"><rdf:RDF><cc:Work
         rdf:about=""><dc:format>image/svg+xml</dc:format><dc:type
           rdf:resource="http://purl.org/dc/dcmitype/StillImage" /></cc:Work></rdf:RDF></metadata><defs
     id="defs6" /><g
     transform="matrix(1.25,0,0,-1.25,0,20.7625)"
     id="g10"><g
       transform="scale(0.1,0.1)"
       id="g12"><path
         d="m 83.0547,72.5664 c -0.8516,-4.25 -3.4024,-6.5195 -2.2656,-10.4883 0.8476,-3.4023 2.2656,-5.3867 2.2656,-7.9375 0.2851,-4.8164 0.2851,-7.0859 -0.5664,-11.9062 -1.1328,-4.5352 -2.836,-7.9336 -2.2695,-11.9024 1.4179,-5.3867 1.7031,-8.5039 3.6874,-14.457"
         inkscape:connector-curvature="0"
         id="path14"
         style="fill:none;stroke:#127bca;stroke-width:3.68504;stroke-linecap:butt;stroke-linejoin:bevel;stroke-miterlimit:10;stroke-opacity:1;stroke-dasharray:none" /><path
         d="m 92.4102,83.0547 c 0,5.1641 -4.1914,9.3555 -9.3555,9.3555 -5.1641,0 -9.3555,-4.1914 -9.3555,-9.3555 0,-5.1641 4.1914,-9.3555 9.3555,-9.3555 5.1641,0 9.3555,4.1914 9.3555,9.3555 z"
         inkscape:connector-curvature="0"
         id="path16"
         style="fill:none;stroke:#127bca;stroke-width:3.68504;stroke-linecap:butt;stroke-linejoin:bevel;stroke-miterlimit:10;stroke-opacity:1;stroke-dasharray:none" /></g></g></svg>