<?xml version="1.0" encoding="UTF-8" standalone="no"?>
<!-- Created with Inkscape (http://www.inkscape.org/) -->

<svg
   xmlns:dc="http://purl.org/dc/elements/1.1/"
   xmlns:cc="http://creativecommons.org/ns#"
   xmlns:rdf="http://www.w3.org/1999/02/22-rdf-syntax-ns#"
   xmlns:svg="http://www.w3.org/2000/svg"
   xmlns="http://www.w3.org/2000/svg"
   xmlns:inkscape="http://www.inkscape.org/namespaces/inkscape"
   version="1.1"
   width="15.875"
   height="15.875"
   id="svg2"
   xml:space="preserve"><metadata
     id="metadata8"><rdf:RDF><cc:Work
         rdf:about=""><dc:format>image/svg+xml</dc:format><dc:type
           rdf:resource="http://purl.org/dc/dcmitype/StillImage" /></cc:Work></rdf:RDF></metadata><defs
     id="defs6"><clipPath
       id="clipPath18"><path
         d="m 0,0 126.992,0 0,126.992 -126.992,0"
         inkscape:connector-curvature="0"
         id="path20" /></clipPath></defs><g
     transform="matrix(1.25,0,0,-1.25,0,15.875)"
     id="g10"><g
       transform="scale(0.1,0.1)"
       id="g12"><g
         id="g14"><g
           clip-path="url(#clipPath18)"
           id="g16"><path
             d="m 22.1094,39.6836 c 6.8047,0 12.7578,0 18.9922,0 5.9531,0 14.457,0 20.4101,0"
             inkscape:connector-curvature="0"
             id="path22"
             style="fill:none;stroke:#231f20;stroke-width:3.68504;stroke-linecap:butt;stroke-linejoin:miter;stroke-miterlimit:10;stroke-opacity:1;stroke-dasharray:none" /><path
             d="M 60.9453,40.2539 C 64.9141,68.0312 47.6211,75.9688 42.2344,75.9688"
             inkscape:connector-curvature="0"
             id="path24"
             style="fill:none;stroke:#231f20;stroke-width:3.68504;stroke-linecap:butt;stroke-linejoin:miter;stroke-miterlimit:10;stroke-opacity:1;stroke-dasharray:none" /><path
             d="m 41.668,75.9688 44.5039,11.621"
             inkscape:connector-curvature="0"
             id="path26"
             style="fill:none;stroke:#231f20;stroke-width:3.68504;stroke-linecap:butt;stroke-linejoin:miter;stroke-miterlimit:10;stroke-opacity:1;stroke-dasharray:none" /><path
             d="M 60.6602,39.6836 103.746,53.8594"
             inkscape:connector-curvature="0"
             id="path28"
             style="fill:none;stroke:#231f20;stroke-width:3.68504;stroke-linecap:butt;stroke-linejoin:miter;stroke-miterlimit:10;stroke-opacity:1;stroke-dasharray:none" /><path
             d="M 102.613,52.1562 C 106.582,79.3711 90.707,87.875 85.3242,87.5898"
             inkscape:connector-curvature="0"
             id="path30"
             style="fill:none;stroke:#231f20;stroke-width:3.68504;stroke-linecap:butt;stroke-linejoin:miter;stroke-miterlimit:10;stroke-opacity:1;stroke-dasharray:none" /><path
             d="M 42.2344,75.9688 C 35.4336,75.4023 21.543,68.0312 24.0938,39.4023"
             inkscape:connector-curvature="0"
             id="path32"
             style="fill:none;stroke:#231f20;stroke-width:3.68504;stroke-linecap:butt;stroke-linejoin:miter;stroke-miterlimit:10;stroke-opacity:1;stroke-dasharray:none" /><path
             d="m 44.7891,75.9688 c 5.6679,-5.668 10.2031,-6.2383 13.6054,-13.0391 1.9844,-3.9688 1.418,-19.2774 3.1172,-22.6758 1.6992,-3.4023 32.8828,11.3359 41.6683,14.4531 2.836,1.1368 0.285,15.5938 -2.551,20.6953 C 96.6602,81.6367 93.543,89.8594 86.457,87.875 69.7305,83.0547 51.875,79.0859 44.7891,76.2539"
             inkscape:connector-curvature="0"
             id="path34"
             style="fill:#231f20;fill-opacity:1;fill-rule:evenodd;stroke:none" /></g></g></g></g></svg>