<?xml version="1.0" encoding="UTF-8" standalone="no"?>
<!-- Created with Inkscape (http://www.inkscape.org/) -->

<svg
   xmlns:dc="http://purl.org/dc/elements/1.1/"
   xmlns:cc="http://creativecommons.org/ns#"
   xmlns:rdf="http://www.w3.org/1999/02/22-rdf-syntax-ns#"
   xmlns:svg="http://www.w3.org/2000/svg"
   xmlns="http://www.w3.org/2000/svg"
   xmlns:inkscape="http://www.inkscape.org/namespaces/inkscape"
   version="1.1"
   width="17.2875"
   height="17.2875"
   id="svg2"
   xml:space="preserve"><metadata
     id="metadata8"><rdf:RDF><cc:Work
         rdf:about=""><dc:format>image/svg+xml</dc:format><dc:type
           rdf:resource="http://purl.org/dc/dcmitype/StillImage" /></cc:Work></rdf:RDF></metadata><defs
     id="defs6" /><g
     transform="matrix(1.25,0,0,-1.25,0,17.2875)"
     id="g10"><g
       transform="scale(0.1,0.1)"
       id="g12"><path
         d="m 87.0234,68.8828 c 0,9.7031 -7.8711,17.5742 -17.5742,17.5742 -9.7031,0 -17.5742,-7.8711 -17.5742,-17.5742 0,-9.7031 7.8711,-17.5742 17.5742,-17.5742 9.7031,0 17.5742,7.8711 17.5742,17.5742"
         inkscape:connector-curvature="0"
         id="path14"
         style="fill:#231f20;fill-opacity:1;fill-rule:evenodd;stroke:none" /><path
         d="m 102.047,68.8828 c 0,18 -14.5978,32.5972 -32.5978,32.5972 -18,0 -32.5976,-14.5972 -32.5976,-32.5972 0,-18 14.5976,-32.5976 32.5976,-32.5976 18,0 32.5978,14.5976 32.5978,32.5976 z"
         inkscape:connector-curvature="0"
         id="path16"
         style="fill:none;stroke:#231f20;stroke-width:5.66929007;stroke-linecap:butt;stroke-linejoin:bevel;stroke-miterlimit:10;stroke-opacity:1;stroke-dasharray:none" /><path
         d="M 69.4492,121.324 17.293,69.1641 69.4492,17.0078 121.324,69.1641 69.4492,121.324 17.293,69.1641"
         inkscape:connector-curvature="0"
         id="path18"
         style="fill:none;stroke:#231f20;stroke-width:5.66929007;stroke-linecap:butt;stroke-linejoin:miter;stroke-miterlimit:10;stroke-opacity:1;stroke-dasharray:none" /></g></g></svg>