<?xml version="1.0" encoding="UTF-8" standalone="no"?>
<!-- Created with Inkscape (http://www.inkscape.org/) -->

<svg
   xmlns:a="http://ns.adobe.com/AdobeSVGViewerExtensions/3.0/"
   xmlns:dc="http://purl.org/dc/elements/1.1/"
   xmlns:cc="http://creativecommons.org/ns#"
   xmlns:rdf="http://www.w3.org/1999/02/22-rdf-syntax-ns#"
   xmlns:svg="http://www.w3.org/2000/svg"
   xmlns="http://www.w3.org/2000/svg"
   xmlns:sodipodi="http://sodipodi.sourceforge.net/DTD/sodipodi-0.dtd"
   xmlns:inkscape="http://www.inkscape.org/namespaces/inkscape"
   width="210mm"
   height="297mm"
   viewBox="0 0 210 297"
   version="1.1"
   id="svg8"
   inkscape:version="0.92.2 (5c3e80d, 2017-08-06)"
   sodipodi:docname="mapa_leandro_simbolos.svg">
  <defs
     id="defs2" />
  <sodipodi:namedview
     id="base"
     pagecolor="#ffffff"
     bordercolor="#666666"
     borderopacity="1.0"
     inkscape:pageopacity="0.0"
     inkscape:pageshadow="2"
     inkscape:zoom="0.35"
     inkscape:cx="-247.14286"
     inkscape:cy="560"
     inkscape:document-units="mm"
     inkscape:current-layer="layer1"
     showgrid="false"
     inkscape:window-width="1700"
     inkscape:window-height="881"
     inkscape:window-x="-9"
     inkscape:window-y="186"
     inkscape:window-maximized="1" />
  <metadata
     id="metadata5">
    <rdf:RDF>
      <cc:Work
         rdf:about="">
        <dc:format>image/svg+xml</dc:format>
        <dc:type
           rdf:resource="http://purl.org/dc/dcmitype/StillImage" />
        <dc:title></dc:title>
      </cc:Work>
    </rdf:RDF>
  </metadata>
  <g
     inkscape:label="Camada 1"
     inkscape:groupmode="layer"
     id="layer1">
    <rect
       style="opacity:1;fill:#000000;fill-opacity:1;stroke:#000000;stroke-width:0.61923259;stroke-linecap:round;stroke-linejoin:round;stroke-miterlimit:4;stroke-dasharray:none;stroke-dashoffset:0;stroke-opacity:1"
       id="rect601"
       width="193.14859"
       height="241.52957"
       x="8.1250887"
       y="26.934614" />
    <g
       id="g18648"
       transform="matrix(0.16289642,0,0,0.16478625,255.44889,413.22917)">
      <g
         id="g6094">
        <g
           id="g39671">
          <g
             id="g39408">
            <path
               style="clip-rule:evenodd;fill:none;stroke:#ffffff;stroke-width:1;stroke-miterlimit:4;stroke-dasharray:none"
               inkscape:connector-curvature="0"
               d="m -705.86896,-1956.6956 h -36.82284 c -1.74816,0 -3.16537,1.2923 -3.16537,2.8865 v 67.157 c 0,1.594 1.41721,2.8865 3.16537,2.8865 h 73.6455 c 1.74817,0 3.16537,-1.2925 3.16537,-2.8865 v -67.157 c 0,-1.5942 -1.4172,-2.8865 -3.16537,-2.8865 z"
               id="path3976" />
            <path
               style="clip-rule:evenodd;fill:#ffffff;fill-rule:evenodd;stroke:#ffffff;stroke-width:0.99999994"
               inkscape:connector-curvature="0"
               d="m -710.22174,-1912.7221 c -0.93256,-2.682 -1.70719,-5.1453 -2.3517,-7.5336 -0.65822,-2.3882 -1.54946,-4.8953 -1.53573,-6.6522 0.0206,-1.7693 0.54163,-3.1447 1.61804,-3.8387 1.08325,-0.6878 3.65442,-0.7002 4.77883,-0.3001 1.07641,0.3814 1.30959,1.4943 1.78263,2.5884 0.47306,1.0816 0.81579,2.332 1.05583,3.845 2.85905,-0.1126 5.01871,-0.1374 6.5613,-0.075 1.52888,0.044 2.11166,-0.081 2.59158,0.4439 0.43874,0.5314 0.65135,2.182 0.16476,2.7322 -0.50752,0.5127 -1.69365,0.3565 -3.07849,0.444 -1.3919,0.088 -3.09224,0.1126 -5.18332,0.075 l 1.21357,3.5449 c 1.48088,0.019 2.88648,0.044 4.2919,0.1437 1.39875,0.081 2.87276,0.037 4.05204,0.3751 1.14499,0.325 2.02954,0.4565 2.91373,1.5507 0.88455,1.0752 1.47418,3.2383 2.35188,4.8767 0.87734,1.6129 1.86475,3.1572 2.83142,4.8012 0.92571,1.6445 1.84437,3.245 2.75635,4.9456 2.51629,-0.9692 4.36048,-1.3941 5.58776,-1.3253 1.21358,0.062 1.78282,1.2317 1.7072,1.7692 -0.10288,0.519 -0.78836,0.7378 -2.2694,1.4065 -1.52202,0.663 -3.67482,1.4755 -6.6436,2.5135 -1.8718,-2.6696 -3.70244,-5.3146 -5.59445,-8.0529 -1.8994,-2.7444 -3.75044,-5.4642 -5.66339,-8.2778 -4.64185,-2e-4 -9.2902,-2e-4 -13.93874,-2e-4 z"
               id="path3978" />
          </g>
          <path
             id="path3980"
             d="m -715.59595,-1919.9765 c -2.91373,1.4194 -5.08729,3.3323 -6.6436,5.8394 -1.5426,2.5074 -2.97563,5.8647 -2.59175,9.0844 0.40446,3.2197 1.52906,6.7712 3.9423,9.2033 2.434,2.4134 7.03453,4.7016 10.47635,5.2016 3.45554,0.4753 7.83659,0.044 11.01798,-1.4755 3.17452,-1.5379 5.73866,-4.0324 7.85717,-7.6085 l -2.10481,-3.5388 c -0.88454,2.2635 -2.37227,4.5453 -4.60052,6.2959 -2.24197,1.7321 -4.06574,3.0074 -9.25591,3.301 -4.94326,-0.4437 -7.86403,-2.432 -10.12658,-4.2887 -2.2351,-1.8693 -2.94819,-4.4517 -3.24292,-6.7962 -0.26747,-2.3507 0.48676,-5.2831 1.54259,-7.1651 1.06954,-1.8752 2.63271,-3.1823 4.77867,-3.9886 z"
             inkscape:connector-curvature="0"
             style="clip-rule:evenodd;fill:#ffffff;fill-rule:evenodd;stroke:#ffffff;stroke-width:0.99999994" />
        </g>
        <path
           style="clip-rule:evenodd;fill:#ffffff;fill-rule:evenodd;stroke:#ffffff;stroke-width:0.99999994"
           inkscape:connector-curvature="0"
           d="m -710.67288,-1941.5029 c 2.59244,0 4.69637,1.9185 4.69637,4.2825 0,2.3641 -2.10393,4.2828 -4.69637,4.2828 -2.59245,0 -4.69654,-1.9187 -4.69654,-4.2828 0,-2.3638 2.10392,-4.2825 4.69654,-4.2825"
           id="path3982" />
      </g>
      <g
         id="g5404">
        <path
           id="path3976-4"
           d="m -703.55113,-1584.9544 h -39.77297 c -1.88824,0 -3.41898,1.3911 -3.41898,3.107 v 72.2868 c 0,1.7157 1.53074,3.1069 3.41898,3.1069 h 79.54579 c 1.88823,0 3.41897,-1.3912 3.41897,-3.1069 v -72.2868 c 0,-1.7159 -1.53074,-3.107 -3.41897,-3.107 z"
           inkscape:connector-curvature="0"
           style="clip-rule:evenodd;fill:none;stroke:#ffffff;stroke-width:1;stroke-miterlimit:4;stroke-dasharray:none" />
        <g
           id="g3808"
           transform="matrix(0.13609555,0,0,0.13582627,-830.83827,-1625.6275)"
           style="stroke:#ffffff;stroke-width:23.53618622;stroke-miterlimit:4;stroke-dasharray:none">
          <rect
             ry="8.3590174"
             y="484.07648"
             x="728.57141"
             height="325.71429"
             width="422.85715"
             id="rect3770"
             style="fill:none;stroke:#ffffff;stroke-width:23.53618622;stroke-linejoin:round;stroke-miterlimit:4;stroke-dasharray:none;stroke-dashoffset:0;stroke-opacity:1" />
          <g
             id="g3798"
             style="stroke:#ffffff;stroke-width:23.53618622;stroke-miterlimit:4;stroke-dasharray:none">
            <g
               id="g3786"
               style="stroke:#ffffff;stroke-width:23.53618622;stroke-miterlimit:4;stroke-dasharray:none">
              <path
                 sodipodi:nodetypes="cssc"
                 inkscape:connector-curvature="0"
                 id="path3782"
                 d="m 921.42857,795.21933 c 0,0 -41.42857,7.14285 -75.71428,-42.85715 -34.28572,-50 51.91877,-96.69471 59.99999,-112.85714 10.00001,-20 -4.28571,-58.57143 -4.28571,-58.57143 0,0 92.85714,14.28572 131.42853,124.28572 0,0 31.4286,115.71429 -111.42853,90 z"
                 style="fill:none;stroke:#ffffff;stroke-width:23.53618622;stroke-linecap:butt;stroke-linejoin:miter;stroke-miterlimit:4;stroke-dasharray:none;stroke-opacity:1" />
              <path
                 inkscape:connector-curvature="0"
                 id="path3784"
                 d="m 991.42857,645.21933 c 0,0 -2.85714,44.28571 -55.71428,74.28571 0,0 -24.28572,31.42857 7.14285,70"
                 style="fill:none;stroke:#ffffff;stroke-width:23.53618622;stroke-linecap:butt;stroke-linejoin:miter;stroke-miterlimit:4;stroke-dasharray:none;stroke-opacity:1" />
            </g>
            <g
               id="g3792"
               style="stroke:#ffffff;stroke-width:23.53618622;stroke-miterlimit:4;stroke-dasharray:none">
              <g
                 id="g3778"
                 style="stroke:#ffffff;stroke-width:23.53618622;stroke-miterlimit:4;stroke-dasharray:none">
                <rect
                   style="fill:none;stroke:#ffffff;stroke-width:23.53618622;stroke-linejoin:round;stroke-miterlimit:4;stroke-dasharray:none;stroke-dashoffset:0;stroke-opacity:1"
                   id="rect2998-1"
                   width="465.71429"
                   height="98.571426"
                   x="707.14282"
                   y="385.21933"
                   ry="18.71616" />
                <rect
                   style="fill:none;stroke:#ffffff;stroke-width:23.53618622;stroke-linejoin:round;stroke-miterlimit:4;stroke-dasharray:none;stroke-dashoffset:0;stroke-opacity:1"
                   id="rect3776"
                   width="292.85715"
                   height="272.85715"
                   x="794.28571"
                   y="536.64789"
                   ry="8.3590174" />
              </g>
            </g>
          </g>
        </g>
      </g>
      <g
         id="g5384">
        <path
           style="fill:none;stroke:#ffffff;stroke-width:5.00000048;stroke-linecap:round;stroke-linejoin:round;stroke-miterlimit:4;stroke-dasharray:none;stroke-opacity:1"
           d="m -730.99465,-1372.172 -0.3222,19.2989 h 16.43214 l -0.3222,13.9245"
           id="path3833-2"
           inkscape:connector-curvature="0" />
        <g
           id="g5374">
          <path
             style="clip-rule:evenodd;fill:none;stroke:#ffffff;stroke-width:1;stroke-miterlimit:4;stroke-dasharray:none"
             inkscape:connector-curvature="0"
             d="m -703.41022,-1403.6085 h -39.67382 c -1.88351,0 -3.41044,1.3162 -3.41044,2.9398 v 68.3979 c 0,1.6233 1.52693,2.9398 3.41044,2.9398 h 79.34743 c 1.88353,0 3.41045,-1.3165 3.41045,-2.9398 v -68.3979 c 0,-1.6236 -1.52692,-2.9398 -3.41045,-2.9398 z"
             id="path3976-4-0" />
          <ellipse
             transform="matrix(0.15062028,0,0,0.12747866,-653.11203,-1422.8132)"
             id="path3831-4"
             style="fill:#ffffff;fill-opacity:1;stroke:#ffffff;stroke-width:5.05170012;stroke-linejoin:round;stroke-miterlimit:4;stroke-dasharray:none;stroke-dashoffset:0;stroke-opacity:1"
             cx="-518.20825"
             cy="310.91022"
             rx="35.355339"
             ry="32.324883" />
          <path
             inkscape:connector-curvature="0"
             id="path3835-3"
             d="m -743.65043,-1347.3123 24.34391,-0.2575"
             style="fill:none;stroke:#ffffff;stroke-width:2.50000024;stroke-linecap:butt;stroke-linejoin:miter;stroke-miterlimit:4;stroke-dasharray:none;stroke-opacity:1" />
          <path
             sodipodi:nodetypes="cssssssscc"
             inkscape:connector-curvature="0"
             id="path3837-2"
             d="m -704.00017,-1351.8525 c 0,0 -0.57977,-2.5455 2.04413,-3.7333 2.3131,-1.0471 2.74345,-2.4585 2.52827,-2.9137 -0.21517,-0.4554 -0.60872,-1.822 -3.17378,-3.9154 -3.01241,-2.4587 -0.12854,-4.7145 0.43035,-5.2814 1.41753,-1.4375 2.79723,-1.7301 2.79723,-3.0048 0,-1.2748 -0.21518,-1.548 -2.47448,-3.3691 -2.25931,-1.8211 -3.05565,-5.0047 0.10759,-6.811 4.46481,-2.5496 1.23723,-4.8897 0.10758,-5.8458 0,0 -1.18345,-0.5008 -2.90482,-3.4601"
             style="fill:none;stroke:#ffffff;stroke-width:2.50000024;stroke-linecap:round;stroke-linejoin:miter;stroke-miterlimit:4;stroke-dasharray:none;stroke-opacity:1" />
          <path
             sodipodi:nodetypes="cssssssscc"
             inkscape:connector-curvature="0"
             id="path3837-1"
             d="m -693.19353,-1351.6493 c 0,0 -0.57977,-2.5454 2.04414,-3.7333 2.31309,-1.0472 2.74344,-2.4585 2.52826,-2.9138 -0.21517,-0.4552 -0.60872,-1.8219 -3.17378,-3.9154 -3.01241,-2.4585 -0.12855,-4.7145 0.43035,-5.2812 1.41754,-1.4376 2.79723,-1.7301 2.79723,-3.0049 0,-1.2748 -0.21518,-1.5479 -2.47448,-3.3691 -2.25931,-1.8211 -3.05565,-5.0047 0.10758,-6.811 4.46482,-2.5495 1.23724,-4.8897 0.10759,-5.8458 0,0 -1.18344,-0.5007 -2.90482,-3.4601"
             style="fill:none;stroke:#ffffff;stroke-width:2.50000024;stroke-linecap:round;stroke-linejoin:miter;stroke-miterlimit:4;stroke-dasharray:none;stroke-opacity:1" />
          <path
             sodipodi:nodetypes="cssssssscc"
             inkscape:connector-curvature="0"
             id="path3837-7"
             d="m -682.84737,-1351.9068 c 0,0 -0.57977,-2.5455 2.04414,-3.7333 2.3131,-1.0472 2.74344,-2.4585 2.52826,-2.9138 -0.21516,-0.4553 -0.60872,-1.822 -3.17379,-3.9154 -3.01239,-2.4586 -0.12853,-4.7145 0.43035,-5.2813 1.41755,-1.4375 2.79724,-1.7301 2.79724,-3.0048 0,-1.2748 -0.21518,-1.548 -2.47447,-3.3691 -2.25931,-1.8211 -3.05566,-5.0047 0.10757,-6.811 4.46482,-2.5496 1.23725,-4.8898 0.10759,-5.8458 0,0 -1.18344,-0.5009 -2.90482,-3.4601"
             style="fill:none;stroke:#ffffff;stroke-width:2.50000024;stroke-linecap:round;stroke-linejoin:miter;stroke-miterlimit:4;stroke-dasharray:none;stroke-opacity:1" />
          <path
             inkscape:connector-curvature="0"
             id="path3864"
             d="m -668.63128,-1390.3901 c 0,24.7244 0,24.7244 0,24.7244"
             style="fill:none;stroke:#ffffff;stroke-width:2;stroke-linecap:butt;stroke-linejoin:miter;stroke-miterlimit:4;stroke-dasharray:none;stroke-opacity:1" />
          <circle
             transform="matrix(0.15062028,0,0,0.12747866,-653.11203,-1422.8132)"
             id="path3866-2"
             style="fill:#ffffff;fill-opacity:1;stroke:#ffffff;stroke-width:14.43342972;stroke-linecap:round;stroke-linejoin:round;stroke-miterlimit:4;stroke-dasharray:none;stroke-dashoffset:0;stroke-opacity:1"
             cx="-102.02541"
             cy="451.32141"
             r="16.162441" />
        </g>
      </g>
      <g
         id="g39783">
        <path
           id="path3976-11"
           d="m -703.05391,-1313.0151 h -38.78179 c -1.84117,0 -3.33378,1.407 -3.33378,3.1427 v 73.1172 c 0,1.7355 1.49261,3.1427 3.33378,3.1427 h 77.5634 c 1.84118,0 3.33378,-1.4072 3.33378,-3.1427 v -73.1172 c 0,-1.7357 -1.4926,-3.1427 -3.33378,-3.1427 z"
           inkscape:connector-curvature="0"
           style="clip-rule:evenodd;fill:none;stroke:#ffffff" />
        <g
           id="g39755">
          <g
             style="fill:#ffffff"
             id="g39639">
            <g
               style="overflow:visible;fill:#ffffff"
               id="g4389"
               transform="matrix(0.16494978,0,0,0.15399526,-743.34516,-1310.4411)">
              <g
                 style="fill:#ffffff"
                 id="g3081"
                 transform="matrix(1.0874601,0,0,1.0874577,-4.4090668e-6,-43.728853)">
                <g
                   style="fill:#ffffff"
                   id="g3126"
                   transform="matrix(1.1254643,0,0,1.1254643,-9.4906629,14.579898)">
                  <path
                     style="fill:#ffffff;fill-rule:evenodd;stroke:#ffffff;stroke-width:5.91845942"
                     id="path101"
                     d="m 393.703,414.288 c 0.719,-8.496 0.719,-16.776 0,-25.236 -0.865,-8.532 -1.477,-18.144 -4.609,-25.236 -3.168,-7.199 -6.371,-13.859 -14.328,-17.208 -8.172,-3.275 -24.73,-3.996 -33.84,-2.304 -9.18,1.62 -15.516,4.752 -20.664,12.024 -5.219,7.235 -8.604,17.388 -10.295,30.996 -5.148,3.132 -10.656,4.104 -16.668,3.456 -6.121,-0.9 -14.508,-3.853 -19.477,-8.028 -5.039,-4.212 -8.352,-9.612 -10.332,-16.632 h 36.145 V 350.603 H 151.638 v 14.904 h 79.165 c 1.043,10.296 3.096,19.296 6.299,27.54 3.098,8.244 7.346,15.048 12.602,21.24 47.985,0.001 95.974,0.001 143.999,0.001 z"
                     inkscape:connector-curvature="0" />
                  <path
                     style="fill:#ffffff;fill-rule:evenodd;stroke:#ffffff;stroke-width:5.91845942"
                     id="path103"
                     d="m 352.662,258.216 c 21.363,0 38.701,17.338 38.701,38.7 0,21.362 -17.338,38.7 -38.701,38.7 -21.361,0 -38.699,-17.338 -38.699,-38.7 0,-21.362 17.338,-38.7 38.699,-38.7"
                     inkscape:connector-curvature="0" />
                  <path
                     style="fill:#ffffff;fill-rule:evenodd;stroke:#ffffff;stroke-width:5.91845942"
                     id="path105"
                     d="m 151.638,340.848 c 10.44,-32.04 40.32,-53.748 74.017,-53.748 33.695,0 63.576,21.708 73.98,53.748 z"
                     inkscape:connector-curvature="0" />
                  <path
                     style="fill:#ffffff;fill-rule:evenodd;stroke:#ffffff;stroke-width:5.91845942"
                     id="path107"
                     d="m 214.17,267.443 c -4.572,-6.371 -6.012,-12.203 -4.607,-17.783 1.403,-5.725 4.787,-12.456 13.211,-15.48 8.496,-3.06 25.128,0.756 36.685,-2.304 11.268,-3.097 25.164,-5.76 30.996,-16.056 5.76,-10.512 6.803,-25.488 3.42,-45.9 -0.182,14.94 -6.732,25.236 -20.053,31.572 -13.465,6.156 -44.316,1.404 -59.652,5.724 -15.443,4.284 -26.568,11.952 -31.572,20.088 -4.824,8.028 -3.132,21.276 2.305,28.08 5.291,6.66 14.903,10.727 29.267,12.059 z"
                     inkscape:connector-curvature="0" />
                </g>
                <g
                   style="fill:#ffffff"
                   id="g5358"
                   transform="translate(7.9505629,44.074649)">
                  <path
                     style="fill:#ffffff;fill-opacity:1;fill-rule:evenodd"
                     id="path115"
                     d="m 114.52592,31.206207 h 5.10601 v 15.321885 h -5.10601 z"
                     inkscape:connector-curvature="0" />
                  <path
                     style="fill:#ffffff;fill-opacity:1;fill-rule:evenodd"
                     id="path117"
                     d="m 157.5652,41.374367 -7.61322,13.278966 4.41084,2.553648 7.61323,-13.278967 z"
                     inkscape:connector-curvature="0" />
                  <path
                     style="fill:#ffffff;fill-opacity:1;fill-rule:evenodd"
                     id="path119"
                     d="m 189.78759,71.739556 -13.27897,7.614513 2.55236,4.410845 13.28025,-7.614512 z"
                     inkscape:connector-curvature="0" />
                  <path
                     style="fill:#ffffff;fill-opacity:1;fill-rule:evenodd"
                     id="path121"
                     d="M 202.51068,114.08367 H 187.1888 v 5.1073 h 15.32188 z"
                     inkscape:connector-curvature="0" />
                  <path
                     style="fill:#ffffff;fill-opacity:1;fill-rule:evenodd"
                     id="path123"
                     d="m 192.34252,157.17067 -13.28025,-7.66094 -2.50593,4.41084 13.23254,7.66094 z"
                     inkscape:connector-curvature="0" />
                  <path
                     style="fill:#ffffff;fill-opacity:1;fill-rule:evenodd"
                     id="path125"
                     d="m 161.97605,189.34663 -7.61323,-13.23254 -4.41084,2.55365 7.61322,13.23253 z"
                     inkscape:connector-curvature="0" />
                  <path
                     style="fill:#ffffff;fill-opacity:1;fill-rule:evenodd"
                     id="path127"
                     d="m 119.63193,202.06843 v -15.27545 h -5.10601 v 15.27545 z"
                     inkscape:connector-curvature="0" />
                  <path
                     style="fill:#ffffff;fill-opacity:1;fill-rule:evenodd"
                     id="path129"
                     d="m 76.59265,191.90027 7.614512,-13.23253 -4.410845,-2.55365 -7.662232,13.23254 z"
                     inkscape:connector-curvature="0" />
                  <path
                     style="fill:#ffffff;fill-opacity:1;fill-rule:evenodd"
                     id="path131"
                     d="m 44.368973,161.58151 13.232536,-7.66094 -2.552357,-4.41084 -13.233827,7.66094 z"
                     inkscape:connector-curvature="0" />
                  <path
                     style="fill:#ffffff;fill-opacity:1;fill-rule:evenodd"
                     id="path133"
                     d="M 31.648455,119.19097 H 46.92391 v -5.1073 H 31.648455 Z"
                     inkscape:connector-curvature="0" />
                  <path
                     style="fill:#ffffff;fill-opacity:1;fill-rule:evenodd"
                     id="path135"
                     d="m 41.815325,76.150402 13.233827,7.660942 2.552357,-4.457275 -13.232536,-7.614513 z"
                     inkscape:connector-curvature="0" />
                  <path
                     style="fill:#ffffff;fill-opacity:1;fill-rule:evenodd"
                     id="path137"
                     d="M 72.134085,43.928014 79.795027,57.206981 84.207162,54.653333 76.54622,41.420797 Z"
                     inkscape:connector-curvature="0" />
                  <path
                     style="fill:#ffffff;fill-opacity:1;fill-rule:evenodd;stroke:none"
                     id="path139"
                     d="m 113.55089,145.00602 c -15.461171,0 -30.970066,0 -46.47767,0 0.558449,-4.64299 2.182208,-8.91455 4.828715,-12.95396 2.740657,-4.0394 7.801522,-8.77526 15.182595,-14.30042 4.595275,-3.34296 7.475219,-5.94304 8.730119,-7.70737 1.30004,-1.71791 1.90363,-3.43582 1.90363,-5.01444 0,-1.67148 -0.60359,-3.06438 -1.8572,-4.31798 -1.25361,-1.160752 -2.878656,-1.810771 -4.735854,-1.810771 -1.996488,0 -3.573816,0.650019 -4.828715,1.855911 -1.300039,1.25361 -2.088058,3.43581 -2.553647,6.63948 -5.152435,-0.41787 -10.30616,-0.83574 -15.506315,-1.25361 0.650019,-4.36441 1.717908,-7.7538 3.389387,-10.214588 1.626338,-2.460787 3.853686,-4.317985 6.825203,-5.664454 2.925087,-1.300039 7.010923,-1.950058 12.303937,-1.950058 5.339444,0 9.611005,0.650019 12.675375,1.857198 3.01795,1.253609 5.38588,3.110807 7.15022,5.710884 1.7179,2.553648 2.55364,5.432308 2.55364,8.635968 0,3.43582 -1.02274,6.68592 -2.92637,9.75029 -2.04292,3.06438 -5.61803,6.5002 -10.911041,10.16816 -3.11081,2.18221 -5.198867,3.66797 -6.221616,4.59657 -1.113029,0.83574 -2.321497,1.90363 -3.760826,3.34295 8.078812,0 16.157623,0 24.237723,0 -0.001,4.17999 -0.001,8.40512 -0.001,12.63024 z m 33.05684,-10.44674 c -9.37756,0 -18.75641,0 -28.18298,0 0,-4.22512 0,-8.49668 0,-12.76824 9.37756,-11.14318 18.7577,-22.286372 28.18298,-33.47599 4.45857,0 8.96227,0 13.46469,0 0,11.421768 0,22.84354 0,34.2653 2.32149,0 4.64428,0 6.9632,0 0,3.99298 0,7.98596 0,11.97893 -2.32021,0 -4.643,0 -6.9632,0 0,3.48225 0,6.96449 0,10.44674 -4.45728,0 -8.96098,0 -13.46469,0 0,-3.48225 0,-6.96449 0,-10.44674 z m 0,-11.97893 c 0,-5.85017 0,-11.70034 0,-17.59695 -4.92028,5.85018 -9.88958,11.70035 -14.85758,17.59695 4.92286,0 9.88958,0 14.85758,0 z"
                     inkscape:connector-curvature="0" />
                </g>
              </g>
            </g>
          </g>
          <g
             style="stroke-width:0;stroke-miterlimit:4;stroke-dasharray:none"
             transform="matrix(0.17617904,0,0,0.16204229,-466.28047,-1350.4647)"
             id="g4468">
            <g
               style="stroke-width:0;stroke-miterlimit:4;stroke-dasharray:none"
               id="g4464">
              <path
                 inkscape:connector-curvature="0"
                 id="path4460"
                 d="m -1452.0338,476.45285 c -27.5914,-2.1823 -53.0245,-15.37697 -71.563,-37.12685 -8.1004,-9.50346 -15.9801,-23.87389 -19.8018,-36.11296 -3.8328,-12.27436 -5.0944,-21.8019 -4.7097,-35.56808 0.2768,-9.90311 0.9225,-14.68421 3.2117,-23.77838 6.3027,-25.03891 23.8126,-48.90404 46.1432,-62.89107 25.8863,-16.21413 57.852,-20.10729 86.6206,-10.54969 34.1585,11.34827 60.7188,40.42537 69.1601,75.71361 4.5153,18.87605 3.5894,40.21057 -2.5427,58.58884 -11.2843,33.81946 -39.6753,60.307 -73.869,68.91636 -9.8769,2.48684 -22.7326,3.59257 -32.6494,2.80822 z m 22.981,-8.76094 c 20.3852,-3.56811 37.853,-12.57369 52.3276,-26.97766 14.9625,-14.88944 24.3999,-33.65844 27.763,-55.21505 1.1283,-7.23207 1.1186,-22.17541 -0.019,-29.25825 -3.3604,-20.92239 -11.9609,-38.45757 -26.1801,-53.37782 -14.511,-15.22633 -32.3585,-24.73028 -53.5724,-28.52765 -8.1657,-1.46171 -21.7594,-1.56673 -29.8661,-0.23074 -31.7918,5.23926 -57.7196,24.34398 -72.1064,53.13105 -10.0955,20.20033 -12.7739,45.55025 -7.1746,67.90245 6.8947,27.52337 25.6095,50.99571 50.7296,63.62587 8.8783,4.46389 18.4195,7.46984 28.9327,9.11517 7.3364,1.14815 22.0766,1.05345 29.1657,-0.18737 z"
                 style="fill:#ffffff;fill-opacity:1;stroke:#ffffff;stroke-width:0;stroke-linecap:round;stroke-linejoin:round;stroke-miterlimit:4;stroke-dasharray:none;stroke-dashoffset:0;stroke-opacity:1" />
              <circle
                 transform="matrix(1.1637931,0,0,1.1896552,326.72629,16.62448)"
                 id="path4462"
                 style="fill:none;stroke:#447821;stroke-width:0;stroke-linecap:round;stroke-linejoin:round;stroke-miterlimit:4;stroke-dasharray:none;stroke-dashoffset:0;stroke-opacity:1"
                 cx="-1521.2898"
                 cy="298.28329"
                 r="87.88327" />
            </g>
          </g>
        </g>
      </g>
      <g
         id="g5451">
        <g
           id="g5444">
          <path
             d="m -704.84848,-1770.6229 h -37.85253 c -1.79705,0 -3.25389,1.3295 -3.25389,2.9695 v 69.0903 c 0,1.6399 1.45684,2.9696 3.25389,2.9696 h 75.70487 c 1.79706,0 3.2539,-1.3297 3.2539,-2.9696 v -69.0903 c 0,-1.64 -1.45684,-2.9695 -3.2539,-2.9695 z"
             id="svg_2"
             inkscape:connector-curvature="0"
             style="clip-rule:evenodd;fill:none;stroke:#ffffff" />
          <g
             id="g5439">
            <path
               style="clip-rule:evenodd;fill:#ffffff;fill-rule:evenodd"
               inkscape:connector-curvature="0"
               id="svg_53"
               d="m -720.24561,-1738.3009 h 29.69808 c 1.27555,-0.054 2.44306,0.1418 3.58737,0.5876 1.11339,0.4189 2.21905,1.0607 3.13935,2.0539 0.91988,0.9866 2.0642,2.2565 2.358,3.9186 0.25537,1.6553 0.0621,4.3848 -0.78865,5.9725 -0.86575,1.5539 -2.65954,2.5065 -4.3685,3.4321 -1.73967,0.9121 -3.6881,1.5878 -5.93807,2.0539 l -0.78865,3.6214 h -22.97887 c -1.51545,-3.743 -2.59791,-7.3375 -3.24738,-10.9654 -0.65721,-3.6348 -0.88144,-7.1413 -0.67268,-10.6746 z m 28.46872,14.0054 1.79379,-11.0667 c 1.45402,0.088 2.57471,0.6894 3.36336,1.858 0.76545,1.1891 1.53112,3.7294 1.34534,5.0942 -0.20103,1.3177 -1.39152,2.1417 -2.46604,2.8376 -1.10608,0.6824 -2.42071,1.108 -4.03645,1.2769 z" />
            <path
               style="clip-rule:evenodd;fill:#ffffff;fill-rule:evenodd"
               inkscape:connector-curvature="0"
               id="svg_54"
               d="m -728.87436,-1715.2894 h 47.07135 c 0.11619,0.6351 -0.19286,1.2972 -0.89689,2.0607 -0.73453,0.7632 -1.81678,1.5537 -3.36336,2.4455 h -36.09212 c -1.66234,-0.095 -3.02316,-0.527 -4.14427,-1.2701 -1.14432,-0.7701 -1.96389,-1.824 -2.57471,-3.2361 z" />
            <path
               style="clip-rule:evenodd;fill:#ffffff;fill-rule:evenodd"
               inkscape:connector-curvature="0"
               id="svg_55"
               d="m -715.67608,-1756.7119 c 0.76546,1.4999 1.09793,3.0066 1.08246,4.52 -0.0464,1.4931 -1.2371,3.1213 -1.27575,4.5199 -0.0387,1.3918 0.99741,2.6417 1.0206,3.8512 -0.0309,1.2026 -0.3634,2.3106 -1.08246,3.3509 h 2.93038 c 0.7036,-1.0404 1.067,-2.1483 1.09019,-3.3509 -0.0232,-1.2093 -1.05927,-2.4593 -1.02061,-3.8512 0.0387,-1.3986 1.22937,-3.0268 1.27576,-4.5199 0.0232,-1.5134 -0.3402,-3.0201 -1.09019,-4.52 z" />
          </g>
        </g>
        <path
           style="clip-rule:evenodd;fill:#ffffff;fill-rule:evenodd"
           inkscape:connector-curvature="0"
           id="svg_61"
           d="m -708.77926,-1757.0091 c 0.76546,1.4998 1.09792,3.0065 1.08247,4.5199 -0.0464,1.4931 -1.23711,3.1214 -1.27576,4.5199 -0.0387,1.3918 0.99741,2.6417 1.0206,3.8512 -0.0232,1.2025 -0.38659,2.3107 -1.09019,3.3509 h 2.93811 c 0.7036,-1.0404 1.06699,-2.1484 1.08997,-3.3509 -0.023,-1.2093 -1.05926,-2.4592 -1.02038,-3.8512 0.0386,-1.3985 1.22936,-3.0268 1.27575,-4.5199 0.023,-1.5134 -0.3402,-3.0201 -1.09019,-4.5199 z" />
        <path
           style="clip-rule:evenodd;fill:#ffffff;fill-rule:evenodd"
           inkscape:connector-curvature="0"
           id="svg_62"
           d="m -700.72266,-1757.1105 c 0.76546,1.4999 1.09814,3.0065 1.08268,4.5199 -0.0466,1.4999 -1.2371,3.1012 -1.27598,4.52 -0.0387,1.3917 0.99763,2.6416 1.02061,3.858 -0.0307,1.2091 -0.36318,2.2969 -1.08225,3.3441 h 2.93811 c 0.71907,-1.0472 1.05154,-2.135 1.08268,-3.3441 -0.0234,-1.2162 -1.05969,-2.4663 -1.02061,-3.858 0.0387,-1.4188 1.22916,-3.0201 1.27555,-4.52 0.0155,-1.5134 -0.31723,-3.02 -1.08268,-4.5199 z" />
      </g>
      <g
         id="g39412">
        <path
           id="path3976-45"
           d="m -704.28074,-1862.2595 h -36.45115 c -1.73055,0 -3.13344,1.3108 -3.13344,2.9276 v 68.1146 c 0,1.6167 1.40289,2.9277 3.13344,2.9277 h 72.90222 c 1.73055,0 3.13345,-1.311 3.13345,-2.9277 v -68.1146 c 0,-1.6168 -1.4029,-2.9276 -3.13345,-2.9276 z"
           inkscape:connector-curvature="0"
           style="clip-rule:evenodd;fill:none;stroke:#ffffff" />
        <g
           style="overflow:visible;fill:none;stroke:#ffffff;stroke-width:17.98146248;stroke-miterlimit:4;stroke-dasharray:none"
           id="g5045"
           transform="matrix(0.18893788,0,0,0.15730927,-751.11625,-1864.6687)">
          <g
             id="Layer_1"
             transform="translate(22.606491,22.606006)"
             style="fill:none;stroke:#ffffff;stroke-width:17.98146248;stroke-miterlimit:4;stroke-dasharray:none">
            <linearGradient
               gradientUnits="userSpaceOnUse"
               id="XMLID_1_-7"
               y2="227.73579"
               x2="455.14841"
               y1="227.73579"
               x1="424.36719">
              <stop
                 offset="0"
                 style="stop-color:#e5e5e5;stop-opacity:1"
                 id="stop16-6" />
              <stop
                 offset="0.1696"
                 style="stop-color:#e2e2e2;stop-opacity:1"
                 id="stop18-1" />
              <stop
                 offset="0.30590001"
                 style="stop-color:#d8d8d8;stop-opacity:1"
                 id="stop20-4" />
              <stop
                 offset="0.43059999"
                 style="stop-color:#c7c7c7;stop-opacity:1"
                 id="stop22-2" />
              <stop
                 offset="0.54839998"
                 style="stop-color:#b0b0b0;stop-opacity:1"
                 id="stop24-3" />
              <stop
                 offset="0.66140002"
                 style="stop-color:#919191;stop-opacity:1"
                 id="stop26-2" />
              <stop
                 offset="0.77069998"
                 style="stop-color:#6b6b6b;stop-opacity:1"
                 id="stop28-2" />
              <stop
                 offset="0.87720001"
                 style="stop-color:#3e3e3e;stop-opacity:1"
                 id="stop30-1" />
              <stop
                 offset="0.9788"
                 style="stop-color:#0c0c0c;stop-opacity:1"
                 id="stop32-6" />
              <stop
                 offset="1"
                 style="stop-color:#000000;stop-opacity:1"
                 id="stop34-8" />
              <a:midPointStop
                 offset="0"
                 style="stop-color:#E5E5E5" />
              <a:midPointStop
                 offset="0.75"
                 style="stop-color:#E5E5E5" />
              <a:midPointStop
                 offset="1"
                 style="stop-color:#000000" />
            </linearGradient>
            <linearGradient
               gradientUnits="userSpaceOnUse"
               id="XMLID_2_-5"
               y2="227.37601"
               x2="0.0713"
               y1="227.37601"
               x1="30.851601">
              <stop
                 offset="0"
                 style="stop-color:#e5e5e5;stop-opacity:1"
                 id="stop39-7" />
              <stop
                 offset="0.26750001"
                 style="stop-color:#e2e2e2;stop-opacity:1"
                 id="stop41-6" />
              <stop
                 offset="0.4824"
                 style="stop-color:#d8d8d8;stop-opacity:1"
                 id="stop43-1" />
              <stop
                 offset="0.67900002"
                 style="stop-color:#c7c7c7;stop-opacity:1"
                 id="stop45-8" />
              <stop
                 offset="0.8635"
                 style="stop-color:#b0b0b0;stop-opacity:1"
                 id="stop47-9" />
              <stop
                 offset="1"
                 style="stop-color:#999999;stop-opacity:1"
                 id="stop49-2" />
              <a:midPointStop
                 offset="0"
                 style="stop-color:#E5E5E5" />
              <a:midPointStop
                 offset="0.75"
                 style="stop-color:#E5E5E5" />
              <a:midPointStop
                 offset="1"
                 style="stop-color:#999999" />
            </linearGradient>
            <linearGradient
               gradientUnits="userSpaceOnUse"
               id="XMLID_3_-7"
               y2="0.071800001"
               x2="227.73579"
               y1="30.8521"
               x1="227.73579">
              <stop
                 offset="0"
                 style="stop-color:#e5e5e5;stop-opacity:1"
                 id="stop54-9" />
              <stop
                 offset="0.26750001"
                 style="stop-color:#e2e2e2;stop-opacity:1"
                 id="stop56-5" />
              <stop
                 offset="0.4824"
                 style="stop-color:#d8d8d8;stop-opacity:1"
                 id="stop58-4" />
              <stop
                 offset="0.67900002"
                 style="stop-color:#c7c7c7;stop-opacity:1"
                 id="stop60-3" />
              <stop
                 offset="0.8635"
                 style="stop-color:#b0b0b0;stop-opacity:1"
                 id="stop62-1" />
              <stop
                 offset="1"
                 style="stop-color:#999999;stop-opacity:1"
                 id="stop64-2" />
              <a:midPointStop
                 offset="0"
                 style="stop-color:#E5E5E5" />
              <a:midPointStop
                 offset="0.75"
                 style="stop-color:#E5E5E5" />
              <a:midPointStop
                 offset="1"
                 style="stop-color:#999999" />
            </linearGradient>
            <linearGradient
               gradientUnits="userSpaceOnUse"
               id="XMLID_4_-3"
               y2="454.67969"
               x2="227.37601"
               y1="423.89941"
               x1="227.37601">
              <stop
                 offset="0"
                 style="stop-color:#e5e5e5;stop-opacity:1"
                 id="stop69-3" />
              <stop
                 offset="0.1696"
                 style="stop-color:#e2e2e2;stop-opacity:1"
                 id="stop71-4" />
              <stop
                 offset="0.30590001"
                 style="stop-color:#d8d8d8;stop-opacity:1"
                 id="stop73-1" />
              <stop
                 offset="0.43059999"
                 style="stop-color:#c7c7c7;stop-opacity:1"
                 id="stop75-1" />
              <stop
                 offset="0.54839998"
                 style="stop-color:#b0b0b0;stop-opacity:1"
                 id="stop77-3" />
              <stop
                 offset="0.66140002"
                 style="stop-color:#919191;stop-opacity:1"
                 id="stop79-8" />
              <stop
                 offset="0.77069998"
                 style="stop-color:#6b6b6b;stop-opacity:1"
                 id="stop81-7" />
              <stop
                 offset="0.87720001"
                 style="stop-color:#3e3e3e;stop-opacity:1"
                 id="stop83-4" />
              <stop
                 offset="0.9788"
                 style="stop-color:#0c0c0c;stop-opacity:1"
                 id="stop85-2" />
              <stop
                 offset="1"
                 style="stop-color:#000000;stop-opacity:1"
                 id="stop87-7" />
              <a:midPointStop
                 offset="0"
                 style="stop-color:#E5E5E5" />
              <a:midPointStop
                 offset="0.75"
                 style="stop-color:#E5E5E5" />
              <a:midPointStop
                 offset="1"
                 style="stop-color:#000000" />
            </linearGradient>
            <g
               id="g3833"
               transform="matrix(1.0845117,0,0,1.0845093,-19.217404,-19.216911)"
               style="fill:none;stroke:#ffffff;stroke-width:16.58025551;stroke-miterlimit:4;stroke-dasharray:none">
              <g
                 id="g3823"
                 transform="matrix(1.1549356,0,0,1.1549356,-28.712869,-33.045547)"
                 style="fill:none;stroke:#ffffff;stroke-width:14.35600185;stroke-miterlimit:4;stroke-dasharray:none">
                <path
                   style="fill:none;stroke:#ffffff;stroke-width:14.35600185;stroke-miterlimit:4;stroke-dasharray:none"
                   id="path97"
                   d="m 157.543,55 c -1.836,-0.108 -3.24,0.18 -4.5,0.72 -1.296,0.396 -2.376,0.612 -2.808,2.592 -0.504,2.016 -0.504,5.04 0,9.36 v 39.456 c 0.144,1.692 0.144,3.78 0,6.264 -0.108,2.484 -0.216,5.976 -0.864,8.532 -0.756,2.376 -1.836,3.42 -3.636,5.904 -1.98,2.34 -5.22,5.652 -7.632,8.532 -2.592,2.808 -4.86,5.508 -6.948,8.532 -2.088,2.844 -4.104,5.4 -5.22,9.036 -1.26,3.6 -1.62,7.488 -1.908,12.492 -0.36,4.896 -0.36,10.368 0,16.704 -0.036,63.54 -0.036,106.956 0,133.02 -0.036,25.632 -0.036,32.437 0,20.557 -0.144,6.588 -0.144,11.735 0,15.3 0,3.456 0.216,4.464 0.504,6.084 0.18,1.584 0.216,2.52 1.224,3.636 1.008,0.972 1.98,2.052 4.86,2.952 2.844,0.792 6.84,2.124 11.988,2.628 5.04,0.468 11.016,0.828 18.072,0.685 h 9.756 c 7.02,0.144 12.996,-0.217 18.072,-0.685 5.04,-0.504 9.036,-1.836 11.988,-2.628 2.772,-0.9 3.744,-1.98 4.86,-2.952 0.936,-1.116 0.972,-2.052 1.224,-3.636 0.252,-1.62 0.432,-2.628 0.54,-6.084 0.072,-3.564 0.072,-8.712 0,-15.3 -0.036,11.88 -0.036,5.075 0,-20.557 -0.036,-26.063 -0.036,-69.479 0,-133.02 0.288,-6.336 0.288,-11.808 0,-16.704 -0.396,-5.004 -0.756,-8.892 -1.908,-12.492 -1.224,-3.636 -3.24,-6.192 -5.22,-9.036 -2.16,-3.024 -4.428,-5.724 -6.948,-8.532 -2.52,-2.88 -5.76,-6.192 -7.632,-8.532 -1.836,-2.484 -3.06,-3.528 -3.672,-5.904 -0.756,-2.556 -0.864,-6.048 -0.864,-8.532 -0.18,-2.484 -0.18,-4.572 0,-6.264 V 67.672 c 0.468,-4.32 0.468,-7.344 0,-9.36 -0.576,-1.98 -1.548,-2.196 -2.772,-2.592 -1.332,-0.54 -2.664,-0.828 -4.536,-0.72 z"
                   inkscape:connector-curvature="0" />
                <path
                   style="fill:none;stroke:#ffffff;stroke-width:14.35600185;stroke-miterlimit:4;stroke-dasharray:none"
                   id="path99"
                   d="m 160.891,58.384 c -1.728,-0.072 -3.024,0.108 -4.176,0.684 -1.26,0.432 -2.124,0.576 -2.592,2.52 -0.468,1.908 -0.468,5.004 0,9.144 l 0.144,42.3 c 0.072,1.692 0.072,3.672 0,6.084 -0.18,2.412 0.252,5.832 -0.792,8.316 -1.26,2.268 -3.672,3.204 -5.868,5.58 -2.34,2.304 -4.752,5.4 -7.092,8.316 -2.304,2.736 -4.572,5.4 -6.408,8.28 -2.016,2.88 -3.672,5.868 -4.824,8.82 -1.152,2.844 -1.656,4.068 -1.908,8.244 -0.36,4.104 -0.36,9.468 0,16.236 -0.036,61.776 -0.036,104.256 0,129.528 -0.036,24.948 -0.036,31.572 0,20.017 -0.072,6.516 -0.072,11.34 0,14.868 -0.036,3.527 0.252,4.212 0.468,5.939 0.18,1.548 0.18,2.448 1.116,3.528 0.828,1.044 1.908,1.908 4.5,2.88 2.7,0.899 6.3,1.944 11.088,2.556 4.644,0.468 12.348,0.504 16.704,0.648 4.248,0.072 4.716,0.072 9.036,0 4.248,-0.145 11.988,-0.181 16.704,-0.648 4.716,-0.611 8.28,-1.656 11.088,-2.556 2.52,-0.972 3.564,-1.836 4.5,-2.88 0.9,-1.08 0.864,-1.98 1.152,-3.528 0.252,-1.728 0.36,-2.412 0.468,-5.939 0.036,-3.528 0.036,-8.353 0,-14.868 -0.036,11.556 -0.036,4.932 0,-20.017 -0.036,-25.271 -0.036,-67.752 0,-129.528 0.252,-6.948 0.252,-12.132 0,-16.236 -0.18,-4.14 -0.576,-5.04 -1.476,-7.848 -1.152,-2.88 -2.952,-5.94 -4.824,-8.784 -1.944,-2.88 -4.176,-5.544 -6.408,-8.28 -2.448,-2.808 -4.86,-6.048 -7.092,-8.316 -2.304,-2.34 -4.68,-3.384 -5.868,-5.616 -1.152,-2.52 -0.72,-5.796 -0.792,-8.28 -0.144,-2.412 -0.144,-4.392 0,-6.084 l -0.288,-42.732 c 0.396,-4.14 0.396,-7.236 0,-9.144 -0.576,-1.944 -1.44,-2.088 -2.592,-2.52 -1.188,-0.576 -2.484,-0.756 -4.176,-0.684 z"
                   inkscape:connector-curvature="0" />
                <path
                   style="fill:none;stroke:#ffffff;stroke-width:14.35600185;stroke-miterlimit:4;stroke-dasharray:none"
                   id="path101-7"
                   d="m 125.863,205.12 c 13.644,7.632 26.82,11.412 40.356,11.484 13.5,-0.072 26.532,-3.852 39.924,-11.484 v 92.16 c -13.392,7.632 -26.424,11.447 -39.924,11.447 -13.536,0 -26.712,-3.815 -40.356,-11.447 z"
                   inkscape:connector-curvature="0" />
                <path
                   style="fill:none;stroke:#ffffff;stroke-width:14.35600185;stroke-miterlimit:4;stroke-dasharray:none"
                   id="path103-9"
                   d="m 130.111,213.616 c 12.132,5.976 23.832,8.856 35.676,8.928 11.844,-0.072 23.256,-2.952 34.812,-8.928 v 80.82 c -11.736,6.66 -23.22,10.009 -35.028,10.044 -11.88,-0.035 -23.508,-3.384 -35.46,-10.044 z"
                   inkscape:connector-curvature="0" />
                <path
                   style="fill:none;stroke:#ffffff;stroke-width:14.35600185;stroke-miterlimit:4;stroke-dasharray:none"
                   id="path105-3"
                   d="m 192.571,248.859 58.32,72.433 v 56.52 c -7.02,0.252 -15.012,0.973 -24.264,2.557 -9.36,1.548 -26.028,4.5 -31.14,6.479 -5.076,1.872 -4.572,3.492 0.684,4.716 5.256,1.009 19.944,1.513 30.456,1.801 10.368,0.288 20.771,0.288 31.5,0 h 3.276 c 10.691,0.288 21.096,0.288 31.5,0 10.403,-0.288 25.092,-0.792 30.455,-1.801 5.185,-1.224 5.688,-2.844 0.685,-4.716 -5.22,-1.979 -21.853,-4.932 -31.14,-6.479 -9.288,-1.584 -17.28,-2.305 -24.265,-2.557 v -56.52 l 58.32,-72.433 z"
                   inkscape:connector-curvature="0" />
                <path
                   style="fill:none;stroke:#ffffff;stroke-width:14.35600185;stroke-miterlimit:4;stroke-dasharray:none"
                   id="path107-1"
                   d="m 205.603,254.296 h 107.604 l -53.28,63.396 z"
                   inkscape:connector-curvature="0" />
                <path
                   style="fill:none;stroke:#ffffff;stroke-width:14.35600185;stroke-miterlimit:4;stroke-dasharray:none"
                   id="path109"
                   d="m 259.243,274.42 c -4.608,8.532 -3.564,18.072 2.34,21.24 5.904,3.168 14.399,-1.188 19.008,-9.721 4.608,-8.567 3.564,-18.035 -2.34,-21.239 -5.904,-3.168 -14.437,1.188 -19.008,9.72 z"
                   inkscape:connector-curvature="0" />
                <path
                   style="fill:none;stroke:#ffffff;stroke-width:14.35600185;stroke-miterlimit:4;stroke-dasharray:none"
                   id="path111-9"
                   d="m 266.047,281.532 c 3.398,0 6.156,2.677 6.156,5.976 0,3.299 -2.758,5.977 -6.156,5.977 -3.398,0 -6.156,-2.678 -6.156,-5.977 0,-3.299 2.757,-5.976 6.156,-5.976"
                   inkscape:connector-curvature="0" />
              </g>
            </g>
          </g>
        </g>
      </g>
      <g
         id="g5425">
        <path
           style="fill:none;stroke:#ffffff;stroke-width:1;stroke-miterlimit:4;stroke-dasharray:none"
           inkscape:connector-curvature="0"
           id="svg_2-6"
           stroke-miterlimit="4"
           d="m -704.46846,-1678.0026 h -39.18692 c -1.86038,0 -3.36859,1.3694 -3.36859,3.0585 v 71.1578 c 0,1.689 1.50821,3.0585 3.36859,3.0585 h 78.3736 c 1.86043,0 3.3686,-1.3695 3.3686,-3.0585 v -71.1578 c 0,-1.6891 -1.50817,-3.0585 -3.3686,-3.0585 z" />
        <path
           style="fill:#ffffff;fill-rule:evenodd"
           inkscape:connector-curvature="0"
           id="svg_83"
           d="m -700.93212,-1646.8051 c -1.21943,0 -2.36456,0.043 -3.43577,0.1284 -1.08489,0.061 -2.18958,0.01 -3.00495,0.3303 -0.8287,0.3181 -1.06449,0.416 -1.90663,1.5659 -0.88934,1.15 -2.0616,3.0157 -3.17997,5.1994 -1.11145,2.1591 -2.64771,5.8109 -3.36188,7.6767 -0.72104,1.8412 -0.74781,1.5965 -0.91627,3.297 -0.18206,1.7128 -0.52566,4.9607 -0.17534,6.7714 0.33012,1.7496 1.1519,2.936 2.17614,3.7925 1.01732,0.8503 2.31083,1.2907 3.90754,1.3211 -0.0876,1.8047 -0.0876,3.1991 0,4.2084 0.0472,0.9972 -0.0338,1.4376 0.45813,1.8169 0.49858,0.3607 1.77189,0.3793 2.5465,0.4099 0.76129,0.043 1.58343,0.024 2.00092,-0.2449 0.39076,-0.3057 0.27623,-0.5383 0.35708,-1.572 0.0674,-1.0644 0.10761,-2.6059 0.0943,-4.6975 h 22.26622 c 0.0541,2.0918 0.1213,3.6333 0.22927,4.6975 0.0878,1.0337 -0.0338,1.2663 0.36364,1.572 0.41113,0.2691 1.20615,0.2877 1.9942,0.2449 0.75477,-0.031 2.02788,-0.049 2.54682,-0.4099 0.47162,-0.3793 0.39081,-0.8197 0.45797,-1.8169 0.0741,-1.0091 0.0741,-2.4036 0,-4.2084 1.58995,-0.03 2.8835,-0.4708 3.90775,-1.3211 1.01732,-0.8565 1.83233,-2.0429 2.18285,-3.7925 0.30956,-1.8106 0.006,-5.0585 -0.1821,-6.7714 -0.19554,-1.7005 -0.19554,-1.4558 -0.90931,-3.297 -0.7278,-1.8656 -2.26411,-5.5176 -3.36207,-7.6767 -1.1251,-2.1837 -2.31776,-4.0495 -3.1865,-5.1994 -0.86254,-1.1499 -1.09145,-1.2478 -1.90682,-1.5659 -0.84214,-0.3242 -1.92011,-0.2691 -2.99804,-0.3303 -1.0714,-0.086 -2.18941,-0.1284 -3.38208,-0.1284 h -13.58163 z" />
        <path
           style="fill:#3d8f3d;fill-opacity:1;fill-rule:evenodd"
           inkscape:connector-curvature="0"
           id="svg_84"
           d="m -700.96319,-1643.849 c -1.06449,-0.043 -2.03444,-0.024 -2.91026,0.079 -0.89607,0.08 -1.71129,0.1345 -2.36476,0.4954 -0.66008,0.3548 -0.94995,0.6851 -1.54282,1.6516 -0.62656,0.9603 -1.49566,2.7954 -2.08853,4.0433 -0.61291,1.2232 -1.19922,2.4651 -1.36764,3.3029 -0.1617,0.8197 -0.24255,1.2601 0.45809,1.6518 0.70069,0.3607 2.33092,0.4646 3.72568,0.5748 1.38096,0.1101 1.07797,0.061 4.54762,0.086 3.49661,0.012 12.63877,0.012 16.17598,0 3.48293,-0.024 3.28087,0.025 4.69584,-0.086 1.40788,-0.11 3.00495,-0.2141 3.72568,-0.5748 0.6872,-0.3917 0.60635,-0.832 0.45793,-1.6518 -0.1615,-0.838 -0.78805,-2.0797 -1.36072,-3.3029 -0.61291,-1.2479 -1.46869,-3.0831 -2.09508,-4.0433 -0.62692,-0.9665 -0.88931,-1.2968 -1.54283,-1.6516 -0.67408,-0.3609 -1.48909,-0.4159 -2.36492,-0.4954 -0.88278,-0.104 -1.85274,-0.1224 -2.91066,-0.079 z" />
        <path
           style="fill:#3d8f3d;fill-opacity:1;fill-rule:evenodd"
           inkscape:connector-curvature="0"
           id="svg_85"
           d="m -710.31683,-1628.779 c 2.35784,0 4.27118,1.7374 4.27118,3.8781 0,2.1406 -1.91354,3.8778 -4.27118,3.8778 -2.35763,0 -4.27138,-1.7373 -4.27138,-3.8778 0,-2.1407 1.91375,-3.8781 4.27138,-3.8781" />
        <path
           style="fill:#3d8f3d;fill-opacity:1;fill-rule:evenodd"
           inkscape:connector-curvature="0"
           id="svg_86"
           d="m -678.02321,-1628.779 c 2.358,0 4.27139,1.7374 4.27139,3.8781 0,2.1406 -1.91355,3.8778 -4.27139,3.8778 -2.35763,0 -4.27138,-1.7373 -4.27138,-3.8778 -1.6e-4,-2.1407 1.91375,-3.8781 4.27138,-3.8781" />
        <path
           style="fill:#3d8f3d;fill-opacity:1;fill-rule:evenodd"
           inkscape:connector-curvature="0"
           id="svg_87"
           d="m -694.16776,-1628.365 h -6.06686 c -1.26695,0 -2.29385,0.6271 -2.29385,1.4007 0,0.7736 1.02706,1.4008 2.29385,1.4008 h 12.13367 c 1.26699,0 2.29405,-0.6272 2.29405,-1.4008 0,-0.7736 -1.02706,-1.4007 -2.29405,-1.4007 z" />
        <path
           style="fill:#3d8f3d;fill-opacity:1;fill-rule:evenodd"
           inkscape:connector-curvature="0"
           id="svg_88"
           d="m -694.16776,-1624.5726 h -6.06686 c -1.26695,0 -2.29385,0.6285 -2.29385,1.4038 0,0.7754 1.02706,1.4039 2.29385,1.4039 h 12.13367 c 1.26699,0 2.29405,-0.6285 2.29405,-1.4039 0,-0.7753 -1.02706,-1.4038 -2.29405,-1.4038 z" />
        <path
           style="fill:#ffffff;fill-rule:evenodd"
           inkscape:connector-curvature="0"
           id="svg_95"
           d="m -727.58153,-1666.8907 c 6.18731,0 11.20895,4.4189 11.20895,9.8636 0,5.4447 -5.02164,9.8636 -11.20895,9.8636 -6.18734,0 -11.20899,-4.4189 -11.20899,-9.8636 0,-5.4449 5.02165,-9.8636 11.20899,-9.8636" />
        <flowRoot
           transform="matrix(0.60964166,0,0,0.59955045,-482.02507,-1925.8118)"
           style="font-style:normal;font-weight:normal;line-height:0.01%;font-family:sans-serif;letter-spacing:0px;word-spacing:0px;fill:#3d8f3d;fill-opacity:1;stroke:none"
           id="flowRoot5380"
           xml:space="preserve"><flowRegion
             style="font-family:sans-serif"
             id="flowRegion5382"><rect
               style="font-family:sans-serif;fill:#3d8f3d;fill-opacity:1;stroke:none"
               y="435.15897"
               x="-414.16254"
               height="84.852814"
               width="82.832512"
               id="rect5384" /></flowRegion><flowPara
             style="font-weight:bold;font-size:28px;line-height:1.25;font-family:sans-serif;-inkscape-font-specification:'Sans Bold';fill:#3d8f3d;fill-opacity:1;stroke:none"
             id="flowPara5386">G</flowPara></flowRoot>      </g>
      <g
         id="g39746">
        <path
           id="path3976-5"
           d="m -703.21617,-1223.9187 h -38.21813 c -1.81441,0 -3.28532,1.5072 -3.28532,3.3663 v 78.3193 c 0,1.8589 1.47091,3.3662 3.28532,3.3662 h 76.43608 c 1.81441,0 3.2853,-1.5073 3.2853,-3.3662 v -78.3193 c 0,-1.8592 -1.47089,-3.3663 -3.2853,-3.3663 z"
           inkscape:connector-curvature="0"
           style="clip-rule:evenodd;fill:none;stroke:#ffffff" />
        <g
           transform="matrix(0.23384552,0,0,0.2325139,-769.80357,-1278.9055)"
           id="layer1-5-1"
           inkscape:label="Layer 1">
          <path
             sodipodi:nodetypes="cccccccccccccccccccccccccsccsccssccsccsccscccccccccccccccccccccsssccccscccccsccccccccssscccccccccccc"
             d="m 425.2708,376.22429 v 2.17814 h 3.72494 v 10.25936 h 2.36754 V 378.434 h 3.6618 v -2.24128 l -9.75428,0.0316 z m 11.96399,0.0947 v 12.31124 h 1.89404 v -9.50175 l 2.95615,8.25614 1.99371,-0.0139 3.06822,-8.11599 v 9.53331 h 1.92561 v -12.50063 h -3.53554 l -2.49299,8.78645 -2.55777,-8.75489 h -3.25143 z M 145.14287,450.31267 V 415.4624 c 0,0 -0.37881,-15.02601 14.64721,-30.05203 15.02602,-15.02602 29.29443,-13.38452 29.29443,-13.38452 h 19.69797 c 0,0 24.74874,-37.12311 73.74114,-37.12311 48.99239,0 77.02413,36.61803 77.02413,36.61803 h 22.22335 c 0,0 5.61025,-0.25403 12.66151,3.28709 7.12703,3.57918 13.53849,7.70338 20.06663,17.83514 6.54672,10.16061 7.42543,17.48017 7.42543,22.8194 0,0 0,38.13326 0,38.13326 0,7.9502 -0.75762,14.14214 -14.14214,27.52666 -13.38452,13.38452 -30.55711,11.86929 -30.55711,11.86929 h -20.45559 c 0,0 -25.54935,36.82516 -73.4886,36.82516 -47.94704,0 -72.47844,-36.57262 -72.47844,-36.57262 h -22.72844 c 0,0 -15.02602,0.88388 -29.54696,-13.63706 -14.52094,-14.52094 -13.13198,-29.29442 -13.38452,-29.29442 z m 24.11739,-50.12882 14.14214,60.98796 h 15.53109 l 6.9448,-35.1028 6.69226,35.1028 h 15.90991 l 14.14213,-60.60916 h -16.92005 l -4.9245,33.20877 -6.9448,-33.33503 h -15.27855 l -6.9448,33.71384 -5.17704,-33.84011 z m 81.3542,17.06072 v 43.87112 h 14.92523 v -43.87112 z m 17.18663,-12.39246 c 0,4.24419 -4.21453,7.68875 -9.40742,7.68875 -5.19289,0 -9.40741,-3.44456 -9.40741,-7.68875 0,-4.24419 4.21452,-7.68875 9.40741,-7.68875 5.19289,0 9.40742,3.44456 9.40742,7.68875 z m 3.61823,79.51075 c 0,0 18.63392,-14.14069 18.63392,-35.18735 0,0 0,-35.45872 0,-35.45872 0,-5.70122 2.92325,-13.77796 11.66881,-22.52352 8.74556,-8.74556 16.45238,-10.13106 21.79988,-10.13106 0,0 55.53993,0 55.53993,0 9.44034,0.13157 16.77581,4.08862 23.51853,10.40243 6.24776,6.5645 10.31198,14.7908 10.31198,23.7899 v 33.92097 c 0,6.67743 -1.79054,16.35395 -10.6738,24.51355 -8.88326,8.1596 -15.72893,10.6738 -22.79489,10.6738 0,0 -108.00436,0 -108.00436,0 z m 102.57695,-67.07307 v 43.87112 h 14.92523 v -43.87112 z m 17.18663,-12.39246 c 0,4.24419 -4.21453,7.68875 -9.40742,7.68875 -5.19289,0 -9.40741,-3.44456 -9.40741,-7.68875 0,-4.24419 4.21452,-7.68875 9.40741,-7.68875 5.19289,0 9.40742,3.44456 9.40742,7.68875 z m -79.96297,55.94699 h 16.73434 v -18.27209 h 31.84048 v -13.65885 h -31.93094 v -14.29203 h 36.09191 v -14.20158 h -52.82625 l 0.0905,60.42455 z"
             style="fill:#ffffff;fill-opacity:1;fill-rule:evenodd;stroke:none"
             id="path3281"
             inkscape:connector-curvature="0" />
          <path
             transform="translate(145.14287,334.86218)"
             id="path2814"
             d="m 38.354192,125.39247 c -0.447841,-1.33494 -13.57503,-58.49942 -13.57503,-59.114671 0,-0.48498 1.9789,-0.63957 8.187134,-0.63957 4.502924,0 8.186134,0.172698 8.18491,0.383772 -0.0037,0.647807 4.627377,31.001373 4.937987,32.364766 0.270505,1.187355 0.318138,1.205732 0.663146,0.255848 0.204438,-0.562865 1.849042,-8.224778 3.654674,-17.026473 l 3.282968,-16.003081 7.397918,0.140508 7.397918,0.140508 3.351251,16.207259 c 1.843189,8.913993 3.491965,16.347975 3.663951,16.519961 0.410989,0.410989 0.489125,-0.03701 3.052972,-17.504267 L 80.75086,66.149925 h 8.08871 c 4.448792,0 8.088715,0.146356 8.088715,0.325235 0,0.369669 -13.215396,57.27129 -13.620925,58.64772 -0.235948,0.80083 -1.067679,0.89547 -7.870303,0.89547 -6.80128,0 -7.634776,-0.0948 -7.873834,-0.89547 -0.147049,-0.49251 -1.662973,-8.2484 -3.368722,-17.23531 -1.70575,-8.986918 -3.207377,-16.445862 -3.336949,-16.575435 -0.399998,-0.399997 -0.6438,0.693065 -3.974724,17.820245 l -3.234254,16.63012 -7.537598,0.14166 c -5.760068,0.10826 -7.589287,-0.0124 -7.756784,-0.51169 z"
             style="fill:none;stroke:none"
             inkscape:connector-curvature="0" />
          <path
             transform="translate(145.14287,334.86218)"
             id="path2816"
             d="M 105.62712,104.27127 V 82.524194 h 7.16374 7.16374 v 21.747076 21.74708 h -7.16374 -7.16374 z"
             style="fill:none;stroke:none"
             inkscape:connector-curvature="0" />
          <path
             transform="translate(145.14287,334.86218)"
             id="path2818"
             d="m 109.87745,76.869158 c -0.89879,-0.274794 -2.43346,-1.253464 -3.41039,-2.174822 -3.38782,-3.195125 -2.84853,-7.712365 1.24406,-10.420717 1.77034,-1.171553 2.73293,-1.434018 5.28517,-1.441081 11.80196,-0.03266 12.57809,13.617509 0.81796,14.385811 -1.26645,0.08274 -3.03801,-0.0744 -3.9368,-0.349191 z"
             style="fill:none;stroke:none"
             inkscape:connector-curvature="0" />
          <path
             transform="translate(145.14287,334.86218)"
             id="path2820"
             d="m 131.32077,145.03949 c 5.99946,-6.27956 9.7733,-12.3945 12.21262,-19.78869 1.14295,-3.46456 1.19165,-4.34438 1.4868,-26.864033 0.32797,-25.023316 0.28749,-24.638195 3.19979,-30.445906 1.70145,-3.393049 5.82578,-8.649151 9.52503,-12.138837 4.09514,-3.863152 8.24462,-6.493302 12.86749,-8.156074 l 3.32602,-1.196317 h 31.72515 c 34.90986,0 34.3956,-0.0405 41.44736,3.264291 8.94786,4.193392 17.21604,14.283171 19.4424,23.725842 1.12494,4.77119 1.11347,44.373344 -0.0141,48.761274 -2.33503,9.08667 -8.82127,17.19952 -18.26049,22.83986 -7.16609,4.28206 -2.63115,4.00376 -65.24325,4.00376 h -55.54131 l 3.82652,-4.00517 z M 243.78501,104.27127 V 82.012498 h -7.67544 -7.67544 v 22.258772 22.25877 h 7.67544 7.67544 z m -60.89181,12.7924 v -8.95468 h 16.11842 16.11842 v -7.16374 -7.163746 H 199.01162 182.8932 v -6.907895 -6.907894 h 18.1652 18.16521 v -7.419591 -7.419591 h -26.94439 -26.9444 l 0.33621,8.524707 c 0.18491,4.688588 0.3362,18.389246 0.3362,30.44591 v 21.9212 h 8.44299 8.44298 z m 57.44753,-39.686008 c 5.50647,-1.529182 7.77524,-8.26653 4.05144,-12.0312 -4.33496,-4.382541 -11.79449,-4.258949 -15.59558,0.258391 -2.58713,3.074625 -2.45591,6.604646 0.34982,9.410366 2.64079,2.640792 6.9314,3.54628 11.19432,2.362443 z"
             style="fill:none;stroke:none"
             inkscape:connector-curvature="0" />
        </g>
      </g>
      <g
         id="g5396">
        <path
           style="clip-rule:evenodd;fill:none;stroke:#ffffff"
           inkscape:connector-curvature="0"
           id="svg_2-9"
           d="m -703.12468,-1493.7094 h -39.85515 c -1.89213,0 -3.42604,1.3969 -3.42604,3.12 v 72.5887 c 0,1.7229 1.53391,3.1199 3.42604,3.1199 h 79.7101 c 1.89213,0 3.42605,-1.397 3.42605,-3.1199 v -72.5887 c 0,-1.7231 -1.53392,-3.12 -3.42605,-3.12 z" />
        <path
           style="clip-rule:evenodd;fill:#ffffff;fill-rule:evenodd"
           inkscape:connector-curvature="0"
           id="svg_54-8"
           d="m -670.91837,-1449.1728 c -0.60469,0.1681 -1.38564,0.1359 -2.41002,-0.064 -1.04114,-0.2158 -1.99015,-1.2218 -3.71992,-1.1662 -1.77184,0.056 -4.27437,1.5014 -6.6924,1.5014 -2.45228,-0.047 -5.20644,-1.5654 -7.70878,-1.5654 -2.49397,0.016 -4.76125,1.5891 -7.15434,1.6371 -2.43516,0.01 -4.86193,-1.4691 -7.24665,-1.501 -2.41841,-0.056 -4.71081,1.3099 -6.96971,1.2936 -2.22521,-0.04 -4.19862,-1.4934 -6.40708,-1.4297 -2.26728,0.08 -4.75288,1.6772 -6.96971,1.773 -2.23359,0.032 -4.25743,-1.4851 -6.23064,-1.5014 -1.98996,-0.032 -4.22374,1.1101 -5.56732,1.3657 -1.34358,0.2319 -2.19172,0.2558 -2.51072,0.072 v 4.2325 c 0.319,0.1836 1.16714,0.1598 2.51072,-0.072 1.34358,-0.2557 3.57717,-1.3976 5.56732,-1.3657 1.9734,0.016 3.99705,1.5333 6.23064,1.501 2.21683,-0.08 4.70243,-1.7168 6.96971,-1.7728 2.20846,-0.08 4.18167,1.4056 6.40708,1.4374 2.2589,0.016 4.5513,-1.3412 6.96971,-1.3013 2.38472,0.032 4.81149,1.5088 7.24665,1.5012 2.39309,-0.048 4.66037,-1.6213 7.15434,-1.6373 2.50234,-0.01 5.2565,1.5335 7.70878,1.5737 2.41803,0 4.92075,-1.4459 6.6924,-1.5016 1.72977,-0.072 2.67878,0.9502 3.71992,1.1579 1.02438,0.1996 1.80533,0.2315 2.41002,0.064 v -4.2324 z" />
        <path
           style="clip-rule:evenodd;fill:#ffffff;fill-rule:evenodd"
           inkscape:connector-curvature="0"
           id="svg_55-9"
           d="m -710.52227,-1452.6377 19.21248,-9.3352 c -1.51107,-3.0188 -2.57771,-5.2944 -3.19916,-6.9156 -0.63838,-1.6132 -0.90695,-1.9725 -0.54588,-2.7391 0.36944,-0.7906 -0.14275,-0.9103 2.67041,-1.9564 2.81278,-1.0861 11.22676,-4.2005 13.97254,-4.3521 2.68716,-0.1278 2.5781,2.5713 2.13309,3.4818 -0.48726,0.8863 -2.9896,1.1099 -4.88725,1.8127 -1.92315,0.6708 -4.03911,1.4213 -6.48264,2.2519 l 8.79161,17.6163 c -1.13345,0.8862 -2.63672,1.2299 -4.66875,1.0939 -2.06571,-0.1832 -4.82006,-1.972 -7.3894,-1.9805 -2.56116,0.01 -5.48338,2.0047 -7.82603,2.0444 -2.35122,-0.01 -4.21537,-1.7328 -6.18039,-1.9082 -1.97302,-0.1762 -3.82879,0.1191 -5.60063,0.8861 z" />
        <path
           style="clip-rule:evenodd;fill:#ffffff;fill-rule:evenodd"
           inkscape:connector-curvature="0"
           id="svg_56"
           d="m -675.05264,-1467.5348 c 2.962,0 5.36556,2.2859 5.36556,5.1027 0,2.8168 -2.40375,5.1027 -5.36556,5.1027 -2.96182,0 -5.36576,-2.2859 -5.36576,-5.1027 0,-2.8168 2.40375,-5.1027 5.36576,-5.1027" />
        <path
           style="clip-rule:evenodd;fill:#ffffff;fill-rule:evenodd"
           inkscape:connector-curvature="0"
           id="svg_57"
           d="m -724.62938,-1452.6412 c -2.27565,-0.3834 -4.59318,-0.9737 -7.11227,-1.773 -2.53603,-0.846 -6.86046,-1.9803 -7.88504,-3.0903 -1.02439,-1.1419 -0.27713,-3.4257 1.78878,-3.5295 2.0739,-0.1038 6.18857,1.5731 10.46275,2.9627 4.24886,1.3739 9.1108,3.0907 14.84618,5.2388 -0.70538,0.3513 -1.63746,0.4631 -2.82991,0.3033 -1.2092,-0.1839 -2.73741,-1.198 -4.29093,-1.2298 -1.56189,-0.024 -3.19935,0.3593 -4.97956,1.1178 z" />
        <path
           style="clip-rule:evenodd;fill:#ffffff;fill-rule:evenodd"
           inkscape:connector-curvature="0"
           id="svg_58"
           d="m -670.91837,-1440.8759 c -0.60469,0.1515 -1.38564,0.1278 -2.41002,-0.072 -1.04114,-0.2074 -1.99015,-1.2301 -3.71992,-1.1582 -1.77184,0.056 -4.27437,1.5012 -6.6924,1.5012 -2.45228,-0.048 -5.20644,-1.565 -7.70878,-1.565 -2.49397,0.016 -4.76125,1.5893 -7.15434,1.637 -2.43516,0.01 -4.86193,-1.4692 -7.24665,-1.5012 -2.41841,-0.056 -4.71081,1.3096 -6.96971,1.2937 -2.22521,-0.04 -4.19862,-1.4934 -6.40708,-1.4295 -2.26728,0.08 -4.75288,1.6768 -6.96971,1.773 -2.23359,0.032 -4.25743,-1.4856 -6.23064,-1.5015 -1.98996,-0.032 -4.22374,1.11 -5.56732,1.3657 -1.34358,0.2478 -2.19172,0.2395 -2.51072,0.064 v 4.2324 c 0.319,0.1756 1.16714,0.1839 2.51072,-0.064 1.34358,-0.2558 3.57717,-1.3974 5.56732,-1.3656 1.9734,0.016 3.99705,1.5332 6.23064,1.5015 2.21683,-0.096 4.70243,-1.6932 6.96971,-1.773 2.20846,-0.064 4.18167,1.3896 6.40708,1.4295 2.2589,0.016 4.5513,-1.3497 6.96971,-1.2938 2.38472,0.032 4.81149,1.5094 7.24665,1.5013 2.39309,-0.048 4.66037,-1.6214 7.15434,-1.637 2.50234,0 5.2565,1.5174 7.70878,1.565 2.41803,0 4.92075,-1.4454 6.6924,-1.5012 1.72977,-0.056 2.67878,0.95 3.71992,1.166 1.02438,0.1997 1.80533,0.2317 2.41002,0.064 v -4.2324 z" />
      </g>
      <g
         id="g39297">
        <path
           style="clip-rule:evenodd;fill:none;stroke:#ffffff"
           inkscape:connector-curvature="0"
           d="m -707.733,-2044.7278 h -36.51968 c -1.73377,0 -3.13932,1.2204 -3.13932,2.7258 v 63.419 c 0,1.5053 1.40555,2.7259 3.13932,2.7259 h 73.03917 c 1.73378,0 3.13932,-1.2206 3.13932,-2.7259 v -63.419 c 0,-1.5054 -1.40554,-2.7258 -3.13932,-2.7258 z"
           id="path5911" />
        <g
           id="g5913"
           transform="matrix(0.1744065,0,0,0.15143463,-746.69437,-2044.7278)">
          <path
             style="clip-rule:evenodd;fill:#ffffff;fill-rule:evenodd"
             inkscape:connector-curvature="0"
             d="m 168.664,385.64099 v -145.944 c -8.531,9.72 -16.308,17.71201 -23.867,24.40701 -7.597,6.624 -13.248,12.06101 -21.133,15.19199 -8.064,3.13202 -19.296,6.11999 -26.064002,3.276 -6.767998,-3.09698 -11.087997,-8.85599 -14.074997,-21.168 -2.952003,-12.52798 -3.528,-37.009 -3.816002,-52.63199 -0.468002,-15.73201 -3.490997,-32.40001 1.620003,-40.141 5.147995,-7.704 23.111998,-9.144 28.763998,-5.43599 5.508,3.74399 3.24,16.01999 4.32,27.68399 1.008,11.69999 1.512,25.34401 1.656,41.76001 5.939,-6.12 12.132,-12.13201 18.972,-18.43201 6.841,-6.336 12.78,-15.15601 21.70799,-18.97301 8.82001,-3.81498 19.90801,-5.03999 30.92401,-3.81498 10.98,1.224 22.82399,10.61999 34.164,10.836 11.232,-0.036 22.60801,-7.16401 32.57999,-10.29601 9.72,-3.09599 15.66001,4.104 26.02802,-8.136 10.40399,-12.456 25.84799,-47.664 35.78399,-65.62799 9.72,-18.108 14.57999,-35.280008 22.788,-41.796007 8.17199,-6.372002 22.5,-2.736 26.06299,3.276001 3.34802,5.832001 4.35601,10.944 -5.43598,32.003996 -9.97302,21.204 -39.78,72.756 -53.17203,93.853 -13.42898,20.808 -22.10397,31.067 -26.56799,30.92399 v 149.18403 c -37.07999,9.7e-4 -74.15999,9.7e-4 -111.23999,9.7e-4 z"
             id="path5915" />
          <path
             style="clip-rule:evenodd;fill:#ffffff;fill-rule:evenodd"
             inkscape:connector-curvature="0"
             d="m 228.39999,92.633003 c 23.94501,0 43.38001,19.434987 43.38001,43.379997 0,23.946 -19.435,43.38001 -43.38001,43.38001 -23.94499,0 -43.38099,-19.43502 -43.38099,-43.38001 0.001,-23.946 19.436,-43.379997 43.38099,-43.379997"
             id="path5917" />
          <path
             style="clip-rule:evenodd;fill:#ffffff;fill-rule:evenodd"
             inkscape:connector-curvature="0"
             d="M 56.380997,174.60899 V 182.205 H 127.444 v -7.59601 z"
             id="path5919" />
          <path
             style="clip-rule:evenodd;fill:#ffffff;fill-rule:evenodd"
             inkscape:connector-curvature="0"
             d="m 130.36,152.901 c -4.89599,0 -8.892,3.95999 -8.892,8.856 0,10.728 0,21.456 0,32.18399 0,4.89601 3.99601,8.85601 8.892,8.85601 1.29601,0 2.62801,0 3.924,0 4.933,0 8.89199,-3.95999 8.89199,-8.85601 0,-10.72799 0,-21.45599 0,-32.18399 0,-4.89601 -3.959,-8.856 -8.89199,-8.856 -1.29599,0 -2.62799,0 -3.924,0 z"
             id="path5921" />
          <path
             style="clip-rule:evenodd;fill:#ffffff;fill-rule:evenodd"
             inkscape:connector-curvature="0"
             d="m 59.296997,152.901 c -4.895996,0 -8.893005,3.95999 -8.893005,8.856 0,10.728 0,21.456 0,32.18399 0,4.89601 3.996002,8.85601 8.893005,8.85601 1.295013,0 2.627014,0 3.959,0 4.896004,0 8.856003,-3.95999 8.856003,-8.85601 0,-10.72799 0,-21.45599 0,-32.18399 0,-4.89601 -3.959999,-8.856 -8.856003,-8.856 -1.331985,0 -2.663986,0 -3.959,0 z"
             id="path5923" />
          <path
             style="clip-rule:evenodd;fill:#ffffff;fill-rule:evenodd"
             inkscape:connector-curvature="0"
             d="m 313.23999,73.700996 -3.02399,6.984001 65.26898,28.115993 3.02301,-6.98399 z"
             id="path5925" />
          <path
             style="clip-rule:evenodd;fill:#ffffff;fill-rule:evenodd"
             inkscape:connector-curvature="0"
             d="m 389.73999,83.025002 c -4.5,-1.944 -9.72,0.143997 -11.664,4.643997 -4.21198,9.864006 -8.45999,19.691991 -12.70798,29.556011 -1.944,4.5 0.14398,9.72 4.64398,11.664 1.18802,0.504 2.41202,1.04399 3.637,1.54799 4.5,1.944 9.72,-0.144 11.62802,-4.644 4.24798,-9.828 8.496,-19.692 12.74399,-29.520005 1.94299,-4.499992 -0.14499,-9.719994 -4.64499,-11.663994 -1.18802,-0.540001 -2.41202,-1.043999 -3.63602,-1.584 z"
             id="path5927" />
          <path
             style="clip-rule:evenodd;fill:#ffffff;fill-rule:evenodd"
             inkscape:connector-curvature="0"
             d="m 324.47299,54.908997 c -4.5,-1.907997 -9.72098,0.144005 -11.664,4.644005 -4.212,9.863998 -8.45999,19.692001 -12.70798,29.556 -1.944,4.5 0.14399,9.719994 4.64399,11.663998 1.18801,0.50399 2.41201,1.044 3.63601,1.548 4.5,1.944 9.72098,-0.144 11.62799,-4.643997 4.24799,-9.828003 8.49601,-19.692001 12.74399,-29.520004 1.944,-4.5 -0.14398,-9.720001 -4.64398,-11.664001 -1.189,-0.503998 -2.41299,-1.043999 -3.63602,-1.584001 z"
             id="path5929" />
          <path
             style="clip-rule:evenodd;fill:#ffffff;fill-rule:evenodd"
             inkscape:connector-curvature="0"
             d="m 167.297,381.42899 v -145.944 c -8.461,9.68402 -16.381,17.78302 -23.90399,24.44302 -7.56101,6.552 -13.35601,12.02399 -21.13301,15.15601 -8.063,3.13198 -19.295,6.11999 -26.063002,3.27597 C 89.428001,275.263 85.109001,269.504 82.121002,257.19199 79.168999,244.664 78.593002,220.183 78.306,204.55901 77.836998,188.828 74.814003,172.16 79.925003,164.41901 85.072998,156.715 103.037,155.275 108.689,158.983 c 5.473,3.74401 3.313,16.02001 4.357,27.68401 0.936,11.7 1.475,25.34399 1.619,41.75999 5.939,-6.11999 12.133,-12.132 18.973,-18.432 6.84,-6.336 12.77901,-15.15599 21.707,-18.972 8.81999,-3.816 19.90801,-5.04 30.924,-3.816 10.97999,1.224 22.824,10.62 34.164,10.836 11.23199,-0.036 22.608,-7.164 32.58,-10.296 9.72101,-3.096 15.66,4.104 26.02799,-8.13601 10.40402,-12.45599 25.84903,-47.66398 35.78402,-65.62799 9.72,-18.107998 14.57999,-35.279995 22.788,-41.796001 8.17199,-6.371994 22.5,-2.736 26.06298,3.276001 3.349,5.832001 4.35602,10.944 -5.436,32.004 -9.97199,21.20401 -39.78,72.75601 -53.172,93.852 -13.42798,20.80901 -22.104,31.068 -26.56799,30.92499 v 149.18402 c -37.04401,9.8e-4 -74.12399,9.8e-4 -111.203,9.8e-4 z"
             id="path5931" />
          <path
             style="clip-rule:evenodd;fill:#ffffff;fill-rule:evenodd"
             inkscape:connector-curvature="0"
             d="m 226.96001,88.397003 c 23.946,0 43.37999,19.449997 43.37999,43.415997 0,23.965 -19.43399,43.416 -43.37999,43.416 -23.94501,0 -43.38001,-19.451 -43.38001,-43.416 0,-23.966 19.435,-43.415997 43.38001,-43.415997"
             id="path5933" />
          <path
             style="clip-rule:evenodd;fill:#ffffff;fill-rule:evenodd"
             inkscape:connector-curvature="0"
             d="m 54.977005,170.397 v 7.596 h 71.062985 v -7.596 z"
             id="path5935" />
          <path
             style="clip-rule:evenodd;fill:#ffffff;fill-rule:evenodd"
             inkscape:connector-curvature="0"
             d="m 128.95599,148.68899 c -4.89599,0 -8.89199,3.96001 -8.89199,8.85601 0,10.72799 0,21.45601 0,32.184 0,4.896 3.996,8.892 8.89199,8.892 1.29601,0 2.62801,0 3.96001,0 4.896,0 8.856,-3.996 8.856,-8.892 0,-10.72799 0,-21.45601 0,-32.184 0,-4.896 -3.96,-8.85601 -8.856,-8.85601 -1.332,0 -2.664,0 -3.96001,0 z"
             id="path5937" />
          <path
             style="clip-rule:evenodd;fill:#ffffff;fill-rule:evenodd"
             inkscape:connector-curvature="0"
             d="M 57.893005,148.68899 C 52.997009,148.68899 49,152.649 49,157.545 c 0,10.72799 0,21.45601 0,32.184 0,4.896 3.996002,8.892 8.893005,8.892 1.294998,0 2.626984,0 3.958984,0 4.896011,0 8.85601,-3.996 8.85601,-8.892 0,-10.72799 0,-21.45601 0,-32.184 0,-4.896 -3.959999,-8.85601 -8.85601,-8.85601 -1.332001,0 -2.663986,0 -3.958984,0 z"
             id="path5939" />
          <path
             style="clip-rule:evenodd;fill:#ffffff;fill-rule:evenodd"
             inkscape:connector-curvature="0"
             d="m 311.836,69.488998 -3.02301,6.984001 65.268,28.116001 3.02402,-6.984005 z"
             id="path5941" />
          <path
             style="clip-rule:evenodd;fill:#ffffff;fill-rule:evenodd"
             inkscape:connector-curvature="0"
             d="m 388.336,78.813004 c -4.5,-1.908005 -9.72,0.143997 -11.664,4.643997 -4.21201,9.863998 -8.45999,19.691999 -12.70801,29.555999 -1.94299,4.5 0.14502,9.72 4.64502,11.664 1.18799,0.504 2.41199,1.04399 3.63599,1.54801 4.5,1.944 9.72,-0.14402 11.62799,-4.64402 4.24801,-9.82798 8.496,-19.69198 12.74402,-29.519993 1.944,-4.5 -0.14402,-9.719994 -4.64402,-11.663994 -1.18899,-0.540001 -2.41198,-1.044006 -3.63699,-1.583999 z"
             id="path5943" />
          <path
             style="clip-rule:evenodd;fill:#ffffff;fill-rule:evenodd"
             inkscape:connector-curvature="0"
             d="m 323.06799,50.733002 c -4.5,-1.944 -9.72,0.108002 -11.664,4.608002 -4.212,9.863998 -8.45999,19.691994 -12.70798,29.556 -1.944,4.5 0.14399,9.719994 4.64399,11.664001 1.18802,0.503998 2.41201,1.043991 3.63699,1.547989 4.5,1.943996 9.72,-0.143997 11.62802,-4.607994 4.24799,-9.863998 8.496,-19.727997 12.74399,-29.556 1.94299,-4.5 -0.14499,-9.720001 -4.64499,-11.664001 -1.18701,-0.503998 -2.41202,-1.043999 -3.63602,-1.547997 z"
             id="path5945" />
        </g>
      </g>
      <g
         transform="matrix(4.8188302,0,0,4.909545,-1417.6415,-2167.8129)"
         id="g6530">
        <text
           xml:space="preserve"
           x="74.403564"
           y="16.654249"
           style="font-style:normal;font-weight:bold;font-size:17.55084038px;line-height:0%;font-family:Calibri;text-align:start;text-anchor:start;fill:#ffffff"
           id="text6532">Servios</text>
        <text
           xml:space="preserve"
           x="133.95642"
           y="16.654249"
           style="font-style:normal;font-weight:bold;font-size:13.80066109px;font-family:Calibri;text-align:start;text-anchor:start;fill:#ffffff"
           id="text6534" />
        <text
           xml:space="preserve"
           x="78.753777"
           y="36.309265"
           style="font-style:normal;font-weight:normal;font-size:13.80066109px;line-height:0%;font-family:Calibri;text-align:start;text-anchor:start;fill:#ffffff"
           id="text6536">Academia</text>
        <text
           xml:space="preserve"
           x="133.95642"
           y="36.309265"
           style="font-style:normal;font-weight:normal;font-size:13.80066109px;font-family:Calibri;text-align:start;text-anchor:start;fill:#ffffff"
           id="text6538" />
        <text
           xml:space="preserve"
           x="54.90263"
           y="55.064049"
           style="font-style:normal;font-weight:normal;font-size:13.80066109px;line-height:0%;font-family:Calibri;text-align:start;text-anchor:start;fill:#ffffff"
           id="text6540">Acessibilidade</text>
        <text
           xml:space="preserve"
           x="133.95642"
           y="55.064049"
           style="font-style:normal;font-weight:normal;font-size:13.80066109px;font-family:Calibri;text-align:start;text-anchor:start;fill:#ffffff"
           id="text6542" />
        <text
           xml:space="preserve"
           x="115.05551"
           y="73.818832"
           style="font-style:normal;font-weight:normal;font-size:13.80066109px;line-height:0%;font-family:Calibri;text-align:start;text-anchor:start;fill:#ffffff"
           id="text6544">Bar</text>
        <text
           xml:space="preserve"
           x="133.95642"
           y="73.818832"
           style="font-style:normal;font-weight:normal;font-size:13.80066109px;font-family:Calibri;text-align:start;text-anchor:start;fill:#ffffff"
           id="text6546" />
        <text
           xml:space="preserve"
           x="48.152306"
           y="92.573624"
           style="font-style:normal;font-weight:normal;font-size:13.80066109px;line-height:0%;font-family:Calibri;text-align:start;text-anchor:start;fill:#ffffff"
           id="text6548">Caf</text>
        <text
           xml:space="preserve"
           x="73.203506"
           y="92.573624"
           style="font-style:normal;font-weight:normal;font-size:13.80066109px;line-height:0%;font-family:Calibri;text-align:start;text-anchor:start;fill:#ffffff"
           id="text6550">-</text>
        <text
           xml:space="preserve"
           x="77.403709"
           y="92.573624"
           style="font-style:normal;font-weight:normal;font-size:13.80066109px;line-height:0%;font-family:Calibri;text-align:start;text-anchor:start;fill:#ffffff"
           id="text6552">da</text>
        <text
           xml:space="preserve"
           x="91.204369"
           y="92.573624"
           style="font-style:normal;font-weight:normal;font-size:13.80066109px;line-height:0%;font-family:Calibri;text-align:start;text-anchor:start;fill:#ffffff"
           id="text6554">-</text>
        <text
           xml:space="preserve"
           x="95.404572"
           y="92.573624"
           style="font-style:normal;font-weight:normal;font-size:13.80066109px;line-height:0%;font-family:Calibri;text-align:start;text-anchor:start;fill:#ffffff"
           id="text6556">manh</text>
        <text
           xml:space="preserve"
           x="133.95642"
           y="92.573624"
           style="font-style:normal;font-weight:normal;font-size:13.80066109px;font-family:Calibri;text-align:start;text-anchor:start;fill:#ffffff"
           id="text6558" />
        <text
           xml:space="preserve"
           x="82.953972"
           y="111.32841"
           style="font-style:normal;font-weight:normal;font-size:13.80066109px;line-height:0%;font-family:Calibri;text-align:start;text-anchor:start;fill:#ffffff"
           id="text6560">Garagem</text>
        <text
           xml:space="preserve"
           x="133.95642"
           y="111.32841"
           style="font-style:normal;font-weight:normal;font-size:13.80066109px;font-family:Calibri;text-align:start;text-anchor:start;fill:#ffffff"
           id="text6562" />
        <text
           xml:space="preserve"
           x="95.404572"
           y="130.08319"
           style="font-style:normal;font-weight:normal;font-size:13.80066109px;line-height:0%;font-family:Calibri;text-align:start;text-anchor:start;fill:#ffffff"
           id="text6564">Lareira</text>
        <text
           xml:space="preserve"
           x="133.95642"
           y="130.08319"
           style="font-style:normal;font-weight:normal;font-size:13.80066109px;font-family:Calibri;text-align:start;text-anchor:start;fill:#ffffff"
           id="text6566" />
        <text
           xml:space="preserve"
           x="95.554581"
           y="148.83798"
           style="font-style:normal;font-weight:normal;font-size:13.80066109px;line-height:0%;font-family:Calibri;text-align:start;text-anchor:start;fill:#ffffff"
           id="text6568">Piscina</text>
        <text
           xml:space="preserve"
           x="133.95642"
           y="148.83798"
           style="font-style:normal;font-weight:normal;font-size:13.80066109px;font-family:Calibri;text-align:start;text-anchor:start;fill:#ffffff"
           id="text6570" />
        <text
           xml:space="preserve"
           x="100.05479"
           y="167.59276"
           style="font-style:normal;font-weight:normal;font-size:13.80066109px;line-height:0%;font-family:Calibri;text-align:start;text-anchor:start;fill:#ffffff"
           id="text6572">Sauna</text>
        <text
           xml:space="preserve"
           x="133.95642"
           y="167.59276"
           style="font-style:normal;font-weight:normal;font-size:13.80066109px;font-family:Calibri;text-align:start;text-anchor:start;fill:#ffffff"
           id="text6574" />
        <text
           xml:space="preserve"
           x="66.153168"
           y="186.34755"
           style="font-style:normal;font-weight:normal;font-size:13.80066109px;line-height:0%;font-family:Calibri;text-align:start;text-anchor:start;fill:#ffffff"
           id="text6576">Servio 24 h</text>
        <text
           xml:space="preserve"
           x="133.95642"
           y="186.34755"
           style="font-style:normal;font-weight:normal;font-size:13.80066109px;font-family:Calibri;text-align:start;text-anchor:start;fill:#ffffff"
           id="text6578" />
        <text
           xml:space="preserve"
           x="80.403854"
           y="205.10233"
           style="font-style:normal;font-weight:normal;font-size:13.80066109px;line-height:0%;font-family:Calibri;text-align:start;text-anchor:start;fill:#ffffff"
           id="text6580">Wifi Zone</text>
        <text
           xml:space="preserve"
           x="133.95642"
           y="205.10233"
           style="font-style:normal;font-weight:normal;font-size:13.80066109px;font-family:Calibri;text-align:start;text-anchor:start;fill:#ffffff"
           id="text6582" />
        <text
           xml:space="preserve"
           x="5.400259"
           y="222.05666"
           style="font-style:normal;font-weight:normal;font-size:13.80066109px;font-family:Calibri;text-align:start;text-anchor:start;fill:#000000"
           id="text6584" />
      </g>
    </g>
  </g>
</svg>
